<svg width="702" height="711" viewBox="0 0 702 711" fill="none" xmlns="http://www.w3.org/2000/svg">
<g clip-path="url(#clip0_0_38)">
<path d="M351.008 710.984C544.865 710.984 702.016 620.206 702.016 508.227C702.016 396.247 544.865 305.47 351.008 305.47C157.152 305.47 0 396.247 0 508.227C0 620.206 157.152 710.984 351.008 710.984Z" fill="#A9D6EA" fill-opacity="0.1"/>
<path d="M617.384 88.5331C647.634 81.272 651.947 140.924 628.921 158.539C624.918 161.6 612.649 158.8 611.722 154.355C608.06 136.153 634.747 116.991 621.16 99.6852C620.169 98.9907 619.305 98.1318 618.605 97.1455C616.392 94.0848 610.029 91.0077 617.384 88.5331Z" fill="#2B0D04"/>
<path d="M500.045 202.627C500.045 202.627 486.491 209.415 479.51 207.787C472.529 206.159 463.042 201.275 466.964 199.077C470.886 196.88 481.609 197.596 482.097 194.698C482.585 191.8 475.946 192.451 479.119 190.872C482.292 189.293 488.411 188.723 499.85 194.747C500.805 195.827 501.348 197.209 501.384 198.651C501.42 200.093 500.946 201.5 500.045 202.627V202.627Z" fill="#EFB185"/>
<path d="M570.472 133.369C570.472 133.369 581.195 129.316 581.244 141.77C581.244 141.77 579.617 158.165 566.599 182.146C566.599 182.146 554.346 205.785 548.016 206.973C541.686 208.162 495.945 206.973 495.945 206.973C497.594 202.155 497.554 196.918 495.831 192.126C495.831 192.126 535.926 187.762 538.887 184.669C541.849 181.576 561.733 135.73 570.472 133.369Z" fill="#9CBC35"/>
<path d="M547.983 206.973C543.02 207.885 508.279 207.185 495.912 206.973C496.433 205.797 496.726 204.531 496.775 203.245C496.775 203.245 540.498 198.052 543.46 194.958C546.421 191.865 566.241 146.117 575.028 143.724C576.94 143.065 579 142.964 580.967 143.431C580.219 148.071 577.159 162.609 566.517 182.211C566.566 182.146 554.362 205.785 547.983 206.973Z" fill="#779F29"/>
<g opacity="0.1">
<path d="M652.223 426.841C679.137 442.389 679.284 467.624 652.532 483.171C625.781 498.719 582.301 498.703 555.387 483.171C528.473 467.64 528.31 442.47 555.046 426.874C581.781 411.277 625.309 411.293 652.223 426.841Z" fill="black"/>
</g>
<path d="M572.912 418.701C572.912 418.701 572.017 427.329 568.193 431.904C564.37 436.479 546.877 446.931 548.065 451.685C549.253 456.439 561.685 457.025 569.577 449.243C577.469 441.461 579.6 440.272 582.92 439.605C586.239 438.937 591.056 434.818 587.704 427.476C587.704 427.476 577.143 424.317 572.912 418.701Z" fill="black"/>
<path d="M568.633 223.759C568.633 223.759 554.248 294.351 562.124 333.473C562.124 333.473 565.753 364.405 567.461 372.822C569.17 381.239 568.942 427.476 568.942 427.476C568.942 427.476 581.96 433.011 588.469 426.939C588.469 426.939 596.849 379.432 587.655 349.151C587.655 349.151 598.476 291.306 598.72 272.453C598.903 260.728 599.778 249.024 601.34 237.402L568.633 223.759Z" fill="#5FB9E6"/>
<path d="M562.14 333.473C562.14 333.473 565.769 364.405 567.478 372.822C569.186 381.239 568.958 427.476 568.958 427.476C570.632 428.118 572.35 428.635 574.1 429.023C575.044 415.282 576.785 391.301 577.518 385.879C578.575 378.179 569.853 335.931 569.17 320.237C568.486 304.542 585.849 245.721 585.849 245.721L580.967 228.936L568.568 223.759C568.568 223.759 554.248 294.351 562.14 333.473Z" fill="#77D2FF"/>
<path d="M612.324 436.332C612.324 436.332 611.64 444.977 607.946 449.65C604.253 454.322 587.037 465.214 588.338 469.952C589.64 474.689 602.072 474.917 609.785 466.956C617.498 458.995 619.549 457.725 622.901 456.96C626.253 456.195 630.89 451.962 627.327 444.717C627.327 444.717 616.685 441.852 612.324 436.332Z" fill="black"/>
<path d="M627.294 246.975C627.294 246.975 641.207 266.886 634.487 307.554L631.525 356.119C631.525 356.119 640.719 371.683 634.112 418.88L627.75 447.273C627.75 447.273 619.89 453.036 611.201 441.282C611.201 441.282 611.836 371.439 608.565 360.694C606.173 352.83 595.238 319.992 590.926 288.311C589.299 276.751 571.399 257.606 572.408 247.609L627.294 246.975Z" fill="#77D2FF"/>
<path d="M627.75 447.273L634.096 418.88C640.703 371.667 631.509 356.119 631.509 356.119L634.47 307.554C641.191 266.853 627.278 246.975 627.278 246.975H625.651L610.436 256.743C610.436 256.743 625.521 333.652 624.414 353.172C623.307 372.692 628.824 395.501 628.092 407.711C627.62 415.526 624.121 435.388 621.68 448.51C623.786 448.811 625.93 448.374 627.75 447.273V447.273Z" fill="#5FB9E6"/>
<path d="M636.586 161.795C636.586 161.795 624.333 138.563 573.889 132.897C573.889 132.897 565.883 129.544 566.664 155.511C566.762 159.239 562.889 165.654 560.253 169.04C557.617 172.426 550.652 185.434 565.915 200.998C565.915 200.998 571.838 224.117 564.776 239.095C558.479 252.445 591.463 265.502 619.549 262.783C622.998 262.457 632.566 259.12 629.523 247.056C626.481 234.992 617.482 214.983 623.129 192.761C628.775 170.538 640.361 173.11 636.586 161.795Z" fill="#9CBC35"/>
<path d="M636.586 160.997C640.361 172.296 628.694 169.642 623.047 191.93C617.401 214.218 626.432 234.992 629.442 247.04C632.453 259.087 625.097 261.953 621.648 262.311C616.694 262.933 611.699 263.156 606.71 262.978C616.571 241.439 602.593 201.373 601.958 179.785C601.307 156.878 622.006 147.94 622.006 147.94C632.973 154.778 636.586 160.997 636.586 160.997Z" fill="#779F29"/>
<path d="M563.93 224.28C563.93 224.28 549.285 227.764 542.776 224.654C536.267 221.544 528.229 214.625 532.541 213.258C536.853 211.89 547.088 215.13 548.276 212.427C549.464 209.725 542.793 208.846 546.242 208.032C549.692 207.218 555.762 208.032 565.557 216.514C566.266 217.787 566.491 219.274 566.192 220.7C565.893 222.127 565.09 223.398 563.93 224.28V224.28Z" fill="#EFB185"/>
<path d="M633.705 158.279C633.705 158.279 623.063 153.801 616.734 170.147C610.404 186.493 599.745 213.876 599.745 213.876L597.06 217.556L560.692 212.281C560.692 212.281 565.46 221.626 557.438 226.608C557.438 226.608 602.023 246.828 614.976 233.299C615.041 233.348 651.995 163.423 633.705 158.279Z" fill="#779F29"/>
<path d="M560.692 212.33L597.06 217.556L599.745 213.827C599.745 213.827 610.387 186.46 616.734 170.098C622.087 156.26 630.516 157.351 633.006 158.002C631.867 179.166 609.33 221.837 609.33 221.837C600.315 231.248 576.004 224.328 562.043 219.249C562.144 216.868 561.681 214.497 560.692 212.33V212.33Z" fill="#9CBC35"/>
<path d="M577.745 122.038C577.745 122.038 585.881 133.207 580.821 144.147C579.438 147.143 575.63 159.63 595.254 155.934C595.254 155.934 616.018 147.354 610.485 140.858C606.807 136.512 603.39 130.406 610.859 110.186L577.745 122.038Z" fill="#E8A476"/>
<path d="M610.485 140.858C611.013 141.419 611.315 142.156 611.331 142.926C592.699 145.189 581.081 131.269 581.081 131.269L606.531 112.01C606.531 112.01 607.67 112.921 609.378 114.435C603.911 131.269 607.084 136.837 610.485 140.858Z" fill="#DB9669"/>
<path d="M583.75 85.684C583.75 85.684 578.461 87.0516 577.094 102.388C576.932 104.016 574.035 106.116 573.01 110.268C571.985 114.419 569.756 131.432 579.519 134.086C586.597 135.942 604.643 132.8 611.933 116.031C619.223 99.2619 606.157 75.9158 583.75 85.684Z" fill="#F1B287"/>
<path d="M602.886 118.245C602.886 118.245 606.254 109.958 610.941 112.938C612.405 113.882 613.935 115.754 611.266 119.954C608.597 124.155 603.423 127.736 599.615 126.955L602.886 118.245Z" fill="#F1B287"/>
<path d="M617.384 88.5331C620.687 87.6461 624.172 87.7082 627.441 88.7122C630.126 95.9407 628.222 101.346 624.609 106.8C624.008 104.199 622.829 101.767 621.16 99.6852C620.169 98.9907 619.305 98.1317 618.605 97.1455C616.392 94.0848 610.029 91.0077 617.384 88.5331Z" fill="#EFF3FC"/>
<path d="M584.938 78.6183C592.293 72.3666 601.21 73.7342 609.899 76.5344C617.401 78.9602 624.707 86.9051 624.918 94.2801C625.26 104.504 621.843 117.757 609.753 123.813C605.278 126.092 612.926 115.168 606.986 114.614C605.099 114.435 604.529 111.358 603.146 110.74C602.154 111.228 594.652 107.142 586.532 104.358C585.93 104.162 585.182 99.2294 584.596 99.034C584.01 98.8387 583.245 103.218 582.529 102.974C579.979 102.083 577.552 100.875 575.304 99.3759C573.547 91.8869 579.714 83.0629 584.938 78.6183Z" fill="#2B0D04"/>
<path d="M605.441 111.358C602.691 113.865 601.665 117.236 603.179 118.88C604.692 120.524 608.06 119.808 610.876 117.252C613.691 114.696 614.618 111.375 613.137 109.747C611.657 108.118 608.174 108.851 605.441 111.358Z" fill="#F1B287"/>
<path opacity="0.1" d="M316.788 565.957C282.99 585.494 282.811 617.176 316.397 636.712C349.983 656.249 404.625 656.249 438.439 636.712C472.252 617.176 472.415 585.494 438.829 565.99C405.243 546.486 350.65 546.421 316.788 565.957Z" fill="black"/>
<g opacity="0.1">
<path d="M425.096 445.531L217.429 558.387L40.6968 456.292L250.495 344.543L425.096 445.531Z" fill="black"/>
</g>
<path d="M202.915 510.571L181.028 497.824L388.141 378.179L410.044 390.91L202.915 510.571Z" fill="#BFD4DB"/>
<path d="M202.98 536.653V510.604L181.077 497.873L181.159 523.921C181.159 529.261 183.063 533.038 186.04 534.813L207.943 547.544C204.9 545.77 202.996 542.009 202.98 536.653Z" fill="#DEF6FF"/>
<path d="M202.98 536.653V510.604L410.027 390.926L410.109 416.975C410.109 427.769 402.559 440.891 393.186 446.28L220.049 546.421C210.66 551.793 203.029 547.447 202.98 536.653Z" fill="#A9D6EA"/>
<path d="M202.915 510.571L181.028 497.824L180.036 146.866L201.938 159.597L202.915 510.571Z" fill="url(#paint0_linear_0_38)"/>
<path d="M201.938 159.597L180.036 146.866L387.149 27.2209L409.051 39.9522L201.938 159.597Z" fill="#35C2DA"/>
<path d="M409.051 39.9522L410.044 390.91L202.915 510.571L201.938 159.597L409.051 39.9522Z" fill="url(#paint1_linear_0_38)"/>
<path d="M348.079 64.1613L326.177 51.4951C326.683 51.2001 327.149 50.8387 327.56 50.4206L349.462 63.1519C349.055 63.5747 348.589 63.9366 348.079 64.2264V64.1613Z" fill="#B2C5CC"/>
<path d="M349.462 63.0868L327.56 50.3554C327.715 50.206 327.861 50.0484 327.999 49.8833L349.902 62.6146L349.462 63.0868V63.0868Z" fill="#ADC0C7"/>
<path d="M349.902 62.6146L327.999 49.867C328.123 49.7396 328.237 49.6036 328.341 49.46L350.243 62.1913C350.139 62.3349 350.025 62.4709 349.902 62.5983V62.6146Z" fill="#A9BBC2"/>
<path d="M350.243 62.2076L328.341 49.4763C328.439 49.346 328.536 49.2321 328.618 49.1018L350.52 61.8332C350.52 61.9634 350.341 62.0774 350.243 62.2076Z" fill="#A4B6BD"/>
<path d="M350.52 61.8332L328.618 49.1019L328.862 48.7437L350.764 61.475L350.52 61.8332Z" fill="#A0B1B8"/>
<path d="M350.764 61.475L328.862 48.7437L329.073 48.4018L350.959 61.1331C350.895 61.2506 350.824 61.3648 350.748 61.475H350.764Z" fill="#9BACB3"/>
<path d="M350.959 61.1331L329.073 48.4018L329.268 48.0599L351.155 60.7912L350.976 61.1331H350.959Z" fill="#97A7AD"/>
<path d="M351.155 60.7912L329.268 48.0599L329.431 47.7017L351.334 60.433C351.28 60.5556 351.221 60.6752 351.155 60.7912V60.7912Z" fill="#93A2A8"/>
<path d="M351.334 60.433L329.431 47.7017C329.431 47.5715 329.545 47.4575 329.61 47.3435L351.513 60.0749C351.513 60.1888 351.399 60.3191 351.334 60.433V60.433Z" fill="#8E9DA3"/>
<path d="M351.513 60.0749L329.61 47.3436L329.757 46.9691L351.659 59.6353L351.513 60.0098V60.0749Z" fill="#8A999E"/>
<path d="M351.659 59.6353L329.805 46.9691L329.952 46.5784L351.854 59.3097L351.708 59.7004L351.659 59.6353Z" fill="#859499"/>
<path d="M351.805 59.3097L329.903 46.6109C329.903 46.4807 329.984 46.3342 330.033 46.1877L351.919 58.919L351.805 59.3423V59.3097Z" fill="#818F94"/>
<path d="M351.919 58.8864L330.033 46.1551C330.033 46.0086 330.033 45.8295 330.131 45.6667L352.033 58.4143C352.033 58.5771 352.033 58.7236 351.919 58.8864V58.8864Z" fill="#7C8A8F"/>
<path d="M352.033 58.4143L330.131 45.6667C330.194 45.4826 330.232 45.291 330.245 45.0969L352.147 57.8282C352.147 58.0235 352.147 58.2189 352.033 58.4143V58.4143Z" fill="#78858A"/>
<path d="M352.147 57.8282L330.245 45.0969C330.26 44.8257 330.26 44.5539 330.245 44.2828C330.298 43.7733 330.214 43.2589 330.003 42.7924C329.791 42.326 329.459 41.9244 329.041 41.6291L350.959 54.3604C351.378 54.6558 351.71 55.0573 351.921 55.5238C352.133 55.9902 352.217 56.5047 352.163 57.0141C352.179 57.2853 352.179 57.5571 352.163 57.8282H352.147Z" fill="#738085"/>
<path d="M348.047 54.6535L326.16 41.9222L326.73 41.6291L348.632 54.3604L348.047 54.6535Z" fill="#32B5CA"/>
<path d="M348.632 54.3604L326.73 41.6291C326.889 41.5506 327.059 41.4957 327.234 41.4663L349.121 54.1976C348.953 54.2371 348.79 54.2916 348.632 54.3604Z" fill="#30B0C5"/>
<path d="M349.121 54.1977L327.234 41.4663C327.353 41.4496 327.474 41.4496 327.592 41.4663L349.479 54.1977C349.36 54.1845 349.24 54.1845 349.121 54.1977V54.1977Z" fill="#2FACC0"/>
<path d="M349.479 54.1162L327.592 41.3849H327.885L349.788 54.1162H349.479V54.1162Z" fill="#2EA7BB"/>
<path d="M349.788 54.0837L327.885 41.3524H328.178L350.081 54.0837H349.788Z" fill="#2DA3B6"/>
<path d="M350.064 54.0837L328.178 41.3524H328.439L350.341 54.0837H350.081H350.064Z" fill="#2B9EB1"/>
<path d="M350.325 54.1162L328.422 41.3849H328.65L350.553 54.1162H350.325V54.1162Z" fill="#2A9AAC"/>
<path d="M350.553 54.1651L328.65 41.4338L328.862 41.5152L350.764 54.2465H350.553V54.1651Z" fill="#2995A7"/>
<path d="M350.764 54.2465L328.862 41.5152L329.073 41.6128L350.959 54.3442L350.748 54.2465H350.764Z" fill="#2891A2"/>
<path d="M350.959 54.3442L329.057 41.6129L350.959 54.3605V54.3442Z" fill="#268C9D"/>
<path d="M258.81 115.721L236.907 102.99L326.193 51.43L348.095 64.1613L258.81 115.721Z" fill="#BFD4DB"/>
<path d="M255.848 116.031L233.962 103.283L255.864 116.015L255.848 116.031Z" fill="#8A999E"/>
<path d="M255.881 116.031L233.978 103.299L234.174 103.413L256.076 116.145L255.881 116.031V116.031Z" fill="#8E9DA3"/>
<path d="M256.076 116.145L234.174 103.413H234.401L256.304 116.161L256.076 116.08V116.145Z" fill="#93A2A8"/>
<path d="M256.304 116.226L234.401 103.479H234.629L256.58 116.275H256.353L256.304 116.226Z" fill="#97A7AD"/>
<path d="M256.58 116.275L234.629 103.593H234.873L256.776 116.34H256.532L256.58 116.275Z" fill="#9BACB3"/>
<path d="M256.776 116.308L234.873 103.593H235.15L257.052 116.34L256.776 116.308Z" fill="#A0B1B8"/>
<path d="M257.052 116.308L235.15 103.593H235.427L257.329 116.324H257.02L257.052 116.308Z" fill="#A4B6BD"/>
<path d="M257.361 116.275L235.427 103.593H235.801L257.687 116.324L257.329 116.405L257.361 116.275Z" fill="#A9BBC2"/>
<path d="M257.719 116.194L235.833 103.462L236.305 103.283L258.208 116.031C258.05 116.1 257.887 116.154 257.719 116.194V116.194Z" fill="#ADC0C7"/>
<path d="M258.208 116.031L236.305 103.283L236.907 103.006L258.81 115.721C258.618 115.841 258.416 115.944 258.208 116.031V116.031Z" fill="#B2C5CC"/>
<path d="M258.777 106.214L236.891 93.4824L326.16 41.9222L348.063 54.6535L258.777 106.214Z" fill="#35C2DA"/>
<path d="M255.848 116.031L233.962 103.283C233.543 102.987 233.21 102.586 232.995 102.12C232.781 101.654 232.694 101.14 232.742 100.629C232.742 100.353 232.742 100.092 232.742 99.8155L254.644 112.547C254.644 112.824 254.644 113.1 254.644 113.345C254.595 113.858 254.68 114.376 254.891 114.847C255.102 115.318 255.432 115.726 255.848 116.031V116.031Z" fill="#207684"/>
<path d="M254.693 112.547L232.79 99.8155C232.79 99.6201 232.79 99.4247 232.904 99.2457L254.807 111.977C254.807 112.156 254.807 112.351 254.693 112.547Z" fill="#217A89"/>
<path d="M254.807 111.977L232.904 99.2456C232.904 99.0828 232.904 98.9363 233.018 98.7735L254.953 111.505C254.953 111.668 254.953 111.83 254.839 111.977H254.807Z" fill="#237F8E"/>
<path d="M254.953 111.505L233.018 98.7084C233.052 98.5645 233.095 98.4231 233.148 98.2851L255.051 111.016C255 111.155 254.957 111.296 254.921 111.44L254.953 111.505Z" fill="#248393"/>
<path d="M255.051 111.082L233.148 98.3502C233.184 98.2176 233.228 98.0872 233.279 97.9595L255.181 110.707C255.128 110.828 255.084 110.953 255.051 111.082V111.082Z" fill="#258898"/>
<path d="M255.181 110.707L233.279 97.9595C233.279 97.8455 233.376 97.7153 233.441 97.585L255.327 110.333L255.181 110.707V110.707Z" fill="#268C9D"/>
<path d="M255.327 110.333L233.441 97.585L233.588 97.2269L255.49 109.958C255.443 110.086 255.388 110.211 255.327 110.333V110.333Z" fill="#2891A2"/>
<path d="M255.49 109.958L233.588 97.2269C233.654 97.1163 233.713 97.0022 233.767 96.885L255.669 109.616C255.619 109.735 255.559 109.85 255.49 109.958V109.958Z" fill="#2995A7"/>
<path d="M255.669 109.616L233.799 96.885L233.995 96.5431L255.897 109.274L255.702 109.616H255.669Z" fill="#2A9AAC"/>
<path d="M255.864 109.274L233.962 96.5431L234.174 96.2012L256.076 108.933L255.864 109.274Z" fill="#2B9EB1"/>
<path d="M256.076 108.933L234.174 96.2012L234.418 95.843L256.32 108.574C256.231 108.688 256.15 108.808 256.076 108.933V108.933Z" fill="#2DA3B6"/>
<path d="M256.32 108.574L234.418 95.843L234.694 95.4523L256.58 108.2C256.483 108.33 256.385 108.444 256.304 108.574H256.32Z" fill="#2EA7BB"/>
<path d="M256.58 108.184L234.694 95.4523L235.02 95.0616L256.922 107.793L256.597 108.2L256.58 108.184Z" fill="#2FACC0"/>
<path d="M256.922 107.793L235.02 95.0616L235.475 94.5569L257.378 107.304C257.214 107.455 257.061 107.619 256.922 107.793V107.793Z" fill="#30B0C5"/>
<path d="M257.378 107.304L235.427 94.5569C235.851 94.1471 236.32 93.7866 236.826 93.4824L258.728 106.23C258.215 106.523 257.745 106.884 257.329 107.304H257.378Z" fill="#32B5CA"/>
<path d="M348.047 54.6535C350.341 53.3348 352.18 54.3767 352.196 57.0141C352.126 58.4469 351.716 59.8424 351 61.0852C350.284 62.328 349.283 63.3824 348.079 64.1613L258.81 115.721C256.499 117.056 254.66 115.998 254.644 113.345C254.721 111.916 255.136 110.526 255.854 109.289C256.573 108.052 257.574 107.004 258.777 106.23L348.047 54.6535Z" fill="#30AFC4"/>
<path d="M391.965 15.0594C401.338 9.63803 408.97 14.0175 408.986 24.8277V40.0011L201.922 159.597V144.44C201.922 133.646 209.472 120.492 218.861 115.135L391.965 15.0594ZM348.03 64.1613C349.234 63.3824 350.236 62.328 350.952 61.0852C351.667 59.8424 352.077 58.4469 352.147 57.0142C352.147 54.3767 350.292 53.3348 347.998 54.6535L258.728 106.23C257.526 107.004 256.524 108.052 255.805 109.289C255.087 110.526 254.672 111.916 254.595 113.345C254.595 115.998 256.45 117.056 258.761 115.721L348.03 64.1613Z" fill="#A9D6EA"/>
<path d="M394.748 13.7407C395.155 13.5779 395.561 13.4314 395.952 13.3174L396.701 13.1058L397.416 12.943L398.295 12.8127H398.816C399.174 12.8127 399.548 12.8127 399.906 12.8127H400.15C400.571 12.8419 400.989 12.8963 401.403 12.9755H401.712C402.022 12.9755 402.331 13.1383 402.64 13.236L402.933 13.35C403.312 13.4961 403.676 13.6759 404.023 13.8872L382.137 1.13964H382.039C381.761 0.98451 381.473 0.848523 381.177 0.732632H381.03L380.737 0.618669L380.298 0.472145L379.81 0.358182H379.501H379.338C378.996 0.358182 378.655 0.260497 378.313 0.227936H377.987C377.727 0.227936 377.45 0.227936 377.19 0.227936H376.914H376.409H375.921C375.778 0.251038 375.636 0.283673 375.498 0.325621L374.814 0.472145C374.684 0.464323 374.554 0.464323 374.424 0.472145L374.05 0.602392C373.643 0.716355 373.252 0.862879 372.845 1.0094C372.707 1.04837 372.571 1.09734 372.439 1.15593C372.364 1.20696 372.282 1.24545 372.195 1.26989C371.465 1.58885 370.753 1.94756 370.063 2.3444L196.926 102.339C196.008 102.889 195.122 103.492 194.274 104.146L193.851 104.472C193.021 105.123 192.224 105.823 191.443 106.572L191.247 106.751C191.134 106.865 191.02 107.011 190.889 107.125L189.75 108.346L189.392 108.721L189.116 109.079L188.432 109.893C188.302 110.072 188.156 110.235 188.009 110.414L187.684 110.87L187.212 111.505C187.114 111.651 186.984 111.782 186.886 111.944L186.349 112.742L186.04 113.214L185.91 113.41C185.601 113.882 185.308 114.37 185.015 114.842V114.973C184.978 115.052 184.934 115.128 184.885 115.2C184.673 115.559 184.478 115.933 184.283 116.308L184.039 116.78C183.941 116.943 183.876 117.122 183.778 117.284C183.681 117.447 183.632 117.594 183.551 117.74C183.469 117.887 183.176 118.522 183.014 118.912C183.014 119.01 182.932 119.075 182.9 119.173C182.867 119.271 182.9 119.173 182.9 119.173C182.688 119.678 182.477 120.182 182.281 120.703C182.281 120.801 182.281 120.882 182.168 120.98C182.117 121.169 182.052 121.354 181.972 121.534C181.891 121.794 181.793 122.055 181.712 122.299C181.631 122.543 181.582 122.706 181.533 122.901C181.484 123.097 181.386 123.357 181.321 123.601L181.175 124.041C181.175 124.285 181.045 124.545 180.996 124.806C180.947 125.066 180.833 125.392 180.768 125.685C180.703 125.978 180.768 125.897 180.768 125.994C180.768 126.092 180.768 126.401 180.654 126.597C180.573 127.053 180.491 127.509 180.426 127.964C180.426 128.095 180.426 128.209 180.426 128.339C180.418 128.458 180.418 128.578 180.426 128.697C180.29 129.679 180.225 130.669 180.231 131.66V146.833L202.134 159.565V144.408C202.129 143.412 202.189 142.417 202.313 141.428L202.41 140.696C202.41 140.24 202.557 139.784 202.638 139.344C202.719 138.905 202.752 138.726 202.817 138.416C202.882 138.107 202.963 137.83 203.029 137.537C203.094 137.244 203.24 136.74 203.354 136.333C203.468 135.926 203.5 135.86 203.582 135.6L204.021 134.281L204.216 133.711C204.46 133.076 204.705 132.474 204.981 131.855L205.095 131.562L205.844 129.934C205.946 129.755 206.038 129.57 206.12 129.381C206.364 128.892 206.641 128.404 206.901 127.932L207.113 127.557C207.455 126.971 207.813 126.401 208.171 125.832L208.512 125.327L209.342 124.122C209.505 123.911 209.651 123.699 209.83 123.487C210.009 123.276 210.335 122.836 210.595 122.494L211.246 121.696L211.913 120.964C212.271 120.54 212.645 120.15 213.036 119.743L213.589 119.189C214.37 118.44 215.216 117.74 215.981 117.089C216.126 116.971 216.279 116.863 216.437 116.763C217.275 116.109 218.156 115.511 219.073 114.973L391.965 15.0594C392.658 14.6709 393.369 14.3178 394.097 14.0012L394.748 13.7407Z" fill="#DEF6FF"/>
<path d="M486.474 187.339L481.463 184.425V188.642L486.474 191.572V187.339Z" fill="#ABBEC5"/>
<path d="M486.442 176.366L481.43 173.452L481.446 177.685L486.458 180.599L486.442 176.366Z" fill="#ABBEC5"/>
<path d="M486.409 164.856L481.397 161.942L481.414 166.175L486.409 169.105V164.856Z" fill="#ABBEC5"/>
<path d="M486.474 191.572L481.463 188.642L355.288 261.545L360.3 264.443L486.474 191.572Z" fill="#BFD4DC"/>
<path d="M486.474 187.339L481.463 184.425L355.271 257.313L360.283 260.227L486.474 187.339Z" fill="#36A0B7"/>
<path d="M360.283 260.227L355.271 257.313L355.288 261.545L360.3 264.443L360.283 260.227Z" fill="#3190A4"/>
<path d="M486.458 180.599L481.446 177.685L355.255 250.572L360.267 253.487L486.458 180.599Z" fill="#BFD4DC"/>
<path d="M486.442 176.366L481.43 173.452L355.239 246.34L360.267 249.254L486.442 176.366Z" fill="#36A0B7"/>
<path d="M360.267 249.254L355.239 246.34L355.255 250.572L360.267 253.487V249.254Z" fill="#3190A4"/>
<path d="M486.409 169.105L481.414 166.175L355.223 239.062L360.235 241.976L486.409 169.105Z" fill="#BFD4DC"/>
<path d="M360.218 237.743L355.223 234.829V239.062L360.235 241.976L360.218 237.743Z" fill="#3190A4"/>
<path d="M360.218 237.743L360.234 241.976L486.409 169.105V164.856L360.218 237.743Z" fill="#3FBAD4"/>
<path d="M486.409 164.856L481.397 161.942L355.223 234.829L360.218 237.743L486.409 164.856Z" fill="#36A0B7"/>
<path d="M485.384 155.234C490.038 152.548 493.797 154.697 493.829 160.118L493.911 188.007C493.758 190.919 492.918 193.754 491.458 196.278C489.999 198.803 487.962 200.945 485.514 202.529L381.047 262.88L353.53 304.396L353.302 270.207C353.253 269.894 353.22 269.579 353.205 269.262V241.341C353.363 238.43 354.205 235.598 355.664 233.074C357.123 230.55 359.158 228.407 361.601 226.819L485.384 155.234ZM360.234 241.976L486.409 169.089V164.856L360.234 237.743V241.976ZM360.234 264.443L486.474 191.507V187.274L360.3 260.162V264.395L360.234 264.443ZM360.234 253.47L486.409 180.599V176.366L360.234 249.237V253.47Z" fill="#F8F9FD"/>
<path d="M360.283 260.227L360.3 264.443L486.474 191.572V187.339L360.283 260.227Z" fill="#3FBAD4"/>
<path d="M360.267 249.254V253.487L486.458 180.599L486.442 176.366L360.267 249.254Z" fill="#3FBAD4"/>
<path d="M375.172 152.89L369.835 149.796L369.851 154.306L375.189 157.399L375.172 152.89Z" fill="#ABBEC5"/>
<path d="M375.14 141.233L369.803 138.123L369.819 142.633L375.14 145.726V141.233Z" fill="#ABBEC5"/>
<path d="M375.091 128.99L369.77 125.864L369.786 130.39L375.107 133.483L375.091 128.99Z" fill="#ABBEC5"/>
<path d="M375.189 157.399L369.851 154.306L235.54 231.882L240.878 234.976L375.189 157.399Z" fill="#BFD4DC"/>
<path d="M375.172 152.89L369.835 149.796L235.524 227.373L240.861 230.466L375.172 152.89Z" fill="#36A0B7"/>
<path d="M240.861 230.466L240.878 234.976L375.189 157.399L375.172 152.89L240.861 230.466Z" fill="#3FBAD4"/>
<path d="M240.861 230.466L235.524 227.373L235.54 231.883L240.878 234.976L240.861 230.466Z" fill="#3190A4"/>
<path d="M375.14 145.726L369.819 142.633L235.508 220.209L240.845 223.319L375.14 145.726Z" fill="#BFD4DC"/>
<path d="M375.14 141.233L369.803 138.123L235.508 215.7L240.829 218.809L375.14 141.233Z" fill="#36A0B7"/>
<path d="M240.829 218.809L235.508 215.7V220.209L240.845 223.319L240.829 218.809Z" fill="#3190A4"/>
<path d="M375.107 133.483L369.786 130.39L235.475 207.967L240.813 211.06L375.107 133.483Z" fill="#BFD4DC"/>
<path d="M375.091 128.99L369.77 125.864L235.459 203.457L240.796 206.566L375.091 128.99Z" fill="#36A0B7"/>
<path d="M240.796 206.566L235.459 203.457L235.475 207.967L240.813 211.06L240.796 206.566Z" fill="#3190A4"/>
<path d="M373.626 118.961C378.508 116.096 382.609 118.375 382.609 124.073L382.706 153.785C382.706 154.143 382.625 154.501 382.609 154.892V191.393L353.14 181.153L241.935 245.363C237.054 248.228 232.969 245.949 232.953 240.251L232.872 210.555C233.038 207.459 233.933 204.447 235.482 201.762C237.031 199.077 239.192 196.797 241.789 195.105L373.626 118.961ZM240.845 223.319L375.14 145.743V141.249L240.845 218.809V223.319ZM240.845 234.976L375.156 157.399V152.906L240.861 230.482V234.976H240.845ZM240.845 211.076L375.156 133.5V128.99L240.796 206.566V211.044L240.845 211.076Z" fill="#F8F9FD"/>
<path d="M240.829 218.809L240.845 223.319L375.14 145.726V141.233L240.829 218.809Z" fill="#3FBAD4"/>
<path d="M240.796 206.566L240.813 211.06L375.107 133.483L375.091 128.99L240.796 206.566Z" fill="#3FBAD4"/>
<path d="M425.063 129.772L419.823 126.727C420.754 127.286 421.536 128.063 422.101 128.99L427.341 132.034C426.776 131.107 425.994 130.331 425.063 129.772V129.772Z" fill="#852858"/>
<path d="M427.341 132.034L422.101 128.99C422.308 129.314 422.493 129.651 422.655 129.999L427.894 133.044C427.739 132.692 427.554 132.354 427.341 132.034Z" fill="#8A295C"/>
<path d="M427.894 133.044L422.655 129.999L423.045 130.895L428.269 133.956C428.167 133.643 428.041 133.338 427.894 133.044V133.044Z" fill="#8F2B5F"/>
<path d="M428.269 133.956L423.045 130.895C423.143 131.172 423.241 131.465 423.322 131.741L428.545 134.786C428.48 134.501 428.387 134.223 428.269 133.956V133.956Z" fill="#942C63"/>
<path d="M428.545 134.786L423.322 131.741C423.322 132.018 423.468 132.295 423.533 132.588L428.773 135.616C428.773 135.323 428.627 135.063 428.545 134.786V134.786Z" fill="#992E66"/>
<path d="M428.773 135.616L423.533 132.588C423.533 132.832 423.647 133.109 423.696 133.386L428.936 136.43C428.936 136.153 428.822 135.893 428.773 135.616Z" fill="#9E2F69"/>
<path d="M428.936 136.43L423.696 133.386C423.74 133.584 423.767 133.785 423.778 133.988L429.017 137.016C429.017 136.837 429.017 136.626 428.936 136.43Z" fill="#A3316D"/>
<path d="M425.063 129.772L419.823 126.727C419.527 126.545 419.21 126.397 418.88 126.287L424.135 129.332C424.459 129.445 424.77 129.593 425.063 129.772V129.772Z" fill="#818184"/>
<path d="M424.184 129.332L418.928 126.287C418.686 126.192 418.436 126.121 418.18 126.076L423.42 129.12L424.184 129.332V129.332Z" fill="#868689"/>
<path d="M423.371 129.12L418.131 126.076H417.871L423.11 129.12H423.371Z" fill="#8B8B8E"/>
<path d="M423.924 125.148L418.684 122.103V122.38L423.924 125.425V125.148Z" fill="#B8377A"/>
<path d="M429.033 137.016L423.794 133.988L401.891 146.638L407.115 149.683L429.033 137.016Z" fill="#DC4193"/>
<path d="M422.215 121.371L416.976 118.326C417.393 118.569 417.745 118.91 418.001 119.319L423.224 122.38C422.974 121.967 422.628 121.621 422.215 121.371V121.371Z" fill="#852858"/>
<path d="M423.224 122.38L418.001 119.319C418.082 119.45 418.131 119.596 418.212 119.743L423.452 122.771C423.395 122.631 423.318 122.499 423.224 122.38V122.38Z" fill="#8A295C"/>
<path d="M423.452 122.771L418.212 119.743C418.267 119.849 418.316 119.957 418.359 120.068L423.582 123.113C423.549 122.995 423.505 122.881 423.452 122.771V122.771Z" fill="#8F2B5F"/>
<path d="M423.582 123.129L418.359 120.085L418.457 120.394L423.696 123.422C423.665 123.322 423.627 123.224 423.582 123.129V123.129Z" fill="#942C63"/>
<path d="M423.696 123.406L418.457 120.378C418.468 120.48 418.468 120.584 418.457 120.687L423.696 123.715C423.696 123.617 423.696 123.52 423.615 123.406H423.696Z" fill="#992E66"/>
<path d="M423.777 123.715L418.538 120.687C418.538 120.687 418.538 120.866 418.538 120.964L423.761 124.008C423.769 123.911 423.769 123.813 423.761 123.715H423.777Z" fill="#9E2F69"/>
<path d="M423.826 124.008L418.603 120.964C418.603 121.061 418.603 121.143 418.603 121.257L423.843 124.301V124.008H423.826Z" fill="#A3316D"/>
<path d="M423.875 124.301L418.635 121.257C418.635 121.344 418.635 121.441 418.635 121.55L423.859 124.578C423.859 124.48 423.859 124.383 423.859 124.301H423.875Z" fill="#A83270"/>
<path d="M423.908 124.578L418.684 121.501V121.778L423.924 124.822C423.924 124.725 423.924 124.627 423.924 124.529L423.908 124.578Z" fill="#AD3474"/>
<path d="M423.924 124.871L418.684 121.827V122.103L423.924 125.148V124.871Z" fill="#B33577"/>
<path d="M423.924 125.148L418.684 122.103V122.38L423.924 125.425V125.148Z" fill="#B8377A"/>
<path d="M423.924 125.425L418.684 122.38V122.657L423.908 125.701C423.916 125.609 423.916 125.517 423.908 125.425H423.924Z" fill="#BD387E"/>
<path d="M423.908 125.701L418.684 122.657C418.692 122.744 418.692 122.831 418.684 122.917L423.924 125.962C423.924 125.962 423.924 125.783 423.924 125.701H423.908Z" fill="#C23A81"/>
<path d="M423.891 125.962L418.652 122.917C418.652 123.015 418.652 123.113 418.652 123.21L423.875 126.255C423.883 126.157 423.883 126.059 423.875 125.962H423.891Z" fill="#C73B85"/>
<path d="M423.859 126.255L418.635 123.21C418.628 123.303 418.628 123.395 418.635 123.487L423.875 126.532C423.875 126.434 423.875 126.336 423.875 126.255H423.859Z" fill="#CC3D88"/>
<path d="M423.826 126.532L418.587 123.487C418.579 123.585 418.579 123.683 418.587 123.78L423.826 126.825C423.819 126.727 423.819 126.629 423.826 126.532V126.532Z" fill="#D13E8B"/>
<path d="M423.778 126.825L418.538 123.78C418.528 123.883 418.528 123.987 418.538 124.09L423.761 127.118C423.761 127.02 423.761 126.922 423.761 126.825H423.778Z" fill="#D6408F"/>
<path d="M423.712 127.118L418.489 124.09C418.454 124.185 418.427 124.283 418.408 124.383L423.631 127.427C423.64 127.324 423.64 127.221 423.631 127.118H423.712Z" fill="#DB4192"/>
<path d="M423.631 127.427L418.408 124.383L418.31 124.708L423.55 127.736C423.588 127.637 423.616 127.533 423.631 127.427V127.427Z" fill="#E04396"/>
<path d="M423.55 127.736L418.31 124.757C418.31 124.871 418.31 124.969 418.229 125.083L423.452 128.127L423.55 127.785V127.736Z" fill="#E64499"/>
<path d="M423.452 128.013L418.229 124.969C418.229 125.083 418.229 125.18 418.115 125.311L423.338 128.355C423.383 128.244 423.421 128.13 423.452 128.013V128.013Z" fill="#EB469C"/>
<path d="M423.338 128.42L418.115 125.376C418.084 125.492 418.046 125.606 418.001 125.718L423.241 128.762C423.281 128.65 423.313 128.536 423.338 128.42V128.42Z" fill="#F047A0"/>
<path d="M423.241 128.762L418.001 125.718C418.001 125.815 417.919 125.929 417.871 126.043L423.11 129.088C423.11 128.974 423.192 128.86 423.241 128.762Z" fill="#F549A3"/>
<path d="M412.956 134.949L407.733 131.904L407.489 132.214L412.729 135.274C412.729 135.16 412.891 135.063 412.956 134.949V134.949Z" fill="#F9FAFD"/>
<path d="M412.794 135.274L407.554 132.214C407.343 132.49 407.147 132.783 406.952 133.06L412.192 136.105C412.378 135.817 412.579 135.54 412.794 135.274V135.274Z" fill="#FAFAFD"/>
<path d="M412.127 136.153L406.887 133.109C406.545 133.63 406.22 134.135 405.911 134.737L411.134 137.781C411.459 137.228 411.785 136.707 412.127 136.153V136.153Z" fill="#FAFBFE"/>
<path d="M411.167 137.684L405.943 134.639C405.732 134.981 405.536 135.307 405.357 135.665L410.597 138.709C410.776 138.368 410.971 138.026 411.167 137.684V137.684Z" fill="#FAFAFD"/>
<path d="M410.564 138.709L405.325 135.665L404.951 136.398L410.174 139.442L410.564 138.709V138.709Z" fill="#F9FAFD"/>
<path d="M410.174 139.41L404.951 136.365C404.834 136.581 404.731 136.804 404.641 137.033L409.848 140.077C409.979 139.849 410.076 139.621 410.174 139.41Z" fill="#F9FAFD"/>
<path d="M409.848 140.11L404.641 137.065C404.527 137.277 404.43 137.488 404.332 137.7L409.572 140.745C409.669 140.533 409.767 140.321 409.848 140.11V140.11Z" fill="#F9FAFD"/>
<path d="M409.539 140.745L404.332 137.781C404.235 137.993 404.137 138.221 404.056 138.433L409.295 141.477C409.295 141.266 409.474 141.038 409.572 140.826L409.539 140.745Z" fill="#F8F9FD"/>
<path d="M409.295 141.396L404.056 138.351L403.779 139.035L409.019 142.08L409.295 141.396Z" fill="#F3F4F8"/>
<path d="M409.019 142.08L403.779 139.035L403.519 139.735L408.758 142.78C408.84 142.552 408.921 142.307 409.019 142.08Z" fill="#EEEFF3"/>
<path d="M408.758 142.78L403.519 139.735C403.421 139.979 403.34 140.24 403.258 140.484L408.498 143.528L408.758 142.78V142.78Z" fill="#E9EAEE"/>
<path d="M408.498 143.528L403.258 140.484L403.014 141.282L408.238 144.294C408.319 144.017 408.4 143.773 408.498 143.512V143.528Z" fill="#E4E5E9"/>
<path d="M408.238 144.294L403.03 141.282C402.933 141.542 402.868 141.819 402.786 142.08L408.01 145.124L408.254 144.31L408.238 144.294Z" fill="#DFE0E4"/>
<path d="M407.993 145.124L402.77 142.08C402.77 142.373 402.624 142.649 402.559 142.926L407.798 145.954L407.993 145.124V145.124Z" fill="#DADBDF"/>
<path d="M407.798 145.922L402.559 142.894C402.559 143.17 402.412 143.447 402.347 143.74L407.587 146.785C407.587 146.492 407.717 146.215 407.798 145.922Z" fill="#D5D6DA"/>
<path d="M407.587 146.817L402.347 143.773C402.347 144.033 402.233 144.326 402.184 144.619L407.408 147.664C407.408 147.371 407.538 147.078 407.587 146.817V146.817Z" fill="#D0D1D5"/>
<path d="M407.408 147.664L402.184 144.619L402.038 145.45L407.277 148.494C407.277 148.217 407.375 147.94 407.408 147.664V147.664Z" fill="#CBCCCF"/>
<path d="M407.277 148.494L402.038 145.45C402.038 145.726 401.956 146.003 401.908 146.28L407.147 149.324C407.147 149.048 407.229 148.771 407.277 148.494Z" fill="#C6C7CA"/>
<path d="M407.147 149.324L401.908 146.28C401.915 146.405 401.915 146.53 401.908 146.654L407.147 149.682C407.147 149.569 407.147 149.438 407.147 149.324Z" fill="#C1C2C5"/>
<path d="M422.215 121.371L416.976 118.326C416.825 118.242 416.667 118.172 416.504 118.115L421.743 121.143L422.215 121.371Z" fill="#818184"/>
<path d="M421.743 121.143L416.504 118.115L416.097 118.001L421.32 121.045C421.465 121.06 421.607 121.093 421.743 121.143V121.143Z" fill="#868689"/>
<path d="M421.32 121.045L416.048 118.001H415.706L420.946 121.045H421.272H421.32Z" fill="#8B8B8E"/>
<path d="M420.93 120.98L415.69 117.936H415.381L420.621 120.98H420.93Z" fill="#909093"/>
<path d="M420.686 120.98L415.446 117.936H415.169L420.425 120.98H420.686Z" fill="#959598"/>
<path d="M420.425 120.98L415.169 117.936H414.909L420.149 120.98H420.425Z" fill="#9A9A9D"/>
<path d="M420.149 121.013L414.909 117.968H414.649L419.888 120.996H420.149V121.013Z" fill="#9F9FA2"/>
<path d="M419.888 121.045L414.649 118.017H414.405L419.644 121.061H419.888V121.045Z" fill="#A4A4A7"/>
<path d="M419.644 121.11L414.421 118.066H414.177L419.417 121.127C419.497 121.113 419.58 121.113 419.661 121.127L419.644 121.11Z" fill="#A9A9AC"/>
<path d="M419.4 121.192L414.161 118.131H413.917L419.156 121.175C419.237 121.161 419.32 121.161 419.4 121.175V121.192Z" fill="#AEAEB1"/>
<path d="M419.156 121.257L413.917 118.245H413.689L418.912 121.289L419.156 121.208V121.257Z" fill="#B3B3B6"/>
<path d="M418.912 121.338L413.689 118.245L413.445 118.359L418.684 121.387L418.912 121.289V121.338Z" fill="#B8B8BB"/>
<path d="M418.684 121.501L413.445 118.473L413.201 118.571L418.44 121.615L418.684 121.501V121.501Z" fill="#BCBDC0"/>
<path d="M418.44 121.501L413.201 118.457C413.116 118.499 413.034 118.548 412.956 118.603L418.196 121.648C418.274 121.593 418.355 121.544 418.44 121.501V121.501Z" fill="#C1C2C5"/>
<path d="M418.196 121.696L412.956 118.652C412.894 118.678 412.834 118.711 412.777 118.75L418.001 121.794C418.063 121.755 418.128 121.722 418.196 121.696V121.696Z" fill="#C6C7CA"/>
<path d="M418.001 121.794L412.794 118.75L418.033 121.778L418.001 121.794Z" fill="#C6C7CA"/>
<path d="M417.952 121.827L412.794 118.798L412.533 118.945L417.675 121.989L417.936 121.827H417.952Z" fill="#CBCCCF"/>
<path d="M417.675 121.989L412.436 118.945L412.192 119.108L417.415 122.152L417.675 121.989Z" fill="#D0D1D5"/>
<path d="M417.431 122.152L412.208 119.108C412.115 119.158 412.028 119.218 411.948 119.287L417.187 122.331L417.431 122.152Z" fill="#D5D6DA"/>
<path d="M417.187 122.331L411.948 119.287L411.687 119.482L416.927 122.527L417.187 122.331Z" fill="#DADBDF"/>
<path d="M416.927 122.527L411.687 119.482L411.427 119.694L416.667 122.738L416.927 122.527Z" fill="#DFE0E4"/>
<path d="M416.667 122.738L411.427 119.694L411.167 119.873L416.39 122.934L416.667 122.69V122.738Z" fill="#E4E5E9"/>
<path d="M416.39 122.983L411.167 119.873L410.906 120.117L416.13 123.162C416.224 123.094 416.311 123.018 416.39 122.934V122.983Z" fill="#E9EAEE"/>
<path d="M416.13 123.21L410.906 120.166L410.646 120.427L415.885 123.471L416.13 123.21Z" fill="#EEEFF3"/>
<path d="M415.885 123.471L410.646 120.427C410.561 120.506 410.485 120.593 410.418 120.687L415.641 123.715L415.885 123.471V123.471Z" fill="#F3F4F8"/>
<path d="M415.641 123.715L410.418 120.687L410.174 120.931L415.414 123.976L415.641 123.715V123.715Z" fill="#F8F9FD"/>
<path d="M415.414 123.976L410.174 120.931C410.174 120.931 410.027 121.094 409.962 121.192L415.186 124.236L415.414 123.976V123.976Z" fill="#F9FAFD"/>
<path d="M415.186 124.236L409.962 121.192L409.718 121.468L414.958 124.513C415.039 124.425 415.115 124.332 415.186 124.236V124.236Z" fill="#F9FAFD"/>
<path d="M414.958 124.513L409.718 121.501L409.474 121.843L414.698 124.887L414.958 124.545V124.513Z" fill="#F9FAFD"/>
<path d="M414.698 124.855L409.539 121.81C409.404 121.982 409.279 122.161 409.165 122.348L414.405 125.392C414.519 125.213 414.633 125.034 414.763 124.855H414.698Z" fill="#FAFAFD"/>
<path d="M414.421 125.392L409.181 122.348C409.019 122.576 408.872 122.82 408.742 123.031L413.965 126.076L414.421 125.392V125.392Z" fill="#FAFBFE"/>
<path d="M413.884 126.076L408.661 123.031C408.547 123.21 408.465 123.39 408.368 123.552L413.607 126.597C413.705 126.434 413.786 126.255 413.884 126.076V126.076Z" fill="#FAFAFD"/>
<path d="M413.607 126.597L408.368 123.552C408.368 123.683 408.238 123.797 408.189 123.911L413.412 126.955L413.607 126.597V126.597Z" fill="#F9FAFD"/>
<path d="M413.412 126.955L408.189 123.911L408.042 124.236L413.266 127.264C413.328 127.168 413.377 127.064 413.412 126.955V126.955Z" fill="#F9FAFD"/>
<path d="M413.266 127.264L408.042 124.236C407.989 124.318 407.946 124.405 407.912 124.497L413.152 127.557L413.266 127.264V127.264Z" fill="#F9FAFD"/>
<path d="M413.152 127.557L407.912 124.497C407.912 124.594 407.831 124.692 407.798 124.773L413.022 127.834C413.055 127.738 413.099 127.645 413.152 127.557V127.557Z" fill="#F8F9FD"/>
<path d="M413.022 127.834L407.798 124.757L407.668 125.05L412.891 128.111C412.941 128.016 412.985 127.918 413.022 127.818V127.834Z" fill="#F3F4F8"/>
<path d="M412.891 128.127L407.668 125.066C407.643 125.164 407.605 125.257 407.554 125.343L412.794 128.404C412.838 128.316 412.871 128.223 412.891 128.127V128.127Z" fill="#EEEFF3"/>
<path d="M412.794 128.404L407.554 125.343C407.529 125.454 407.496 125.563 407.456 125.669L412.696 128.713L412.794 128.404V128.404Z" fill="#E9EAEE"/>
<path d="M412.696 128.713L407.456 125.669L407.359 125.962L412.598 129.006C412.624 128.906 412.656 128.808 412.696 128.713V128.713Z" fill="#E4E5E9"/>
<path d="M412.598 129.006L407.359 125.962C407.334 126.073 407.301 126.181 407.261 126.287L412.501 129.316L412.598 129.006Z" fill="#DFE0E4"/>
<path d="M412.501 129.316L407.261 126.287C407.261 126.385 407.261 126.483 407.261 126.581L412.485 129.641C412.485 129.527 412.485 129.413 412.566 129.316H412.501Z" fill="#DADBDF"/>
<path d="M412.419 129.641L407.196 126.581C407.161 126.687 407.134 126.796 407.115 126.906L412.354 129.951C412.354 129.837 412.354 129.739 412.354 129.641H412.419Z" fill="#D5D6DA"/>
<path d="M412.354 129.951L407.115 126.906C407.098 127.009 407.098 127.113 407.115 127.215L412.338 130.26C412.329 130.157 412.329 130.053 412.338 129.951H412.354Z" fill="#D0D1D5"/>
<path d="M412.289 130.26L407.066 127.215C407.051 127.313 407.051 127.411 407.066 127.509L412.306 130.553V130.26H412.289Z" fill="#CBCCCF"/>
<path d="M412.241 130.553L407.001 127.509V127.802L412.241 130.846V130.553Z" fill="#C6C7CA"/>
<path d="M412.192 130.846L406.952 127.802C406.959 127.905 406.959 128.008 406.952 128.111L412.192 131.139C412.184 131.042 412.184 130.944 412.192 130.846V130.846Z" fill="#C1C2C5"/>
<path d="M412.159 131.139L406.919 128.111C406.919 128.111 406.919 128.29 406.919 128.404L412.159 131.432C412.159 131.334 412.159 131.237 412.159 131.139Z" fill="#BCBDC0"/>
<path d="M412.143 131.432L406.903 128.404C406.911 128.496 406.911 128.589 406.903 128.681L412.143 131.725C412.143 131.627 412.143 131.53 412.143 131.432Z" fill="#B8B8BB"/>
<path d="M412.127 131.725L406.887 128.681V128.941L412.11 131.986C412.11 131.986 412.11 131.823 412.11 131.725H412.127Z" fill="#B3B3B6"/>
<path d="M412.11 132.002L406.887 128.957C406.879 129.05 406.879 129.142 406.887 129.234L412.11 132.279C412.11 132.197 412.11 132.1 412.11 132.002Z" fill="#AEAEB1"/>
<path d="M412.127 132.279L406.903 129.234V129.511L412.143 132.539V132.279H412.127Z" fill="#A9A9AC"/>
<path d="M412.143 132.539L406.903 129.511C406.903 129.511 406.903 129.674 406.903 129.772L412.127 132.816C412.134 132.724 412.134 132.631 412.127 132.539H412.143Z" fill="#A4A4A7"/>
<path d="M412.159 132.897L406.936 129.853C406.936 129.853 406.936 130.032 406.936 130.113L412.175 133.158V132.897H412.159Z" fill="#9F9FA2"/>
<path d="M412.208 133.076L406.968 130.032C406.968 130.13 406.968 130.227 406.968 130.309L412.192 133.353C412.198 133.261 412.198 133.169 412.192 133.076H412.208Z" fill="#9A9A9D"/>
<path d="M412.257 133.353L407.033 130.309C407.039 130.406 407.039 130.504 407.033 130.602L412.273 133.646C412.273 133.646 412.273 133.467 412.192 133.353H412.257Z" fill="#959598"/>
<path d="M412.338 133.646L407.098 130.602C407.129 130.713 407.167 130.822 407.212 130.927L412.452 133.972C412.452 133.858 412.452 133.76 412.338 133.646Z" fill="#909093"/>
<path d="M412.452 133.972L407.212 130.927C407.251 131.045 407.3 131.16 407.359 131.269L412.599 134.33L412.452 133.972V133.972Z" fill="#8B8B8E"/>
<path d="M412.598 134.33L407.359 131.269C407.43 131.426 407.512 131.579 407.603 131.725L412.843 134.77C412.749 134.63 412.667 134.483 412.598 134.33Z" fill="#868689"/>
<path d="M412.794 134.77L407.554 131.725L407.684 131.904L412.908 134.949L412.794 134.77V134.77Z" fill="#818184"/>
<path d="M418.001 121.794C416.288 122.911 414.862 124.415 413.839 126.186C412.816 127.957 412.223 129.943 412.11 131.986C412.089 133.036 412.384 134.068 412.956 134.949C409.776 139.246 407.764 144.294 407.115 149.601L429.066 137.016C428.448 132.425 426.202 129.544 423.159 129.088C423.666 127.846 423.942 126.522 423.973 125.18C423.924 121.403 421.288 119.873 418.001 121.794Z" fill="#F8F9FD"/>
<path d="M437.625 123.129C437.625 135.551 428.92 150.708 418.098 156.944C407.277 163.179 398.49 158.165 398.458 145.743C398.425 133.321 407.164 118.066 417.985 111.879C428.806 105.693 437.593 110.691 437.625 123.129ZM429.066 137.016C428.448 132.425 426.202 129.544 423.159 129.088C423.666 127.846 423.942 126.522 423.973 125.18C423.973 121.403 421.337 119.906 418.05 121.794C416.337 122.911 414.911 124.415 413.888 126.186C412.864 127.957 412.272 129.943 412.159 131.986C412.138 133.036 412.433 134.068 413.005 134.949C409.825 139.246 407.812 144.294 407.164 149.601L429.066 137.016Z" fill="#FF4CAA"/>
<path d="M429.635 251.745C404.023 245.77 378.948 253.617 378.948 253.617L334.069 228.496C334.069 228.496 325.298 232.973 325.331 239.697C325.331 239.697 361.129 275.14 380.656 277.142C380.656 277.142 405.976 276.833 425.877 271.265C425.812 271.281 431.588 252.233 429.635 251.745Z" fill="#CADFE8"/>
<path d="M332.36 229.554C332.36 229.554 327.609 219.151 323.541 216.107C320.92 213.999 317.816 212.578 314.51 211.972C313.126 211.858 317.211 216.188 318.594 217.556C319.977 218.923 320.726 223.579 309.905 218.516C299.083 213.453 301.117 215.732 301.296 216.709C301.475 217.686 312.459 234.618 325.428 238.46C325.428 238.46 326.339 233.836 332.36 229.554Z" fill="#EFB185"/>
<path d="M306.91 217.702L301.687 214.658C302.619 215.217 303.397 216 303.949 216.937L309.189 219.965C308.619 219.041 307.838 218.266 306.91 217.702V217.702Z" fill="#852858"/>
<path d="M309.189 219.965L303.949 216.937C304.161 217.255 304.352 217.586 304.518 217.93L309.742 220.975C309.583 220.625 309.398 220.287 309.189 219.965V219.965Z" fill="#8A295C"/>
<path d="M309.742 220.975L304.518 217.93C304.632 218.223 304.779 218.533 304.876 218.826L310.116 221.87C310.012 221.563 309.887 221.264 309.742 220.975Z" fill="#8F2B5F"/>
<path d="M310.116 221.87L304.876 218.826C304.99 219.119 305.072 219.395 305.169 219.672L310.409 222.717L310.116 221.87Z" fill="#942C63"/>
<path d="M310.409 222.717L305.169 219.672C305.169 219.949 305.316 220.226 305.381 220.519L310.604 223.563C310.604 223.27 310.474 222.993 310.409 222.717Z" fill="#992E66"/>
<path d="M310.604 223.563L305.397 220.519C305.397 220.779 305.511 221.04 305.56 221.333L310.799 224.361C310.799 224.084 310.686 223.824 310.62 223.563H310.604Z" fill="#9E2F69"/>
<path d="M310.783 224.361L305.544 221.333C305.544 221.512 305.544 221.724 305.641 221.919L310.865 224.963C310.865 224.752 310.865 224.573 310.783 224.361Z" fill="#A3316D"/>
<path d="M306.91 217.702L301.687 214.658C301.384 214.48 301.062 214.338 300.727 214.235L305.967 217.263C306.297 217.373 306.614 217.52 306.91 217.702V217.702Z" fill="#818184"/>
<path d="M305.967 217.263L300.727 214.3C300.483 214.21 300.233 214.139 299.978 214.088L305.218 217.132C305.472 217.18 305.722 217.246 305.967 217.328V217.263Z" fill="#868689"/>
<path d="M305.218 217.067L299.978 214.023H299.734L304.958 217.067H305.218Z" fill="#8B8B8E"/>
<path d="M305.788 213.095L300.515 210.034C300.515 210.034 300.515 210.197 300.515 210.278L305.755 213.323C305.755 213.323 305.755 213.16 305.755 213.079L305.788 213.095Z" fill="#B8377A"/>
<path d="M310.865 224.963L305.641 221.919L283.739 234.569L288.978 237.613L310.865 224.963Z" fill="#DC4193"/>
<path d="M304.063 209.302L298.888 206.257C299.299 206.508 299.649 206.847 299.913 207.25L305.137 210.295C304.877 209.894 304.533 209.554 304.128 209.302H304.063Z" fill="#852858"/>
<path d="M305.072 210.295L299.848 207.25L300.076 207.657L305.299 210.702C305.236 210.559 305.16 210.423 305.072 210.295V210.295Z" fill="#8A295C"/>
<path d="M305.299 210.702L300.076 207.657C300.11 207.775 300.153 207.889 300.206 207.999L305.397 211.044L305.251 210.702H305.299Z" fill="#8F2B5F"/>
<path d="M305.397 211.044L300.157 207.999C300.157 208.097 300.157 208.194 300.271 208.308L305.495 211.353L305.397 211.044Z" fill="#942C63"/>
<path d="M305.544 211.353L300.32 208.308C300.329 208.411 300.329 208.515 300.32 208.618L305.56 211.662C305.567 211.559 305.567 211.456 305.56 211.353H305.544Z" fill="#992E66"/>
<path d="M305.625 211.662L300.385 208.618C300.394 208.715 300.394 208.813 300.385 208.911L305.625 211.955C305.625 211.841 305.625 211.744 305.625 211.662Z" fill="#9E2F69"/>
<path d="M305.69 211.955L300.515 208.911C300.509 209.003 300.509 209.095 300.515 209.188L305.739 212.232C305.739 212.134 305.739 212.037 305.739 211.955H305.69Z" fill="#A3316D"/>
<path d="M305.723 212.232L300.515 209.188C300.523 209.285 300.523 209.383 300.515 209.481L305.755 212.525C305.763 212.428 305.763 212.33 305.755 212.232H305.723Z" fill="#A83270"/>
<path d="M305.755 212.525L300.515 209.415C300.523 209.502 300.523 209.589 300.515 209.676L305.755 212.72C305.755 212.72 305.755 212.558 305.755 212.46V212.525Z" fill="#AD3474"/>
<path d="M305.771 212.786L300.515 209.741C300.507 209.839 300.507 209.937 300.515 210.034L305.755 213.095C305.747 212.992 305.747 212.889 305.755 212.786H305.771Z" fill="#B33577"/>
<path d="M305.788 213.095L300.515 210.034C300.515 210.034 300.515 210.197 300.515 210.278L305.755 213.323C305.755 213.323 305.755 213.16 305.755 213.079L305.788 213.095Z" fill="#B8377A"/>
<path d="M305.771 213.355L300.515 210.311V210.588L305.739 213.632C305.747 213.54 305.747 213.447 305.739 213.355H305.771Z" fill="#BD387E"/>
<path d="M305.755 213.632L300.515 210.588C300.508 210.68 300.508 210.772 300.515 210.864L305.755 213.909V213.632Z" fill="#C23A81"/>
<path d="M305.755 213.909L300.515 210.864V211.141L305.755 214.186V213.909Z" fill="#C73B85"/>
<path d="M305.706 214.186L300.515 211.141C300.523 211.233 300.523 211.326 300.515 211.418L305.739 214.462C305.756 214.371 305.756 214.277 305.739 214.186H305.706Z" fill="#CC3D88"/>
<path d="M305.657 214.462L300.515 211.418V211.711L305.755 214.755C305.763 214.658 305.763 214.56 305.755 214.462H305.657Z" fill="#D13E8B"/>
<path d="M305.625 214.755L300.385 211.711C300.393 211.814 300.393 211.917 300.385 212.02L305.625 215.065C305.625 214.951 305.625 214.853 305.625 214.755Z" fill="#D6408F"/>
<path d="M305.56 215.065L300.32 212.02C300.32 212.134 300.32 212.216 300.32 212.33L305.544 215.374C305.549 215.271 305.549 215.168 305.544 215.065H305.56Z" fill="#DB4192"/>
<path d="M305.478 215.374L300.255 212.33C300.255 212.427 300.255 212.525 300.157 212.639L305.397 215.7C305.397 215.57 305.397 215.472 305.478 215.374Z" fill="#E04396"/>
<path d="M305.397 215.7L300.157 212.672C300.157 212.786 300.157 212.883 300.076 213.013L305.316 216.058C305.333 215.947 305.36 215.838 305.397 215.732V215.7Z" fill="#E64499"/>
<path d="M305.397 216.025L300.157 212.981L300.044 213.307L305.283 216.367C305.311 216.25 305.349 216.136 305.397 216.025V216.025Z" fill="#EB469C"/>
<path d="M305.202 216.367L299.962 213.307C299.962 213.42 299.962 213.534 299.848 213.648L305.072 216.693C305.072 216.579 305.169 216.465 305.202 216.367V216.367Z" fill="#F047A0"/>
<path d="M305.072 216.693L299.848 213.648C299.848 213.762 299.767 213.876 299.734 213.974L304.958 217.018C304.958 216.905 305.039 216.791 305.072 216.693Z" fill="#F549A3"/>
<path d="M294.82 222.879L289.564 219.835C289.494 219.947 289.418 220.056 289.336 220.161L294.576 223.205L294.82 222.879V222.879Z" fill="#F9FAFD"/>
<path d="M294.576 223.205L289.336 220.161C289.125 220.421 288.93 220.714 288.734 221.007L294.007 224.068C294.202 223.775 294.397 223.482 294.609 223.221L294.576 223.205Z" fill="#FAFAFD"/>
<path d="M294.007 224.068L288.767 221.023C288.431 221.534 288.105 222.076 287.791 222.652L293.03 225.696C293.334 225.164 293.659 224.621 294.007 224.068Z" fill="#FAFBFE"/>
<path d="M292.998 225.696L287.758 222.652C287.546 222.993 287.351 223.335 287.172 223.693L292.412 226.738C292.588 226.38 292.783 226.032 292.998 225.696V225.696Z" fill="#FAFAFD"/>
<path d="M292.379 226.656L287.14 223.612C287.026 223.84 286.879 224.084 286.765 224.328L291.989 227.373L292.379 226.656V226.656Z" fill="#F9FAFD"/>
<path d="M292.021 227.324L286.798 224.28L286.472 224.947L291.712 227.991C291.81 227.764 291.924 227.552 292.021 227.324Z" fill="#F9FAFD"/>
<path d="M291.712 228.04L286.472 224.996C286.375 225.208 286.293 225.419 286.196 225.647L291.419 228.692L291.712 228.04V228.04Z" fill="#F9FAFD"/>
<path d="M291.419 228.692L286.196 225.696C286.082 225.908 286.001 226.119 285.903 226.331L291.143 229.375C291.143 229.164 291.322 228.952 291.419 228.74V228.692Z" fill="#F8F9FD"/>
<path d="M291.143 229.326L285.87 226.282C285.789 226.51 285.691 226.754 285.594 226.982L290.833 230.01C290.931 229.799 291.012 229.554 291.11 229.326H291.143Z" fill="#F3F4F8"/>
<path d="M290.866 230.01L285.626 226.982C285.626 227.21 285.464 227.454 285.366 227.666L290.606 230.71C290.687 230.482 290.785 230.254 290.866 230.01V230.01Z" fill="#EEEFF3"/>
<path d="M290.606 230.71L285.366 227.666C285.285 227.926 285.203 228.171 285.106 228.431L290.362 231.476C290.362 231.215 290.524 230.955 290.606 230.71Z" fill="#E9EAEE"/>
<path d="M290.362 231.476L285.106 228.431C285.024 228.692 284.927 228.936 284.862 229.213L290.101 232.208C290.168 231.941 290.255 231.68 290.362 231.427V231.476Z" fill="#E4E5E9"/>
<path d="M290.101 232.208L284.862 229.164C284.764 229.424 284.699 229.717 284.617 229.978L289.857 233.006C289.857 232.745 290.02 232.469 290.101 232.208Z" fill="#DFE0E4"/>
<path d="M289.857 233.055L284.617 230.027C284.617 230.303 284.471 230.58 284.406 230.857L289.629 233.901C289.711 233.625 289.776 233.348 289.857 233.055V233.055Z" fill="#DADBDF"/>
<path d="M289.629 233.836L284.406 230.792C284.406 231.085 284.276 231.362 284.211 231.638L289.434 234.683L289.629 233.836Z" fill="#D5D6DA"/>
<path d="M289.434 234.748L284.243 231.703C284.243 231.98 284.113 232.257 284.064 232.55L289.304 235.594L289.467 234.748H289.434Z" fill="#D0D1D5"/>
<path d="M289.271 235.594L284.032 232.55L283.885 233.38L289.125 236.425L289.271 235.594Z" fill="#CBCCCF"/>
<path d="M289.125 236.425L283.885 233.38C283.885 233.673 283.804 233.95 283.771 234.227L288.995 237.271C288.995 236.978 289.076 236.702 289.125 236.425V236.425Z" fill="#C6C7CA"/>
<path d="M288.995 237.271L283.771 234.227C283.762 234.346 283.762 234.466 283.771 234.585L288.995 237.63C288.995 237.499 288.995 237.369 288.995 237.271Z" fill="#C1C2C5"/>
<path d="M304.063 209.302L298.888 206.257L298.433 206.045L303.656 209.09L304.128 209.302H304.063Z" fill="#818184"/>
<path d="M303.591 209.09L298.367 206.045L297.944 205.931L303.168 208.976L303.591 209.09Z" fill="#868689"/>
<path d="M303.168 208.976L297.944 205.931H297.603L302.842 208.976H303.168V208.976Z" fill="#8B8B8E"/>
<path d="M302.842 208.927L297.603 205.883H297.261L302.501 208.927H302.842Z" fill="#909093"/>
<path d="M302.533 208.911L297.261 205.866H296.984L302.224 208.927L302.533 208.911Z" fill="#959598"/>
<path d="M302.257 208.927L297.017 205.866H296.757L301.996 208.911L302.257 208.927Z" fill="#9A9A9D"/>
<path d="M301.996 208.943L296.757 205.899H296.496L301.736 208.943H301.996Z" fill="#9F9FA2"/>
<path d="M301.736 208.992L296.496 205.948H296.252L301.492 208.976H301.736V208.992Z" fill="#A4A4A7"/>
<path d="M301.492 209.041L296.252 206.013C296.171 206 296.089 206 296.008 206.013L301.248 209.041H301.492Z" fill="#A9A9AC"/>
<path d="M301.248 209.106L296.008 206.159L295.764 206.241L301.004 209.269L301.248 209.188V209.106Z" fill="#AEAEB1"/>
<path d="M301.004 209.188L295.764 206.159H295.536L300.759 209.22L301.004 209.122V209.188Z" fill="#B3B3B6"/>
<path d="M300.759 209.285L295.536 206.159L295.292 206.273L300.515 209.415L300.743 209.318L300.759 209.285Z" fill="#B8B8BB"/>
<path d="M300.515 209.415L295.276 206.371L295.032 206.485L300.271 209.529L300.515 209.415Z" fill="#BCBDC0"/>
<path d="M300.288 209.497L295.048 206.452L294.82 206.583L300.044 209.611L300.288 209.497V209.497Z" fill="#C1C2C5"/>
<path d="M300.044 209.611L294.82 206.583C294.75 206.611 294.684 206.649 294.625 206.697L299.848 209.725L300.044 209.611Z" fill="#C6C7CA"/>
<path d="M299.848 209.725L294.625 206.697L299.848 209.725Z" fill="#C6C7CA"/>
<path d="M299.799 209.757L294.576 206.729C294.481 206.762 294.393 206.812 294.316 206.876L299.539 209.92L299.799 209.757Z" fill="#CBCCCF"/>
<path d="M299.539 209.92L294.316 206.876L294.055 207.039L299.295 210.099L299.539 209.92V209.92Z" fill="#D0D1D5"/>
<path d="M299.295 210.099L294.007 207.039L293.746 207.234L298.986 210.262L299.246 210.099H299.295Z" fill="#D5D6DA"/>
<path d="M299.035 210.262L293.795 207.234L293.535 207.413L298.774 210.457L299.035 210.262Z" fill="#DADBDF"/>
<path d="M298.774 210.457L293.535 207.413L293.274 207.641L298.514 210.685L298.774 210.457Z" fill="#DFE0E4"/>
<path d="M298.514 210.685L293.274 207.641C293.18 207.708 293.093 207.784 293.014 207.869L298.254 210.913L298.514 210.685Z" fill="#E4E5E9"/>
<path d="M298.254 210.913L293.014 207.869L292.754 208.113L297.993 211.141L298.254 210.913V210.913Z" fill="#E9EAEE"/>
<path d="M297.993 211.141L292.754 208.113L292.493 208.357L297.733 211.402L297.993 211.141Z" fill="#EEEFF3"/>
<path d="M297.733 211.402L292.493 208.357C292.409 208.436 292.332 208.524 292.265 208.618L297.489 211.662L297.733 211.402V211.402Z" fill="#F3F4F8"/>
<path d="M297.489 211.662L292.265 208.618L292.021 208.862L297.277 211.906L297.489 211.662V211.662Z" fill="#F8F9FD"/>
<path d="M297.261 211.906L292.005 208.862C292.005 208.96 291.859 209.041 291.793 209.122L297.017 212.167L297.261 211.906V211.906Z" fill="#F9FAFD"/>
<path d="M297.033 212.167L291.81 209.122L291.582 209.415L296.805 212.46C296.89 212.369 296.966 212.271 297.033 212.167Z" fill="#F9FAFD"/>
<path d="M296.805 212.46L291.582 209.415L291.322 209.741L296.545 212.786L296.805 212.46Z" fill="#F9FAFD"/>
<path d="M296.545 212.786L291.322 209.741L290.947 210.278L296.187 213.323C296.301 213.144 296.415 212.965 296.545 212.786Z" fill="#FAFAFD"/>
<path d="M296.187 213.323L290.947 210.278L290.508 210.978L295.748 214.023C295.879 213.78 296.025 213.546 296.187 213.323V213.323Z" fill="#FAFBFE"/>
<path d="M295.748 214.023L290.508 211.044L290.215 211.565L295.455 214.609L295.748 214.088V214.023Z" fill="#FAFAFD"/>
<path d="M295.455 214.544L290.215 211.499C290.162 211.617 290.102 211.731 290.036 211.841L295.259 214.902L295.455 214.544Z" fill="#F9FAFD"/>
<path d="M295.259 214.902L290.036 211.841C290.036 211.955 289.938 212.053 289.873 212.151L295.113 215.211C295.113 215.097 295.211 214.983 295.259 214.902Z" fill="#F9FAFD"/>
<path d="M295.113 215.211L289.873 212.151L289.759 212.444L294.983 215.488C294.983 215.39 295.064 215.293 295.113 215.211V215.211Z" fill="#F9FAFD"/>
<path d="M294.983 215.488L289.759 212.444C289.726 212.535 289.682 212.622 289.629 212.704L294.869 215.765C294.914 215.676 294.952 215.583 294.983 215.488V215.488Z" fill="#F8F9FD"/>
<path d="M294.869 215.765L289.629 212.672C289.602 212.771 289.569 212.869 289.532 212.965L294.755 216.025C294.786 215.925 294.824 215.827 294.869 215.732V215.765Z" fill="#F3F4F8"/>
<path d="M294.755 216.058L289.532 212.997L289.418 213.29L294.641 216.335C294.641 216.237 294.723 216.156 294.755 216.058V216.058Z" fill="#EEEFF3"/>
<path d="M294.641 216.335L289.418 213.29L289.304 213.583L294.544 216.628L294.641 216.335Z" fill="#E9EAEE"/>
<path d="M294.543 216.628L289.304 213.583C289.271 213.69 289.244 213.799 289.222 213.909L294.446 216.937L294.543 216.628Z" fill="#E4E5E9"/>
<path d="M294.446 216.937L289.222 213.909C289.173 214.006 289.14 214.11 289.125 214.218L294.348 217.263L294.446 216.937Z" fill="#DFE0E4"/>
<path d="M294.348 217.263L289.125 214.3C289.125 214.397 289.125 214.511 289.027 214.593L294.267 217.653C294.267 217.539 294.267 217.442 294.348 217.344V217.263Z" fill="#DADBDF"/>
<path d="M294.267 217.556L289.027 214.495C289.027 214.609 289.027 214.723 289.027 214.821L294.267 217.865C294.267 217.767 294.267 217.653 294.267 217.556Z" fill="#D5D6DA"/>
<path d="M294.202 217.881L288.962 214.837C288.954 214.94 288.954 215.043 288.962 215.146L294.186 218.191C294.179 218.088 294.179 217.984 294.186 217.881H294.202Z" fill="#D0D1D5"/>
<path d="M294.137 218.191L288.913 215.146C288.913 215.244 288.913 215.358 288.913 215.456L294.153 218.5V218.191H294.137Z" fill="#CBCCCF"/>
<path d="M294.088 218.5L288.848 215.456C288.848 215.553 288.848 215.635 288.848 215.749L294.088 218.793C294.088 218.684 294.088 218.587 294.088 218.5Z" fill="#C6C7CA"/>
<path d="M294.007 218.793L288.767 215.749C288.767 215.846 288.767 215.928 288.767 216.042L293.99 219.086C293.981 218.989 293.981 218.891 293.99 218.793H294.007Z" fill="#C1C2C5"/>
<path d="M294.007 219.086L288.783 216.042C288.774 216.139 288.774 216.237 288.783 216.335L294.023 219.363C294.023 219.265 294.023 219.184 294.023 219.086H294.007Z" fill="#BCBDC0"/>
<path d="M294.007 219.363L288.767 216.335C288.767 216.416 288.767 216.514 288.767 216.611L294.007 219.656C293.999 219.558 293.999 219.46 294.007 219.363V219.363Z" fill="#B8B8BB"/>
<path d="M294.007 219.656L288.767 216.611V216.872L294.007 219.933V219.656Z" fill="#B3B3B6"/>
<path d="M294.007 219.949L288.767 216.888V217.165L294.007 220.209V219.949Z" fill="#AEAEB1"/>
<path d="M294.007 220.209L288.767 217.165C288.774 217.252 288.774 217.339 288.767 217.425L294.007 220.486C294.007 220.389 294.007 220.307 294.007 220.209V220.209Z" fill="#A9A9AC"/>
<path d="M294.007 220.486L288.767 217.425C288.774 217.518 288.774 217.61 288.767 217.702L294.007 220.812C294.015 220.725 294.015 220.638 294.007 220.551V220.486Z" fill="#A4A4A7"/>
<path d="M294.007 220.812L288.783 217.767V218.028L294.007 221.089C294.014 220.996 294.014 220.904 294.007 220.812Z" fill="#9F9FA2"/>
<path d="M294.007 221.023L288.783 217.963C288.773 218.06 288.773 218.158 288.783 218.256L294.023 221.3C294.017 221.208 294.017 221.116 294.023 221.023H294.007Z" fill="#9A9A9D"/>
<path d="M294.12 221.3L288.881 218.256C288.888 218.353 288.888 218.451 288.881 218.549L294.12 221.593C294.12 221.496 294.12 221.398 294.12 221.3Z" fill="#959598"/>
<path d="M294.186 221.593L288.946 218.549L289.06 218.858L294.299 221.903C294.299 221.805 294.299 221.707 294.186 221.593Z" fill="#909093"/>
<path d="M294.299 221.903L289.125 218.858C289.169 218.982 289.224 219.102 289.288 219.216L294.511 222.261C294.452 222.146 294.403 222.026 294.365 221.903H294.299Z" fill="#8B8B8E"/>
<path d="M294.446 222.261L289.222 219.184C289.222 219.33 289.369 219.477 289.45 219.623L294.69 222.668C294.596 222.528 294.515 222.381 294.446 222.228V222.261Z" fill="#868689"/>
<path d="M294.69 222.7L289.45 219.656L289.564 219.835L294.82 222.879C294.771 222.824 294.728 222.764 294.69 222.7V222.7Z" fill="#818184"/>
<path d="M299.848 209.725C298.131 210.839 296.703 212.346 295.681 214.12C294.66 215.895 294.075 217.887 293.974 219.933C293.933 220.98 294.229 222.014 294.82 222.879C291.615 227.2 289.595 232.286 288.962 237.63L310.865 224.963C310.246 220.356 308.001 217.474 304.958 217.018C305.473 215.778 305.754 214.454 305.788 213.111C305.771 209.415 303.135 207.787 299.848 209.725Z" fill="#F8F9FD"/>
<path d="M319.473 211.044C319.473 223.498 310.767 238.639 299.946 244.891C289.125 251.142 280.322 246.095 280.289 233.673C280.256 221.251 288.995 206.078 299.816 199.826C310.637 193.575 319.44 198.622 319.473 211.044ZM310.865 224.931C310.246 220.323 308.001 217.442 304.958 216.986C305.473 215.746 305.754 214.421 305.788 213.079C305.788 209.302 303.135 207.804 299.848 209.692C298.131 210.807 296.703 212.313 295.681 214.088C294.66 215.863 294.075 217.855 293.974 219.9C293.933 220.948 294.229 221.981 294.82 222.847C291.614 227.168 289.595 232.253 288.962 237.597L310.865 224.931Z" fill="#FFDF02"/>
<path d="M393.137 270.549C384.887 271.786 377.646 271.558 373.106 268.709C358.64 259.576 335.061 241.032 327.007 234.699C325.979 236.178 325.413 237.929 325.379 239.73C325.379 239.73 361.178 275.172 380.705 277.175C380.705 277.175 385.782 277.175 393.186 276.54L393.137 270.549Z" fill="#AFCED8"/>
<path d="M397.482 566.413C397.482 566.413 388.516 567.748 390.696 572.925C392.877 578.103 403.177 585.95 404.495 589.206C405.813 592.462 414.258 604.086 416.959 603.012C419.661 601.937 426.723 603.549 425.909 590.28C425.096 577.012 409.393 565.86 397.482 566.413Z" fill="#111114"/>
<path d="M380.412 615.19C380.412 615.19 384.74 627.953 373.903 630.916C363.066 633.879 366.32 627.123 342.742 633.065C319.163 639.008 316.478 626.846 317.032 624.128C317.585 621.409 333.304 616.541 338.43 615.19C343.555 613.838 353.319 611.396 353.319 611.396H381.258L380.412 615.19Z" fill="#111114"/>
<path d="M424.933 391.512C424.933 391.512 425.079 468.454 425.079 477.115C425.079 485.776 434.745 554.089 428.936 583.898C428.936 583.898 412.159 600.716 397.351 583.898C397.351 583.898 392.6 498.41 388.288 479.118C383.976 459.825 385.456 400.825 385.456 400.825L424.933 391.512Z" fill="#EA49BD"/>
<path d="M395.496 402.437C395.496 402.437 391.705 452.124 387.751 501.389C387.751 501.389 385.294 599.186 382.967 613.268C382.967 613.268 351.447 621.083 348.307 606.235C348.307 606.235 349.072 520.177 348.307 502.203C347.542 484.23 343.214 427.834 350.308 398.887C357.403 369.941 395.496 402.437 395.496 402.437Z" fill="#EA49BD"/>
<path d="M382.967 613.268C385.294 599.186 387.751 501.389 387.751 501.389C390.403 468.226 393.414 429.364 394.845 411.114L373.464 415.266C365.242 447.353 361.728 480.467 363.033 513.567C364.66 556.336 365.393 598.453 365.621 615.303C371.46 615.265 377.277 614.583 382.967 613.268Z" fill="#FF61CB"/>
<path d="M428.936 583.866C434.745 554.056 425.079 485.744 425.079 477.082C425.079 468.828 424.949 398.676 424.933 392.033L408.01 405.058C408.01 405.058 402.64 460.069 408.01 491.344C412.891 519.851 409.751 575.368 412.143 591.257C421.483 591.355 428.936 583.866 428.936 583.866Z" fill="#FF61CB"/>
<path d="M429.636 251.745C429.636 251.745 445.908 259.885 436.681 287.562C427.455 315.238 420.979 333.147 421.532 343.387C422.085 353.628 424.656 391.822 426.837 398.855C426.837 398.855 428.073 410.707 383.911 416.666C383.911 416.666 344.076 421.306 351.106 393.124C358.135 364.943 352.733 334.189 351.643 323.346C350.552 312.503 344.027 290.785 371.169 276.133C398.312 261.48 412.306 250.686 429.636 251.745Z" fill="#CADFE8"/>
<path d="M410.402 238.118C410.402 238.118 408.774 252.559 413.656 261.611C418.164 269.751 384.138 277.289 383.341 269.751C383.243 268.953 389.85 256.499 381.584 241.748C377.255 233.983 410.402 238.118 410.402 238.118Z" fill="#EFB185"/>
<path d="M413.477 262.099C409.783 255.375 409.783 245.672 410.044 241.146L385.212 253.47C386.107 253.698 402.884 257.964 406.513 270.028C411.622 268.025 415.088 265.078 413.477 262.099Z" fill="#DD9569"/>
<path d="M374.587 199.745C374.587 199.745 369.298 212.851 370.372 224.166C371.495 236.311 369.672 238.818 370.372 244.191C370.698 246.502 370.877 250.003 373.138 252.152C376.881 255.782 384.529 257.036 395.09 253.291C407.766 248.635 421.125 231.215 415.69 215.553C410.255 199.891 393.641 186.981 374.587 199.745Z" fill="#EFB185"/>
<path d="M415.186 232.485C410.076 218.37 397.498 201.552 397.612 200.575C397.612 200.038 393.495 197.4 388.743 194.6C383.651 195.026 378.765 196.802 374.587 199.745C373.534 202.497 372.659 205.314 371.967 208.178C374.977 211.581 381.112 215.423 382.039 218.288C384.236 225.028 382.999 235.285 380.982 239.762C378.964 244.239 387.116 250.914 385.391 254.903C385.327 255.088 385.327 255.288 385.391 255.473C388.73 255.186 392.015 254.446 395.155 253.275C403.242 250.296 411.606 242.09 415.186 232.485Z" fill="#E6A376"/>
<path d="M370.844 194.389C370.441 197.784 371.117 201.22 372.776 204.21C374.435 207.199 376.993 209.59 380.087 211.044C386.742 214.3 386.124 225.028 385.831 226.998C385.538 228.968 383.553 238.037 384.366 239.209C385.993 241.439 391.119 234.455 393.593 234.943C399.89 236.181 397.433 242.042 391.705 248.212C385.619 254.724 401.647 257.443 409.051 252.038C412.989 249.172 414.421 247.447 419.596 237.157C427.113 222.163 427.504 204.157 409.832 194.551C392.161 184.946 381.877 198.719 370.844 194.389Z" fill="#221101"/>
<path d="M409.051 252.038C412.989 249.172 414.421 247.447 419.596 237.157C427.113 222.163 427.504 204.157 409.832 194.551C392.161 184.946 381.893 198.719 370.893 194.389C370.699 195.883 370.732 197.398 370.99 198.882C376.604 199.794 391.949 202.822 395.919 209.448C400.801 217.588 406.22 214.951 405.797 225.061C405.422 234.829 407.928 247.544 391.575 253.063C397.612 257.443 406.171 254.138 409.051 252.038Z" fill="#341C09"/>
<path d="M385.229 265.192L374.147 274.537C374.147 274.537 408.644 284.403 418.749 267.504C420.181 265.095 418.44 257.101 412.436 255.603C412.436 255.587 411.264 269.344 385.229 265.192Z" fill="#DEF0F9"/>
<path d="M351.106 393.108C358.152 364.926 352.733 334.173 351.643 323.33C350.552 312.487 344.239 291.241 370.388 276.605C379.501 282.14 392.681 294.058 385.212 314.196C375.953 339.138 372.911 393.173 371.104 416.568C360.153 415.331 346.777 410.414 351.106 393.108Z" fill="#AFCED8"/>
<path d="M378.622 291.632C378.622 291.632 378.882 277.419 358.737 276.328C345.245 275.715 331.728 275.867 318.252 276.784L288.637 240.967C288.637 240.967 279.785 241.911 277.62 247.577C277.62 247.577 296.301 289.125 312.052 297.135C312.004 297.167 382.186 323.379 378.622 291.632Z" fill="#CADFE8"/>
<path d="M286.814 241.309C286.814 241.309 286.196 230.987 283.739 227.096C282.226 224.467 280.07 222.265 277.474 220.698C276.351 220.128 278.401 225.126 279.101 226.722C279.801 228.317 278.955 232.485 271.486 224.687C264.017 216.888 264.977 219.477 264.814 220.372C264.651 221.268 268.394 239.16 278.076 246.584C278.06 246.584 280.305 243.035 286.814 241.309Z" fill="#EFB185"/>
<path d="M312.004 297.167C296.252 289.157 277.572 247.609 277.572 247.609C278.191 246.094 279.258 244.805 280.631 243.914C285.317 251.924 299.165 275.172 308.391 287.578C319.668 302.686 378.053 297.688 378.362 297.346C373.057 319.911 312.004 297.167 312.004 297.167Z" fill="#AFCED8"/>
<g opacity="0.1">
<path d="M123.474 459.418C144.204 471.384 144.253 490.742 123.75 502.659C103.247 514.576 69.9217 514.625 49.1909 502.659C28.4601 490.693 28.4438 471.417 48.9469 459.5C69.4499 447.582 102.857 447.501 123.474 459.418Z" fill="black"/>
</g>
<path d="M149.184 420.752L43.756 422.38L56.4321 487.811H56.6111C57.4898 493.005 61.3626 498.052 68.2457 502.04C83.9484 511.109 109.268 511.109 124.824 502.04C131.659 498.068 135.483 493.005 136.215 487.795L149.184 420.752Z" fill="url(#paint2_linear_0_38)"/>
<path d="M133.595 399.132C154.309 411.098 154.375 430.472 133.872 442.389C113.369 454.306 80.0268 454.306 59.3123 442.389C38.5977 430.472 38.5326 411.098 59.0682 399.18C79.6037 387.263 112.962 387.247 133.595 399.132Z" fill="#FFE85F"/>
<path d="M122.139 404.96C137.305 413.703 137.305 427.834 122.302 436.577C107.299 445.319 82.9721 445.27 67.8226 436.577C52.6732 427.883 52.6406 413.784 67.6274 404.993C82.6141 396.201 107.055 396.266 122.139 404.96Z" fill="#4D9B12"/>
<path d="M58.0593 410.707C58.0593 410.707 16.0444 357.568 57.3596 261.887C57.3596 261.887 93.6629 307.701 72.867 425.083C72.867 425.083 64.7797 422.055 58.0593 410.707Z" fill="#73C139"/>
<path d="M57.864 262.571C58.6451 299.398 60.7279 363.331 65.7886 420.313C67.8577 422.296 70.252 423.91 72.867 425.083C92.231 315.613 62.0622 268.448 57.864 262.571Z" fill="#4D9B12"/>
<path d="M78.7738 404.211C78.7738 404.211 45.0415 345.357 100.172 256.922C100.172 256.922 129.283 307.619 91.2221 420.622C91.2221 420.622 83.688 416.421 78.7738 404.211Z" fill="#73C139"/>
<path d="M100.172 256.922C95.4854 293.471 85.1037 356.916 81.6703 414.045C83.4331 416.308 85.5615 418.262 87.9676 419.824C129.299 321.116 103.426 263.353 100.172 256.922Z" fill="#4D9B12"/>
<path d="M80.8404 427.427C80.8404 427.427 30.3965 409.616 17.8669 328.393C17.8669 328.393 61.3137 343.697 96.7709 430.83C96.8197 430.83 90.1481 432.197 80.8404 427.427Z" fill="#73C139"/>
<path d="M18.5178 328.621C34.5297 352.928 62.7131 394.72 90.1156 430.618C92.3328 431.071 94.611 431.143 96.8523 430.83C63.7871 349.606 23.8876 330.819 18.5178 328.621Z" fill="#4D9B12"/>
<path d="M103.264 419.58C103.264 419.58 76.2842 388.745 98.3819 329.744C98.3819 329.744 121.667 356.298 112.669 427.818C112.669 427.818 107.657 426.255 103.264 419.58Z" fill="#73C139"/>
<path d="M98.7399 330.135C100.367 352.374 103.475 390.91 108.243 425.164C109.564 426.301 111.073 427.199 112.701 427.818C121.049 361.166 101.408 333.554 98.7399 330.135Z" fill="#4D9B12"/>
<path d="M115.256 399.799C115.256 399.799 89.4647 352.928 134.002 283.882C134.002 283.882 156.311 324.274 124.873 412.872C124.873 412.921 118.999 409.486 115.256 399.799Z" fill="#73C139"/>
<path d="M134.327 284.501C130.145 313.269 123.409 363.282 120.008 408.232C121.361 410.035 123.012 411.593 124.889 412.84C154.163 330.233 136.817 289.646 134.327 284.501Z" fill="#4D9B12"/>
<path d="M121.879 408.542C121.879 408.542 115.777 369.062 164.642 332.024C164.642 332.024 170.028 366.033 125.28 420.199C125.28 420.199 122.042 416.275 121.879 408.542Z" fill="#73C139"/>
<path d="M164.74 332.512C154.423 351.609 136.98 385 123.067 415.705C123.543 417.318 124.291 418.838 125.28 420.199C166.953 369.713 165.163 336.761 164.74 332.512Z" fill="#4D9B12"/>
<g opacity="0.1">
<path d="M258.891 608.026C266.116 612.194 266.116 618.967 258.972 623.118L245.466 630.965L226.932 641.743L194.014 660.889L183.16 631.584L141.048 607.196C133.823 603.028 133.79 596.272 141.048 592.104L173.088 573.479C180.231 569.327 191.915 569.295 199.123 573.479L258.891 608.026ZM230.106 626.195L234.987 623.346L171.021 586.406L166.139 589.238L230.106 626.195ZM243.123 618.641L248.005 615.792L184.006 578.835L179.125 581.684L243.091 618.625L243.123 618.641ZM217.088 633.733L221.969 630.9L158.003 593.944L153.122 596.793L217.104 633.733H217.088Z" fill="black"/>
</g>
<path d="M185.878 559.217L185.861 567.667L180.98 570.5L180.996 562.066L185.878 559.217Z" fill="#C5C5C5"/>
<path d="M172.892 566.771L172.876 575.205L167.994 578.054L168.011 569.621L172.892 566.771Z" fill="#C5C5C5"/>
<path d="M159.923 574.326L159.891 582.759L155.009 585.592L155.025 577.158L159.923 574.326Z" fill="#C5C5C5"/>
<path d="M137.468 588.441V579.991C137.468 582.743 139.274 585.494 142.903 587.61V596.027C139.274 593.927 137.468 591.176 137.468 588.441Z" fill="#95C4DE"/>
<path d="M142.935 587.61V596.027C139.29 593.927 137.484 591.143 137.484 588.441V579.991C137.484 582.743 139.29 585.494 142.919 587.61H142.935Z" fill="#95C4DE"/>
<path d="M249.844 596.174L249.827 604.607L185.861 567.667L185.878 559.217L249.844 596.174Z" fill="#898989"/>
<path d="M249.844 596.174L244.962 599.023L180.996 562.066L185.878 559.217L249.844 596.174Z" fill="#3FBAD4"/>
<path d="M249.844 596.174L249.827 604.607L244.946 607.456L244.962 599.023L249.844 596.174Z" fill="#38A7BE"/>
<path d="M244.962 599.023L244.946 607.456L180.98 570.5L180.996 562.066L244.962 599.023Z" fill="#277484"/>
<path d="M236.858 603.728L236.842 612.161L172.876 575.205L172.892 566.771L236.858 603.728Z" fill="#898989"/>
<path d="M231.977 606.561L231.944 614.994L167.994 578.054L168.011 569.621L231.977 606.561Z" fill="#277484"/>
<path d="M236.858 603.728L236.842 612.161L231.944 614.994L231.977 606.561L236.858 603.728Z" fill="#38A7BE"/>
<path d="M236.858 603.728L231.977 606.561L168.011 569.621L172.892 566.771L236.858 603.728Z" fill="#3FBAD4"/>
<path d="M223.89 611.266L223.857 619.699L159.891 582.759L159.923 574.326L223.89 611.266Z" fill="#898989"/>
<path d="M185.031 611.901L184.999 620.334L142.919 596.027L142.951 587.594L185.031 611.901Z" fill="#95C4DE"/>
<path d="M223.89 611.266L223.857 619.699L218.975 622.548L218.992 614.115L223.89 611.266Z" fill="#38A7BE"/>
<path d="M218.992 614.115L218.975 622.548L155.009 585.592L155.025 577.175L218.992 614.115Z" fill="#277484"/>
<path d="M260.762 588.424C267.987 592.592 267.987 599.365 260.844 603.516L247.338 611.38L228.804 622.141L195.885 641.287L185.031 611.982L142.935 587.61C135.71 583.426 135.678 576.686 142.935 572.502L174.959 553.877C182.102 549.71 193.786 549.693 200.995 553.877L260.762 588.424ZM231.977 606.659L236.859 603.809L172.892 566.869L168.011 569.702L231.977 606.659ZM244.995 599.104L249.876 596.255L185.91 559.315L181.029 562.148L245.011 599.104H244.995ZM218.959 614.196L223.841 611.364L159.875 574.407L154.993 577.256L218.959 614.196Z" fill="#F8F9FD"/>
<path d="M223.89 611.266L218.992 614.115L155.025 577.175L159.923 574.326L223.89 611.266Z" fill="#3FBAD4"/>
<path d="M266.181 596.011C266.173 596.658 266.069 597.3 265.872 597.916C265.879 597.981 265.879 598.046 265.872 598.111C265.658 598.724 265.362 599.304 264.993 599.837C264.934 599.938 264.869 600.036 264.798 600.13C264.367 600.727 263.87 601.273 263.317 601.758C262.932 602.083 262.53 602.387 262.113 602.67C261.706 602.947 261.364 603.256 260.909 603.516L247.403 611.38L228.869 622.141L195.885 641.287V649.72L228.804 630.575L247.338 619.813L260.844 611.95L261.072 611.82C261.427 611.583 261.769 611.327 262.097 611.054C262.503 610.789 262.894 610.501 263.268 610.191L263.398 610.094C263.808 609.715 264.189 609.307 264.538 608.873C264.608 608.773 264.674 608.67 264.733 608.563L264.944 608.27C265.058 608.091 265.188 607.928 265.286 607.766C265.475 607.426 265.639 607.072 265.774 606.707V606.545C265.767 606.48 265.767 606.414 265.774 606.349C265.849 606.126 265.909 605.897 265.953 605.666C266.021 605.322 266.064 604.973 266.083 604.624V596.011H266.181Z" fill="#A9D6EA"/>
<path d="M195.885 641.287L195.869 649.72L184.999 620.334L185.031 611.901L195.885 641.287Z" fill="#95C4DE"/>
<path opacity="0.1" d="M97.2916 551.061C85.2665 544.109 65.8049 544.109 53.8448 551.061C41.8847 558.013 41.9661 569.295 53.9912 576.247C66.0164 583.198 85.4617 583.182 97.4218 576.247C109.382 569.311 109.333 558.013 97.2916 551.061Z" fill="black"/>
<path d="M90.6851 542.79C94.5742 545.021 94.5904 548.651 90.6851 550.931C88.4805 552.102 86.0033 552.665 83.509 552.559C84.8922 555.424 83.9647 558.827 80.7753 561.92L57.6199 548.554C62.792 546.722 68.3287 546.164 73.762 546.926C73.8137 546.036 74.1079 545.177 74.6127 544.442C75.1176 543.707 75.8138 543.125 76.6259 542.758C78.8051 541.651 81.2155 541.077 83.6594 541.082C86.1033 541.088 88.5111 541.673 90.6851 542.79V542.79Z" fill="#F8F9FD"/>
<path d="M109.366 550.768C109.345 551.068 109.307 551.367 109.252 551.663C109.197 551.944 109.126 552.221 109.04 552.494C109.04 552.787 108.894 553.08 108.796 553.373C108.698 553.666 108.585 553.877 108.471 554.138C108.357 554.398 108.194 554.773 108.031 555.098L107.624 555.75C107.396 556.132 107.146 556.502 106.876 556.857L106.404 557.443C105.986 557.949 105.54 558.433 105.07 558.892L104.598 559.348C104.282 559.636 103.95 559.908 103.605 560.162C103.329 560.39 103.085 560.601 102.792 560.813C102.499 561.024 102.043 561.317 101.669 561.562C101.295 561.806 100.92 562.066 100.514 562.311C99.1326 563.087 97.6968 563.762 96.2177 564.329L95.0298 564.785C94.1023 565.127 93.1259 565.388 92.1659 565.664C91.2058 565.941 90.1156 566.218 89.0579 566.43C88.0002 566.641 86.617 566.918 85.3804 567.064L84.4203 567.211C82.6924 567.428 80.9543 567.553 79.2132 567.585H78.3833C76.6765 567.583 74.9709 567.491 73.2738 567.309H72.5253C70.8849 567.109 69.2556 566.826 67.6436 566.462L66.7812 566.25C65.3503 565.893 63.9382 565.464 62.5504 564.964L61.7531 564.688C60.1418 564.077 58.5804 563.342 57.083 562.49C51.0297 558.989 48.0031 554.349 48.0193 549.807V557.72C48.0193 562.311 51.0297 566.902 57.083 570.402C58.5009 571.211 59.9745 571.918 61.4927 572.518L61.7694 572.6C61.9972 572.698 62.2413 572.763 62.4691 572.844C63.3803 573.17 64.2753 573.512 65.2354 573.788L66.8626 574.163L67.6924 574.374L68.4898 574.553C69.4987 574.765 70.5075 574.944 71.5327 575.091L72.6392 575.221L73.4203 575.302C73.7783 575.302 74.1525 575.4 74.5105 575.416C75.5194 575.514 76.5283 575.563 77.5371 575.579H80.6777C81.8167 575.579 82.9558 575.498 84.0949 575.335H84.4854L85.4129 575.205C86.2916 575.091 87.154 574.993 88.0165 574.847C88.3907 574.847 88.7324 574.651 89.123 574.57C90.1807 574.358 91.1895 574.081 92.2147 573.788C92.7517 573.642 93.3212 573.56 93.8419 573.398C94.3626 573.235 94.6718 573.072 95.0949 572.925L96.3153 572.47C97.78 571.887 99.2043 571.207 100.579 570.435L100.953 570.207C101.211 570.052 101.461 569.883 101.701 569.702C102.092 569.458 102.499 569.197 102.857 568.937C103.215 568.676 103.426 568.497 103.703 568.269C103.98 568.041 104.37 567.748 104.663 567.471L104.842 567.325C104.972 567.227 105.037 567.097 105.151 566.999C105.621 566.546 106.067 566.068 106.485 565.567L106.762 565.274L106.957 564.964C107.227 564.615 107.477 564.251 107.706 563.874C107.706 563.727 107.917 563.58 107.982 563.434C108.03 563.363 108.068 563.287 108.096 563.206C108.268 562.89 108.42 562.564 108.552 562.229C108.552 562.05 108.747 561.871 108.812 561.692C108.82 561.627 108.82 561.562 108.812 561.497C108.916 561.203 109.003 560.904 109.073 560.601C109.073 560.389 109.219 560.178 109.268 559.95C109.261 559.89 109.261 559.83 109.268 559.771C109.317 559.48 109.35 559.186 109.366 558.892C109.382 558.659 109.382 558.425 109.366 558.192V550.051C109.431 550.133 109.382 550.442 109.366 550.768Z" fill="#E1BB00"/>
<path d="M100.367 537.141C112.409 544.093 112.441 555.359 100.497 562.311C88.5534 569.262 69.1081 569.279 57.0667 562.311C45.0252 555.343 44.9764 544.077 56.9202 537.125C68.8641 530.173 88.3582 530.14 100.367 537.141ZM57.6525 548.537L80.8404 561.936C84.0948 558.843 84.9573 555.424 83.5741 552.575C86.0683 552.681 88.5456 552.119 90.7502 550.947C94.6067 548.716 94.5904 545.086 90.7502 542.807C88.5799 541.703 86.1796 541.127 83.745 541.127C81.3104 541.127 78.9101 541.703 76.7398 542.807C75.9277 543.174 75.2315 543.756 74.7266 544.491C74.2218 545.225 73.9276 546.084 73.8759 546.974C68.4426 546.213 62.9059 546.771 57.7338 548.602L57.6525 548.537Z" fill="#FFDF02"/>
<path opacity="0.1" d="M104.354 532.713C92.117 525.647 72.2975 525.647 60.1421 532.713C47.9868 539.778 48.0356 551.272 60.2723 558.354C72.509 565.436 92.3123 565.404 104.484 558.354C116.656 551.305 116.639 539.795 104.354 532.713Z" fill="black"/>
<path d="M96.2014 526.022C100.156 528.301 100.172 531.996 96.2014 534.276C93.9528 535.455 91.4316 536.017 88.8951 535.904C90.3108 538.818 89.3508 542.286 86.1126 545.444L62.5341 531.834C67.8045 529.988 73.4394 529.43 78.9691 530.206C79.0149 529.297 79.3134 528.42 79.8309 527.672C80.3484 526.924 81.0643 526.335 81.8981 525.973C84.1162 524.848 86.5692 524.267 89.0556 524.275C91.5421 524.284 93.991 524.882 96.2014 526.022V526.022Z" fill="#F8F9FD"/>
<path d="M115.207 534.162C115.207 534.455 115.207 534.764 115.11 535.057C115.012 535.35 114.963 535.627 114.898 535.904C114.833 536.181 114.735 536.506 114.638 536.799C114.54 537.092 114.426 537.32 114.312 537.581C114.175 537.916 114.017 538.242 113.84 538.557C113.727 538.769 113.596 538.997 113.45 539.225C113.303 539.453 112.962 539.974 112.685 540.348L112.213 540.951C111.783 541.463 111.327 541.952 110.846 542.416C110.692 542.581 110.529 542.739 110.358 542.888C110.049 543.165 109.691 543.442 109.366 543.718C109.04 543.995 108.812 544.174 108.519 544.386C108.227 544.598 107.771 544.891 107.38 545.135C106.99 545.379 106.616 545.656 106.193 545.9C104.793 546.721 103.335 547.439 101.832 548.049L100.627 548.505C99.6836 548.847 98.691 549.123 97.6984 549.4C96.7058 549.677 95.6156 549.954 94.5416 550.182C93.4677 550.41 92.0682 550.67 90.799 550.817C90.4736 550.817 90.1481 550.931 89.8064 550.963C88.0715 551.151 86.328 551.249 84.583 551.256H83.7369C81.9957 551.256 80.2546 551.159 78.546 550.979L77.7812 550.882C76.0904 550.688 74.4118 550.4 72.7531 550.019L71.8744 549.807C70.4138 549.454 68.9742 549.019 67.5623 548.505L66.7487 548.228C65.1086 547.605 63.5199 546.853 61.9972 545.981C55.83 542.432 52.7546 537.743 52.7708 533.071V541.13C52.7708 545.802 55.8463 550.475 62.0134 554.024C63.4393 554.864 64.9303 555.588 66.472 556.189L66.7487 556.287C66.9765 556.368 67.2206 556.433 67.4484 556.531C68.3759 556.857 69.3034 557.199 70.2797 557.475C70.8004 557.622 71.3374 557.736 71.907 557.866L72.7531 558.078L73.5504 558.273C74.5756 558.485 75.617 558.664 76.6584 558.81L77.7812 558.941L78.5786 559.022L79.7014 559.152C80.7102 559.234 81.7517 559.299 82.7768 559.315H86.0313C87.2029 559.315 88.3582 559.201 89.4972 559.087H89.904L90.8478 558.941C91.7428 558.827 92.6215 558.729 93.5002 558.582C93.8907 558.501 94.2325 558.371 94.623 558.289C95.697 558.078 96.7384 557.801 97.7798 557.508C98.3168 557.361 98.8863 557.28 99.407 557.101C99.9277 556.922 100.237 556.775 100.66 556.629L101.913 556.157C103.406 555.566 104.858 554.875 106.258 554.089L106.632 553.861C106.909 553.698 107.136 553.519 107.397 553.356C107.657 553.194 108.21 552.835 108.568 552.575C108.926 552.314 109.154 552.119 109.431 551.891C109.707 551.663 110.114 551.354 110.407 551.077L110.602 550.931L110.911 550.589C111.387 550.13 111.838 549.647 112.262 549.14C112.262 549.026 112.457 548.944 112.539 548.83L112.75 548.537C113.027 548.163 113.271 547.788 113.499 547.414C113.727 547.04 113.727 547.121 113.808 546.958L113.906 546.73C114.085 546.405 114.231 546.079 114.377 545.737C114.474 545.557 114.561 545.373 114.638 545.184V544.988C114.749 544.692 114.836 544.387 114.898 544.077C114.898 543.849 115.045 543.637 115.093 543.425C115.101 543.366 115.101 543.306 115.093 543.246C115.147 542.945 115.185 542.64 115.207 542.335C115.207 542.107 115.207 541.862 115.207 541.634V533.299C115.289 533.494 115.24 533.836 115.207 534.162Z" fill="#E53399"/>
<path d="M106.079 520.372C118.315 527.454 118.364 538.916 106.193 545.981C94.0209 553.047 74.3315 552.933 61.9972 545.916C49.6628 538.899 49.6791 527.373 61.8507 520.372C74.0223 513.372 93.8582 513.209 106.079 520.372ZM62.583 531.996L86.1614 545.607C89.4159 542.448 90.3597 538.981 88.944 536.067C91.4804 536.18 94.0016 535.618 96.2502 534.438C100.172 532.159 100.156 528.464 96.2502 526.184C94.0423 525.061 91.6002 524.475 89.123 524.475C86.6458 524.475 84.2037 525.061 81.9957 526.184C81.162 526.547 80.446 527.135 79.9285 527.883C79.411 528.631 79.1126 529.509 79.0667 530.417C73.537 529.642 67.9021 530.2 62.6318 532.045L62.583 531.996Z" fill="#FF4CAA"/>
<g opacity="0.1">
<path d="M167.75 558.957C175.073 554.724 186.886 554.74 194.128 558.957L226.542 577.793C233.816 582.026 233.783 588.848 226.542 593.081L183.957 617.68L172.876 647.36L139.567 627.97L120.821 617.078L107.136 609.133C99.9115 604.917 99.9115 598.079 107.234 593.846L167.75 558.957ZM136.361 612.292L201.092 574.847L196.21 571.965L131.463 609.41L136.345 612.292H136.361ZM123.213 604.64L187.96 567.195L183.079 564.313L118.267 601.774L123.148 604.656L123.213 604.64ZM149.493 619.927L214.24 582.482L209.358 579.6L144.628 617.046L149.509 619.927H149.493Z" fill="black"/>
</g>
<path d="M185.487 549.026L185.503 557.557L190.45 560.438L190.434 551.907L185.487 549.026Z" fill="#C5C5C5"/>
<path d="M198.635 556.661L198.651 565.209L203.598 568.074L203.582 559.543L198.635 556.661Z" fill="#C5C5C5"/>
<path d="M211.783 564.313L211.799 572.844L216.746 575.726L216.713 567.178L211.783 564.313Z" fill="#C5C5C5"/>
<path d="M234.466 578.591V570.044C234.466 572.828 232.628 575.628 228.95 577.744V586.275C232.644 584.143 234.483 581.359 234.466 578.591Z" fill="#95C4DE"/>
<path d="M228.918 577.744V586.275C232.595 584.143 234.434 581.391 234.418 578.591V570.044C234.418 572.828 232.579 575.628 228.901 577.744H228.918Z" fill="#95C4DE"/>
<path d="M120.74 586.422L120.772 594.953L185.503 557.557L185.487 549.026L120.74 586.422Z" fill="#898989"/>
<path d="M120.74 586.422L125.687 589.304L190.434 551.907L185.487 549.026L120.74 586.422Z" fill="#3FBAD4"/>
<path d="M120.74 586.422L120.772 594.953L125.719 597.835L125.687 589.304L120.74 586.422Z" fill="#38A7BE"/>
<path d="M125.687 589.304L125.719 597.835L190.45 560.438L190.434 551.907L125.687 589.304Z" fill="#277484"/>
<path d="M133.888 594.058L133.92 602.588L198.651 565.209L198.635 556.661L133.888 594.058Z" fill="#898989"/>
<path d="M138.835 596.939L138.867 605.47L203.598 568.074L203.582 559.543L138.835 596.939Z" fill="#277484"/>
<path d="M133.888 594.057L133.92 602.588L138.867 605.47L138.835 596.939L133.888 594.057Z" fill="#38A7BE"/>
<path d="M133.888 594.058L138.835 596.939L203.582 559.543L198.635 556.661L133.888 594.058Z" fill="#3FBAD4"/>
<path d="M147.036 601.709L147.052 610.24L211.799 572.844L211.783 564.313L147.036 601.709Z" fill="#898989"/>
<path d="M186.349 602.344L186.382 610.875L228.966 586.275L228.95 577.744L186.349 602.344Z" fill="#95C4DE"/>
<path d="M147.036 601.709L147.052 610.24L151.999 613.106L151.983 604.575L147.036 601.709Z" fill="#38A7BE"/>
<path d="M151.983 604.575L151.999 613.106L216.746 575.726L216.713 567.178L151.983 604.575Z" fill="#277484"/>
<path d="M170.224 543.604C177.546 539.388 189.36 539.404 196.601 543.604L229.015 562.457C236.289 566.69 236.256 573.528 228.934 577.744L186.349 602.344L175.349 632.072L142.04 612.715L123.295 601.774L109.61 593.83C102.385 589.613 102.385 582.775 109.61 578.526L170.224 543.604ZM138.835 596.89L203.566 559.445L198.684 556.564L133.953 594.009L138.835 596.874V596.89ZM125.687 589.255L190.434 551.81L185.552 548.928L120.805 586.373L125.687 589.255ZM151.966 604.542L216.713 567.097L211.832 564.232L147.085 601.677L151.966 604.558V604.542Z" fill="#F8F9FD"/>
<path d="M147.036 601.709L151.983 604.575L216.713 567.178L211.783 564.313L147.036 601.709Z" fill="#3FBAD4"/>
<path d="M104.207 586.275C104.215 586.922 104.319 587.564 104.516 588.18C104.516 588.18 104.516 588.327 104.516 588.392C104.739 589.008 105.04 589.594 105.411 590.134C105.471 590.235 105.536 590.333 105.607 590.427C106.044 591.023 106.546 591.569 107.104 592.055C107.494 592.381 107.901 592.685 108.324 592.967C108.731 593.26 109.089 593.569 109.545 593.846L123.23 601.791L141.975 612.699L175.284 632.056V640.587L142.057 621.311L123.311 610.419L109.642 602.474L109.414 602.344C109.008 602.1 108.731 601.823 108.373 601.579C108.015 601.335 107.543 600.993 107.185 600.7C107.185 600.7 107.088 600.7 107.055 600.586C106.64 600.202 106.254 599.789 105.9 599.349C105.829 599.255 105.764 599.157 105.704 599.056L105.493 598.746C105.379 598.567 105.249 598.404 105.151 598.225C104.959 597.887 104.795 597.533 104.663 597.167C104.656 597.113 104.656 597.058 104.663 597.004C104.658 596.939 104.658 596.874 104.663 596.809C104.585 596.579 104.52 596.346 104.468 596.109C104.392 595.761 104.349 595.407 104.338 595.051V586.357L104.207 586.275Z" fill="#A9D6EA"/>
<path d="M175.366 632.072L175.382 640.603L186.382 610.875L186.35 602.344L175.366 632.072Z" fill="#95C4DE"/>
<g opacity="0.1">
<path d="M608.239 589.418C631.883 603.061 631.964 625.235 608.565 638.764C585.165 652.293 547.121 652.407 523.494 638.764C499.866 625.121 499.801 603.093 523.201 589.499C546.6 575.905 584.71 575.84 608.239 589.418Z" fill="black"/>
</g>
<path d="M590.161 620.269C590.433 619.28 590.602 618.265 590.665 617.241L606.938 519.558H495.326L511.599 617.632C511.657 618.571 511.805 619.503 512.038 620.416L512.152 620.985C513.551 625.365 517.131 629.533 522.957 632.903C538.367 641.873 563.426 641.873 578.933 632.903C584.775 629.533 588.436 625.365 589.884 620.985L590.161 620.269Z" fill="url(#paint3_linear_0_38)"/>
<path d="M511.794 496.635C489.94 509.253 489.81 529.733 511.517 542.351C533.224 554.968 568.6 554.984 590.454 542.351C612.307 529.717 612.421 509.285 590.682 496.635C568.942 483.985 533.664 484.002 511.794 496.635Z" fill="#FFFFFE"/>
<path d="M511.794 496.635C489.94 509.253 489.81 529.733 511.517 542.351C533.224 554.968 568.6 554.984 590.454 542.351C612.307 529.717 612.421 509.285 590.682 496.635C568.942 483.985 533.664 484.002 511.794 496.635Z" fill="#FFE85F"/>
<path d="M517.587 499.989C498.955 510.767 498.841 528.219 517.359 539.062C535.877 549.905 566.029 549.84 584.677 539.062C603.325 528.285 603.423 510.832 584.873 499.989C566.322 489.146 536.235 489.228 517.587 499.989Z" fill="#ED8001"/>
<path d="M584.677 538.997C566.029 549.775 535.861 549.775 517.359 538.997C512.499 536.401 508.454 532.507 505.676 527.747C507.303 522.261 511.713 516.97 519.035 512.753C537.667 501.959 567.852 501.959 586.321 512.753C591.189 515.345 595.236 519.247 598.004 524.019C596.393 529.489 592 534.764 584.677 538.997Z" fill="#58361A"/>
<path d="M578.77 605.877L578.51 605.747C577.689 605.4 576.89 605.003 576.118 604.558L581.423 601.481C582.19 601.926 582.983 602.323 583.799 602.67C584.015 602.776 584.238 602.868 584.466 602.947C584.921 603.126 585.361 603.272 585.8 603.402L586.581 603.63L587.362 603.793L588.273 603.94H588.859C589.201 603.94 589.543 603.94 589.901 603.94H590.291C590.747 603.94 591.186 603.891 591.609 603.793L591.87 603.712C592.212 603.644 592.549 603.552 592.878 603.435L593.188 603.337C593.582 603.173 593.967 602.988 594.343 602.784L589.054 605.877H588.957C588.68 606.043 588.392 606.19 588.094 606.317H587.899L587.557 606.447L587.183 606.577L586.597 606.707L586.304 606.789H586.207C585.847 606.857 585.483 606.901 585.117 606.919H584.58C584.352 606.919 584.14 606.919 583.929 606.919H583.571C583.359 606.919 583.164 606.919 582.952 606.919H582.578C582.413 606.892 582.25 606.854 582.09 606.805L581.276 606.642H580.951C580.788 606.642 580.658 606.528 580.512 606.496C580.056 606.365 579.633 606.219 579.177 606.04C579.036 606 578.9 605.946 578.77 605.877V605.877Z" fill="#F79534"/>
<path d="M600.136 599.511C600.136 598.714 600.136 597.883 600.038 597.069C600.038 596.825 600.038 596.581 600.038 596.337C600.038 595.816 599.924 595.295 599.827 594.709C599.774 594.161 599.687 593.617 599.566 593.081C599.469 592.592 599.387 592.12 599.273 591.632C599.16 591.143 599.111 590.932 598.997 590.59C598.867 589.987 598.688 589.401 598.509 588.815L598.265 588.017C598.004 587.187 597.711 586.389 597.386 585.527C597.342 585.387 597.287 585.251 597.223 585.119C596.946 584.419 596.637 583.671 596.296 582.954C596.198 582.726 596.1 582.515 596.019 582.287C595.645 581.538 595.254 580.74 594.864 579.991C594.832 579.923 594.794 579.857 594.75 579.796C594.327 578.982 593.871 578.168 593.383 577.37L592.976 576.67C592.602 576.084 592.228 575.53 591.87 574.961L591.333 574.146C590.926 573.577 590.503 572.991 590.08 572.518L589.608 571.867C589.217 571.363 588.81 570.89 588.404 570.402C588.165 570.064 587.904 569.744 587.623 569.441L587.102 568.839L585.149 566.755L583.929 565.599L583.131 564.85C582.659 564.427 582.171 564.02 581.683 563.629C581.455 563.418 581.179 563.19 580.918 562.978L579.291 561.757C579.08 561.611 578.852 561.448 578.657 561.285C577.875 560.78 577.029 560.259 576.297 559.803L581.602 556.726C582.383 557.182 583.229 557.687 583.961 558.224L584.596 558.68C585.149 559.071 585.692 559.478 586.223 559.901L586.988 560.552C587.46 560.943 587.948 561.334 588.42 561.757C588.892 562.18 588.973 562.262 589.217 562.539C589.509 562.776 589.786 563.032 590.047 563.304C590.179 563.416 590.299 563.541 590.405 563.678C591.088 564.362 591.756 565.062 592.39 565.811L592.813 566.218C592.808 566.261 592.808 566.305 592.813 566.348C593.139 566.706 593.448 567.097 593.741 567.488L594.668 568.611C594.71 568.657 594.748 568.706 594.782 568.758L595.336 569.49C595.645 569.914 595.97 570.337 596.279 570.776L596.556 571.183C596.719 571.428 596.865 571.672 597.044 571.9C597.223 572.128 597.467 572.518 597.662 572.844C597.858 573.17 598.004 573.414 598.199 573.691L598.59 574.374C598.688 574.521 598.785 574.667 598.867 574.814C599.257 575.449 599.615 576.116 599.957 576.768C600.282 577.354 600.608 577.972 600.901 578.575C600.998 578.77 601.08 578.965 601.161 579.177L601.486 579.845C601.584 580.073 601.698 580.284 601.779 580.528C602.007 581.017 602.186 581.505 602.398 581.994C602.398 582.14 602.512 582.287 602.544 582.417C602.553 582.449 602.553 582.483 602.544 582.515C602.804 583.198 603.065 583.882 603.293 584.582L603.39 584.908C603.472 585.168 603.553 585.413 603.618 585.673C603.683 585.934 603.846 586.422 603.976 586.78L604.123 587.48C604.236 587.822 604.302 588.18 604.399 588.538C604.497 588.897 604.513 588.994 604.562 589.222C604.611 589.45 604.643 589.711 604.676 589.955C604.79 590.476 604.887 591.029 604.969 591.583C604.969 591.794 605.05 592.006 605.066 592.25C605.083 592.495 605.066 592.836 605.164 593.13C605.262 593.423 605.164 593.618 605.164 593.895C605.164 594.709 605.262 595.523 605.262 596.32C605.262 603.109 602.788 607.863 598.753 610.159L593.448 613.252C597.695 611.038 600.12 606.284 600.136 599.511Z" fill="#F79534"/>
<path d="M576.216 559.82V566.723C585.979 572.339 593.79 585.347 593.757 595.816C593.725 606.284 585.816 610.175 576.102 604.558V611.478C589.38 619.129 600.168 613.789 600.185 599.511C600.201 585.233 589.461 567.488 576.216 559.82Z" fill="#FACD00"/>
</g>
<defs>
<linearGradient id="paint0_linear_0_38" x1="202.866" y1="172.28" x2="180.062" y2="485.237" gradientUnits="userSpaceOnUse">
<stop stop-color="#1A6BB2"/>
<stop offset="1" stop-color="#1B4B92"/>
</linearGradient>
<linearGradient id="paint1_linear_0_38" x1="384.545" y1="78.7486" x2="220.753" y2="488.015" gradientUnits="userSpaceOnUse">
<stop stop-color="#1A6BB2"/>
<stop offset="1" stop-color="#1B4B92"/>
</linearGradient>
<linearGradient id="paint2_linear_0_38" x1="96.5431" y1="430.227" x2="97.5693" y2="539.876" gradientUnits="userSpaceOnUse">
<stop stop-color="#FFDF02"/>
<stop offset="0.13" stop-color="#F9D402"/>
<stop offset="0.44" stop-color="#ECBD01"/>
<stop offset="0.74" stop-color="#E4AF00"/>
<stop offset="1" stop-color="#E1AA00"/>
</linearGradient>
<linearGradient id="paint3_linear_0_38" x1="551.124" y1="536.799" x2="551.124" y2="670.511" gradientUnits="userSpaceOnUse">
<stop stop-color="#FFDF02"/>
<stop offset="0.13" stop-color="#F9D402"/>
<stop offset="0.44" stop-color="#ECBD01"/>
<stop offset="0.74" stop-color="#E4AF00"/>
<stop offset="1" stop-color="#E1AA00"/>
</linearGradient>
<clipPath id="clip0_0_38">
<rect width="702" height="711" fill="white"/>
</clipPath>
</defs>
</svg>
