<svg width="778" height="558" viewBox="0 0 778 558" fill="none" xmlns="http://www.w3.org/2000/svg">
<g clip-path="url(#clip0_24_12)">
<g opacity="0.1">
<path opacity="0.1" d="M165.537 271.635C50.5703 338.249 49.9789 431.582 164.206 498.048C278.433 564.513 464.153 564.661 579.119 498.048C694.086 431.434 694.751 338.249 580.524 271.784C466.297 205.318 280.503 205.244 165.537 271.635Z" fill="black"/>
</g>
<path d="M714.861 209.019L707.468 213.386L658.672 185.408L665.695 180.745L714.861 209.019Z" fill="#D32075"/>
<path d="M609.58 261.051L616.973 265.418L714.861 209.241L707.468 204.874L609.58 261.051Z" fill="#D32075"/>
<path d="M686.323 510.26L678.929 514.627L581.042 458.45L588.435 454.083L686.323 510.26Z" fill="#92AFFF"/>
<path d="M10.3506 284.514L17.8179 288.807L66.5399 260.829L59.5902 256.24L10.3506 284.514Z" fill="#FF9E03"/>
<path d="M115.706 336.547L108.238 340.914L10.3508 284.662L17.818 280.369L115.706 336.547Z" fill="#FF9E03"/>
<path d="M108.534 533.057L101.141 537.424L52.3448 509.446L59.3685 504.857L108.534 533.057Z" fill="#77BA10"/>
<path d="M94.117 534.389L101.51 538.756L199.398 482.579L192.005 478.212L94.117 534.389Z" fill="#77BA10"/>
<path d="M675.824 506.412L683.291 510.778L732.013 482.801L725.064 478.212L675.824 506.412Z" fill="#92AFFF"/>
<path d="M104.542 333.142C104.542 334.474 104.542 335.807 104.542 337.139L104.985 340.84L105.651 344.836C105.651 346.021 106.094 347.205 106.39 348.389C106.686 349.573 106.982 350.98 107.351 352.312C107.721 353.644 108.017 354.755 108.386 356.013L109.643 359.788C110.087 360.972 110.53 362.23 111.048 363.414C111.565 364.599 112.083 366.079 112.748 367.411C113.414 368.743 113.784 369.706 114.375 370.89C114.966 372.074 115.706 373.554 116.371 374.887L118.293 378.217C119.181 379.772 120.142 381.326 121.177 382.954L123.099 385.915C124.282 387.617 125.539 389.32 126.796 390.948C128.053 392.576 127.979 392.65 128.644 393.464C130.788 396.203 133.154 398.867 135.594 401.532L137.738 403.753C139.586 405.751 141.582 407.749 143.653 409.674L146.832 412.634L150.454 415.817L154.447 419.148L158.365 422.256L162.653 425.439L167.015 428.474C168.494 429.51 169.973 430.546 171.525 431.508L176.183 434.543L182.615 438.466C188.53 441.87 194.666 444.979 200.877 448.014L205.756 450.308C211.449 452.973 217.29 455.489 223.279 457.709L225.423 458.598C231.781 461.04 238.287 463.187 244.867 465.333C249.377 466.739 254.035 467.998 258.693 469.256C262.241 470.218 266.086 471.254 269.413 472.143C274.293 473.327 279.172 474.289 284.2 475.251C287.896 476.065 291.593 476.879 295.438 477.546L299.726 478.286C306.01 479.322 312.294 480.21 318.652 480.95L324.124 481.616C331.517 482.357 338.91 483.023 346.304 483.467H350.296C355.25 483.467 360.203 483.467 365.083 483.911C369.962 484.355 374.916 483.911 379.869 483.911L392.216 483.541C396.8 483.541 401.31 483.541 405.894 482.801L418.536 481.764L431.771 480.284C435.911 479.766 440.051 479.174 444.117 478.508C448.184 477.842 453.581 476.954 458.239 476.065C462.896 475.177 468.294 474.141 473.025 473.031L476.5 472.217C483.376 470.588 490.178 468.738 496.832 466.739L502.599 465.037C508.144 463.261 513.689 461.336 519.16 459.338L523.67 457.709C528.697 455.711 533.503 453.565 538.456 451.418C540.674 450.456 542.966 449.568 545.11 448.532C551.912 445.275 558.566 441.796 564.924 438.17C618.304 407.305 644.92 366.893 644.772 326.481C644.772 338.767 644.772 351.054 644.772 363.488C644.772 403.901 618.23 444.387 564.924 475.177C558.566 478.878 551.912 482.579 545.11 485.539C542.744 486.649 540.305 487.612 537.717 488.648C533.724 490.424 529.806 492.275 525.74 493.903L523.522 494.717L518.79 496.419C513.393 498.418 507.922 500.268 502.377 502.045L496.684 503.821L492.84 505.005C487.442 506.559 481.897 507.966 476.278 509.298L472.803 510.112C470.068 510.704 467.406 511.371 464.671 511.889C461.935 512.407 460.161 512.629 457.943 513.073C453.211 513.961 448.406 514.849 443.6 515.589C441.678 515.589 439.829 516.33 437.833 516.552L431.475 517.292C427.039 517.884 422.529 518.402 418.019 518.772C415.875 518.772 413.731 519.364 411.587 519.512L405.524 519.882L391.847 520.622C389.555 520.622 387.263 520.622 384.971 520.622C382.679 520.622 381.274 520.622 379.426 520.622C374.472 520.622 369.519 520.622 364.639 520.622H357.246L349.852 520.252H345.638C339.502 520.252 333.365 519.438 327.303 518.846L323.754 518.402L318.209 517.736C311.999 516.996 305.862 516.107 299.726 515.145L294.92 514.331H292.776C289.966 513.813 287.231 513.073 284.422 512.481C279.246 511.445 274.145 510.482 269.043 509.224C265.568 508.41 262.241 507.374 258.84 506.486C254.035 505.153 249.155 503.821 244.497 502.415C243.536 502.045 242.575 501.823 241.614 501.527C236.069 499.75 230.598 497.826 225.275 495.753L222.613 494.717C216.846 492.423 211.154 489.98 205.609 487.316L200.581 484.873C194.297 481.839 188.234 478.73 182.32 475.325L179.067 473.401L176.257 471.55L171.156 468.368L166.941 465.555L162.284 462.224L158.365 459.264C156.887 458.154 155.408 457.043 154.003 455.859L150.306 452.825L146.462 449.42L144.835 448.014L144.096 446.311C142.026 444.313 139.956 442.314 138.034 440.316L136.037 438.17C133.524 435.505 131.232 432.766 128.644 430.028V429.658L127.239 427.659C125.909 425.932 124.652 424.23 123.469 422.552C122.729 421.516 122.138 420.48 121.473 419.518L118.589 414.855C118.589 414.411 117.998 413.967 117.776 413.448L116.741 411.45C116.001 410.118 115.336 408.786 114.671 407.453C114.005 406.121 113.562 405.159 113.044 404.049C112.526 402.938 111.861 401.31 111.344 399.904C111.066 399.325 110.819 398.732 110.604 398.127C110.604 397.535 110.235 397.017 110.013 396.499L108.682 392.502C108.312 391.318 108.017 390.134 107.647 388.949C107.277 387.765 106.982 386.285 106.686 384.953C106.39 383.62 106.316 383.546 106.168 382.88V381.4C106.168 380.068 105.725 378.735 105.577 377.329C105.356 376.155 105.208 374.969 105.133 373.776C105.133 372.444 105.133 371.112 105.133 369.706V367.337V364.969C105.133 352.682 105.133 340.322 105.133 327.961C104.32 329.959 104.468 331.588 104.542 333.142Z" fill="#92AFFF"/>
<path d="M184.168 216.864C78.2214 278.075 77.6298 377.329 182.911 438.91C288.192 500.49 459.347 500.12 565.22 438.91C671.092 377.699 671.832 278.371 566.551 216.864C461.27 155.358 290.114 155.506 184.168 216.864Z" fill="#DEF4FF"/>
<path d="M373.067 285.032L373.215 328.035L573.205 222.193L573.057 179.117L373.067 285.032Z" fill="#FF9E03"/>
<path d="M101.51 289.029C101.51 290.361 101.51 291.694 101.51 293.026C101.51 294.358 101.51 295.468 101.954 296.727C102.398 297.985 102.324 299.391 102.62 300.723C102.915 302.056 103.063 303.166 103.359 304.35C103.654 305.535 103.95 307.015 104.32 308.347L105.429 312.048C105.799 313.306 106.242 314.638 106.686 315.897C107.129 317.155 107.573 318.339 108.091 319.597C108.608 320.856 109.199 322.262 109.791 323.668C110.382 325.074 110.826 325.963 111.417 327.073C112.009 328.183 112.822 329.885 113.562 331.292L115.336 334.474C116.297 336.177 117.332 337.805 118.441 339.433C119.012 340.464 119.655 341.453 120.364 342.394C121.546 344.17 122.877 345.947 124.134 347.649L125.909 350.018C128.2 352.83 130.566 355.643 133.302 358.381L135.224 360.38C137.22 362.452 139.364 364.599 141.508 366.671L144.54 369.483L148.606 372.962L152.303 376.071C153.707 377.255 155.186 378.365 156.665 379.476L160.731 382.584L165.389 385.841L169.825 388.801C171.451 389.887 173.078 390.923 174.705 391.91L181.21 395.907C185.72 398.497 190.378 401.014 195.11 403.308L200.433 405.825L209.675 410.192L216.033 412.856C218.991 414.041 221.948 415.299 224.905 416.409L231.781 418.852C234.738 419.986 237.696 421.023 240.653 421.96L245.089 423.366C251.595 425.439 258.249 427.289 264.977 428.992L268.674 429.954C276.067 431.804 283.46 433.433 291.445 434.839L298.469 436.097L307.489 437.503C310.224 437.947 312.96 438.318 315.769 438.614L324.641 439.724C327.746 439.724 330.926 440.39 334.105 440.612L340.315 441.13C343.79 441.13 347.339 441.574 350.813 441.796H356.654H361.903C369.297 441.796 376.69 441.796 384.083 441.796H388.076C395.469 441.796 403.528 441.13 411.143 440.612L416.836 440.094C424.229 439.428 431.253 438.688 438.424 437.651H441.086V480.654H439.977C439.287 480.618 438.596 480.618 437.907 480.654C430.957 481.542 424.008 482.357 416.984 482.949H413.657H411.217C403.824 483.541 395.839 483.985 388.15 484.207H386.967C386.08 484.207 385.192 484.207 384.305 484.207C376.912 484.207 369.519 484.207 362.125 484.207H359.094H356.876H351.035L340.537 483.615L334.252 483.097L328.929 483.319L324.937 482.801L316.065 481.764L307.71 480.654L298.765 479.174L293.811 478.434L291.667 477.916C284.274 476.509 276.437 474.881 268.895 473.105L265.347 472.143C258.545 470.44 251.891 468.516 245.311 466.443L242.649 465.703L241.022 465.111C237.917 464.075 234.886 463.039 231.929 461.928L225.201 459.56L216.181 455.859L210.045 453.343L200.433 448.828C198.733 448.014 197.032 447.273 195.406 446.385C190.477 444.017 185.819 441.55 181.432 438.984L178.105 436.985C176.996 436.393 176.035 435.653 175 435.061L170.12 431.952L165.611 428.918L161.027 425.661L156.96 422.626L152.525 419.148L148.902 416.113L144.761 412.56L143.135 411.08C142.691 411.08 142.322 410.192 141.878 409.822C139.586 407.675 137.516 405.603 135.52 403.456L133.597 401.458C131.01 398.719 128.644 395.907 126.204 393.094C126.204 393.094 126.204 393.094 125.835 392.724L124.504 390.8C123.173 389.098 121.842 387.321 120.585 385.545C119.328 383.768 119.328 383.472 118.663 382.51C117.998 381.548 116.593 379.327 115.632 377.699C115.632 377.181 115.04 376.737 114.819 376.293L113.783 374.295C113.044 372.962 112.379 371.63 111.713 370.298C111.048 368.965 110.604 367.929 110.087 366.745C109.569 365.561 108.904 364.006 108.312 362.674C107.721 361.342 107.721 361.342 107.499 360.676C107.293 360.144 107.12 359.6 106.982 359.047C106.464 357.715 106.094 356.457 105.651 355.125C105.207 353.792 104.911 352.682 104.616 351.424C104.32 350.166 103.95 348.907 103.655 347.575C103.359 346.243 103.211 346.095 103.063 345.281V343.8C103.063 342.468 102.619 341.136 102.472 339.803C102.324 338.471 102.102 337.361 101.954 336.177V332.106C101.954 331.292 101.954 330.478 101.954 329.663V327.221C101.954 312.862 101.954 298.577 101.954 284.218C101.289 285.772 101.436 287.401 101.51 289.029Z" fill="#FF9E03"/>
<path d="M180.471 172.973C74.5989 234.184 74.8945 334.03 181.285 395.907C251.743 436.837 351.331 450.9 440.938 437.948L373.289 285.032L572.909 179.117C570.322 177.414 567.586 175.786 564.776 174.158C458.608 112.281 286.418 111.689 180.471 172.973Z" fill="#FFDA00"/>
<path d="M372.328 244.324L372.476 287.327L572.318 181.411L572.244 138.334L372.328 244.324Z" fill="#D32075"/>
<path d="M274.958 390.726L275.106 433.729L372.476 287.327L372.328 244.324L274.958 390.726Z" fill="#E62B7C"/>
<path d="M102.176 249.801C102.176 251.207 102.176 252.539 102.176 253.946L102.62 257.277C102.62 258.683 102.989 260.089 103.285 261.495C103.581 262.902 103.728 263.864 104.024 265.048C104.32 266.232 104.616 267.713 104.985 268.971C105.355 270.229 105.651 271.413 106.02 272.598C106.39 273.782 106.834 275.188 107.277 276.446L108.608 279.999L110.382 284.144L111.935 287.475L114.079 291.62L115.853 294.876C116.815 296.504 117.85 298.133 118.885 299.761C119.92 301.389 120.068 301.612 120.733 302.5C121.398 303.388 123.395 306.275 124.8 308.125L126.204 310.049C128.422 312.788 130.788 315.6 133.597 318.339L135.446 320.263C137.442 322.336 139.512 324.408 141.73 326.481L144.54 329.145L148.68 332.698L152.155 335.584C153.633 336.843 155.186 338.027 156.739 339.211L160.361 341.95L165.389 345.503L169.233 348.093L174.63 351.498L180.545 355.124C184.685 357.567 188.9 359.787 193.262 362.008L197.254 364.006L206.939 368.521L211.08 370.372C215.294 372.148 219.508 373.924 223.87 375.553L224.979 375.997C229.637 377.773 234.443 379.401 239.322 380.956L243.536 382.288L254.922 385.693L259.432 386.877C264.607 388.209 269.709 389.541 274.958 390.652V433.729C269.709 432.544 264.533 431.286 259.358 429.954L255.07 428.77L243.241 425.291L240.727 424.477L239.396 424.033C234.517 422.478 229.637 420.776 224.609 419L223.722 418.629C219.286 417.001 214.998 415.225 210.71 413.374L206.718 411.598L196.81 407.009L192.966 405.085C188.678 402.864 184.39 400.57 180.249 398.201L176.922 396.203C175.887 395.611 174.926 394.945 173.965 394.279L169.159 391.244C167.607 390.282 166.128 389.245 164.649 388.209L160.287 385.175L156.073 381.992L152.007 378.809L148.088 375.553L144.392 372.296L142.691 370.816L141.286 369.409C139.216 367.411 137.22 365.487 135.372 363.488L133.228 361.268C130.788 358.603 128.422 355.865 126.278 353.126L124.8 351.128L121.103 346.021L119.181 343.06L116.223 338.249C115.995 337.803 115.723 337.382 115.41 336.991L114.375 334.992L112.305 330.996L110.678 327.443L108.978 323.446L108.238 321.596C108.238 321.003 107.869 320.411 107.647 319.893C107.425 319.375 106.76 317.303 106.39 316.044C106.02 314.786 105.651 313.602 105.355 312.418C105.059 311.234 104.69 309.753 104.394 308.495C104.098 307.237 104.024 307.015 103.876 306.348C103.846 305.856 103.846 305.361 103.876 304.868C103.876 303.536 103.433 302.278 103.211 300.945C102.989 299.613 102.841 298.429 102.767 297.171C102.693 295.912 102.767 294.654 102.767 293.322C102.767 291.99 102.767 291.62 102.767 290.805C102.767 289.991 102.767 289.177 102.767 288.437V245.36C101.954 246.47 102.102 248.247 102.176 249.801Z" fill="#D32075"/>
<path d="M181.802 133.375C75.8557 194.586 75.3381 293.914 180.545 355.421C209.998 372.066 241.846 384.05 274.958 390.948L372.402 244.25L572.022 138.334L564.037 133.375C458.978 72.1648 287.675 72.1648 181.802 133.375Z" fill="#FF7FB7"/>
<path d="M372.328 201.469L372.402 244.472L572.318 138.556L572.17 95.4795L372.328 201.469Z" fill="#668906"/>
<path d="M129.236 270.599L129.383 313.602L372.402 244.472L372.328 201.469L129.236 270.599Z" fill="#6D9B0A"/>
<path d="M102.324 208.575V211.609C102.324 213.904 102.915 216.198 103.359 218.493V219.825C103.876 222.622 104.542 225.389 105.355 228.115L106.094 230.335C106.686 232.334 107.425 234.332 108.165 236.33C108.904 238.329 109.052 238.329 109.421 239.365C109.791 240.401 110.9 242.77 111.713 244.472C112.527 246.174 112.822 246.618 113.414 247.729L116.002 252.466L118.441 256.388C119.328 257.795 120.29 259.201 121.251 260.607L124.208 264.604C125.687 266.602 127.165 268.601 128.866 270.599V313.602L125.835 309.827L124.134 307.533L121.325 303.684C120.364 302.278 119.402 300.871 118.515 299.391C117.628 297.911 116.815 296.801 116.075 295.468L114.966 293.692L113.488 290.805C112.896 289.695 112.305 288.585 111.787 287.475C111.27 286.364 110.235 284.07 109.495 282.368C108.756 280.665 108.608 280.369 108.238 279.333L107.795 278.371C107.129 276.669 106.612 274.966 106.094 273.264L105.429 271.191C104.616 268.453 103.95 265.788 103.433 263.124C103.397 262.507 103.397 261.89 103.433 261.273C103.433 259.127 102.693 256.906 102.472 254.76C102.472 253.798 102.472 252.91 102.472 251.948C102.472 250.985 102.472 249.135 102.472 247.729C102.472 246.322 102.472 246.174 102.472 245.36V202.061C102.028 204.282 102.176 206.428 102.324 208.575Z" fill="#668906"/>
<path d="M181.802 90.5945C97.5182 139.296 79.9959 212.053 129.309 270.599L372.328 201.395L571.948 95.4795C569.286 93.8512 566.625 92.1488 563.815 90.5945C458.904 29.31 287.749 29.31 181.802 90.5945Z" fill="#77BA10"/>
<path opacity="0.6" d="M247.603 273.708C221.652 287.179 221.8 308.717 247.603 322.04C262.201 328.661 278.043 332.086 294.07 332.086C310.097 332.086 325.939 328.661 340.537 322.04C366.192 308.717 366.414 287.031 340.537 273.708C325.929 267.124 310.09 263.719 294.07 263.719C278.049 263.719 262.211 267.124 247.603 273.708V273.708Z" fill="#FFEBC4"/>
<g opacity="0.83">
<path opacity="0.67" d="M242.058 231.149C212.484 246.47 212.484 271.043 242.058 286.216C258.677 293.753 276.712 297.652 294.957 297.652C313.202 297.652 331.237 293.753 347.856 286.216C377.429 271.043 377.429 246.322 348.226 231.149C331.543 223.604 313.447 219.702 295.142 219.702C276.836 219.702 258.74 223.604 242.058 231.149V231.149Z" fill="#FFEECE"/>
</g>
<g opacity="0.67">
<path opacity="0.73" d="M236.291 188.59C203.169 205.762 203.317 233 235.921 250.319C254.57 258.787 274.812 263.168 295.29 263.168C315.767 263.168 336.009 258.787 354.658 250.319C387.484 233.296 387.706 205.91 354.658 188.59C321.61 171.271 269.117 171.567 236.291 188.59Z" fill="#FFF2D8"/>
</g>
<g opacity="0.5">
<path opacity="0.8" d="M230.524 146.032C193.558 165.054 193.927 195.622 230.081 214.496C266.234 233.37 325.011 233.518 361.682 214.496C398.353 195.474 398.279 164.906 362.125 146.032C325.972 127.158 266.899 127.158 230.524 146.032Z" fill="#FFF5E2"/>
</g>
<g opacity="0.33">
<path opacity="0.87" d="M224.683 103.399C184.39 124.345 184.538 157.874 224.24 178.598C263.942 199.323 328.486 199.545 368.779 178.598C409.073 157.652 408.925 124.123 369.223 103.399C329.521 82.6748 264.681 82.6748 224.683 103.399Z" fill="#FFF8EB"/>
</g>
<g opacity="0.17">
<path opacity="0.93" d="M218.916 60.8404C175 83.6371 175.148 120.053 218.399 142.775C261.65 165.498 331.886 165.572 375.803 142.775C419.719 119.979 419.571 83.563 376.32 60.8404C333.069 38.1178 262.389 38.2658 218.916 60.8404Z" fill="#FFFCF5"/>
</g>
<g opacity="0.3">
<path opacity="0.6" d="M247.603 273.93C221.652 287.401 221.8 308.939 247.603 322.262C262.201 328.883 278.043 332.308 294.07 332.308C310.097 332.308 325.939 328.883 340.537 322.262C366.192 308.939 366.414 287.253 340.537 273.93C325.929 267.346 310.09 263.941 294.07 263.941C278.049 263.941 262.211 267.346 247.603 273.93V273.93Z" fill="white"/>
</g>
<g opacity="0.1">
<path opacity="0.1" d="M340.832 406.121C316.582 420.11 316.508 443.128 340.832 456.821C354.372 463.747 369.359 467.358 384.564 467.358C399.768 467.358 414.756 463.747 428.295 456.821C452.546 442.832 452.619 419.814 428.295 406.121C414.756 399.195 399.768 395.584 384.564 395.584C369.359 395.584 354.372 399.195 340.832 406.121V406.121Z" fill="black"/>
</g>
<path d="M404.267 398.794C405.82 398.349 406.264 397.017 408.703 395.907C409.221 398.794 412.4 402.42 413.065 405.233C413.249 405.512 413.473 405.761 413.731 405.973C423.49 417.001 448.11 426.031 445.374 434.321C443.526 440.168 428.813 444.757 420.828 440.686C418.81 439.524 417.049 437.963 415.653 436.097C414.525 434.415 413.037 433.005 411.298 431.969C409.56 430.932 407.613 430.294 405.598 430.102C403.177 429.733 400.929 428.621 399.166 426.919C390.885 417.075 397.909 412.116 394.582 401.384C397.909 400.496 401.162 399.534 404.267 398.794Z" fill="#171716"/>
<path d="M351.109 414.337C352.366 407.453 354.066 400.348 355.915 393.242L334.992 389.542C335.583 394.278 336.175 399.015 336.618 403.382C335.805 414.263 327.376 416.039 330.925 427.955C331.833 430.078 333.351 431.882 335.287 433.136C336.96 434.043 338.412 435.31 339.537 436.846C340.662 438.382 341.432 440.148 341.793 442.018C342.258 444.192 343.191 446.239 344.529 448.013C349.926 454.527 364.417 456.081 368.188 451.714C373.585 445.571 355.693 428.399 351.405 415.225C351.252 414.95 351.151 414.648 351.109 414.337V414.337Z" fill="#171716"/>
<path d="M365.23 331.736C368.471 318.468 367.855 304.549 363.456 291.62C357.541 274.966 325.602 255.944 325.232 255.87C324.863 255.796 293.959 264.826 295.659 270.081C296.472 273.042 334.474 323.668 335.066 325.815C336.282 329.008 336.282 332.539 335.066 335.733C329.521 351.054 326.489 397.831 330.408 412.116C333.365 422.626 349.704 423.144 353.475 418.185C354.067 417.297 364.491 342.468 365.748 331.736C365.157 331.662 363.974 342.69 365.23 331.736Z" fill="#383153"/>
<path d="M297.729 319.893C326.415 326.037 352.44 328.923 352.44 328.923C352.44 363.414 389.776 404.641 393.99 410.34C400.561 408.868 406.676 405.82 411.808 401.458C407.298 384.805 383.344 317.525 372.846 305.238C366.266 297.319 295.659 274.596 296.62 271.117C297.064 269.711 280.577 262.828 279.394 262.383C265.273 257.869 247.011 309.013 297.729 319.893Z" fill="#52517B"/>
<path d="M384.379 235.146C384.379 235.146 396.356 234.554 400.792 239.587C405.571 243.809 409.596 248.815 412.696 254.39C414.248 259.201 413.361 260.977 409.516 260.311C402.434 257.766 395.835 254.037 389.998 249.283C387.861 246.866 384.917 245.313 381.718 244.916C379.869 244.398 378.243 238.255 384.379 235.146Z" fill="#EFB185"/>
<path d="M380.313 246.47C382.161 247.062 384.675 244.99 389.998 249.579C395.835 254.333 402.434 258.062 409.516 260.607C410.007 260.673 410.504 260.673 410.995 260.607C407.89 257.573 402.567 252.466 397.835 248.099C392.76 244.013 386.634 241.447 380.165 240.697C379.869 242.77 379.278 245.952 380.313 246.47Z" fill="#DB9669"/>
<path d="M314.956 154.322C320.575 152.471 330.186 153.877 332.478 169.125C334.77 184.372 340.537 228.337 340.537 228.337C340.537 228.337 379.795 233.37 384.379 234.554C384.379 234.554 378.612 237.144 382.013 245.212C382.013 245.212 337.21 257.055 327.303 247.507C317.396 237.959 291.962 161.797 314.956 154.322Z" fill="#DB9669"/>
<path d="M384.379 235.146C379.795 233.962 340.537 228.929 340.537 228.929C340.537 228.929 334.696 185.112 332.478 169.717C330.26 154.322 320.575 152.693 314.956 154.914C313.513 155.368 312.196 156.153 311.111 157.208V157.874C311.111 157.874 325.085 162.981 328.412 191.625C331.739 220.269 321.905 238.255 345.268 238.847C359.168 239.217 372.772 241.141 381.644 241.363C382.183 239.146 383.109 237.041 384.379 235.146V235.146Z" fill="#EFB185"/>
<path d="M308.745 206.28C308.745 206.28 329.668 208.797 338.319 200.433C338.319 200.433 340.758 150.251 318.283 151.435C318.209 151.435 294.033 154.322 308.745 206.28Z" fill="#EA49BD"/>
<path d="M255.883 180.745C255.883 180.745 268.748 158.54 319.983 151.139C319.983 151.139 328.19 147.66 327.377 174.232C328.297 179.336 330.54 184.109 333.883 188.072C336.544 191.551 343.716 204.874 328.042 220.787C328.042 220.787 322.054 244.398 329.225 259.719C335.731 273.412 302.018 286.735 273.257 283.996C269.783 283.996 261.946 281.331 264.977 269.193C268.008 257.055 275.402 235.294 269.635 212.571C263.868 189.849 252.039 192.291 255.883 180.745Z" fill="#FF61CB"/>
<path d="M255.883 180.745C252.039 192.291 263.942 189.627 269.709 212.349C275.475 235.072 268.156 256.758 265.051 268.971C261.946 281.183 269.857 283.774 273.332 283.774C278.129 284.181 282.951 284.181 287.748 283.774C277.693 261.569 290.558 221.675 291.223 199.619C291.276 192.798 289.376 186.106 285.746 180.334C282.116 174.562 276.91 169.953 270.744 167.052C264.835 170.454 259.758 175.131 255.883 180.745V180.745Z" fill="#EA49BD"/>
<path d="M304.162 291.99L304.014 294.358L338.245 318.783L338.393 316.415L304.162 291.99Z" fill="#B4B9BC"/>
<path d="M338.393 316.415L338.245 318.783L402.197 289.325L402.419 287.031L338.393 316.415Z" fill="#7D8183"/>
<path d="M304.162 291.99L338.393 316.415L402.419 287.031L368.114 262.606L304.162 291.99Z" fill="#E3E5E5"/>
<path d="M348.669 275.854L346.156 273.486L335.509 316.267L338.023 318.635L348.669 275.854Z" fill="#BDBBBB"/>
<path d="M415.579 245.064L412.991 242.696L346.156 273.486L348.669 275.854L415.579 245.064Z" fill="#D2D0D0"/>
<path d="M348.669 275.854L338.023 318.635L404.859 287.919L415.579 245.064L348.669 275.854Z" fill="#D5DFE6"/>
<path d="M348.669 275.854L404.859 287.919L415.579 245.064L348.669 275.854Z" fill="#E9F0F4"/>
<path d="M314.142 260.533C314.142 260.533 325.158 263.05 328.042 268.601C331.346 273.526 333.842 278.948 335.435 284.662C335.805 289.325 334.548 290.731 331.221 289.103C325.317 285.074 320.141 280.069 315.917 274.3C314.414 271.672 312.107 269.596 309.337 268.379C307.784 267.565 307.71 261.717 314.142 260.533Z" fill="#EFB185"/>
<path d="M307.71 269.267C309.337 270.303 311.998 269.267 315.917 274.448C320.142 280.217 325.317 285.222 331.221 289.251L332.552 289.769C330.334 286.29 326.637 280.443 323.31 275.41C319.496 270.452 314.375 266.658 308.523 264.456C308.154 266.084 306.749 268.675 307.71 269.267Z" fill="#DB9669"/>
<path d="M268.452 171.789C273.849 171.789 282.351 175.268 281.02 189.627C279.69 203.986 275.402 243.954 275.402 243.954C275.402 243.954 309.929 258.313 313.921 260.533C313.921 260.533 308.08 261.421 309.411 269.341C309.411 269.341 266.16 268.453 259.21 257.573C252.261 246.692 246.198 172.455 268.452 171.789Z" fill="#DB9669"/>
<path d="M314.143 260.533C310.15 258.313 275.623 243.954 275.623 243.954C275.623 243.954 279.837 203.912 281.242 189.627C282.647 175.342 273.849 171.567 268.674 171.789C267.274 171.841 265.907 172.222 264.681 172.899L264.238 173.343C264.238 173.343 275.845 181.411 272.666 207.538C269.487 233.666 256.623 246.914 277.694 253.354C290.262 257.203 302.165 262.31 310.224 264.826C311.281 263.186 312.606 261.735 314.143 260.533V260.533Z" fill="#EFB185"/>
<path d="M251.521 216.05C251.521 216.05 269.93 223.452 279.542 218.345C279.542 218.345 292.554 174.676 272.148 170.087C272.001 170.087 249.377 166.534 251.521 216.05Z" fill="#FF61CB"/>
<path d="M320.205 152.841C321.536 156.024 323.384 158.984 321.61 162.463C320.42 164.704 318.484 166.459 316.139 167.422C314.37 168.271 312.541 168.988 310.668 169.569C307.416 170.079 304.121 170.253 300.835 170.087V170.087C300.835 166.978 275.18 159.206 275.18 156.098C275.18 148.696 300.908 146.328 303.866 139.814C307.403 134.494 310.143 128.684 311.998 122.569C312.187 119.773 312.038 116.965 311.555 114.205C311.555 112.503 312.072 111.689 313.921 111.763C318.135 111.763 320.649 118.498 321.314 121.903C322.075 124.623 322.251 127.473 321.832 130.267C320.87 136.41 317.174 142.405 318.8 148.4C319.094 149.93 319.565 151.421 320.205 152.841Z" fill="#131C24"/>
<path d="M314.143 143.515C311.832 146.262 310.222 149.528 309.449 153.035C308.677 156.541 308.765 160.183 309.707 163.647C310.742 166.534 313.329 178.45 295.511 173.417C295.511 173.417 277.028 164.018 282.573 158.614C286.344 154.914 289.966 149.585 284.569 130.341L314.143 143.515Z" fill="#E8A476"/>
<path d="M282.425 158.392C281.896 158.898 281.579 159.586 281.538 160.317C286.651 161.227 291.906 160.932 296.886 159.454C301.865 157.977 306.432 155.358 310.224 151.805L288.044 132.117L285.235 134.115C289.227 150.251 285.9 154.988 282.425 158.392Z" fill="#DB9669"/>
<path d="M311.185 109.542C311.185 109.542 315.917 111.245 316.065 125.456C316.065 127.01 318.578 129.082 319.244 132.857C319.909 136.632 320.722 152.693 311.85 154.322C305.67 154.711 299.533 153.061 294.379 149.626C289.225 146.19 285.337 141.158 283.312 135.3C277.176 119.46 291.297 98.8842 311.185 109.542Z" fill="#F1B287"/>
<path d="M299.356 122.865C304.457 121.237 311.481 119.756 314.143 114.427C314.676 113.353 315.05 112.206 315.251 111.023C312.664 105.175 310.076 105.249 300.982 101.327C294.846 98.6621 289.671 96.2936 286.196 103.917C285.53 105.249 283.682 106.064 284.791 106.286C292.184 117.906 275.254 130.933 287.009 134.633C287.009 128.86 294.402 124.419 299.356 122.865Z" fill="#131C24"/>
<path d="M272.149 165.868C273.483 163.319 273.826 160.365 273.11 157.578C272.55 154.753 271.683 151.998 270.522 149.363C268.909 146.076 267.955 142.506 267.712 138.852C266.751 129.675 262.981 115.982 278.876 104.435C280.368 103.108 282.242 102.292 284.228 102.103C286.214 101.914 288.209 102.364 289.922 103.387C291.636 104.41 292.98 105.952 293.759 107.791C294.538 109.63 294.711 111.669 294.255 113.613C292.578 118.364 291.777 123.379 291.889 128.416C291.889 128.416 291.889 128.416 291.889 128.786C294.456 133.267 295.272 138.541 294.18 143.589C292.85 148.696 287.379 152.027 288.118 157.726C288.581 159.923 289.515 161.994 290.854 163.795L291.223 164.314C291.868 165.883 292.029 167.609 291.687 169.271C291.344 170.933 290.513 172.454 289.301 173.639C285.087 177.932 281.021 182.817 276.363 179.339C272.896 176.828 269.564 174.135 266.382 171.271C266.53 168.902 271.557 167.792 272.149 165.868Z" fill="#131C24"/>
<path d="M295.068 141.221C295.068 141.221 291.445 133.819 287.675 136.854C286.344 137.89 285.087 139.667 287.675 143.367C288.876 145.229 290.549 146.737 292.524 147.739C294.498 148.74 296.703 149.198 298.912 149.066L295.068 141.221Z" fill="#F1B287"/>
<path d="M694.012 93.8512L712.865 104.805C713.46 105.15 714.136 105.331 714.824 105.331C715.512 105.331 716.187 105.15 716.783 104.805L735.562 93.8512C736.145 93.5131 736.63 93.0274 736.966 92.4428C737.303 91.8582 737.48 91.1952 737.48 90.5205C737.48 89.8457 737.303 89.1828 736.966 88.5982C736.63 88.0137 736.145 87.5279 735.562 87.1898L716.709 76.2356C716.133 75.8744 715.467 75.683 714.787 75.683C714.107 75.683 713.441 75.8744 712.865 76.2356L693.79 87.1898C693.217 87.547 692.749 88.0488 692.431 88.6447C692.114 89.2405 691.958 89.9096 691.981 90.5846C692.003 91.2596 692.203 91.9168 692.559 92.4902C692.916 93.0636 693.417 93.533 694.012 93.8512V93.8512Z" fill="#FDCDE7"/>
<g opacity="0.83">
<path opacity="0.83" d="M694.012 107.396L712.865 118.35C713.465 118.681 714.139 118.854 714.824 118.854C715.509 118.854 716.183 118.681 716.783 118.35L735.562 107.396C736.145 107.058 736.63 106.572 736.966 105.988C737.303 105.403 737.48 104.74 737.48 104.065C737.48 103.39 737.303 102.728 736.966 102.143C736.63 101.558 736.145 101.073 735.562 100.735L716.709 89.7064C716.122 89.3757 715.46 89.2019 714.787 89.2019C714.114 89.2019 713.451 89.3757 712.865 89.7064L693.79 100.735C693.217 101.092 692.749 101.594 692.431 102.189C692.114 102.785 691.958 103.454 691.981 104.129C692.003 104.804 692.203 105.462 692.559 106.035C692.916 106.608 693.417 107.078 694.012 107.396Z" fill="#FDCDE7"/>
</g>
<g opacity="0.67">
<path opacity="0.67" d="M694.012 120.645L712.865 131.673C713.465 132.003 714.139 132.177 714.824 132.177C715.509 132.177 716.183 132.003 716.783 131.673L735.562 120.645C736.145 120.307 736.63 119.821 736.966 119.236C737.303 118.652 737.48 117.989 737.48 117.314C737.48 116.639 737.303 115.976 736.966 115.392C736.63 114.807 736.145 114.321 735.562 113.983L716.709 103.029C716.133 102.668 715.467 102.476 714.787 102.476C714.107 102.476 713.441 102.668 712.865 103.029L693.79 113.983C693.217 114.341 692.749 114.842 692.431 115.438C692.114 116.034 691.958 116.703 691.981 117.378C692.003 118.053 692.203 118.71 692.559 119.284C692.916 119.857 693.417 120.326 694.012 120.645V120.645Z" fill="#FDCDE7"/>
</g>
<g opacity="0.5">
<path opacity="0.5" d="M694.012 134.412L712.865 145.366C713.455 145.725 714.133 145.915 714.824 145.915C715.515 145.915 716.193 145.725 716.783 145.366L735.562 134.412C736.145 134.073 736.63 133.588 736.966 133.003C737.303 132.418 737.48 131.756 737.48 131.081C737.48 130.406 737.303 129.743 736.966 129.159C736.63 128.574 736.145 128.088 735.562 127.75L716.709 116.722C716.122 116.391 715.46 116.217 714.787 116.217C714.114 116.217 713.451 116.391 712.865 116.722L693.79 127.75C693.217 128.107 692.749 128.609 692.431 129.205C692.114 129.801 691.958 130.47 691.981 131.145C692.003 131.82 692.203 132.477 692.559 133.05C692.916 133.624 693.417 134.093 694.012 134.412V134.412Z" fill="#FDCDE7"/>
</g>
<g opacity="0.33">
<path opacity="0.33" d="M694.012 147.956L712.865 158.91C713.465 159.241 714.139 159.414 714.824 159.414C715.509 159.414 716.183 159.241 716.783 158.91L735.562 147.882C736.145 147.544 736.63 147.058 736.966 146.474C737.303 145.889 737.48 145.226 737.48 144.551C737.48 143.877 737.303 143.214 736.966 142.629C736.63 142.045 736.145 141.559 735.562 141.221L716.709 130.267C716.122 129.936 715.46 129.762 714.787 129.762C714.114 129.762 713.451 129.936 712.865 130.267L693.79 141.295C693.217 141.652 692.749 142.154 692.431 142.75C692.114 143.346 691.958 144.015 691.981 144.69C692.003 145.365 692.203 146.022 692.559 146.595C692.916 147.169 693.417 147.638 694.012 147.956Z" fill="#FDCDE7"/>
</g>
<g opacity="0.17">
<path opacity="0.17" d="M694.012 161.427L712.865 172.455C713.46 172.799 714.136 172.981 714.824 172.981C715.512 172.981 716.187 172.799 716.783 172.455L735.562 161.427C736.145 161.089 736.63 160.603 736.966 160.019C737.303 159.434 737.48 158.771 737.48 158.096C737.48 157.421 737.303 156.759 736.966 156.174C736.63 155.589 736.145 155.104 735.562 154.766L716.709 143.811C716.133 143.45 715.467 143.259 714.787 143.259C714.107 143.259 713.441 143.45 712.865 143.811L693.79 154.766C693.217 155.123 692.749 155.624 692.431 156.22C692.114 156.816 691.958 157.485 691.981 158.16C692.003 158.835 692.203 159.493 692.559 160.066C692.916 160.639 693.417 161.109 694.012 161.427V161.427Z" fill="#FDCDE7"/>
</g>
<path d="M694.012 93.8512L712.865 104.805C713.46 105.15 714.136 105.331 714.824 105.331C715.512 105.331 716.187 105.15 716.783 104.805L735.562 93.8512C736.145 93.5131 736.63 93.0274 736.966 92.4428C737.303 91.8582 737.48 91.1952 737.48 90.5205C737.48 89.8457 737.303 89.1828 736.966 88.5982C736.63 88.0137 736.145 87.5279 735.562 87.1898L716.709 76.2356C716.133 75.8744 715.467 75.683 714.787 75.683C714.107 75.683 713.441 75.8744 712.865 76.2356L693.79 87.1898C693.217 87.547 692.749 88.0488 692.431 88.6447C692.114 89.2405 691.958 89.9096 691.981 90.5846C692.003 91.2596 692.203 91.9168 692.559 92.4902C692.916 93.0636 693.417 93.533 694.012 93.8512V93.8512Z" fill="#FDCDE7"/>
<g opacity="0.1">
<path opacity="0.1" d="M694.012 173.788L712.865 184.816C713.465 185.146 714.139 185.32 714.824 185.32C715.509 185.32 716.183 185.146 716.783 184.816L735.562 173.788C736.145 173.449 736.63 172.964 736.966 172.379C737.303 171.795 737.48 171.132 737.48 170.457C737.48 169.782 737.303 169.119 736.966 168.535C736.63 167.95 736.145 167.464 735.562 167.126L716.709 156.172C716.133 155.811 715.467 155.619 714.787 155.619C714.107 155.619 713.441 155.811 712.865 156.172L693.79 167.126C693.217 167.483 692.749 167.985 692.431 168.581C692.114 169.177 691.958 169.846 691.981 170.521C692.003 171.196 692.203 171.853 692.559 172.427C692.916 173 693.417 173.469 694.012 173.788Z" fill="black"/>
</g>
<path d="M734.379 431.508L753.232 442.462C753.819 442.793 754.481 442.967 755.155 442.967C755.828 442.967 756.49 442.793 757.077 442.462L776.078 431.508C776.661 431.17 777.145 430.684 777.482 430.1C777.818 429.515 777.996 428.852 777.996 428.178C777.996 427.503 777.818 426.84 777.482 426.255C777.145 425.671 776.661 425.185 776.078 424.847L757.151 413.893C756.564 413.562 755.902 413.388 755.229 413.388C754.555 413.388 753.893 413.562 753.306 413.893L734.305 424.921C733.743 425.27 733.28 425.758 732.961 426.339C732.643 426.92 732.479 427.573 732.487 428.235C732.494 428.898 732.672 429.547 733.004 430.121C733.335 430.694 733.809 431.172 734.379 431.508V431.508Z" fill="#DEF4FF"/>
<g opacity="0.83">
<path opacity="0.83" d="M734.379 445.053L753.232 456.007C753.814 456.352 754.478 456.535 755.155 456.535C755.831 456.535 756.495 456.352 757.077 456.007L776.078 444.979C776.661 444.641 777.145 444.155 777.482 443.571C777.818 442.986 777.996 442.323 777.996 441.648C777.996 440.973 777.818 440.311 777.482 439.726C777.145 439.141 776.661 438.656 776.078 438.318L757.151 427.363C756.575 427.002 755.908 426.811 755.229 426.811C754.549 426.811 753.882 427.002 753.306 427.363L734.305 438.318C733.708 438.657 733.212 439.15 732.87 439.746C732.528 440.343 732.351 441.02 732.359 441.707C732.366 442.395 732.558 443.068 732.913 443.656C733.269 444.244 733.775 444.727 734.379 445.053V445.053Z" fill="#DEF4FF"/>
</g>
<g opacity="0.67">
<path opacity="0.67" d="M734.379 458.598L753.232 469.552C753.819 469.883 754.481 470.056 755.155 470.056C755.828 470.056 756.49 469.883 757.077 469.552L776.078 458.598C776.661 458.26 777.145 457.774 777.482 457.189C777.818 456.605 777.996 455.942 777.996 455.267C777.996 454.592 777.818 453.929 777.482 453.345C777.145 452.76 776.661 452.274 776.078 451.936L757.151 440.908C756.564 440.577 755.902 440.404 755.229 440.404C754.555 440.404 753.893 440.577 753.306 440.908L734.305 451.936C733.726 452.281 733.247 452.772 732.917 453.36C732.587 453.949 732.417 454.613 732.424 455.288C732.432 455.963 732.616 456.624 732.959 457.205C733.303 457.786 733.792 458.266 734.379 458.598V458.598Z" fill="#DEF4FF"/>
</g>
<g opacity="0.5">
<path opacity="0.5" d="M734.379 472.068L753.232 483.319C753.819 483.649 754.481 483.823 755.155 483.823C755.828 483.823 756.49 483.649 757.077 483.319L776.078 472.29C776.661 471.952 777.145 471.467 777.482 470.882C777.818 470.297 777.996 469.635 777.996 468.96C777.996 468.285 777.818 467.622 777.482 467.038C777.145 466.453 776.661 465.967 776.078 465.629L757.151 454.675C756.569 454.33 755.905 454.147 755.229 454.147C754.552 454.147 753.888 454.33 753.306 454.675L734.305 465.629C733.775 465.985 733.342 466.468 733.045 467.033C732.748 467.599 732.597 468.23 732.604 468.869C732.611 469.508 732.777 470.135 733.087 470.693C733.397 471.252 733.841 471.724 734.379 472.068V472.068Z" fill="#DEF4FF"/>
</g>
<g opacity="0.33">
<path opacity="0.33" d="M734.379 485.613L753.232 496.567C753.809 496.929 754.475 497.12 755.155 497.12C755.834 497.12 756.501 496.929 757.077 496.567L776.078 485.613C776.661 485.275 777.145 484.789 777.482 484.205C777.818 483.62 777.996 482.957 777.996 482.283C777.996 481.608 777.818 480.945 777.482 480.36C777.145 479.776 776.661 479.29 776.078 478.952L757.151 467.998C756.569 467.652 755.905 467.47 755.229 467.47C754.552 467.47 753.888 467.652 753.306 467.998L734.305 479.026C733.743 479.375 733.28 479.863 732.961 480.444C732.643 481.025 732.479 481.678 732.487 482.34C732.494 483.003 732.672 483.652 733.004 484.226C733.335 484.799 733.809 485.277 734.379 485.613V485.613Z" fill="#DEF4FF"/>
</g>
<g opacity="0.17">
<path opacity="0.17" d="M734.379 499.158L753.232 510.112C753.819 510.443 754.481 510.617 755.155 510.617C755.828 510.617 756.49 510.443 757.077 510.112L776.078 499.084C776.661 498.746 777.145 498.26 777.482 497.676C777.818 497.091 777.996 496.428 777.996 495.753C777.996 495.078 777.818 494.416 777.482 493.831C777.145 493.246 776.661 492.761 776.078 492.423L757.151 481.468C756.564 481.138 755.902 480.964 755.229 480.964C754.555 480.964 753.893 481.138 753.306 481.468L734.305 492.497C733.726 492.841 733.247 493.332 732.917 493.921C732.587 494.509 732.417 495.174 732.424 495.849C732.432 496.523 732.616 497.184 732.959 497.765C733.303 498.346 733.792 498.826 734.379 499.158V499.158Z" fill="#DEF4FF"/>
</g>
<path d="M734.379 431.508L753.232 442.536C753.819 442.867 754.481 443.041 755.155 443.041C755.828 443.041 756.49 442.867 757.077 442.536L776.078 431.508C776.661 431.17 777.145 430.684 777.482 430.1C777.818 429.515 777.996 428.852 777.996 428.178C777.996 427.503 777.818 426.84 777.482 426.255C777.145 425.671 776.661 425.185 776.078 424.847L757.151 413.893C756.564 413.562 755.902 413.388 755.229 413.388C754.555 413.388 753.893 413.562 753.306 413.893L734.305 424.847C733.726 425.191 733.247 425.682 732.917 426.271C732.587 426.859 732.417 427.524 732.424 428.199C732.432 428.874 732.616 429.535 732.959 430.115C733.303 430.696 733.792 431.177 734.379 431.508V431.508Z" fill="#DEF4FF"/>
<g opacity="0.1">
<path opacity="0.1" d="M1.92223 546.454L20.8491 557.334C21.4359 557.665 22.0981 557.838 22.7715 557.838C23.4449 557.838 24.107 557.665 24.6938 557.334L43.6947 546.306C44.278 545.968 44.7622 545.482 45.0988 544.897C45.4354 544.313 45.6125 543.65 45.6125 542.975C45.6125 542.3 45.4354 541.637 45.0988 541.053C44.7622 540.468 44.278 539.983 43.6947 539.644L24.8416 528.69C24.2653 528.329 23.5991 528.137 22.9193 528.137C22.2394 528.137 21.5734 528.329 20.9971 528.69L1.92223 539.644C1.30304 539.971 0.784738 540.461 0.423168 541.061C0.0615984 541.661 -0.129391 542.348 -0.129391 543.049C-0.129391 543.75 0.0615984 544.437 0.423168 545.037C0.784738 545.637 1.30304 546.127 1.92223 546.454V546.454Z" fill="black"/>
</g>
<path d="M1.92224 449.124L20.8491 460.152C21.436 460.483 22.0981 460.656 22.7715 460.656C23.4449 460.656 24.107 460.483 24.6938 460.152L43.6947 449.124C44.278 448.786 44.7622 448.3 45.0988 447.715C45.4354 447.131 45.6125 446.468 45.6125 445.793C45.6125 445.118 45.4354 444.455 45.0988 443.871C44.7622 443.286 44.278 442.801 43.6947 442.462L24.8416 431.508C24.2653 431.147 23.5991 430.956 22.9193 430.956C22.2394 430.956 21.5734 431.147 20.9972 431.508L1.99624 442.462C1.40914 442.794 0.919545 443.274 0.576374 443.855C0.233204 444.436 0.048452 445.097 0.0409626 445.772C0.0334732 446.447 0.203311 447.111 0.533505 447.7C0.863699 448.288 1.34264 448.779 1.92224 449.124V449.124Z" fill="#77BA10"/>
<g opacity="0.83">
<path opacity="0.83" d="M1.92224 465.333L20.8491 476.361C21.436 476.692 22.0981 476.866 22.7715 476.866C23.4449 476.866 24.107 476.692 24.6938 476.361L43.6947 465.333C44.278 464.995 44.7622 464.509 45.0988 463.925C45.4354 463.34 45.6125 462.677 45.6125 462.002C45.6125 461.328 45.4354 460.665 45.0988 460.08C44.7622 459.496 44.278 459.01 43.6947 458.672L24.8416 447.718C24.2653 447.356 23.5991 447.165 22.9193 447.165C22.2394 447.165 21.5734 447.356 20.9972 447.718L1.99624 458.672C1.40914 459.003 0.919545 459.484 0.576374 460.064C0.233204 460.645 0.048452 461.306 0.0409626 461.981C0.0334732 462.656 0.203311 463.321 0.533505 463.909C0.863699 464.497 1.34264 464.989 1.92224 465.333V465.333Z" fill="#77BA10"/>
</g>
<g opacity="0.67">
<path opacity="0.67" d="M1.92224 481.616L20.8491 492.571C21.436 492.901 22.0981 493.075 22.7715 493.075C23.4449 493.075 24.107 492.901 24.6938 492.571L43.6947 481.542C44.278 481.204 44.7622 480.719 45.0988 480.134C45.4354 479.549 45.6125 478.886 45.6125 478.212C45.6125 477.537 45.4354 476.874 45.0988 476.29C44.7622 475.705 44.278 475.219 43.6947 474.881L24.8416 463.927C24.2548 463.596 23.5927 463.422 22.9193 463.422C22.2459 463.422 21.584 463.596 20.9972 463.927L1.92224 474.955C1.33895 475.293 0.854803 475.779 0.518166 476.363C0.181528 476.948 0.00441405 477.611 0.00441405 478.286C0.00441405 478.961 0.181528 479.623 0.518166 480.208C0.854803 480.793 1.33895 481.278 1.92224 481.616V481.616Z" fill="#77BA10"/>
</g>
<g opacity="0.5">
<path opacity="0.5" d="M1.92224 498.122L20.8491 509.076C21.431 509.421 22.0951 509.603 22.7715 509.603C23.4479 509.603 24.1119 509.421 24.6938 509.076L43.6947 498.122C44.278 497.784 44.7622 497.298 45.0988 496.713C45.4354 496.129 45.6125 495.466 45.6125 494.791C45.6125 494.116 45.4354 493.453 45.0988 492.869C44.7622 492.284 44.278 491.799 43.6947 491.461L24.8416 480.432C24.2548 480.102 23.5927 479.928 22.9193 479.928C22.2459 479.928 21.584 480.102 20.9972 480.432L1.92224 491.461C1.33895 491.799 0.854803 492.284 0.518166 492.869C0.181528 493.453 0.00441405 494.116 0.00441405 494.791C0.00441405 495.466 0.181528 496.129 0.518166 496.713C0.854803 497.298 1.33895 497.784 1.92224 498.122V498.122Z" fill="#77BA10"/>
</g>
<g opacity="0.33">
<path opacity="0.33" d="M1.92224 514.035L20.8491 524.989C21.4254 525.351 22.0916 525.542 22.7715 525.542C23.4513 525.542 24.1176 525.351 24.6938 524.989L43.6947 514.035C44.278 513.697 44.7622 513.211 45.0988 512.627C45.4354 512.042 45.6125 511.379 45.6125 510.704C45.6125 510.03 45.4354 509.367 45.0988 508.782C44.7622 508.198 44.278 507.712 43.6947 507.374L24.8416 496.345C24.2548 496.015 23.5927 495.841 22.9193 495.841C22.2459 495.841 21.584 496.015 20.9972 496.345L1.92224 507.374C1.33895 507.712 0.854803 508.198 0.518166 508.782C0.181528 509.367 0.00441405 510.03 0.00441405 510.704C0.00441405 511.379 0.181528 512.042 0.518166 512.627C0.854803 513.211 1.33895 513.697 1.92224 514.035V514.035Z" fill="#77BA10"/>
</g>
<g opacity="0.17">
<path opacity="0.17" d="M1.92224 530.244L20.8491 541.273C21.436 541.603 22.0981 541.777 22.7715 541.777C23.4449 541.777 24.107 541.603 24.6938 541.273L43.6947 530.244C44.278 529.906 44.7622 529.421 45.0988 528.836C45.4354 528.251 45.6125 527.589 45.6125 526.914C45.6125 526.239 45.4354 525.576 45.0988 524.992C44.7622 524.407 44.278 523.921 43.6947 523.583L24.8416 512.629C24.2653 512.268 23.5991 512.076 22.9193 512.076C22.2394 512.076 21.5734 512.268 20.9972 512.629L1.92224 523.583C1.33895 523.921 0.854803 524.407 0.518166 524.992C0.181528 525.576 0.00441405 526.239 0.00441405 526.914C0.00441405 527.589 0.181528 528.251 0.518166 528.836C0.854803 529.421 1.33895 529.906 1.92224 530.244V530.244Z" fill="#77BA10"/>
</g>
<path d="M1.92224 449.124L20.8491 460.152C21.436 460.483 22.0981 460.656 22.7715 460.656C23.4449 460.656 24.107 460.483 24.6938 460.152L43.6947 449.124C44.278 448.786 44.7622 448.3 45.0988 447.715C45.4354 447.131 45.6125 446.468 45.6125 445.793C45.6125 445.118 45.4354 444.455 45.0988 443.871C44.7622 443.286 44.278 442.801 43.6947 442.462L24.8416 431.508C24.2653 431.147 23.5991 430.956 22.9193 430.956C22.2394 430.956 21.5734 431.147 20.9972 431.508L1.99624 442.462C1.40914 442.794 0.919545 443.274 0.576374 443.855C0.233204 444.436 0.048452 445.097 0.0409626 445.772C0.0334732 446.447 0.203311 447.111 0.533505 447.7C0.863699 448.288 1.34264 448.779 1.92224 449.124V449.124Z" fill="#77BA10"/>
<path d="M8.72424 126.418L27.5771 137.446C28.1639 137.777 28.8261 137.95 29.4995 137.95C30.1729 137.95 30.835 137.777 31.4218 137.446L50.4965 126.418C51.0798 126.08 51.5642 125.594 51.9008 125.009C52.2374 124.425 52.4146 123.762 52.4146 123.087C52.4146 122.412 52.2374 121.749 51.9008 121.165C51.5642 120.58 51.0798 120.095 50.4965 119.756L31.6436 108.802C31.0673 108.441 30.4011 108.25 29.7213 108.25C29.0414 108.25 28.3752 108.441 27.7989 108.802L8.72424 119.756C8.14095 120.095 7.6568 120.58 7.32016 121.165C6.98353 121.749 6.80619 122.412 6.80619 123.087C6.80619 123.762 6.98353 124.425 7.32016 125.009C7.6568 125.594 8.14095 126.08 8.72424 126.418V126.418Z" fill="#FFDF75"/>
<g opacity="0.83">
<path opacity="0.83" d="M8.72424 147.216L27.5771 158.17C28.159 158.516 28.8231 158.698 29.4995 158.698C30.1759 158.698 30.8399 158.516 31.4218 158.17L50.4965 147.142C51.0798 146.804 51.5642 146.318 51.9008 145.734C52.2374 145.149 52.4146 144.486 52.4146 143.811C52.4146 143.137 52.2374 142.474 51.9008 141.889C51.5642 141.305 51.0798 140.819 50.4965 140.481L31.6436 129.526C31.0673 129.165 30.4011 128.974 29.7213 128.974C29.0414 128.974 28.3752 129.165 27.7989 129.526L8.72424 140.481C8.12333 140.814 7.62247 141.302 7.27368 141.894C6.9249 142.486 6.74098 143.161 6.74098 143.848C6.74098 144.536 6.9249 145.211 7.27368 145.803C7.62247 146.395 8.12333 146.883 8.72424 147.216V147.216Z" fill="#FFDF75"/>
</g>
<g opacity="0.67">
<path opacity="0.67" d="M8.72424 168.014L27.5771 178.969C28.159 179.314 28.8231 179.496 29.4995 179.496C30.1759 179.496 30.8399 179.314 31.4218 178.969L50.4965 167.94C51.0798 167.602 51.5642 167.116 51.9008 166.532C52.2374 165.947 52.4146 165.284 52.4146 164.61C52.4146 163.935 52.2374 163.272 51.9008 162.687C51.5642 162.103 51.0798 161.617 50.4965 161.279L31.6436 150.325C31.0673 149.964 30.4011 149.772 29.7213 149.772C29.0414 149.772 28.3752 149.964 27.7989 150.325L8.72424 161.279C8.12333 161.612 7.62247 162.1 7.27368 162.692C6.9249 163.284 6.74098 163.959 6.74098 164.647C6.74098 165.334 6.9249 166.009 7.27368 166.601C7.62247 167.194 8.12333 167.681 8.72424 168.014V168.014Z" fill="#FFDF75"/>
</g>
<g opacity="0.5">
<path opacity="0.5" d="M8.72424 188.813L27.5771 199.767C28.159 200.112 28.8231 200.294 29.4995 200.294C30.1759 200.294 30.8399 200.112 31.4218 199.767L50.4965 188.739C51.0798 188.4 51.5642 187.915 51.9008 187.33C52.2374 186.745 52.4146 186.083 52.4146 185.408C52.4146 184.733 52.2374 184.07 51.9008 183.486C51.5642 182.901 51.0798 182.415 50.4965 182.077L31.6436 171.123C31.0617 170.778 30.3977 170.596 29.7213 170.596C29.0449 170.596 28.3808 170.778 27.7989 171.123L8.72424 182.151C8.14095 182.489 7.6568 182.975 7.32016 183.56C6.98353 184.144 6.80619 184.807 6.80619 185.482C6.80619 186.157 6.98353 186.82 7.32016 187.404C7.6568 187.989 8.14095 188.474 8.72424 188.813V188.813Z" fill="#FFDF75"/>
</g>
<g opacity="0.33">
<path opacity="0.33" d="M8.72424 209.463L27.5771 220.417C28.1534 220.778 28.8196 220.97 29.4995 220.97C30.1793 220.97 30.8456 220.778 31.4218 220.417L50.4965 209.463C51.0798 209.125 51.5642 208.639 51.9008 208.054C52.2374 207.47 52.4146 206.807 52.4146 206.132C52.4146 205.457 52.2374 204.794 51.9008 204.21C51.5642 203.625 51.0798 203.14 50.4965 202.801L31.6436 191.847C31.0617 191.502 30.3977 191.32 29.7213 191.32C29.0449 191.32 28.3808 191.502 27.7989 191.847L8.72424 202.875C8.15797 203.218 7.68968 203.701 7.36462 204.278C7.03955 204.855 6.86869 205.507 6.86869 206.169C6.86869 206.831 7.03955 207.483 7.36462 208.06C7.68968 208.637 8.15797 209.12 8.72424 209.463V209.463Z" fill="#FFDF75"/>
</g>
<g opacity="0.17">
<path opacity="0.17" d="M8.72424 230.409L27.5771 241.363C28.1534 241.724 28.8196 241.916 29.4995 241.916C30.1793 241.916 30.8456 241.724 31.4218 241.363L50.4965 230.409C51.0798 230.071 51.5642 229.585 51.9008 229.001C52.2374 228.416 52.4146 227.753 52.4146 227.078C52.4146 226.404 52.2374 225.741 51.9008 225.156C51.5642 224.572 51.0798 224.086 50.4965 223.748L31.6436 212.719C31.0568 212.389 30.3947 212.215 29.7213 212.215C29.0479 212.215 28.3857 212.389 27.7989 212.719L8.72424 223.748C8.14095 224.086 7.6568 224.572 7.32016 225.156C6.98353 225.741 6.80619 226.404 6.80619 227.078C6.80619 227.753 6.98353 228.416 7.32016 229.001C7.6568 229.585 8.14095 230.071 8.72424 230.409V230.409Z" fill="#FFDF75"/>
</g>
<g opacity="0.1">
<path opacity="0.1" d="M8.72424 251.133L27.5771 262.162C28.1639 262.492 28.8261 262.666 29.4995 262.666C30.1729 262.666 30.835 262.492 31.4218 262.162L50.4965 251.133C51.0798 250.795 51.5642 250.309 51.9008 249.725C52.2374 249.14 52.4146 248.477 52.4146 247.803C52.4146 247.128 52.2374 246.465 51.9008 245.88C51.5642 245.296 51.0798 244.81 50.4965 244.472L31.6436 233.518C31.0673 233.157 30.4011 232.965 29.7213 232.965C29.0414 232.965 28.3752 233.157 27.7989 233.518L8.72424 244.472C8.14095 244.81 7.6568 245.296 7.32016 245.88C6.98353 246.465 6.80619 247.128 6.80619 247.803C6.80619 248.477 6.98353 249.14 7.32016 249.725C7.6568 250.309 8.14095 250.795 8.72424 251.133V251.133Z" fill="black"/>
</g>
<path d="M8.72424 126.418L27.5771 137.446C28.1639 137.777 28.8261 137.95 29.4995 137.95C30.1729 137.95 30.835 137.777 31.4218 137.446L50.4965 126.418C51.0798 126.08 51.5642 125.594 51.9008 125.009C52.2374 124.425 52.4146 123.762 52.4146 123.087C52.4146 122.412 52.2374 121.749 51.9008 121.165C51.5642 120.58 51.0798 120.095 50.4965 119.756L31.6436 108.802C31.0673 108.441 30.4011 108.25 29.7213 108.25C29.0414 108.25 28.3752 108.441 27.7989 108.802L8.72424 119.756C8.14095 120.095 7.6568 120.58 7.32016 121.165C6.98353 121.749 6.80619 122.412 6.80619 123.087C6.80619 123.762 6.98353 124.425 7.32016 125.009C7.6568 125.594 8.14095 126.08 8.72424 126.418V126.418Z" fill="#F5E981"/>
<g opacity="0.1">
<path opacity="0.1" d="M734.379 511.519L753.232 522.473C753.809 522.834 754.475 523.025 755.155 523.025C755.834 523.025 756.501 522.834 757.077 522.473L776.078 511.519C776.661 511.18 777.145 510.695 777.482 510.11C777.818 509.526 777.996 508.863 777.996 508.188C777.996 507.513 777.818 506.85 777.482 506.266C777.145 505.681 776.661 505.195 776.078 504.857L757.151 493.829C756.564 493.498 755.902 493.324 755.229 493.324C754.555 493.324 753.893 493.498 753.306 493.829L734.305 504.857C733.726 505.202 733.247 505.693 732.917 506.281C732.587 506.87 732.417 507.534 732.424 508.209C732.432 508.884 732.616 509.545 732.959 510.126C733.303 510.707 733.792 511.187 734.379 511.519V511.519Z" fill="black"/>
</g>
</g>
<defs>
<clipPath id="clip0_24_12">
<rect width="778" height="558" fill="white" transform="matrix(-1 0 0 1 778 0)"/>
</clipPath>
</defs>
</svg>
