<svg width="561" height="728" viewBox="0 0 561 728" fill="none" xmlns="http://www.w3.org/2000/svg">
<g clip-path="url(#clip0_24_3076)">
<path d="M5.45408 353.752L0 351.761L34.3286 256.03L71.0313 301.647L94.9651 241.703L132.694 257.765L159.067 84.9365L228.365 199.427L253.005 155.353L302.477 173.857L329.041 141.668H362.215L416.499 0L437.738 78.3832L501.711 39.6413L504.727 44.6527L434.145 87.3137L415.537 18.7606L366.193 147.515H331.8L304.338 180.731L255.636 162.549L228.558 210.992L162.403 101.705L137.314 266.053L98.1734 249.349L72.7638 313.019L36.2536 267.788L5.45408 353.752Z" fill="#FF7FB7"/>
<g opacity="0.1">
<path opacity="0.1" d="M464.687 465.995C502.545 487.903 502.738 518.614 465.137 540.459C427.535 562.303 366.514 562.303 328.72 540.459C290.927 518.614 290.67 487.903 328.271 466.059C365.872 444.214 426.894 444.15 464.687 465.995Z" fill="black"/>
</g>
<path opacity="0.6" d="M464.944 459.57C500.299 477.945 500.171 507.371 465.329 525.553C430.487 543.735 373.893 543.928 338.538 525.553C303.183 507.178 303.311 477.752 338.153 459.57C372.995 441.388 429.589 441.388 464.944 459.57Z" fill="#FFEBC4"/>
<g opacity="0.83">
<path opacity="0.67" d="M472.836 401.553C513.132 422.434 512.94 455.972 473.286 476.66C433.631 497.348 369.209 497.54 328.913 476.66C288.617 455.779 288.809 422.241 328.464 401.553C368.118 380.865 432.925 380.801 472.836 401.553Z" fill="#FFEECE"/>
</g>
<g opacity="0.67">
<path opacity="0.73" d="M480.921 343.473C525.837 366.859 525.837 404.509 481.371 427.702C436.904 450.896 364.589 451.153 319.481 427.702C274.372 404.252 274.565 366.666 318.903 343.473C363.242 320.279 436.005 320.343 480.921 343.473Z" fill="#FFF2D8"/>
</g>
<g opacity="0.5">
<path opacity="0.8" d="M488.685 285.392C538.734 311.091 538.542 353.046 489.199 378.809C439.855 404.573 359.777 404.509 309.535 378.809C259.293 353.11 259.55 311.091 308.893 285.392C358.237 259.693 439.021 259.628 488.685 285.392Z" fill="#FFF5E2"/>
</g>
<g opacity="0.33">
<path opacity="0.87" d="M496.578 227.311C551.568 255.838 551.311 301.582 497.155 330.109C442.999 358.635 355.028 358.699 300.103 330.109C245.177 301.518 245.241 255.838 299.397 227.311C353.553 198.785 442.037 199.042 496.578 227.311Z" fill="#FFF8EB"/>
</g>
<g opacity="0.17">
<path opacity="0.93" d="M504.47 169.231C564.401 200.263 564.144 250.184 505.176 280.959C446.208 311.734 350.344 312.055 290.478 280.959C230.611 249.862 230.74 200.006 289.772 169.231C348.804 138.456 445.117 138.391 504.47 169.231Z" fill="#FFFCF5"/>
</g>
<g opacity="0.3">
<path opacity="0.6" d="M464.944 459.891C500.299 478.266 500.171 507.692 465.329 525.874C430.487 544.056 373.893 544.249 338.538 525.874C303.183 507.499 303.311 478.073 338.153 459.891C372.995 441.709 429.589 441.709 464.944 459.891Z" fill="white"/>
</g>
<path d="M476.237 475.568C476.237 476.467 476.237 477.302 476.237 478.137C476.237 478.973 475.917 479.487 475.724 480.129C475.548 480.959 475.312 481.775 475.018 482.571C475.018 483.213 474.505 483.856 474.248 484.498C473.991 485.14 473.478 486.169 473.029 487.004C472.451 488.166 471.786 489.283 471.04 490.345L470.655 490.923L468.024 494.2L467.511 494.778C466.441 495.955 465.306 497.071 464.11 498.119L461.672 500.239C460.902 500.817 460.196 501.46 459.362 502.038L456.539 503.901L453.459 505.893C451.022 507.284 448.517 508.549 445.951 509.684L443.705 510.647C441.652 511.482 439.535 512.318 437.289 513.024L435.043 513.795L430.872 515.016L427.792 515.851L423.365 516.815L420.349 517.393C417.397 517.907 414.317 518.357 411.302 518.678H408.478C406.682 518.678 404.885 518.807 403.088 519.064H399.623H395.26H391.603H387.561L383.839 518.743L379.861 518.293L376.332 517.779L372.097 517.072L368.76 516.365C367.156 516.044 365.488 515.594 363.883 515.145L361.124 514.438C358.172 513.538 355.349 512.639 352.526 511.547C351.178 511.033 349.831 510.39 348.548 509.812L346.43 508.913C344.441 507.949 342.516 506.985 340.591 505.829C324.871 496.77 317.042 484.819 317.107 472.933V495.163C317.107 507.049 324.935 518.999 340.655 528.058C342.58 529.151 344.505 530.179 346.559 531.142L348.483 531.978C349.695 532.578 350.937 533.114 352.205 533.584H352.654C355.414 534.676 358.237 535.576 361.188 536.475H361.894L363.947 536.989L368.888 538.21L370.171 538.531L372.161 538.852L376.396 539.623L378.128 539.945H379.925L383.903 540.394H385.828H387.625H391.667H393.72H403.153L408.543 540.009H410.724H411.366C414.382 540.009 417.462 539.302 420.413 538.788H420.862C421.761 538.788 422.595 538.403 423.429 538.21L427.857 537.31L430.936 536.475L435.107 535.254H435.941L437.353 534.74C439.47 534.034 441.588 533.198 443.769 532.363L446.015 531.4C448.581 530.265 451.087 529 453.523 527.609L454.549 527.031L456.603 525.617L459.426 523.754L461.672 521.955L464.11 519.963L464.623 519.514C465.65 518.571 466.613 517.607 467.511 516.622L468.024 516.044L469.564 514.181C469.949 513.731 470.27 513.217 470.655 512.703L471.04 512.189C471.677 511.307 472.256 510.384 472.772 509.426C472.797 509.234 472.797 509.04 472.772 508.848C473.222 508.013 473.607 507.178 473.992 506.343C474.377 505.507 474.441 505.379 474.633 504.865C474.826 504.351 474.633 504.865 474.633 504.415C474.927 503.62 475.163 502.803 475.339 501.974C475.518 501.469 475.668 500.954 475.788 500.432C475.815 500.283 475.815 500.131 475.788 499.982C475.788 499.147 475.788 498.247 475.788 497.412C475.823 496.877 475.823 496.341 475.788 495.806C475.823 495.572 475.823 495.333 475.788 495.099V473.255L476.237 475.568Z" fill="#FFDA00"/>
<path d="M475.916 478.137C475.916 478.78 475.596 479.487 475.403 480.129C475.227 480.959 474.991 481.775 474.697 482.571C474.697 483.213 474.184 483.855 473.927 484.498C473.671 485.14 473.157 486.169 472.708 487.004C472.13 488.166 471.465 489.283 470.719 490.345L470.334 490.923L467.703 494.2L467.19 494.778C466.12 495.955 464.985 497.071 463.789 498.119L461.672 500.239C460.902 500.817 460.196 501.46 459.362 502.038L456.539 503.901L453.459 505.893C451.022 507.284 448.517 508.549 445.951 509.683L443.705 510.647C441.652 511.482 439.535 512.318 437.289 513.024L435.043 513.795L430.872 515.016L427.792 515.851L423.365 516.815L420.349 517.393C417.397 517.907 414.317 518.357 411.302 518.678H408.478C406.682 518.678 404.885 518.807 403.088 519.064H399.623H395.26H391.603H387.561L383.839 518.743L379.861 518.293L376.332 517.779L372.097 517.072L368.76 516.365C367.156 516.044 365.488 515.594 363.883 515.145L361.124 514.438C358.172 513.538 355.349 512.639 352.526 511.547C351.178 511.033 349.831 510.39 348.548 509.812L346.43 508.913C344.441 507.949 342.516 506.985 340.591 505.829C324.871 496.769 317.042 484.819 317.107 472.933V487.389C317.107 499.211 324.999 511.033 340.591 520.027C342.516 521.12 344.441 522.148 346.494 523.111L348.419 523.947L352.141 525.553H352.59C355.349 526.581 358.172 527.545 361.124 528.38H361.83L363.883 528.894L368.824 530.114L370.107 530.436H372.097L376.332 531.207H378.064H379.861L383.839 531.657H385.764H387.561H391.603H393.656H401.805H403.088L408.478 531.335H410.66H411.302C414.317 531.335 417.397 530.628 420.349 530.114H420.798L423.365 529.536L427.792 528.637L430.872 527.802L435.043 526.581H435.877L437.289 526.067L443.705 523.69L445.951 522.726C448.518 521.57 451.024 520.284 453.459 518.871C453.821 518.717 454.165 518.523 454.485 518.293C455.191 517.907 455.833 517.393 456.539 516.944L459.362 515.016C460.15 514.468 460.9 513.867 461.607 513.217C462.442 512.575 463.276 511.932 464.046 511.225L464.559 510.84L467.447 507.949L467.96 507.306L469.5 505.507C469.885 505.058 470.206 504.544 470.591 504.03L470.976 503.516C471.599 502.624 472.177 501.702 472.708 500.753C472.744 500.54 472.744 500.323 472.708 500.11C473.157 499.34 473.542 498.504 473.927 497.669C474.312 496.834 474.377 496.705 474.569 496.191C474.561 496.041 474.561 495.891 474.569 495.741C474.863 494.946 475.099 494.13 475.275 493.3C475.463 492.776 475.613 492.239 475.724 491.694C475.759 491.546 475.759 491.392 475.724 491.244C475.724 490.409 475.724 489.574 475.724 488.738C475.755 488.203 475.755 487.667 475.724 487.132C475.756 486.898 475.756 486.66 475.724 486.426V472.291C475.724 472.933 475.724 473.64 475.724 474.282C475.724 474.925 476.045 477.302 475.916 478.137Z" fill="#FFD859"/>
<path d="M475.916 478.137C475.916 478.78 475.596 479.487 475.403 480.129C475.227 480.959 474.991 481.775 474.697 482.571C474.697 483.213 474.184 483.855 473.927 484.498C473.671 485.14 473.157 486.169 472.708 487.004C472.13 488.166 471.465 489.283 470.719 490.345L470.334 490.923L467.703 494.2L467.19 494.778C466.12 495.955 464.985 497.071 463.789 498.119L461.672 500.239C460.902 500.817 460.196 501.46 459.362 502.038L456.539 503.901L453.459 505.893C451.022 507.284 448.517 508.549 445.951 509.683L443.705 510.647C441.652 511.482 439.535 512.318 437.289 513.024L435.043 513.795L430.872 515.016L427.792 515.851L423.365 516.815L420.349 517.393C417.397 517.907 414.317 518.357 411.302 518.678H408.478C406.682 518.678 404.885 518.807 403.088 519.064H399.623H395.26H391.603H387.561L383.839 518.743L379.861 518.293L376.332 517.779L372.097 517.072L368.76 516.365C367.156 516.044 365.488 515.594 363.883 515.145L361.124 514.438C358.172 513.538 355.349 512.639 352.526 511.547C351.178 511.033 349.831 510.39 348.548 509.812L346.43 508.913C344.441 507.949 342.516 506.985 340.591 505.829C324.871 496.769 317.042 484.819 317.107 472.933V487.389C317.107 499.211 324.999 511.033 340.591 520.027C342.516 521.12 344.441 522.148 346.494 523.111L348.419 523.947L352.141 525.553H352.59C355.349 526.581 358.172 527.545 361.124 528.38H361.83L363.883 528.894L368.824 530.114L370.107 530.436H372.097L376.332 531.207H378.064H379.861L383.839 531.657H385.764H387.561H391.603H393.656H401.805H403.088L408.478 531.335H410.66H411.302C414.317 531.335 417.397 530.628 420.349 530.114H420.798L423.365 529.536L427.792 528.637L430.872 527.802L435.043 526.581H435.877L437.289 526.067L443.705 523.69L445.951 522.726C448.518 521.57 451.024 520.284 453.459 518.871C453.821 518.717 454.165 518.523 454.485 518.293C455.191 517.907 455.833 517.393 456.539 516.944L459.362 515.016C460.15 514.468 460.9 513.867 461.607 513.217C462.442 512.575 463.276 511.932 464.046 511.225L464.559 510.84L467.447 507.949L467.96 507.306L469.5 505.507C469.885 505.058 470.206 504.544 470.591 504.03L470.976 503.516C471.599 502.624 472.177 501.702 472.708 500.753C472.744 500.54 472.744 500.323 472.708 500.11C473.157 499.34 473.542 498.504 473.927 497.669C474.312 496.834 474.377 496.705 474.569 496.191C474.561 496.041 474.561 495.891 474.569 495.741C474.863 494.946 475.099 494.13 475.275 493.3C475.463 492.776 475.613 492.239 475.724 491.694C475.759 491.546 475.759 491.392 475.724 491.244C475.724 490.409 475.724 489.574 475.724 488.738C475.755 488.203 475.755 487.667 475.724 487.132C475.756 486.898 475.756 486.66 475.724 486.426V472.291C475.724 472.933 475.724 473.64 475.724 474.282C475.724 474.925 476.045 477.302 475.916 478.137Z" fill="#FF9E03"/>
<path d="M452.881 440.359C484.13 458.413 484.258 487.71 453.202 505.764C422.145 523.818 371.711 523.818 340.463 505.764C309.214 487.71 309.086 458.477 340.078 440.424C371.07 422.37 421.632 422.306 452.881 440.359Z" fill="#F2B42B"/>
<path d="M452.881 440.359C484.13 458.413 484.258 487.71 453.202 505.764C422.145 523.818 371.711 523.818 340.463 505.764C309.214 487.71 309.086 458.477 340.078 440.424C371.07 422.37 421.632 422.306 452.881 440.359Z" fill="#FFD859"/>
<path d="M452.881 444.214C484.13 462.268 484.258 487.711 453.202 505.764C422.145 523.818 371.711 523.818 340.463 505.764C309.214 487.711 309.086 462.397 340.078 444.343C371.07 426.289 421.632 426.161 452.881 444.214Z" fill="#FFDA00"/>
<path d="M340.077 444.279C371.134 426.161 421.632 426.161 452.881 444.279C467.639 452.824 475.339 462.975 476.237 473.255C477.199 461.69 469.82 449.997 452.881 440.424C421.632 422.37 371.134 422.37 340.077 440.424C323.715 449.932 316.144 461.497 317.106 472.998C318.005 462.782 325.576 452.695 340.077 444.279Z" fill="#FFED94"/>
<path d="M441.074 447.17C465.778 461.497 465.907 484.627 441.074 498.89C427.274 505.935 412.003 509.608 396.511 509.608C381.02 509.608 365.749 505.935 351.948 498.89C327.245 484.627 327.116 461.497 351.948 447.491C365.724 440.396 380.982 436.668 396.473 436.612C411.964 436.556 427.248 440.174 441.074 447.17Z" fill="#DE821F"/>
<path d="M439.278 449.676C463.019 463.81 463.148 486.747 439.599 501.074C426.392 508.035 411.693 511.673 396.768 511.673C381.844 511.673 367.144 508.035 353.938 501.074C330.26 486.875 330.132 463.939 353.938 449.676C367.09 442.727 381.737 439.095 396.608 439.095C411.479 439.095 426.126 442.727 439.278 449.676Z" fill="#FFB101"/>
<path d="M436.84 453.273L428.113 458.349C431.792 460.204 434.75 463.233 436.519 466.958L428.498 469.207C426.213 464.668 422.291 461.167 417.526 459.414C412.761 457.66 407.508 457.785 402.832 459.763C398.212 462.397 399.238 465.673 403.73 472.163C409.184 479.68 409.377 485.012 401.484 489.638C396.899 491.906 391.871 493.134 386.759 493.234C381.646 493.334 376.574 492.304 371.904 490.216L362.664 495.613L357.082 492.401L366.065 487.132C361.731 484.939 358.27 481.337 356.248 476.917L364.461 474.604C366.176 478.84 369.368 482.31 373.444 484.37C376.309 486.131 379.562 487.163 382.917 487.376C386.273 487.588 389.629 486.976 392.694 485.59C397.699 482.635 397.249 478.844 393.271 473.447C387.624 466.059 386.02 460.598 393.72 455.843C398.07 453.707 402.833 452.548 407.677 452.448C412.52 452.348 417.327 453.31 421.761 455.265L430.744 450.061L436.84 453.273Z" fill="#FFD859"/>
<path d="M492.92 438.432C492.92 439.267 492.92 440.102 492.92 441.002C492.92 441.901 492.6 442.287 492.407 442.994C492.215 443.7 491.958 444.6 491.701 445.371C491.445 446.142 491.124 446.656 490.867 447.298C490.56 448.168 490.174 449.006 489.712 449.804C489.089 450.975 488.404 452.112 487.659 453.209L487.274 453.723C486.472 454.874 485.593 455.968 484.643 457C484.508 457.241 484.335 457.458 484.13 457.642C483.103 458.735 481.948 459.827 480.793 460.919C479.638 462.011 479.189 462.268 478.355 462.911C477.521 463.553 476.879 464.131 476.109 464.71L473.286 466.637C472.259 467.28 471.296 467.986 470.206 468.565C467.832 469.978 465.265 471.199 462.698 472.42L460.388 473.383C458.399 474.218 456.282 474.989 453.972 475.76L451.662 476.531C450.314 476.981 448.903 477.302 447.555 477.688L444.411 478.523C443 478.909 441.524 479.166 440.048 479.487L437.032 480.129C434.016 480.643 431.001 481.029 427.985 481.35H425.161H419.707H416.307H408.286H404.243H400.522L396.544 480.9L393.014 480.386L388.78 479.615L385.443 478.973L380.502 477.752L377.807 476.981C374.894 476.163 372.025 475.198 369.209 474.09L365.167 472.42L363.113 471.52C361.124 470.556 359.135 469.528 357.274 468.436C341.554 459.377 333.661 447.427 333.725 435.541V457.771C333.725 469.657 341.554 481.607 357.274 490.666C359.135 491.758 361.124 492.786 363.113 493.75L365.103 494.585L368.76 496.191H369.209C371.968 497.284 374.856 498.247 377.743 499.083H378.449L380.502 499.597L385.443 500.817L386.79 501.139H388.78L393.014 501.91H394.683H396.544L400.522 502.359H402.447H403.923H407.965H418.167H419.387L424.841 502.038H426.958H427.6C430.68 502.038 433.695 501.331 436.711 500.753H437.16L439.727 500.239C441.203 499.918 442.679 499.661 444.09 499.275L447.234 498.44L451.341 497.284H452.239L453.651 496.77C455.769 495.999 457.822 495.228 460.068 494.328C460.859 494.062 461.631 493.74 462.377 493.364C464.949 492.243 467.456 490.978 469.885 489.574L470.847 488.996L472.965 487.646L475.788 485.719L478.034 483.92C478.868 483.277 479.702 482.635 480.472 481.928L480.986 481.543C482.012 480.579 482.911 479.615 483.809 478.652L484.386 478.009L485.926 476.21L486.953 474.732L487.338 474.219C487.98 473.319 488.557 472.355 489.135 471.456C489.109 471.242 489.109 471.027 489.135 470.813C489.584 469.978 489.969 469.143 490.29 468.372C490.551 467.892 490.787 467.399 490.995 466.894C490.995 466.894 490.995 466.573 490.995 466.38C490.995 466.187 491.509 464.838 491.701 464.003L492.15 462.397C492.119 462.248 492.119 462.095 492.15 461.947C492.15 461.112 492.15 460.276 492.15 459.441C492.182 458.906 492.182 458.37 492.15 457.835V435.991C493.113 436.89 492.985 437.661 492.92 438.432Z" fill="#FFDA00"/>
<path d="M492.664 441.002C492.664 441.644 492.343 442.287 492.15 442.994C491.958 443.7 491.701 444.6 491.445 445.371C491.188 446.142 490.867 446.656 490.61 447.298C490.304 448.168 489.917 449.006 489.455 449.804C488.832 450.975 488.147 452.112 487.402 453.209L487.017 453.723C486.215 454.874 485.336 455.968 484.386 457C484.252 457.241 484.078 457.458 483.873 457.642C482.846 458.735 481.691 459.827 480.536 460.919C479.381 462.011 478.932 462.268 478.098 462.911C477.264 463.553 476.622 464.131 475.852 464.71L473.029 466.637C472.002 467.28 471.04 467.986 469.949 468.565C467.575 469.978 465.008 471.199 462.442 472.42L460.132 473.383C458.143 474.218 456.025 474.989 453.715 475.76L451.405 476.531C450.058 476.981 448.646 477.302 447.299 477.688L444.154 478.523C442.743 478.909 441.267 479.166 439.791 479.487L436.775 480.129C433.76 480.643 430.744 481.029 427.728 481.35H424.905H419.451H416.05H408.029H403.987H400.265L396.287 480.9L392.758 480.386L388.523 479.615L385.186 478.973L380.245 477.752L377.551 476.981C374.638 476.163 371.768 475.198 368.952 474.09L364.91 472.42L362.857 471.52C360.867 470.556 358.878 469.528 357.018 468.436C341.297 459.377 333.404 447.427 333.469 435.541V450.254C333.469 462.075 341.425 473.833 357.018 482.892C358.878 483.984 360.867 485.012 362.857 485.976L364.846 486.811L368.503 488.417H368.952C371.711 489.51 374.599 490.473 377.486 491.308H378.192L380.245 491.823L385.186 493.043H386.534C387.189 493.209 387.853 493.337 388.523 493.429L392.758 494.135L394.426 494.457H396.287L400.265 494.907H402.19H403.987H408.029H410.018H418.232H419.451C421.312 494.907 423.108 494.906 424.905 494.521H427.022H427.664C430.744 494.2 433.76 493.814 436.775 493.236H437.225L439.791 492.722L444.154 491.758L447.299 490.923L451.405 489.767H452.303L453.715 489.188C455.833 488.482 457.886 487.711 460.132 486.811L462.442 485.847C465.013 484.726 467.52 483.461 469.949 482.057L470.911 481.478C471.642 481.045 472.348 480.573 473.029 480.065L475.852 478.202L478.098 476.403C478.932 475.76 479.766 475.118 480.536 474.411L481.05 474.026C482.04 473.089 482.982 472.102 483.873 471.07L484.45 470.492L485.99 468.693L487.017 467.215L487.402 466.701L489.199 463.874C489.175 463.682 489.175 463.488 489.199 463.296C489.636 462.486 490.022 461.649 490.354 460.79C490.614 460.332 490.85 459.861 491.059 459.377V458.863C491.059 458.092 491.573 457.257 491.765 456.486C491.958 455.715 492.086 455.394 492.215 454.88C492.183 454.731 492.183 454.578 492.215 454.43C492.215 453.595 492.215 452.76 492.215 451.924C492.242 451.389 492.242 450.853 492.215 450.318V435.412V437.468C492.856 439.267 492.792 440.102 492.664 441.002Z" fill="#FFD859"/>
<path d="M492.664 441.002C492.664 441.644 492.343 442.287 492.15 442.994C491.958 443.7 491.701 444.6 491.445 445.371C491.188 446.142 490.867 446.656 490.61 447.298C490.304 448.168 489.917 449.006 489.455 449.804C488.832 450.975 488.147 452.112 487.402 453.209L487.017 453.723C486.215 454.874 485.336 455.968 484.386 457C484.252 457.241 484.078 457.458 483.873 457.642C482.846 458.735 481.691 459.827 480.536 460.919C479.381 462.011 478.932 462.268 478.098 462.911C477.264 463.553 476.622 464.131 475.852 464.71L473.029 466.637C472.002 467.28 471.04 467.986 469.949 468.565C467.575 469.978 465.008 471.199 462.442 472.42L460.132 473.383C458.143 474.218 456.025 474.989 453.715 475.76L451.405 476.531C450.058 476.981 448.646 477.302 447.299 477.688L444.154 478.523C442.743 478.909 441.267 479.166 439.791 479.487L436.775 480.129C433.76 480.643 430.744 481.029 427.728 481.35H424.905H419.451H416.05H408.029H403.987H400.265L396.287 480.9L392.758 480.386L388.523 479.615L385.186 478.973L380.245 477.752L377.551 476.981C374.638 476.163 371.768 475.198 368.952 474.09L364.91 472.42L362.857 471.52C360.867 470.556 358.878 469.528 357.018 468.436C341.297 459.377 333.404 447.427 333.469 435.541V450.254C333.469 462.075 341.425 473.833 357.018 482.892C358.878 483.984 360.867 485.012 362.857 485.976L364.846 486.811L368.503 488.417H368.952C371.711 489.51 374.599 490.473 377.486 491.308H378.192L380.245 491.823L385.186 493.043H386.534C387.189 493.209 387.853 493.337 388.523 493.429L392.758 494.135L394.426 494.457H396.287L400.265 494.907H402.19H403.987H408.029H410.018H418.232H419.451C421.312 494.907 423.108 494.906 424.905 494.521H427.022H427.664C430.744 494.2 433.76 493.814 436.775 493.236H437.225L439.791 492.722L444.154 491.758L447.299 490.923L451.405 489.767H452.303L453.715 489.188C455.833 488.482 457.886 487.711 460.132 486.811L462.442 485.847C465.013 484.726 467.52 483.461 469.949 482.057L470.911 481.478C471.642 481.045 472.348 480.573 473.029 480.065L475.852 478.202L478.098 476.403C478.932 475.76 479.766 475.118 480.536 474.411L481.05 474.026C482.04 473.089 482.982 472.102 483.873 471.07L484.45 470.492L485.99 468.693L487.017 467.215L487.402 466.701L489.199 463.874C489.175 463.682 489.175 463.488 489.199 463.296C489.636 462.486 490.022 461.649 490.354 460.79C490.614 460.332 490.85 459.861 491.059 459.377V458.863C491.059 458.092 491.573 457.257 491.765 456.486C491.958 455.715 492.086 455.394 492.215 454.88C492.183 454.731 492.183 454.578 492.215 454.43C492.215 453.595 492.215 452.76 492.215 451.924C492.242 451.389 492.242 450.853 492.215 450.318V435.412V437.468C492.856 439.267 492.792 440.102 492.664 441.002Z" fill="#FF9E03"/>
<path d="M469.564 403.16C500.813 421.278 501.005 450.511 469.949 468.565C438.893 486.618 388.459 486.618 357.21 468.565C325.961 450.511 325.833 421.278 356.825 403.16C387.817 385.042 438.379 385.106 469.564 403.16Z" fill="#F2B42B"/>
<path d="M469.564 403.16C500.813 421.278 501.005 450.511 469.949 468.565C438.893 486.618 388.459 486.618 357.21 468.565C325.961 450.511 325.833 421.278 356.825 403.16C387.817 385.042 438.379 385.106 469.564 403.16Z" fill="#FFD859"/>
<path d="M469.564 407.078C500.813 425.132 501.005 450.511 469.949 468.564C438.893 486.618 388.459 486.618 357.21 468.564C325.961 450.511 325.769 425.132 356.825 407.078C387.881 389.025 438.38 389.025 469.564 407.078Z" fill="#FFDA00"/>
<path d="M356.825 407.079C387.881 389.025 438.38 389.025 469.564 407.079C484.322 415.624 492.086 425.775 492.985 435.99C493.947 424.49 486.183 412.797 469.564 403.16C438.38 385.106 387.881 385.106 356.825 403.16C340.463 412.733 332.827 424.297 333.854 435.733C334.688 425.582 342.324 415.559 356.825 407.079Z" fill="#FFED94"/>
<path d="M457.758 410.291C482.461 424.554 482.59 447.748 458.078 462.011C444.273 469.041 429.004 472.706 413.515 472.706C398.027 472.706 382.758 469.041 368.952 462.011C344.249 447.684 344.12 424.554 368.632 410.291C382.437 403.261 397.706 399.596 413.195 399.596C428.683 399.596 443.952 403.261 457.758 410.291Z" fill="#DE821F"/>
<path d="M456.025 412.475C479.766 426.674 479.895 449.611 456.025 463.874C442.835 470.851 428.144 474.498 413.227 474.498C398.31 474.498 383.618 470.851 370.428 463.874C346.751 449.74 346.559 426.803 370.428 412.475C383.623 405.515 398.313 401.877 413.227 401.877C428.141 401.877 442.83 405.515 456.025 412.475Z" fill="#FFB101"/>
<path d="M453.587 416.138L444.86 421.213C448.52 423.043 451.458 426.053 453.202 429.758L445.245 432.007C442.915 427.51 438.99 424.048 434.241 422.301C429.492 420.553 424.263 420.647 419.579 422.562C414.959 425.261 415.986 428.473 420.413 434.962C425.931 442.479 426.124 447.812 418.167 452.502C413.588 454.752 408.573 455.97 403.473 456.07C398.374 456.169 393.314 455.149 388.651 453.08L379.411 458.477L373.829 455.201L382.812 449.996C378.458 447.8 374.992 444.17 372.995 439.717L381.208 437.468C382.965 441.662 386.147 445.098 390.191 447.17C393.044 448.963 396.299 450.014 399.661 450.227C403.023 450.441 406.385 449.809 409.441 448.39C414.446 445.435 413.932 441.966 409.954 436.247C404.372 428.859 402.767 423.398 410.467 418.643C414.822 416.523 419.583 415.374 424.424 415.274C429.265 415.174 434.07 416.126 438.508 418.065L447.491 412.861L453.587 416.138Z" fill="#FFD859"/>
<path d="M476.237 406.822C476.237 407.657 476.237 408.556 476.237 409.391C476.237 410.227 475.852 410.741 475.724 411.383C475.596 412.026 475.275 412.989 475.018 413.76C474.791 414.424 474.512 415.068 474.184 415.688C473.799 416.587 473.478 417.423 473.029 418.258C472.58 419.093 471.746 420.507 470.976 421.599L470.591 422.113C469.79 423.284 468.911 424.4 467.96 425.454L467.446 426.032C466.42 427.124 465.265 428.281 464.11 429.308C462.955 430.336 462.506 430.658 461.672 431.3L459.426 433.099L456.602 435.027C455.576 435.669 454.613 436.376 453.523 436.954C451.148 438.368 448.582 439.588 446.015 440.809L443.705 441.773C441.716 442.608 439.599 443.379 437.289 444.15L434.979 444.921C433.631 445.371 432.22 445.692 430.872 446.077L427.728 446.913C426.316 447.298 424.84 447.555 423.3 447.876L420.349 448.519C417.333 449.033 414.317 449.418 411.238 449.74H408.478L403.024 450.125H391.539H387.56H383.839L379.86 449.675L376.331 449.161L372.096 448.39L368.76 447.748L363.819 446.527L361.06 445.82C358.172 444.921 355.285 443.957 352.526 442.929L348.483 441.195L346.43 440.295C344.441 439.331 342.452 438.303 340.591 437.211C324.871 428.152 317.042 416.202 317.042 404.316V426.546C317.042 438.432 324.871 450.382 340.591 459.441C342.452 460.533 344.441 461.561 346.43 462.525L348.419 463.36L352.077 464.967H352.526C355.285 466.059 358.172 467.022 361.06 467.858H361.766L363.819 468.372L368.76 469.592L370.107 469.914L372.032 470.235L376.331 471.006H378H379.86L383.839 471.391H385.764H387.56H391.539H393.592C394.126 471.424 394.662 471.424 395.196 471.391C396.672 471.391 398.148 471.391 399.623 471.391H401.741H403.024L408.478 471.07H410.596H411.238C414.317 470.749 417.333 470.363 420.349 469.849H420.798L423.3 469.335C424.776 469.014 426.316 468.757 427.728 468.372L430.872 467.536C432.22 467.151 433.631 466.83 434.979 466.38H435.877L437.225 465.866L443.641 463.489L445.951 462.525C448.518 461.304 451.084 460.084 453.458 458.67L454.421 458.092L456.538 456.743L459.362 454.815L461.607 453.016C462.442 452.374 463.276 451.731 464.046 451.025L464.495 450.639L467.382 447.748C467.588 447.563 467.761 447.346 467.896 447.105C468.464 446.536 468.999 445.936 469.5 445.307L470.526 443.829L470.911 443.315C471.553 442.415 472.131 441.451 472.708 440.552C472.683 440.339 472.683 440.123 472.708 439.909C473.157 439.074 473.478 438.303 473.863 437.468C474.248 436.633 474.376 436.504 474.569 435.99C474.761 435.476 474.569 435.669 474.569 435.476C474.569 435.284 475.018 433.934 475.275 433.099L475.724 431.493V431.043C475.894 430.217 476.001 429.38 476.045 428.538C476.076 428.003 476.076 427.466 476.045 426.931V404.509C476.43 405.28 476.301 406.051 476.237 406.822Z" fill="#FFDA00"/>
<path d="M475.981 409.392C475.981 410.034 475.595 410.741 475.467 411.383C475.339 412.026 475.018 412.99 474.761 413.761C474.534 414.424 474.255 415.068 473.927 415.688C473.542 416.587 473.221 417.423 472.772 418.258C472.323 419.093 471.489 420.507 470.719 421.599L470.334 422.113C469.533 423.284 468.654 424.4 467.703 425.454L467.19 426.032C466.163 427.124 465.008 428.281 463.853 429.309C462.698 430.337 462.249 430.658 461.415 431.3L459.169 433.099L456.346 435.027C455.319 435.669 454.357 436.376 453.266 436.954C450.892 438.368 448.325 439.588 445.758 440.809L443.449 441.773C441.459 442.608 439.342 443.379 437.032 444.15L434.722 444.921C433.374 445.371 431.963 445.692 430.615 446.078L427.471 446.913C426.06 447.298 424.584 447.555 423.044 447.877L420.092 448.519C417.076 449.033 414.061 449.419 410.981 449.74H408.222L402.768 450.125H391.282H387.304H383.582L379.604 449.675L376.075 449.161L371.84 448.39L368.503 447.748L363.562 446.527L360.803 445.821C357.916 444.921 355.028 443.957 352.269 442.929L348.227 441.195L346.173 440.295C344.184 439.332 342.195 438.303 340.334 437.211C324.614 428.152 316.786 416.202 316.786 404.316V419.029C316.786 430.851 324.742 442.608 340.334 451.667C342.195 452.759 344.184 453.787 346.173 454.751L348.163 455.586L351.82 457.192H352.269C355.028 458.285 357.916 459.248 360.803 460.084H361.509L363.562 460.598L368.503 461.818H369.851L371.775 462.14L376.075 462.846L377.743 463.168H379.604L383.582 463.617H385.507H387.304H391.282H393.335H401.484H402.768C404.564 463.617 406.425 463.617 408.222 463.232H410.339H410.981C414.061 462.911 417.076 462.525 420.092 461.947H420.541L423.044 461.433C424.52 461.112 426.06 460.855 427.471 460.469L430.615 459.634L434.722 458.477H435.62L436.968 457.964C439.149 457.193 441.203 456.422 443.384 455.522L445.694 454.558C448.266 453.437 450.772 452.171 453.202 450.768L454.164 450.189L456.282 448.776L459.105 446.913L461.351 445.114C462.185 444.471 463.019 443.829 463.789 443.122L464.238 442.737C465.265 441.794 466.227 440.831 467.126 439.845L467.639 439.203C468.216 438.625 468.73 437.982 469.243 437.404L470.27 435.926L470.655 435.412L472.451 432.585C472.427 432.393 472.427 432.199 472.451 432.007C472.9 431.172 473.221 430.337 473.606 429.501C473.991 428.666 474.12 428.538 474.312 428.088C474.505 427.638 474.312 427.767 474.312 427.574C474.312 427.381 474.761 425.968 475.018 425.197L475.467 423.591V423.141C475.637 422.315 475.744 421.477 475.788 420.635C475.816 420.1 475.816 419.564 475.788 419.029V404.123V406.179C476.173 407.657 476.109 408.556 475.981 409.392Z" fill="#FFD859"/>
<path d="M475.981 409.392C475.981 410.034 475.595 410.741 475.467 411.383C475.339 412.026 475.018 412.99 474.761 413.761C474.534 414.424 474.255 415.068 473.927 415.688C473.542 416.587 473.221 417.423 472.772 418.258C472.323 419.093 471.489 420.507 470.719 421.599L470.334 422.113C469.533 423.284 468.654 424.4 467.703 425.454L467.19 426.032C466.163 427.124 465.008 428.281 463.853 429.309C462.698 430.337 462.249 430.658 461.415 431.3L459.169 433.099L456.346 435.027C455.319 435.669 454.357 436.376 453.266 436.954C450.892 438.368 448.325 439.588 445.758 440.809L443.449 441.773C441.459 442.608 439.342 443.379 437.032 444.15L434.722 444.921C433.374 445.371 431.963 445.692 430.615 446.078L427.471 446.913C426.06 447.298 424.584 447.555 423.044 447.877L420.092 448.519C417.076 449.033 414.061 449.419 410.981 449.74H408.222L402.768 450.125H391.282H387.304H383.582L379.604 449.675L376.075 449.161L371.84 448.39L368.503 447.748L363.562 446.527L360.803 445.821C357.916 444.921 355.028 443.957 352.269 442.929L348.227 441.195L346.173 440.295C344.184 439.332 342.195 438.303 340.334 437.211C324.614 428.152 316.786 416.202 316.786 404.316V419.029C316.786 430.851 324.742 442.608 340.334 451.667C342.195 452.759 344.184 453.787 346.173 454.751L348.163 455.586L351.82 457.192H352.269C355.028 458.285 357.916 459.248 360.803 460.084H361.509L363.562 460.598L368.503 461.818H369.851L371.775 462.14L376.075 462.846L377.743 463.168H379.604L383.582 463.617H385.507H387.304H391.282H393.335H401.484H402.768C404.564 463.617 406.425 463.617 408.222 463.232H410.339H410.981C414.061 462.911 417.076 462.525 420.092 461.947H420.541L423.044 461.433C424.52 461.112 426.06 460.855 427.471 460.469L430.615 459.634L434.722 458.477H435.62L436.968 457.964C439.149 457.193 441.203 456.422 443.384 455.522L445.694 454.558C448.266 453.437 450.772 452.171 453.202 450.768L454.164 450.189L456.282 448.776L459.105 446.913L461.351 445.114C462.185 444.471 463.019 443.829 463.789 443.122L464.238 442.737C465.265 441.794 466.227 440.831 467.126 439.845L467.639 439.203C468.216 438.625 468.73 437.982 469.243 437.404L470.27 435.926L470.655 435.412L472.451 432.585C472.427 432.393 472.427 432.199 472.451 432.007C472.9 431.172 473.221 430.337 473.606 429.501C473.991 428.666 474.12 428.538 474.312 428.088C474.505 427.638 474.312 427.767 474.312 427.574C474.312 427.381 474.761 425.968 475.018 425.197L475.467 423.591V423.141C475.637 422.315 475.744 421.477 475.788 420.635C475.816 420.1 475.816 419.564 475.788 419.029V404.123V406.179C476.173 407.657 476.109 408.556 475.981 409.392Z" fill="#FF9E03"/>
<path d="M452.881 371.742C484.13 389.796 484.322 419.093 453.266 437.147C422.21 455.201 371.776 455.201 340.527 437.147C309.278 419.093 309.086 389.86 340.142 371.806C371.198 353.752 421.632 353.495 452.881 371.742Z" fill="#F2B42B"/>
<path d="M452.881 371.742C484.13 389.796 484.322 419.093 453.266 437.147C422.21 455.201 371.776 455.201 340.527 437.147C309.278 419.093 309.086 389.86 340.142 371.806C371.198 353.752 421.632 353.495 452.881 371.742Z" fill="#FFD859"/>
<path d="M452.881 375.468C484.13 393.522 484.322 418.9 453.266 436.954C422.21 455.008 371.776 455.008 340.527 436.954C309.278 418.9 309.086 393.522 340.142 375.468C371.198 357.414 421.632 357.414 452.881 375.468Z" fill="#FFDA00"/>
<path d="M340.142 375.468C371.198 357.414 421.632 357.414 452.881 375.468C467.639 384.013 475.403 394.165 476.237 404.38C477.264 392.88 469.821 381.187 452.881 371.549C421.632 353.495 371.198 353.56 340.142 371.549C323.78 381.058 316.144 392.623 317.171 404.059C318.005 393.972 325.641 383.949 340.142 375.468Z" fill="#FFED94"/>
<path d="M441.075 378.167C465.778 392.43 465.907 415.624 441.075 429.566C427.269 436.596 412 440.26 396.511 440.26C381.023 440.26 365.754 436.596 351.948 429.566C327.245 415.238 327.116 392.109 351.628 378.167C365.474 371.083 380.802 367.39 396.351 367.39C411.9 367.39 427.228 371.083 441.075 378.167Z" fill="#DE821F"/>
<path d="M439.342 380.865C463.083 395.064 463.212 418.001 439.342 432.264C426.152 439.241 411.461 442.887 396.544 442.887C381.626 442.887 366.935 439.241 353.745 432.264C330.004 418.129 329.875 395.193 353.745 380.865C366.94 373.905 381.63 370.267 396.544 370.267C411.458 370.267 426.147 373.905 439.342 380.865Z" fill="#FFB101"/>
<path d="M436.84 384.592L428.177 389.667C431.827 391.542 434.758 394.567 436.519 398.277L428.562 400.461C426.824 396.806 423.908 393.841 420.285 392.045C417.755 390.392 414.838 389.429 411.823 389.248C408.807 389.068 405.797 389.678 403.088 391.017C398.469 393.715 399.495 396.992 403.923 403.416C409.441 410.934 409.569 416.266 401.677 420.956C397.098 423.206 392.082 424.424 386.983 424.524C381.883 424.624 376.824 423.603 372.161 421.535L362.921 426.931L357.338 423.655L366.322 418.451C361.988 416.257 358.526 412.656 356.504 408.235L364.653 405.922C366.427 410.127 369.633 413.564 373.701 415.624C376.554 417.417 379.809 418.468 383.171 418.682C386.532 418.895 389.894 418.263 392.95 416.844C397.955 413.953 397.442 410.42 393.464 404.701C387.817 397.313 386.277 391.852 393.977 387.097C398.331 384.977 403.093 383.828 407.934 383.728C412.775 383.628 417.58 384.58 422.017 386.519L431.001 381.315L436.84 384.592Z" fill="#FFD859"/>
<g opacity="0.1">
<path opacity="0.1" d="M266.095 553.63C303.952 575.474 304.145 606.249 266.544 628.094C228.943 649.938 167.921 649.938 130.128 628.094C92.3342 606.249 92.0777 575.538 129.679 553.694C167.28 531.849 228.301 531.785 266.095 553.63Z" fill="black"/>
</g>
<path opacity="0.6" d="M266.352 547.205C301.707 565.58 301.578 595.005 266.737 613.188C231.895 631.37 175.3 631.563 139.945 613.188C104.59 594.813 104.718 565.387 139.56 547.205C174.402 529.022 231.253 529.022 266.352 547.205Z" fill="#FFEBC4"/>
<g opacity="0.83">
<path opacity="0.67" d="M274.244 489.124C314.54 510.005 314.347 543.542 274.693 564.23C235.039 584.918 170.616 585.175 130.32 564.23C90.0242 543.285 90.2169 509.812 129.871 489.124C169.526 468.436 234.333 468.436 274.244 489.124Z" fill="#FFEECE"/>
</g>
<g opacity="0.67">
<path opacity="0.73" d="M282.008 431.043C326.924 454.494 326.924 492.079 282.457 515.337C237.99 538.595 165.675 538.788 120.567 515.337C75.4586 491.887 75.6512 454.237 119.99 431.043C164.328 407.85 237.092 407.785 282.008 431.043Z" fill="#FFF2D8"/>
</g>
<g opacity="0.5">
<path opacity="0.8" d="M290.093 372.963C340.142 398.983 339.949 440.681 290.606 466.38C241.263 492.079 161.184 492.079 110.942 466.38C60.7006 440.681 60.9572 398.726 110.301 372.963C159.644 347.199 240.429 347.199 290.093 372.963Z" fill="#FFF5E2"/>
</g>
<g opacity="0.33">
<path opacity="0.87" d="M297.985 314.882C352.975 343.408 352.718 389.218 298.563 417.68C244.407 446.142 156.436 446.206 101.51 417.68C46.5842 389.153 46.6485 343.344 100.804 314.882C154.96 286.42 243.508 286.613 297.985 314.882Z" fill="#FFF8EB"/>
</g>
<g opacity="0.17">
<path opacity="0.93" d="M305.878 256.801C365.808 287.898 365.552 337.754 306.583 368.53C247.615 399.305 151.752 399.626 91.8853 368.53C32.0188 337.433 32.1472 287.576 91.1154 256.801C150.084 226.026 246.525 226.026 305.878 256.801Z" fill="#FFFCF5"/>
</g>
<g opacity="0.3">
<path opacity="0.6" d="M266.352 547.526C301.707 565.837 301.578 595.263 266.737 613.445C231.895 631.627 175.3 631.82 139.945 613.445C104.59 595.07 104.718 565.708 139.56 547.526C174.402 529.344 231.253 529.344 266.352 547.526Z" fill="white"/>
</g>
<path d="M277.645 563.202C277.645 564.038 277.644 564.873 277.324 565.708C277.003 566.543 277.324 567.057 276.81 567.764C276.635 568.573 276.398 569.368 276.104 570.141C276.104 570.784 275.591 571.426 275.335 572.069C275.078 572.711 274.565 573.739 274.115 574.575C273.539 575.758 272.874 576.896 272.126 577.98L271.741 578.494L269.11 581.77C268.905 581.955 268.732 582.172 268.597 582.413C267.571 583.505 266.416 584.597 265.196 585.689C263.977 586.782 263.592 587.039 262.758 587.681C262.051 588.331 261.301 588.932 260.512 589.48L257.689 591.343L254.609 593.335C252.187 594.752 249.679 596.017 247.102 597.126L244.856 598.154L238.439 600.531L236.193 601.302L232.023 602.458L228.943 603.294L224.515 604.257L221.5 604.9C218.548 605.414 215.468 605.799 212.452 606.121H209.629L204.239 606.442H200.774H192.753H188.711L184.989 606.121L181.011 605.671L177.482 605.221L173.247 604.45L169.91 603.808L165.034 602.587L162.275 601.816C159.323 600.981 156.5 600.017 153.677 598.925L149.698 597.254L147.581 596.291C145.592 595.391 143.667 594.363 141.742 593.271C126.021 584.212 118.193 572.261 118.257 560.375V582.541C118.257 594.492 126.085 606.378 141.806 615.501C143.731 616.593 145.656 617.621 147.709 618.585L149.634 619.42L153.356 621.026H153.805C156.599 622.134 159.447 623.099 162.339 623.917H163.045L165.098 624.431L170.039 625.652H171.322C171.964 625.652 172.67 625.652 173.311 626.037L177.546 626.744L179.279 627.065H181.075L185.054 627.515H186.979H188.775H192.818H203.02H204.303H209.693H211.875H212.517C215.532 627.194 218.612 626.808 221.564 626.23H222.013L224.58 625.716L229.007 624.753L232.087 623.917L236.258 622.761H237.092L238.504 622.247C240.621 621.476 242.738 620.705 244.92 619.805C245.685 619.523 246.434 619.202 247.166 618.842C249.744 617.733 252.251 616.468 254.673 615.051L255.7 614.473L257.753 613.059L260.577 611.196C261.365 610.648 262.115 610.047 262.822 609.397C263.657 608.755 264.491 608.112 265.261 607.405L265.774 607.02C266.801 606.078 267.763 605.114 268.661 604.129C268.796 603.888 268.969 603.671 269.175 603.486L270.715 601.687C271.1 601.173 271.421 600.659 271.805 600.21L272.19 599.696C272.768 598.732 273.41 597.832 273.923 596.933V596.291C274.372 595.455 274.757 594.62 275.142 593.785L275.784 592.371V591.857C276.078 591.084 276.314 590.289 276.49 589.48C276.669 588.954 276.819 588.417 276.939 587.874C276.939 587.874 276.939 587.553 276.939 587.424C276.939 587.296 276.939 585.754 276.939 584.918C276.966 584.383 276.966 583.847 276.939 583.312C276.939 583.312 276.939 582.798 276.939 582.606V560.375L277.645 563.202Z" fill="#FFDA00"/>
<path d="M277.324 565.708C277.324 566.415 277.324 567.057 276.81 567.764C276.635 568.573 276.398 569.368 276.104 570.141C276.104 570.784 275.591 571.426 275.335 572.069C275.078 572.711 274.565 573.739 274.115 574.575C273.539 575.758 272.874 576.896 272.126 577.98L271.741 578.494L269.11 581.77C268.905 581.955 268.732 582.172 268.597 582.413C267.571 583.505 266.416 584.597 265.196 585.689C263.977 586.782 263.592 587.039 262.758 587.681C262.051 588.331 261.301 588.932 260.512 589.48L257.689 591.343L254.609 593.335C252.187 594.752 249.679 596.017 247.102 597.126L244.856 598.154L238.439 600.531L236.193 601.302L232.023 602.458L228.943 603.294L224.515 604.257L221.5 604.9C218.548 605.414 215.468 605.799 212.452 606.121H209.629L204.239 606.442H200.774H192.753H188.711L184.989 606.121L181.011 605.671L177.482 605.221L173.247 604.45L169.91 603.808L165.034 602.587L162.275 601.816C159.323 600.981 156.5 600.017 153.677 598.925L149.698 597.254L147.581 596.291C145.592 595.391 143.667 594.363 141.742 593.271C126.021 584.212 118.193 572.261 118.257 560.375V575.024C118.257 586.846 126.15 598.668 141.742 607.727C143.667 608.819 145.592 609.783 147.645 610.747L149.57 611.582L153.292 613.252H153.741C156.535 614.36 159.383 615.325 162.275 616.143H162.981L165.034 616.593C166.638 617.043 168.306 617.492 169.975 617.814L171.258 618.135C171.9 618.135 172.605 618.135 173.247 618.521L177.482 619.227L179.215 619.549H181.011L184.989 619.998H186.914H188.711H192.753H194.807H204.239C206.036 619.998 207.832 619.87 209.629 619.613H211.811H212.452C215.468 619.291 218.548 618.842 221.5 618.328H221.949C222.847 618.328 223.681 617.942 224.515 617.75L228.943 616.85L232.023 616.015L236.193 614.794H237.028L238.439 614.216C240.557 613.509 242.674 612.738 244.856 611.839L247.102 610.875C249.667 609.741 252.173 608.476 254.609 607.084L255.636 606.506L257.689 605.093L260.512 603.229C261.346 602.651 262.052 602.009 262.758 601.43L265.196 599.439L265.71 598.989C266.735 598.09 267.7 597.125 268.597 596.098L269.11 595.519L270.651 593.72C271.036 593.207 271.356 592.693 271.741 592.243L272.126 591.665C272.704 590.765 273.346 589.866 273.859 588.902C273.883 588.71 273.883 588.516 273.859 588.324C274.308 587.488 274.693 586.653 275.078 585.818L275.719 584.405C275.719 584.405 275.719 584.019 275.719 583.89C276.005 583.114 276.241 582.32 276.425 581.513C276.425 580.935 276.81 580.421 276.875 579.907C276.939 579.393 276.875 579.586 276.875 579.457C276.875 579.329 276.875 577.787 276.875 576.952C276.906 576.395 276.906 575.838 276.875 575.281C276.875 575.281 276.875 574.832 276.875 574.575V560.44C276.875 561.147 276.875 561.789 276.875 562.496C276.875 563.203 277.452 564.873 277.324 565.708Z" fill="#FFD859"/>
<path d="M277.324 565.708C277.324 566.415 277.324 567.057 276.81 567.764C276.635 568.573 276.398 569.368 276.104 570.141C276.104 570.784 275.591 571.426 275.335 572.069C275.078 572.711 274.565 573.739 274.115 574.575C273.539 575.758 272.874 576.896 272.126 577.98L271.741 578.494L269.11 581.77C268.905 581.955 268.732 582.172 268.597 582.413C267.571 583.505 266.416 584.597 265.196 585.689C263.977 586.782 263.592 587.039 262.758 587.681C262.051 588.331 261.301 588.932 260.512 589.48L257.689 591.343L254.609 593.335C252.187 594.752 249.679 596.017 247.102 597.126L244.856 598.154L238.439 600.531L236.193 601.302L232.023 602.458L228.943 603.294L224.515 604.257L221.5 604.9C218.548 605.414 215.468 605.799 212.452 606.121H209.629L204.239 606.442H200.774H192.753H188.711L184.989 606.121L181.011 605.671L177.482 605.221L173.247 604.45L169.91 603.808L165.034 602.587L162.275 601.816C159.323 600.981 156.5 600.017 153.677 598.925L149.698 597.254L147.581 596.291C145.592 595.391 143.667 594.363 141.742 593.271C126.021 584.212 118.193 572.261 118.257 560.375V575.024C118.257 586.846 126.15 598.668 141.742 607.727C143.667 608.819 145.592 609.783 147.645 610.747L149.57 611.582L153.292 613.252H153.741C156.535 614.36 159.383 615.325 162.275 616.143H162.981L165.034 616.593C166.638 617.043 168.306 617.492 169.975 617.814L171.258 618.135C171.9 618.135 172.605 618.135 173.247 618.521L177.482 619.227L179.215 619.549H181.011L184.989 619.998H186.914H188.711H192.753H194.807H204.239C206.036 619.998 207.832 619.87 209.629 619.613H211.811H212.452C215.468 619.291 218.548 618.842 221.5 618.328H221.949C222.847 618.328 223.681 617.942 224.515 617.75L228.943 616.85L232.023 616.015L236.193 614.794H237.028L238.439 614.216C240.557 613.509 242.674 612.738 244.856 611.839L247.102 610.875C249.667 609.741 252.173 608.476 254.609 607.084L255.636 606.506L257.689 605.093L260.512 603.229C261.346 602.651 262.052 602.009 262.758 601.43L265.196 599.439L265.71 598.989C266.735 598.09 267.7 597.125 268.597 596.098L269.11 595.519L270.651 593.72C271.036 593.207 271.356 592.693 271.741 592.243L272.126 591.665C272.704 590.765 273.346 589.866 273.859 588.902C273.883 588.71 273.883 588.516 273.859 588.324C274.308 587.488 274.693 586.653 275.078 585.818L275.719 584.405C275.719 584.405 275.719 584.019 275.719 583.89C276.005 583.114 276.241 582.32 276.425 581.513C276.425 580.935 276.81 580.421 276.875 579.907C276.939 579.393 276.875 579.586 276.875 579.457C276.875 579.329 276.875 577.787 276.875 576.952C276.906 576.395 276.906 575.838 276.875 575.281C276.875 575.281 276.875 574.832 276.875 574.575V560.44C276.875 561.147 276.875 561.789 276.875 562.496C276.875 563.203 277.452 564.873 277.324 565.708Z" fill="#FF9E03"/>
<path d="M254.288 527.93C285.473 545.984 285.665 575.281 254.609 593.335C223.553 611.389 173.119 611.389 141.87 593.335C110.621 575.281 110.493 546.048 141.485 527.93C172.477 509.812 223.039 509.876 254.288 527.93Z" fill="#F2B42B"/>
<path d="M254.288 527.93C285.473 545.984 285.665 575.281 254.609 593.335C223.553 611.389 173.119 611.389 141.87 593.335C110.621 575.281 110.493 546.048 141.485 527.93C172.477 509.812 223.039 509.876 254.288 527.93Z" fill="#FFD859"/>
<path d="M254.288 531.849C285.473 549.903 285.665 575.281 254.609 593.335C223.553 611.389 173.119 611.389 141.87 593.335C110.621 575.281 110.493 549.903 141.485 531.849C172.477 513.795 223.039 513.795 254.288 531.849Z" fill="#FFDA00"/>
<path d="M141.485 531.849C172.541 513.795 223.04 513.795 254.288 531.849C269.046 540.394 276.746 550.546 277.645 560.761C278.607 549.196 270.907 537.567 254.288 527.93C223.04 509.876 172.541 509.876 141.485 527.93C125.123 537.503 117.551 549.068 118.514 560.504C119.412 550.353 126.984 540.33 141.485 531.849Z" fill="#FFED94"/>
<path d="M242.482 534.805C267.185 549.068 267.314 572.197 242.482 586.525C228.681 593.57 213.41 597.243 197.919 597.243C182.427 597.243 167.157 593.57 153.356 586.525C128.652 572.261 128.524 549.132 153.356 535.126C167.136 528.046 182.392 524.326 197.88 524.27C213.369 524.214 228.651 527.824 242.482 534.805Z" fill="#DE821F"/>
<path d="M240.685 537.246C264.427 551.381 264.555 574.382 241.006 588.645C227.81 595.638 213.106 599.294 198.176 599.294C183.245 599.294 168.541 595.638 155.345 588.645C131.668 574.51 131.54 551.574 155.345 537.246C168.507 530.329 183.15 526.716 198.015 526.716C212.88 526.716 227.523 530.329 240.685 537.246Z" fill="#FFB101"/>
<path d="M238.247 540.908L229.52 545.984C233.192 547.819 236.149 550.825 237.926 554.529L229.905 556.778C227.586 552.27 223.662 548.799 218.909 547.05C214.156 545.301 208.921 545.402 204.239 547.333C199.619 550.032 200.646 553.244 205.137 559.733C210.591 567.25 210.784 572.583 202.892 577.273C198.302 579.524 193.275 580.742 188.165 580.842C183.055 580.942 177.985 579.921 173.311 577.851L164.071 583.184L158.489 579.972L167.472 574.767C163.143 572.537 159.686 568.918 157.655 564.488L165.868 562.239C167.625 566.433 170.807 569.869 174.851 571.941C177.717 573.702 180.969 574.734 184.325 574.946C187.68 575.159 191.036 574.546 194.101 573.161C199.106 570.206 198.657 566.415 194.678 561.018C189.032 553.63 187.428 548.169 195.127 543.414C199.477 541.277 204.24 540.118 209.084 540.019C213.927 539.919 218.734 540.88 223.168 542.836L232.151 537.632L238.247 540.908Z" fill="#FFD859"/>
<path d="M294.328 525.938C294.328 526.838 294.328 527.673 294.328 528.508C294.328 529.343 294.007 529.857 293.814 530.5L293.109 532.941L292.274 534.869C291.943 535.728 291.557 536.565 291.119 537.375C290.478 538.467 289.836 539.623 289.066 540.715L288.681 541.294C287.863 542.432 286.985 543.526 286.05 544.57L285.537 545.149C284.51 546.305 283.355 547.397 282.2 548.49L279.762 550.481L277.516 552.28L274.693 554.143L271.613 556.135C269.239 557.484 266.672 558.769 264.106 559.926L261.796 560.889C259.807 561.725 257.689 562.56 255.379 563.267C254.609 563.267 253.839 563.845 253.069 564.038L248.963 565.258L245.818 566.094L241.455 566.993L238.439 567.636C235.424 568.15 232.408 568.599 229.392 568.921H226.569C224.772 568.921 222.976 568.921 221.115 569.306H213.351H209.629H205.651L201.929 568.985L197.951 568.535L194.422 568.021L190.187 567.314L186.85 566.608C185.182 566.608 183.578 565.837 181.909 565.451L179.343 564.487C176.455 563.652 173.568 562.688 170.809 561.596L166.766 559.861L164.713 558.962C162.724 557.998 160.735 557.035 158.874 555.942C143.153 546.819 135.261 534.869 135.325 522.983V545.213C135.325 557.099 143.153 569.049 158.874 578.108C160.735 579.2 162.724 580.228 164.713 581.192L166.702 582.027C167.921 582.606 169.141 583.184 170.36 583.634H170.809C173.568 584.726 176.455 585.625 179.343 586.525H180.049L182.102 587.039L187.043 588.259L188.39 588.581L190.379 588.966L194.614 589.673L196.283 589.994H198.143L202.122 590.444H204.047H205.843H209.886H211.875H221.307C223.168 590.444 224.965 590.444 226.761 590.058H228.879H229.52C232.6 590.058 235.937 589.352 238.632 588.838H239.081L241.648 588.259L246.011 587.36L249.155 586.525L253.262 585.304H254.16L255.572 584.79C257.689 584.083 259.742 583.248 261.988 582.413L264.298 581.449C266.865 580.293 269.431 579.007 271.806 577.658L272.768 577.08L274.886 575.667C275.848 575.024 276.81 574.446 277.709 573.739L279.955 572.005L282.008 570.912C282.148 570.73 282.322 570.577 282.521 570.462C283.548 569.499 284.446 568.535 285.344 567.571L285.858 566.993L287.462 565.13C287.84 564.664 288.184 564.17 288.489 563.652L288.874 563.138C289.515 562.239 290.093 561.339 290.67 560.375C290.646 560.183 290.646 559.989 290.67 559.797C291.108 558.987 291.493 558.15 291.825 557.292C291.825 556.842 292.339 556.328 292.531 555.814C292.724 555.3 292.531 555.493 292.531 555.364C292.531 555.236 292.98 553.758 293.237 552.987C293.493 552.216 293.237 551.895 293.686 551.317C293.656 551.19 293.656 551.058 293.686 550.931C293.686 550.096 293.686 549.26 293.686 548.425C293.717 547.869 293.717 547.311 293.686 546.755V523.818C294.841 524.461 294.392 525.232 294.328 525.938Z" fill="#FFDA00"/>
<path d="M294.071 528.573C294.071 529.215 293.75 529.922 293.558 530.564L292.852 533.006L292.018 534.933C291.686 535.792 291.3 536.629 290.863 537.439C290.221 538.531 289.579 539.687 288.809 540.78L288.424 541.358C287.607 542.496 286.728 543.59 285.794 544.635L285.28 545.213C284.254 546.369 283.099 547.461 281.944 548.554L279.505 550.545L277.26 552.344L274.436 554.208L271.356 556.199C268.982 557.549 266.416 558.833 263.849 559.99L261.539 560.954C259.55 561.789 257.432 562.624 255.122 563.331C254.352 563.331 253.583 563.909 252.813 564.102L248.706 565.323L245.562 566.158L241.199 567.057L238.183 567.7C235.167 568.214 232.151 568.664 229.135 568.985H226.312C224.516 568.985 222.719 568.985 220.858 569.37H213.094H209.372H205.394L201.673 569.049L197.694 568.599L194.165 568.085L189.93 567.379L186.594 566.672C184.925 566.672 183.321 565.901 181.653 565.515L179.343 564.487C176.455 563.652 173.568 562.688 170.809 561.596L166.766 559.861L164.713 558.962C162.724 557.998 160.735 557.035 158.874 555.942C143.153 546.819 135.261 534.869 135.325 522.983V537.696C135.325 549.517 143.282 561.339 158.874 570.334C160.735 571.426 162.724 572.454 164.713 573.418L166.702 574.253L170.36 575.859H170.809C173.568 576.952 176.455 577.915 179.343 578.815C179.577 578.778 179.815 578.778 180.049 578.815L182.102 579.329L187.043 580.55L188.39 580.871L190.379 581.192L194.614 581.963H196.283H198.143L202.122 582.413H204.047H205.843H209.886H221.307L226.761 582.027H228.879H229.52C232.6 581.706 235.937 581.321 238.632 580.742H239.081L241.648 580.164C243.123 580.164 244.599 579.586 246.011 579.2L249.155 578.365C250.503 577.98 251.914 577.658 253.262 577.209H254.16L255.572 576.695L261.988 574.317L264.298 573.354C266.865 572.133 269.431 570.912 271.806 569.499L272.768 568.985L274.886 567.571L277.709 565.644L279.955 563.909L282.393 561.853L282.906 561.468C283.933 560.504 284.831 559.54 285.729 558.576L286.243 557.934C286.811 557.365 287.346 556.765 287.847 556.135L288.874 554.657L289.259 554.143C289.9 553.244 290.478 552.28 291.055 551.381C291.02 551.189 291.02 550.994 291.055 550.802C291.504 549.903 291.889 549.132 292.21 548.297C292.531 547.462 292.724 547.333 292.916 546.819C293.109 546.305 292.916 546.498 292.916 546.305C292.916 546.112 293.365 544.763 293.622 543.928L294.071 542.322C294.045 542.173 294.045 542.021 294.071 541.872C294.071 541.037 294.071 540.201 294.071 539.366C294.102 538.831 294.102 538.295 294.071 537.76V524.011V526.003C294.264 526.902 294.199 527.737 294.071 528.573Z" fill="#FFD859"/>
<path d="M294.071 528.573C294.071 529.215 293.75 529.922 293.558 530.564L292.852 533.006L292.018 534.933C291.686 535.792 291.3 536.629 290.863 537.439C290.221 538.531 289.579 539.687 288.809 540.78L288.424 541.358C287.607 542.496 286.728 543.59 285.794 544.635L285.28 545.213C284.254 546.369 283.099 547.461 281.944 548.554L279.505 550.545L277.26 552.344L274.436 554.208L271.356 556.199C268.982 557.549 266.416 558.833 263.849 559.99L261.539 560.954C259.55 561.789 257.432 562.624 255.122 563.331C254.352 563.331 253.583 563.909 252.813 564.102L248.706 565.323L245.562 566.158L241.199 567.057L238.183 567.7C235.167 568.214 232.151 568.664 229.135 568.985H226.312C224.516 568.985 222.719 568.985 220.858 569.37H213.094H209.372H205.394L201.673 569.049L197.694 568.599L194.165 568.085L189.93 567.379L186.594 566.672C184.925 566.672 183.321 565.901 181.653 565.515L179.343 564.487C176.455 563.652 173.568 562.688 170.809 561.596L166.766 559.861L164.713 558.962C162.724 557.998 160.735 557.035 158.874 555.942C143.153 546.819 135.261 534.869 135.325 522.983V537.696C135.325 549.517 143.282 561.339 158.874 570.334C160.735 571.426 162.724 572.454 164.713 573.418L166.702 574.253L170.36 575.859H170.809C173.568 576.952 176.455 577.915 179.343 578.815C179.577 578.778 179.815 578.778 180.049 578.815L182.102 579.329L187.043 580.55L188.39 580.871L190.379 581.192L194.614 581.963H196.283H198.143L202.122 582.413H204.047H205.843H209.886H221.307L226.761 582.027H228.879H229.52C232.6 581.706 235.937 581.321 238.632 580.742H239.081L241.648 580.164C243.123 580.164 244.599 579.586 246.011 579.2L249.155 578.365C250.503 577.98 251.914 577.658 253.262 577.209H254.16L255.572 576.695L261.988 574.317L264.298 573.354C266.865 572.133 269.431 570.912 271.806 569.499L272.768 568.985L274.886 567.571L277.709 565.644L279.955 563.909L282.393 561.853L282.906 561.468C283.933 560.504 284.831 559.54 285.729 558.576L286.243 557.934C286.811 557.365 287.346 556.765 287.847 556.135L288.874 554.657L289.259 554.143C289.9 553.244 290.478 552.28 291.055 551.381C291.02 551.189 291.02 550.994 291.055 550.802C291.504 549.903 291.889 549.132 292.21 548.297C292.531 547.462 292.724 547.333 292.916 546.819C293.109 546.305 292.916 546.498 292.916 546.305C292.916 546.112 293.365 544.763 293.622 543.928L294.071 542.322C294.045 542.173 294.045 542.021 294.071 541.872C294.071 541.037 294.071 540.201 294.071 539.366C294.102 538.831 294.102 538.295 294.071 537.76V524.011V526.003C294.264 526.902 294.199 527.737 294.071 528.573Z" fill="#FF9E03"/>
<path d="M270.971 490.794C302.22 508.848 302.413 538.145 271.356 556.199C240.3 574.253 189.866 574.253 158.617 556.199C127.369 538.145 127.24 508.848 158.232 490.794C189.224 472.74 239.787 472.74 270.971 490.794Z" fill="#F2B42B"/>
<path d="M270.971 490.794C302.22 508.848 302.413 538.145 271.356 556.199C240.3 574.253 189.866 574.253 158.617 556.199C127.369 538.145 127.24 508.848 158.232 490.794C189.224 472.74 239.787 472.74 270.971 490.794Z" fill="#FFD859"/>
<path d="M270.971 494.649C302.22 512.703 302.413 538.145 271.356 556.199C240.3 574.253 189.866 574.253 158.617 556.199C127.369 538.145 127.176 512.703 158.232 494.649C189.289 476.595 239.787 476.595 270.971 494.649Z" fill="#FFDA00"/>
<path d="M158.232 494.649C189.289 476.66 239.787 476.595 270.971 494.649C285.73 503.194 293.494 513.346 294.392 523.625C295.354 512.061 287.59 500.367 270.971 490.794C239.787 472.74 189.289 472.74 158.232 490.794C141.87 500.303 134.235 511.868 135.261 523.368C136.095 513.089 143.731 503.13 158.232 494.649Z" fill="#FFED94"/>
<path d="M259.165 497.605C283.869 511.868 283.997 535.062 259.486 549.325C245.68 556.355 230.411 560.02 214.923 560.02C199.435 560.02 184.165 556.355 170.36 549.325C145.656 535.062 145.528 511.932 170.039 497.605C183.844 490.574 199.114 486.91 214.602 486.91C230.09 486.91 245.36 490.574 259.165 497.605Z" fill="#DE821F"/>
<path d="M257.433 500.239C281.174 514.374 281.302 537.31 257.433 551.638C244.238 558.598 229.548 562.236 214.634 562.236C199.72 562.236 185.03 558.598 171.835 551.638C148.158 537.439 147.966 514.502 171.835 500.239C185.025 493.262 199.717 489.616 214.634 489.616C229.551 489.616 244.243 493.262 257.433 500.239Z" fill="#FFB101"/>
<path d="M254.994 503.708L246.204 508.784C249.913 510.597 252.883 513.639 254.609 517.393L246.653 519.578C244.323 515.081 240.398 511.619 235.649 509.871C230.9 508.124 225.67 508.217 220.986 510.133C216.367 512.832 217.393 516.108 221.821 522.597C227.339 530.115 227.531 535.447 219.575 540.073C214.996 542.323 209.98 543.54 204.881 543.64C199.781 543.74 194.722 542.72 190.059 540.651L180.819 546.048L175.236 542.771L184.22 537.567C179.886 535.374 176.424 531.772 174.402 527.352L182.616 525.103C184.373 529.297 187.555 532.733 191.599 534.805C194.463 536.572 197.72 537.602 201.078 537.804C204.437 538.005 207.793 537.372 210.848 535.961C215.853 533.07 215.34 529.536 211.362 523.882C205.779 516.494 204.175 511.033 211.875 506.278C216.219 504.124 220.984 502.956 225.831 502.856C230.677 502.756 235.486 503.727 239.915 505.7L248.899 500.432L254.994 503.708Z" fill="#FFD859"/>
<path d="M277.645 494.392C277.645 495.292 277.645 496.127 277.645 496.962C277.645 497.798 277.259 498.312 277.131 498.954L276.425 501.395L275.591 503.323C275.206 504.158 274.885 504.993 274.436 505.829C273.813 506.979 273.128 508.094 272.383 509.17L271.998 509.748C271.18 510.886 270.302 511.98 269.367 513.024L268.854 513.603C267.827 514.759 266.672 515.851 265.517 516.944L263.079 518.935L260.833 520.734L258.01 522.598L254.93 524.589C252.556 525.939 249.989 527.223 247.422 528.38L245.113 529.344C243.016 530.247 240.875 531.041 238.696 531.721C237.926 531.721 237.156 532.299 236.386 532.492L232.279 533.712L229.135 534.548L224.708 535.511L221.756 536.09C218.74 536.604 215.725 537.053 212.645 537.375H209.886L204.432 537.76H196.603H192.946H188.968H185.246L181.268 537.31L177.739 536.796L173.504 536.09L170.167 535.383C168.499 535.062 166.895 534.612 165.226 534.162L162.467 533.456C159.58 532.62 156.692 531.657 153.933 530.564L149.891 528.83L147.837 527.93C145.848 526.966 143.859 526.003 141.998 524.91C126.278 515.787 118.45 503.901 118.45 491.951V514.181C118.45 526.067 126.278 538.017 141.998 547.14C143.859 548.168 145.848 549.196 147.837 550.16L149.827 550.995C151.046 551.574 152.265 552.152 153.484 552.602H153.933C156.692 553.694 159.58 554.593 162.467 555.493H163.173L165.226 555.943L170.167 557.163L171.515 557.484L173.439 557.87L177.739 558.577H179.407H181.268L185.246 559.026H187.171H188.968H192.946H194.999H201.031C201.737 559.026 202.442 559.026 203.148 559.026H204.432C206.228 559.026 208.089 559.026 209.886 558.641H212.003H212.645C215.725 558.255 218.74 557.87 221.756 557.356H222.205L224.708 556.778L229.135 555.878L232.279 555.043L236.386 553.822H237.284L238.632 553.308C240.813 552.602 242.867 551.766 245.048 550.931L247.358 549.967C249.925 548.811 252.492 547.526 254.866 546.177L255.828 545.598L257.946 544.185L260.769 542.322L263.015 540.523L265.453 538.531C265.586 538.365 265.737 538.215 265.902 538.082L268.79 535.19L269.303 534.612L270.907 532.749L271.934 531.271L272.319 530.757C272.96 529.858 273.538 528.958 274.115 527.994C274.091 527.802 274.091 527.608 274.115 527.416C274.565 526.581 274.885 525.746 275.27 524.91C275.655 524.075 275.784 523.947 275.976 523.433C276.169 522.919 275.976 523.433 275.976 522.919C275.976 522.405 276.425 521.377 276.682 520.606C276.939 519.835 277.003 519.514 277.131 518.935V519.514C277.301 518.666 277.409 517.807 277.452 516.944C277.487 516.409 277.487 515.872 277.452 515.337V492.401C277.837 492.85 277.709 493.814 277.645 494.392Z" fill="#FFDA00"/>
<path d="M277.388 496.962C277.388 497.605 277.003 498.311 276.875 498.954L276.169 501.395L275.335 503.323C274.95 504.158 274.629 504.993 274.18 505.829C273.557 506.979 272.871 508.094 272.126 509.17L271.741 509.748C270.924 510.886 270.045 511.98 269.111 513.024L268.597 513.603C267.571 514.759 266.416 515.851 265.261 516.944L262.822 518.935L260.577 520.734L257.753 522.598L254.673 524.589C252.299 525.938 249.733 527.223 247.166 528.38L244.856 529.344C242.76 530.247 240.618 531.041 238.439 531.721C237.669 531.721 236.9 532.299 236.13 532.492L232.023 533.712L228.879 534.548L224.451 535.511L221.5 536.09C218.484 536.604 215.468 537.053 212.388 537.375H209.629L204.175 537.76H196.347H192.689H188.711H184.99L181.011 537.31L177.482 536.796L173.247 536.09L169.911 535.383C168.242 535.062 166.638 534.612 164.97 534.162L162.211 533.456C159.323 532.62 156.436 531.657 153.677 530.564L149.634 528.83L147.581 527.93C145.592 526.966 143.603 526.003 141.742 524.91C126.021 515.787 118.193 503.901 118.193 491.951V506.664C118.193 518.486 126.15 530.307 141.742 539.302C143.603 540.394 145.592 541.422 147.581 542.386L149.57 543.221C150.789 543.8 152.008 544.378 153.227 544.828H153.677C156.436 545.855 159.323 546.819 162.211 547.719H162.917L164.97 548.233L169.911 549.453L171.258 549.775H173.183L177.482 550.546H179.15H181.011L184.99 550.995H186.914H188.711H192.689H194.743H204.175L209.629 550.61H211.747H212.388C215.468 550.61 218.484 549.903 221.5 549.389H221.949L224.451 548.811C225.927 548.49 227.467 548.233 228.879 547.847L232.023 547.012C233.37 546.691 234.782 546.305 236.13 545.856H237.028L238.375 545.341C240.557 544.635 242.61 543.799 244.792 542.964L247.102 542.001C249.668 540.78 252.235 539.559 254.609 538.146L255.572 537.632L257.689 536.218L260.512 534.291L262.758 532.556L265.197 530.5L265.646 530.115C266.672 529.172 267.635 528.209 268.533 527.223C268.738 527.039 268.912 526.822 269.047 526.581C269.615 526.012 270.15 525.411 270.651 524.782L271.677 523.304L272.062 522.79C272.704 521.891 273.281 520.927 273.859 520.027C273.824 519.836 273.824 519.64 273.859 519.449C274.308 518.614 274.629 517.779 275.014 516.944C275.399 516.108 275.527 515.98 275.72 515.466C275.912 514.952 275.72 515.145 275.72 514.952C275.72 514.759 276.169 513.41 276.426 512.575C276.682 511.74 276.746 511.547 276.875 510.969V510.583C277.045 509.735 277.152 508.876 277.196 508.013C277.227 507.478 277.227 506.942 277.196 506.407V491.565V493.557C277.581 495.292 277.516 496.127 277.388 496.962Z" fill="#FFD859"/>
<path d="M277.388 496.962C277.388 497.605 277.003 498.311 276.875 498.954L276.169 501.395L275.335 503.323C274.95 504.158 274.629 504.993 274.18 505.829C273.557 506.979 272.871 508.094 272.126 509.17L271.741 509.748C270.924 510.886 270.045 511.98 269.111 513.024L268.597 513.603C267.571 514.759 266.416 515.851 265.261 516.944L262.822 518.935L260.577 520.734L257.753 522.598L254.673 524.589C252.299 525.938 249.733 527.223 247.166 528.38L244.856 529.344C242.76 530.247 240.618 531.041 238.439 531.721C237.669 531.721 236.9 532.299 236.13 532.492L232.023 533.712L228.879 534.548L224.451 535.511L221.5 536.09C218.484 536.604 215.468 537.053 212.388 537.375H209.629L204.175 537.76H196.347H192.689H188.711H184.99L181.011 537.31L177.482 536.796L173.247 536.09L169.911 535.383C168.242 535.062 166.638 534.612 164.97 534.162L162.211 533.456C159.323 532.62 156.436 531.657 153.677 530.564L149.634 528.83L147.581 527.93C145.592 526.966 143.603 526.003 141.742 524.91C126.021 515.787 118.193 503.901 118.193 491.951V506.664C118.193 518.486 126.15 530.307 141.742 539.302C143.603 540.394 145.592 541.422 147.581 542.386L149.57 543.221C150.789 543.8 152.008 544.378 153.227 544.828H153.677C156.436 545.855 159.323 546.819 162.211 547.719H162.917L164.97 548.233L169.911 549.453L171.258 549.775H173.183L177.482 550.546H179.15H181.011L184.99 550.995H186.914H188.711H192.689H194.743H204.175L209.629 550.61H211.747H212.388C215.468 550.61 218.484 549.903 221.5 549.389H221.949L224.451 548.811C225.927 548.49 227.467 548.233 228.879 547.847L232.023 547.012C233.37 546.691 234.782 546.305 236.13 545.856H237.028L238.375 545.341C240.557 544.635 242.61 543.799 244.792 542.964L247.102 542.001C249.668 540.78 252.235 539.559 254.609 538.146L255.572 537.632L257.689 536.218L260.512 534.291L262.758 532.556L265.197 530.5L265.646 530.115C266.672 529.172 267.635 528.209 268.533 527.223C268.738 527.039 268.912 526.822 269.047 526.581C269.615 526.012 270.15 525.411 270.651 524.782L271.677 523.304L272.062 522.79C272.704 521.891 273.281 520.927 273.859 520.027C273.824 519.836 273.824 519.64 273.859 519.449C274.308 518.614 274.629 517.779 275.014 516.944C275.399 516.108 275.527 515.98 275.72 515.466C275.912 514.952 275.72 515.145 275.72 514.952C275.72 514.759 276.169 513.41 276.426 512.575C276.682 511.74 276.746 511.547 276.875 510.969V510.583C277.045 509.735 277.152 508.876 277.196 508.013C277.227 507.478 277.227 506.942 277.196 506.407V491.565V493.557C277.581 495.292 277.516 496.127 277.388 496.962Z" fill="#FF9E03"/>
<path d="M254.288 459.184C285.537 477.238 285.729 506.535 254.673 524.589C223.617 542.643 173.183 542.643 141.934 524.589C110.686 506.535 110.493 477.238 141.549 459.184C172.605 441.13 223.04 441.13 254.288 459.184Z" fill="#F2B42B"/>
<path d="M254.288 459.184C285.537 477.238 285.729 506.535 254.673 524.589C223.617 542.643 173.183 542.643 141.934 524.589C110.686 506.535 110.493 477.238 141.549 459.184C172.605 441.13 223.04 441.13 254.288 459.184Z" fill="#FFD859"/>
<path d="M254.288 463.039C285.537 481.093 285.729 506.535 254.673 524.589C223.617 542.643 173.183 542.643 141.934 524.589C110.686 506.535 110.493 481.157 141.549 463.103C172.605 445.05 223.04 444.985 254.288 463.039Z" fill="#FFDA00"/>
<path d="M141.549 463.103C172.605 445.05 223.04 444.985 254.288 463.103C269.046 471.648 276.811 481.8 277.645 492.079C278.671 480.515 270.907 468.821 254.288 459.248C223.04 441.195 172.605 441.195 141.549 459.248C125.187 468.757 117.551 480.322 118.578 491.822C119.412 481.607 127.048 471.52 141.549 463.103Z" fill="#FFED94"/>
<path d="M242.482 465.995C267.186 480.322 267.314 503.451 242.803 517.715C228.997 524.745 213.728 528.41 198.24 528.41C182.751 528.41 167.482 524.745 153.677 517.715C128.973 503.451 128.845 480.322 153.356 465.995C167.161 458.964 182.43 455.3 197.919 455.3C213.407 455.3 228.676 458.964 242.482 465.995Z" fill="#DE821F"/>
<path d="M240.749 468.5C264.491 482.635 264.619 505.572 240.749 519.899C227.555 526.86 212.865 530.497 197.951 530.497C183.037 530.497 168.347 526.86 155.152 519.899C131.411 505.7 131.283 482.763 155.152 468.5C168.342 461.524 183.034 457.877 197.951 457.877C212.868 457.877 227.56 461.524 240.749 468.5Z" fill="#FFB101"/>
<path d="M238.247 472.098L229.585 477.174C233.234 479.048 236.166 482.074 237.926 485.783L229.97 488.032C227.662 483.513 223.742 480.027 218.988 478.266C214.234 476.505 208.993 476.597 204.304 478.523C199.684 481.221 200.71 484.498 205.138 490.987C210.656 498.504 210.784 503.837 202.892 508.463C198.318 510.73 193.301 511.957 188.198 512.057C183.096 512.157 178.034 511.127 173.376 509.041L164.136 514.438L158.553 511.225L167.537 505.957C163.203 503.764 159.741 500.162 157.719 495.741L165.868 493.493C167.642 497.697 170.848 501.135 174.916 503.194C177.781 504.955 181.033 505.987 184.389 506.2C187.744 506.413 191.101 505.8 194.165 504.415C199.17 501.46 198.657 497.99 194.679 492.272C189.032 484.884 187.492 479.422 195.192 474.668C199.536 472.514 204.301 471.346 209.148 471.246C213.994 471.146 218.803 472.117 223.232 474.09L232.215 468.821L238.247 472.098Z" fill="#FFD859"/>
<g opacity="0.1">
<path opacity="0.1" d="M337.511 412.026C315.951 424.49 315.823 444.792 337.511 457C349.589 463.145 362.944 466.348 376.492 466.348C390.039 466.348 403.395 463.145 415.472 457C437.096 444.535 437.224 424.233 415.472 412.026C403.395 405.88 390.039 402.678 376.492 402.678C362.944 402.678 349.589 405.88 337.511 412.026Z" fill="black"/>
</g>
<path d="M404.949 406.95C404.949 406.95 413.483 413.375 410.339 416.652C406.182 420.013 402.754 424.189 400.265 428.923C397.185 435.669 384.544 443.893 382.235 439.653C379.925 435.412 381.336 430.015 386.726 420.378C391.136 413.993 397.55 409.267 404.949 406.95Z" fill="#6E4827"/>
<path d="M400.907 419.543C398.604 421.086 395.986 422.094 393.244 422.494C390.502 422.894 387.705 422.676 385.058 421.856C385.058 421.856 360.675 389.731 356.119 376.303C350.344 359.149 341.297 301.582 344.826 287.576C346.879 279.545 351.756 299.27 374.791 296.507C393.464 294.322 374.342 360.37 378.064 363.968C388.604 378.17 398.413 392.902 407.452 408.107C407.255 410.374 406.568 412.572 405.438 414.547C404.308 416.522 402.761 418.227 400.907 419.543Z" fill="#0B141A"/>
<path d="M374.791 296.507C393.464 294.322 374.342 360.37 378.064 363.968C388.605 378.17 398.413 392.902 407.452 408.107C407.271 410.364 406.603 412.555 405.496 414.529C404.388 416.503 402.866 418.214 401.035 419.543L400.394 419.993C390.988 406.414 382.417 392.274 374.727 377.653C360.341 352.567 353.293 323.936 354.387 295.029L358.879 294.323C363.876 296.519 369.387 297.276 374.791 296.507Z" fill="#0B141A"/>
<path d="M366.899 440.359C366.899 440.359 371.391 450.061 366.899 451.474C361.645 452.404 356.641 454.416 352.205 457.385C346.302 461.754 331.159 462.846 331.223 458.027C331.287 453.209 335.073 449.097 344.441 443.315C351.385 439.838 359.294 438.797 366.899 440.359Z" fill="#6E4827"/>
<path d="M359.007 446.913C363.577 447.451 368.208 447.036 372.61 445.692C372.61 445.692 376.46 385.62 377.165 373.284C377.871 360.948 416.948 311.477 397.506 293.744C382.812 280.445 355.221 289.825 355.221 289.825C355.221 289.825 368.054 308.008 368.824 315.203C369.979 329.338 354.579 357.864 353.553 369.943C351.756 391.274 345.789 440.616 345.789 440.616C349.357 444.151 354.016 446.371 359.007 446.913Z" fill="#1D2A36"/>
<path d="M353.553 369.943C354.579 357.864 369.979 329.338 368.824 315.203C366.675 308.022 363.311 301.264 358.878 295.222L375.305 294.387C375.305 294.387 383.71 322.528 376.396 338.333C369.081 354.138 351.692 411.191 357.146 446.656C353.024 445.59 349.231 443.515 346.109 440.616C346.109 440.616 351.756 391.017 353.553 369.943Z" fill="#263744"/>
<path d="M317.042 280.188C312.414 284.426 308.984 289.811 307.097 295.8C305.557 303.638 309.343 305.052 309.343 305.052L312.551 299.655C315.269 294.95 319.16 291.032 323.844 288.283C325.961 287.705 317.042 280.188 317.042 280.188Z" fill="#E6A376"/>
<path d="M315.374 290.211C314.772 293.386 314.882 296.656 315.695 299.784C317.042 303.831 317.235 303.06 317.748 302.675C318.02 298.89 318.577 295.132 319.416 291.431C321.405 284.107 315.374 290.211 315.374 290.211Z" fill="#E6A376"/>
<path d="M357.916 199.171C371.968 205.595 350.344 253.46 342.388 264.318C342.388 264.318 336.934 263.676 329.555 254.488C329.747 254.488 341.618 191.846 357.916 199.171Z" fill="#A6E6FF"/>
<path d="M342.388 264.318L322.689 291.303C320.504 290.922 318.449 289.999 316.712 288.618C314.975 287.238 313.61 285.444 312.743 283.4L330.581 252.818L342.388 264.318Z" fill="#A6E6FF"/>
<path d="M383.967 204.696C387.174 206.257 390.282 208.017 393.271 209.964C397.709 212.584 401.86 215.664 405.655 219.152C406.746 220.437 410.724 223.585 402.254 241.703C402.254 241.703 388.651 262.006 395.838 281.537L399.688 292.395C399.688 292.395 388.33 311.67 362.6 301.069C357.338 298.948 347.842 295.029 347.713 289.311C349.45 275.973 349.32 262.458 347.328 249.156C344.313 231.873 346.238 203.411 357.723 200.391C357.467 200.391 364.204 196.601 383.967 204.696Z" fill="#EAEAEA"/>
<path d="M405.655 219.152C406.746 220.437 410.724 223.585 402.254 241.703C402.254 241.703 388.651 262.005 395.838 281.537L399.688 292.395C396.335 297.417 391.381 301.154 385.635 302.996C377.101 278.967 384.48 241.382 385.635 227.504C385.82 224.176 386.919 220.964 388.809 218.221C390.7 215.478 393.31 213.31 396.351 211.956C399.654 214.081 402.767 216.488 405.655 219.152Z" fill="#D8D8D8"/>
<path d="M392.18 209.322C397.506 211.827 410.596 218.381 407.644 226.926C404.051 237.141 392.95 263.612 395.838 273.377C398.725 283.143 403.088 306.337 403.088 306.337C403.088 306.337 392.373 322.078 368.118 311.798C360.29 280.754 361.246 248.141 370.877 217.61L381.657 203.218C381.657 203.218 389.485 207.972 392.18 209.322Z" fill="#0C2937"/>
<path d="M392.18 209.322C397.506 211.827 410.596 218.381 407.644 226.926C404.051 237.141 393.464 263.483 395.838 273.377C399.752 289.761 404.179 305.887 404.179 305.887C404.179 305.887 392.373 322.078 368.118 311.798C360.29 280.754 361.246 248.141 370.877 217.61L381.657 203.218C381.657 203.218 389.485 207.972 392.18 209.322Z" fill="#77D2FF"/>
<path d="M358.622 214.333C358.622 214.333 351.05 289.311 355.734 303.96C350.727 302.756 346.232 299.989 342.901 296.057C342.901 296.057 345.083 258.6 343.864 247.614C342.644 236.627 341.938 196.215 361.445 196.215C380.951 196.215 358.622 214.333 358.622 214.333Z" fill="#77D2FF"/>
<path d="M371.84 216.517C363.52 238.279 360.72 261.767 363.691 284.878L377.615 236.82L374.086 232.066C374.086 232.066 386.149 210.414 392.18 209.257L381.08 202.833C377.647 207.145 374.557 211.721 371.84 216.517Z" fill="#A6E6FF"/>
<path d="M354.258 278.967L348.548 234.7L352.654 228.661L358.108 196.986C360.244 195.8 362.605 195.077 365.038 194.866C367.669 195.058 351.692 250.441 354.258 278.967Z" fill="#A6E6FF"/>
<path d="M388.33 188.248C388.33 188.248 380.438 197.243 384.673 204.696C387.047 208.808 379.026 216.775 367.477 214.397C367.477 214.397 362.472 212.406 363.242 210.607C363.892 208.937 364.144 207.138 363.977 205.353C363.81 203.568 363.229 201.847 362.279 200.327C360.868 196.793 388.33 188.248 388.33 188.248Z" fill="#E6A376"/>
<path d="M384.673 204.696C384.958 205.181 385.092 205.74 385.058 206.302C381.811 202.944 377.59 200.696 372.995 199.877L385.828 189.212L387.047 188.826V189.983C385.348 191.985 384.228 194.414 383.81 197.008C383.391 199.601 383.69 202.26 384.673 204.696Z" fill="#DD9569"/>
<path d="M391.539 183.044C388.788 190.31 383.682 196.441 377.037 200.455C368.246 204.631 358.493 206.88 358.108 196.986C357.787 189.212 356.761 169.359 364.012 166.404C373.316 162.613 377.358 156.895 386.854 161.906C390.047 164.274 392.279 167.715 393.14 171.599C394 175.483 393.432 179.547 391.539 183.044Z" fill="#EFB185"/>
<path d="M391.539 183.044C389.222 190.602 384.007 196.933 377.037 200.648C374.434 201.922 371.702 202.913 368.888 203.604C372.225 201.853 375.259 199.575 377.871 196.857C381.657 193.517 373.38 193.838 380.246 184.907C382.62 181.823 374.406 179.125 372.353 178.483C360.033 176.491 360.226 172.636 360.354 169.616C360.803 168.331 361.445 169.616 362.023 168.781L363.498 166.725L364.012 166.147C365.455 164.75 366.999 163.461 368.632 162.292C373.829 163.127 388.78 165.568 389.1 165.697C389.421 165.825 391.346 169.616 393.335 173.278C393.542 176.632 392.926 179.985 391.539 183.044Z" fill="#E6A376"/>
<path d="M384.16 195.637C384.16 194.609 390.576 187.991 388.78 185.293C386.983 182.594 380.887 191.268 380.566 191.718C380.245 192.167 380.566 189.019 381.4 186.77C382.131 185.618 382.519 184.281 382.519 182.915C382.519 181.55 382.131 180.213 381.4 179.061C379.925 177.326 374.984 177.39 372.353 177.326C374.855 176.169 379.54 176.298 381.657 172.7C382.578 170.86 383.897 169.248 385.517 167.981C387.138 166.715 389.019 165.825 391.025 165.376C404.821 177.005 384.16 195.637 384.16 195.637Z" fill="#704827"/>
<path d="M372.225 177.39C374.837 177.164 377.368 176.368 379.641 175.059C381.913 173.749 383.871 171.957 385.379 169.809C385.977 168.793 386.805 167.932 387.798 167.295C388.79 166.659 389.917 166.266 391.089 166.147C391.089 166.147 389.742 157.473 376.46 158.758C371.631 159.677 367.057 161.628 363.049 164.476C355.542 170.644 365.423 176.941 372.225 177.39Z" fill="#714B29"/>
<path d="M383.646 202.062C383.646 202.062 383.646 212.084 364.91 212.984L367.348 221.143C371.975 221.797 376.682 220.742 380.589 218.177C384.497 215.612 387.34 211.711 388.587 207.202L383.646 202.062Z" fill="#F9F8F8"/>
<path d="M364.91 212.984C364.31 211.141 364.135 209.186 364.397 207.266C364.578 206.397 364.578 205.5 364.397 204.632V203.861L362.536 203.475C362.536 203.475 356.119 210.864 357.852 217.417L364.91 212.984Z" fill="#F9F8F8"/>
<path d="M365.423 219.923C364.113 225.889 363.659 232.011 364.076 238.105L356.44 285.456L359.007 236.82L362.343 219.216L365.423 219.923Z" fill="#D32075"/>
<path d="M365.359 212.47L366.578 217.61L365.166 219.987L362.536 219.28L361.894 215.04L365.359 212.47Z" fill="#D32075"/>
<path d="M398.404 214.269C398.404 214.269 387.432 212.47 391.025 230.138C393.971 242.546 398.275 254.59 403.858 266.053C406.887 279.841 409.179 293.782 410.724 307.815C410.579 309.834 409.916 311.781 408.799 313.469C407.734 315.43 407.371 317.697 407.773 319.893C407.948 321.733 407.592 323.584 406.746 325.226C405.719 326.832 407.324 327.989 408.222 327.475C409.175 326.7 409.942 325.72 410.464 324.608C410.986 323.495 411.251 322.279 411.238 321.05C412.514 322.743 413.352 324.726 413.677 326.823C414.002 328.919 413.803 331.064 413.098 333.064C412.777 334.542 415.023 334.157 418.745 329.145C420.746 325.169 421.204 320.59 420.028 316.295C419.024 312.331 418.655 308.233 418.937 304.153C420.096 287.517 419.278 270.802 416.499 254.36C413.932 243.695 407.709 213.819 398.404 214.269Z" fill="#E6A376"/>
<path d="M396.03 213.241C411.237 210.35 420.99 262.005 420.734 275.498C415.483 277.169 409.805 276.872 404.757 274.663C404.757 274.663 378.256 216.517 396.03 213.241Z" fill="#A6E6FF"/>
<path d="M420.734 275.369L420.092 308.714C418.08 309.736 415.834 310.209 413.581 310.085C411.328 309.961 409.147 309.244 407.259 308.007L404.308 272.735L420.734 275.369Z" fill="#A6E6FF"/>
<path d="M176.584 266.567C176.584 266.567 178.06 255.709 193.331 264.19C204.009 270.52 213.951 278.019 222.975 286.548C234.812 293.435 247.022 299.655 259.55 305.181C261.441 305.691 263.434 305.691 265.325 305.181C267.502 304.695 269.781 305.014 271.741 306.08C273.374 306.8 275.188 307.002 276.939 306.658C278.671 306.208 279.313 308.072 278.607 308.714C277.617 309.426 276.469 309.886 275.261 310.054C274.054 310.222 272.824 310.093 271.677 309.678C274.412 311.655 277.542 313.014 280.853 313.661C284.19 314.753 284.51 317.902 278.8 320.086C273.82 320.484 268.84 319.316 264.555 316.745C261.217 314.59 257.524 313.046 253.647 312.184C237.919 308.437 222.707 302.784 208.346 295.35C199.362 289.761 173.504 275.369 176.584 266.567Z" fill="#E6A376"/>
<path d="M176.327 264.062C169.333 277.618 214.249 301.84 226.761 305.502C229.845 301.013 231.212 295.562 230.611 290.146C230.611 290.146 184.348 248.449 176.327 264.062Z" fill="#1D2A36"/>
<path d="M226.761 305.502L257.753 314.625C259.247 313.013 260.303 311.045 260.82 308.907C261.337 306.77 261.297 304.535 260.705 302.418L229.007 289.568L226.761 305.502Z" fill="#29252D"/>
<path opacity="0.1" d="M252.171 479.358C271.42 490.666 271.42 508.913 252.171 520.156C241.243 525.74 229.148 528.651 216.88 528.651C204.611 528.651 192.517 525.74 181.589 520.156C162.339 508.913 162.018 490.666 181.589 479.423C192.507 473.814 204.6 470.883 216.872 470.872C229.143 470.86 241.242 473.769 252.171 479.358Z" fill="black"/>
<path d="M200.517 477.431C200.517 477.431 206.1 478.266 204.752 481.478C203.405 484.691 196.924 489.638 196.09 491.63C195.256 493.621 190.058 500.946 188.326 500.303C186.594 499.661 182.23 500.624 182.744 492.336C183.518 488.172 185.715 484.408 188.958 481.688C192.201 478.969 196.287 477.464 200.517 477.431Z" fill="#111114"/>
<path d="M184.861 344.179C180.904 349.606 178.191 355.839 176.915 362.436C175.64 369.033 175.833 375.83 177.482 382.343C180.547 401.454 181.644 420.831 180.755 440.167C180.755 440.167 176.52 483.277 179.856 491.116C182.929 492.92 186.485 493.728 190.034 493.429C193.584 493.13 196.955 491.738 199.684 489.445L206.806 409.456L209.693 350.733C209.693 350.733 190.636 349.512 184.861 344.179Z" fill="#52517B"/>
<path d="M206.806 409.456L209.116 363.39H190.572C190.572 363.39 187.877 393.779 190.572 403.609C192.689 411.319 193.523 468.629 193.716 492.722C195.907 492.048 197.938 490.933 199.683 489.445L206.806 409.456Z" fill="#404063"/>
<path d="M210.271 507.435C210.271 507.435 207.512 515.402 214.313 517.265C221.115 519.128 219.061 514.888 233.563 518.614C248.064 522.34 249.604 514.759 249.668 513.024C249.668 509.041 239.466 508.27 236.258 507.435C232.957 506.319 229.74 504.966 226.633 503.387L209.501 505.058L210.271 507.435Z" fill="#111114"/>
<path d="M197.502 346.428C197.502 346.428 188.198 354.138 201.48 397.827L208.667 508.013C208.667 508.013 218.612 514.759 232.151 504.993C232.151 504.993 234.846 418.129 233.306 400.654C231.766 383.178 231.702 362.105 228.045 357.479C227.916 357.029 205.009 352.467 197.502 346.428Z" fill="#404063"/>
<path d="M208.667 507.756C210.209 508.865 211.957 509.652 213.809 510.072C215.661 510.491 217.578 510.534 219.446 510.197C218.035 492.015 215.147 452.374 215.211 431.236C214.794 410.638 212.951 390.093 209.693 369.75H195.063C191.534 378.938 197.951 385.877 201.48 397.57L208.667 507.756Z" fill="#52517B"/>
<path d="M180.562 260.271C180.562 260.271 170.231 260.977 174.851 279.931C178.782 295.097 180.702 310.715 180.562 326.383C178.952 336.359 176.658 346.212 173.696 355.873C173.696 355.873 171.836 370.136 205.202 381.957C205.202 381.957 233.178 384.656 230.034 365.446C227.476 346.536 227.046 327.399 228.751 308.393C229.97 301.197 235.167 287.062 218.42 275.819C201.673 264.575 192.176 260.463 180.562 260.271Z" fill="#29252D"/>
<path d="M228.75 308.393C227.045 327.399 227.476 346.536 230.034 365.446C232.215 378.809 219.446 382.279 211.49 382.022C209.565 373.412 211.811 356.322 207.319 337.498C203.041 320.94 204.722 303.402 212.067 287.962C212.861 285.599 214.354 283.534 216.348 282.042C218.343 280.55 220.744 279.702 223.232 279.61C234.204 290.082 229.841 301.968 228.75 308.393Z" fill="#1E1B21"/>
<path d="M190.123 251.662C190.933 256.839 190.448 262.137 188.711 267.081C186.08 272.542 207.961 276.397 208.282 271.45C206.993 268.559 206.358 265.417 206.425 262.251C206.492 259.086 207.257 255.974 208.667 253.139C211.426 247.999 190.123 251.662 190.123 251.662Z" fill="#EFB185"/>
<path d="M188.839 267.402C190.52 263.027 191.072 258.298 190.444 253.653L206.613 260.913C206.036 260.913 195.448 264.318 193.78 272.285C190.187 271.129 187.877 269.394 188.839 267.402Z" fill="#DD9569"/>
<path d="M211.875 225.641C214.055 230.628 215.212 236.003 215.276 241.446C214.891 249.349 216.11 250.891 215.789 254.296C215.85 256.171 215.31 258.017 214.249 259.564C212.264 261.049 209.91 261.96 207.444 262.198C204.977 262.436 202.493 261.992 200.261 260.913C192.048 258.215 183.064 247.293 186.08 236.884C189.096 226.476 199.363 217.867 211.875 225.641Z" fill="#EFB185"/>
<path d="M186.914 248.128C189.781 240.773 193.236 233.661 197.245 226.862C198.888 225.227 200.744 223.822 202.763 222.685C206.01 222.833 209.158 223.854 211.875 225.641C212.643 227.414 213.287 229.239 213.8 231.102C212.003 233.351 208.153 236.049 207.383 237.912C206.448 242.607 206.894 247.472 208.667 251.918C210.078 254.81 205.073 259.307 206.292 261.877C206.322 262.004 206.322 262.136 206.292 262.262C204.11 262.183 201.949 261.794 199.876 261.106C196.97 259.902 194.329 258.135 192.105 255.909C189.881 253.682 188.117 251.038 186.914 248.128Z" fill="#E6A376"/>
<path d="M214.121 222.043C214.486 224.227 214.163 226.47 213.197 228.461C212.231 230.453 210.67 232.094 208.731 233.158C204.56 235.471 205.266 242.41 205.522 243.759C206.258 246.312 206.688 248.943 206.806 251.597C205.843 253.139 202.314 248.77 200.774 249.156C196.796 250.12 198.528 253.846 202.314 257.701C206.1 261.556 196.283 264.126 191.406 260.72C188.775 258.921 187.813 257.893 184.22 251.276C179.022 241.767 178.252 230.01 189.289 223.264C200.325 216.518 207.255 225.191 214.121 222.043Z" fill="#221101"/>
<path d="M191.406 260.72C188.775 258.921 187.813 257.893 184.22 251.276C179.022 241.767 178.252 230.01 189.289 223.264C200.325 216.518 207.255 225.191 214.121 222.043C214.263 223.023 214.263 224.018 214.121 224.998C210.592 225.769 200.903 228.146 198.528 232.58C195.641 237.976 192.112 236.434 192.689 243.052C193.267 249.67 191.919 257.765 202.507 260.849C200.836 261.888 198.904 262.427 196.938 262.404C194.971 262.382 193.052 261.798 191.406 260.72Z" fill="#341C09"/>
<path d="M207.576 267.981L215.853 273.763C215.853 273.763 193.138 281.152 186.273 270.422C185.761 268.877 185.854 267.195 186.533 265.717C187.212 264.238 188.426 263.072 189.93 262.455C189.93 262.455 191.085 271.386 207.576 267.981Z" fill="#DEF0F9"/>
<path d="M244.728 385.105C242.674 390.567 241.969 390.759 240.685 390.053C235.802 385.755 232.729 379.762 232.087 373.284C232.566 371.473 232.566 369.569 232.087 367.758V366.988L239.53 365.638C240.164 368.197 241.181 370.644 242.546 372.898C244.762 376.555 245.54 380.906 244.728 385.105Z" fill="#E6A376"/>
<path d="M221.628 279.61C207.64 281.923 216.43 329.788 220.794 341.545L230.675 371.742C232.707 371.948 234.757 371.631 236.632 370.821C238.508 370.012 240.146 368.737 241.391 367.116L233.37 336.534C233.499 332.679 237.092 277.04 221.628 279.61Z" fill="#2E2B33"/>
<g opacity="0.1">
<path opacity="0.1" d="M353.167 682.062L384.031 700.052L415.023 682.062L384.224 664.137L353.167 682.062Z" fill="black"/>
</g>
<g opacity="0.17">
<path opacity="0.17" d="M357.98 660.539L384.031 675.638L410.275 660.539L384.224 645.312L357.98 660.539Z" fill="#FFDF75"/>
</g>
<g opacity="0.33">
<path opacity="0.33" d="M362.728 640.108L384.031 652.508L405.463 640.108L384.16 627.708L362.728 640.108Z" fill="#FFDF75"/>
</g>
<g opacity="0.5">
<path opacity="0.5" d="M367.541 619.677L384.031 629.314L400.65 619.677L384.159 610.104L367.541 619.677Z" fill="#FFDF75"/>
</g>
<g opacity="0.67">
<path opacity="0.67" d="M372.353 599.31L384.095 606.121L395.902 599.31L384.16 592.5L372.353 599.31Z" fill="#FFDF75"/>
</g>
<g opacity="0.83">
<path opacity="0.83" d="M377.101 578.943L384.095 582.927L391.089 578.943L384.16 574.832L377.101 578.943Z" fill="#FFDF75"/>
</g>
<path d="M381.914 558.512L384.095 559.797L386.277 558.512L384.095 557.228L381.914 558.512Z" fill="#FFDF75"/>
<g opacity="0.1">
<path opacity="0.1" d="M415.986 641.329L451.469 661.953L487.145 641.329L451.662 620.705L415.986 641.329Z" fill="black"/>
</g>
<g opacity="0.17">
<path opacity="0.17" d="M421.504 616.529L451.469 633.94L481.627 616.529L451.662 599.053L421.504 616.529Z" fill="#FDCDE7"/>
</g>
<g opacity="0.33">
<path opacity="0.33" d="M427.022 593.014L451.469 607.277L476.109 593.014L451.662 578.815L427.022 593.014Z" fill="#FDCDE7"/>
</g>
<g opacity="0.5">
<path opacity="0.5" d="M432.541 569.563L451.469 580.614L470.591 569.563L451.662 558.512L432.541 569.563Z" fill="#FDCDE7"/>
</g>
<g opacity="0.67">
<path opacity="0.67" d="M438.059 546.112L451.533 553.951L465.072 546.112L451.598 538.274L438.059 546.112Z" fill="#FDCDE7"/>
</g>
<g opacity="0.83">
<path opacity="0.83" d="M443.513 522.662L451.533 527.288L459.618 522.662L451.598 517.972L443.513 522.662Z" fill="#FDCDE7"/>
</g>
<path d="M449.031 499.147L451.533 500.625L454.1 499.147L451.598 497.733L449.031 499.147Z" fill="#FDCDE7"/>
<g opacity="0.1">
<path opacity="0.1" d="M305.3 712.259L332.25 728L359.456 712.259L332.442 696.583L305.3 712.259Z" fill="black"/>
</g>
<g opacity="0.17">
<path opacity="0.17" d="M311.652 697.675L332.314 709.625L353.039 697.675L332.442 685.66L311.652 697.675Z" fill="#A1F7F6"/>
</g>
<g opacity="0.33">
<path opacity="0.33" d="M315.438 681.548L332.314 691.314L349.254 681.548L332.442 671.718L315.438 681.548Z" fill="#A1F7F6"/>
</g>
<g opacity="0.5">
<path opacity="0.5" d="M319.288 665.358L332.314 673.003L345.468 665.358L332.442 657.776L319.288 665.358Z" fill="#A1F7F6"/>
</g>
<g opacity="0.67">
<path opacity="0.67" d="M323.074 649.231L332.314 654.628L341.682 649.231L332.378 643.834L323.074 649.231Z" fill="#A1F7F6"/>
</g>
<g opacity="0.83">
<path opacity="0.83" d="M326.86 633.105L332.314 636.317L337.896 633.105L332.378 629.893L326.86 633.105Z" fill="#A1F7F6"/>
</g>
<path d="M330.646 616.979L332.378 618.007L334.11 616.979L332.378 615.951L330.646 616.979Z" fill="#A1F7F6"/>
</g>
<defs>
<clipPath id="clip0_24_3076">
<rect width="561" height="728" fill="white"/>
</clipPath>
</defs>
</svg>
