<svg width="510" height="554" viewBox="0 0 510 554" fill="none" xmlns="http://www.w3.org/2000/svg">
<path opacity="0.1" d="M2.32361 444.533L212.39 554L510 373.169L310.672 256.345L2.32361 444.533Z" fill="black"/>
<path d="M386.974 366.881L394.071 362.731L394.51 197.996L387.477 202.083L386.974 366.881Z" fill="#E6E6FF"/>
<path d="M387.477 202.083L394.511 197.996L298.866 142.666L291.77 146.815L387.477 202.083Z" fill="#AEB6BC"/>
<path d="M291.769 146.815L291.33 311.55L386.974 366.881L387.477 202.083L291.769 146.815Z" fill="#C0C0F6"/>
<path d="M148.774 507.032L155.807 502.945L156.31 338.147L149.213 342.297L148.774 507.032Z" fill="#92AFFF"/>
<path d="M149.213 342.297L156.31 338.147L60.665 282.879L53.5686 287.029L149.213 342.297Z" fill="#AEB6BC"/>
<path d="M53.5686 287.029L53.0662 451.764L148.774 507.032L149.213 342.297L53.5686 287.029Z" fill="#6198D8"/>
<path d="M10.7388 298.158V308.658L134.078 380.399L134.015 369.899L10.7388 298.158Z" fill="#92AFFF"/>
<path d="M134.015 369.899L134.078 380.4L414.858 218.117L414.795 207.616L134.015 369.899Z" fill="#92AFFF"/>
<path d="M10.7388 298.158L134.015 369.899L414.795 207.616L291.455 135.812L10.7388 298.158Z" fill="#DEF4FF"/>
<path d="M219.047 233.71L251.515 252.573L328.445 208.119L295.977 189.257L219.047 233.71Z" fill="#C0C0F6"/>
<path d="M223.003 228.554V233.144L245.549 246.285L245.486 241.632L223.003 228.554Z" fill="#95C4DE"/>
<path d="M245.486 241.632L245.549 246.285L298.866 215.413L298.803 210.823L245.486 241.632Z" fill="#A9D6EA"/>
<path d="M223.003 228.554L245.486 241.632L298.803 210.823L276.321 197.745L223.003 228.554Z" fill="#DEF6FF"/>
<path d="M223.003 228.554L298.803 210.823L276.321 197.745L223.003 228.554Z" fill="#DEF6FF"/>
<path d="M243.79 233.018L239.771 230.692L239.708 189.068L243.665 191.331L243.79 233.018Z" fill="#95C4DE"/>
<path d="M243.665 191.331L239.708 189.068L275.881 168.067L279.9 170.457L243.665 191.331Z" fill="#C0C5D1"/>
<path d="M279.9 170.457L280.026 212.081L243.79 233.018L243.665 191.332L279.9 170.457Z" fill="#A9D6EA"/>
<path d="M207.303 232.704L203.473 231.635L186.893 149.959L190.787 151.028L207.303 232.704Z" fill="#95C4DE"/>
<path d="M190.787 151.028L186.893 149.959L294.533 87.7749L298.364 88.8438L190.787 151.028Z" fill="#A9D6EA"/>
<path d="M298.364 88.8438L314.943 170.52L207.303 232.704L190.787 151.028L298.364 88.8438Z" fill="#DEF6FF"/>
<path d="M295.475 95.3828L310.17 168.948L210.569 226.668L195.308 152.097L295.475 95.3828Z" fill="#74AFE8"/>
<path d="M204.98 151.028L205.796 155.115L200.27 158.322L199.453 154.172L204.98 151.028Z" fill="#17CFBF"/>
<path d="M207.492 161.528L208.245 165.615L202.782 168.759L201.965 164.672L207.492 161.528Z" fill="#17CFBF"/>
<path d="M209.69 172.846L210.506 176.87L204.98 180.077L204.163 175.99L209.69 172.846Z" fill="#17CFBF"/>
<path d="M211.511 183.158L212.327 187.182L206.801 190.388L205.984 186.239L211.511 183.158Z" fill="#17CFBF"/>
<path d="M106.446 297.655L138.914 316.58L215.844 272.064L183.376 253.201L106.446 297.655Z" fill="#C0C0F6"/>
<path d="M109.649 293.631V298.221L132.194 311.299V306.709L109.649 293.631Z" fill="#95C4DE"/>
<path d="M132.194 306.709V311.299L185.512 280.49V275.9L132.194 306.709Z" fill="#A9D6EA"/>
<path d="M109.649 293.631L132.194 306.709L185.512 275.9L162.966 262.759L109.649 293.631Z" fill="#DEF6FF"/>
<path d="M109.649 293.631L185.512 275.9L162.966 262.759L109.649 293.631Z" fill="#DEF6FF"/>
<path d="M130.436 298.095L126.48 295.769L126.354 254.082L130.31 256.408L130.436 298.095Z" fill="#95C4DE"/>
<path d="M130.31 256.408L126.354 254.082L162.59 233.144L166.546 235.47L130.31 256.408Z" fill="#C0C5D1"/>
<path d="M166.546 235.47L166.672 277.157L130.436 298.095L130.31 256.408L166.546 235.47Z" fill="#A9D6EA"/>
<path d="M94.0119 297.78L90.1182 296.711L73.6018 215.036L77.4326 216.105L94.0119 297.78Z" fill="#95C4DE"/>
<path d="M77.4326 216.105L73.6018 215.036L181.178 152.789L185.072 153.92L77.4326 216.105Z" fill="#A9D6EA"/>
<path d="M185.072 153.92L201.588 235.596L94.0119 297.781L77.4326 216.105L185.072 153.92Z" fill="#DEF6FF"/>
<path d="M182.12 160.396L196.878 234.024L97.2147 291.681L81.9542 217.173L182.12 160.396Z" fill="#74AFE8"/>
<path d="M91.6254 216.105L92.4418 220.129L86.9782 223.335L86.099 219.249L91.6254 216.105Z" fill="#17CFBF"/>
<path d="M94.1374 226.605L94.9538 230.629L89.4274 233.836L88.611 229.686L94.1374 226.605Z" fill="#17CFBF"/>
<path d="M96.3354 237.86L97.1518 241.947L91.6882 245.153L90.809 241.004L96.3354 237.86Z" fill="#17CFBF"/>
<path d="M98.1567 248.171L98.9731 252.258L93.5095 255.465L92.6302 251.315L98.1567 248.171Z" fill="#17CFBF"/>
<path d="M227.965 272.63V277.849L255.534 293.819L255.471 288.663L227.965 272.63Z" fill="#82A5B5"/>
<path d="M255.471 288.664L255.534 293.819L351.807 238.174V233.018L255.471 288.664Z" fill="#5B737E"/>
<path d="M227.965 272.63L255.471 288.663L351.806 233.018L324.237 216.985L227.965 272.63Z" fill="#A9D6EA"/>
<path d="M234.433 271.75L243.853 277.22L332.967 226.039L322.918 220.883L234.433 271.75Z" fill="#DEF6FF"/>
<path d="M248.438 279.106L257.795 284.577L346.908 233.396L336.923 228.24L248.438 279.106Z" fill="#DEF6FF"/>
<path opacity="0.6" d="M388.419 410.58C426.099 430.197 426.099 461.572 388.796 480.938C351.493 500.304 291.33 500.555 253.65 480.938C215.97 461.321 215.97 430.009 253.147 410.58C290.325 391.151 350.99 391.214 388.419 410.58Z" fill="#FFEBC4"/>
<g opacity="0.83">
<path opacity="0.67" d="M396.834 348.647C439.789 370.968 439.601 406.745 397.274 428.814C354.946 450.884 286.306 451.072 243.351 428.814C200.395 406.556 200.521 370.78 242.848 348.647C285.175 326.515 354.256 326.578 396.834 348.647Z" fill="#FFEECE"/>
</g>
<g opacity="0.67">
<path opacity="0.73" d="M405.249 286.777C453.417 311.928 453.229 351.854 405.752 376.627C358.275 401.4 281.282 401.777 233.114 376.627C184.946 351.476 185.072 311.487 232.549 286.777C280.026 262.067 357.458 261.941 405.249 286.777Z" fill="#FFF2D8"/>
</g>
<g opacity="0.5">
<path opacity="0.8" d="M413.727 224.845C467.108 252.51 466.919 297.026 414.293 324.44C361.666 351.854 276.132 352.168 222.815 324.44C169.498 296.712 169.56 252.258 222.187 224.845C274.814 197.431 360.724 197.368 413.727 224.845Z" fill="#FFF5E2"/>
</g>
<g opacity="0.33">
<path opacity="0.87" d="M422.143 162.911C480.735 193.343 480.547 242.135 422.771 272.253C364.995 302.37 271.171 302.685 212.579 272.253C153.986 241.821 154.112 193.029 211.888 162.911C269.664 132.794 363.99 132.668 422.143 162.911Z" fill="#FFF8EB"/>
</g>
<g opacity="0.17">
<path opacity="0.93" d="M430.558 101.23C494.426 134.366 494.174 187.559 431.249 220.695C368.323 253.83 266.147 253.83 202.342 220.695C138.537 187.559 138.663 134.366 201.526 101.23C264.389 68.0948 367.255 68.0948 430.558 101.23Z" fill="#FFFCF5"/>
</g>
<g opacity="0.3">
<path opacity="0.6" d="M388.419 410.957C426.099 430.512 426.099 461.887 388.796 481.253C351.493 500.618 291.33 500.87 253.65 481.253C215.97 461.635 215.97 430.323 253.147 410.957C290.325 391.592 350.99 391.529 388.419 410.957Z" fill="white"/>
</g>
<path d="M395.264 245.845C386.598 243.707 379.25 270.052 365.12 289.481L332.903 267.726C324.049 271.813 327.314 274.013 327.314 274.013C335.786 288.162 348.118 299.593 362.859 306.96C364.945 307.896 367.247 308.244 369.516 307.966C385.781 299.918 394.636 283.256 402.109 262.759C407.322 247.857 395.264 245.845 395.264 245.845Z" fill="#EFB185"/>
<path d="M396.269 240.626C396.269 240.626 425.22 247.354 396.269 289.669C396.269 289.669 376.487 292.625 372.028 274.013C372.028 274.013 381.699 238.929 396.269 240.626Z" fill="#52517B"/>
<path d="M333.029 267.537C333.029 267.537 321.474 253.202 308.286 254.648C308.286 254.648 307.846 258.609 313.373 260.935C315.15 261.619 316.723 262.747 317.943 264.21C319.163 265.674 319.989 267.425 320.343 269.298C320.343 270.115 315.634 270.052 313.624 269.864C311.614 269.675 308.851 272.756 313.624 273.699C319.377 275.605 325.349 276.767 331.396 277.157C331.396 277.157 336.86 271.499 333.029 267.537Z" fill="#EFB185"/>
<path d="M376.11 436.674C376.075 437.214 375.893 437.734 375.583 438.178C375.272 438.621 374.847 438.971 374.352 439.189L317.329 472.198C316.702 472.551 316.024 472.806 315.319 472.953C314.604 473.154 313.865 473.26 313.121 473.267C312.42 473.255 311.723 473.149 311.049 472.953C310.393 472.778 309.76 472.525 309.165 472.198L308.537 471.758C308.537 471.758 308.16 471.381 307.972 471.192L307.658 470.564C307.634 470.355 307.634 470.144 307.658 469.935V474.148C307.652 474.252 307.652 474.357 307.658 474.462C307.631 474.586 307.631 474.715 307.658 474.839L308.035 475.279L308.474 475.594L309.856 476.223H310.358H310.986H311.74H314.817H315.445H316.199L317.078 475.782L374.1 442.835C374.599 442.615 375.031 442.266 375.351 441.824C375.671 441.383 375.868 440.863 375.922 440.32L376.11 436.674Z" fill="#242626"/>
<path d="M379.438 468.174C379.461 468.341 379.461 468.51 379.438 468.677L378.936 469.18C378.817 469.319 378.666 469.427 378.496 469.495L378.12 469.809C377.544 470.114 376.932 470.347 376.298 470.501H375.984C375.318 470.593 374.642 470.593 373.975 470.501C373.266 470.597 372.548 470.597 371.84 470.501C371.16 470.337 370.505 470.083 369.893 469.746L312.87 436.736C312.38 436.521 311.954 436.182 311.635 435.752C311.315 435.322 311.113 434.816 311.049 434.284V438.497C311.109 439.038 311.309 439.554 311.628 439.995C311.947 440.436 312.375 440.787 312.87 441.012L369.893 473.959C370.166 474.143 370.461 474.291 370.772 474.399H371.463H372.091H372.719H375.168H375.984H376.298H376.801C377.27 474.287 377.716 474.096 378.12 473.833L378.559 473.519L378.999 473.141C378.999 473.141 378.999 473.141 378.999 472.764V468.174C379.145 468.159 379.292 468.159 379.438 468.174Z" fill="#242626"/>
<path d="M377.743 465.031C378.275 465.201 378.74 465.537 379.069 465.989C379.399 466.441 379.576 466.986 379.576 467.546C379.576 468.105 379.399 468.65 379.069 469.102C378.74 469.554 378.275 469.89 377.743 470.061C376.423 470.744 374.958 471.101 373.472 471.101C371.986 471.101 370.522 470.744 369.202 470.061L312.179 437.051C311.669 436.866 311.229 436.529 310.917 436.084C310.605 435.64 310.438 435.11 310.438 434.567C310.438 434.024 310.605 433.495 310.917 433.05C311.229 432.606 311.669 432.268 312.179 432.084C313.504 431.415 314.967 431.066 316.45 431.066C317.933 431.066 319.396 431.415 320.72 432.084L377.743 465.031Z" fill="#3B3F3F"/>
<path d="M280.026 410.328C280.026 410.328 272.804 412.781 275.316 416.616C277.828 420.452 287.876 425.67 289.195 428.248C290.513 430.826 299.494 439.251 301.755 437.931C304.016 436.611 309.981 437.051 307.407 426.047C304.832 415.044 289.885 408.191 280.026 410.328Z" fill="#111114"/>
<path d="M277.514 333.871C277.514 333.871 265.833 338.65 279.461 397.628L286.62 428.625C286.62 428.625 294.156 440.132 310.107 428.625L302.257 363.863L277.514 333.871Z" fill="#29383D"/>
<path d="M289.823 440.76C289.823 440.76 294.595 451.135 285.741 454.593C276.886 458.051 279.021 452.141 259.741 459.246C240.462 466.351 237.008 456.353 237.259 454.027C237.51 451.701 250.259 446.168 254.466 444.596L270.041 438.308L290.199 437.365L289.823 440.76Z" fill="#111114"/>
<path d="M257.229 348.961C257.229 348.961 248.689 352.986 261.877 410.391L269.036 441.389C269.036 441.389 276.635 452.895 292.523 441.389L284.861 376.69L257.229 348.961Z" fill="#29383D"/>
<path d="M285.992 387.505L278.519 383.669L285.301 445.35C287.885 444.382 290.317 443.048 292.523 441.389L285.992 387.505Z" fill="#243135"/>
<path d="M306.653 400.08L296.919 390.837L304.706 431.706C306.6 430.828 308.408 429.776 310.107 428.562L306.653 400.08Z" fill="#243135"/>
<path d="M308.726 467.168C308.216 467.353 307.775 467.69 307.463 468.135C307.152 468.579 306.984 469.109 306.984 469.652C306.984 470.195 307.152 470.725 307.463 471.169C307.775 471.613 308.216 471.951 308.726 472.135C310.057 472.819 311.531 473.176 313.027 473.176C314.524 473.176 315.998 472.819 317.329 472.135L374.352 439.188C374.862 439.004 375.303 438.666 375.614 438.222C375.926 437.778 376.093 437.248 376.093 436.705C376.093 436.162 375.926 435.632 375.614 435.188C375.303 434.743 374.862 434.406 374.352 434.221C373.021 433.537 371.546 433.18 370.05 433.18C368.554 433.18 367.079 433.537 365.748 434.221L308.726 467.168Z" fill="#3B3F3F"/>
<path d="M352.246 407.688C352.191 407.048 351.971 406.434 351.608 405.905C351.245 405.376 350.75 404.95 350.174 404.67C348.542 403.865 346.748 403.447 344.93 403.447C343.111 403.447 341.317 403.865 339.686 404.67C338.989 404.953 338.403 405.456 338.018 406.103C337.632 406.75 337.468 407.505 337.551 408.253C337.551 408.253 337.551 407.876 337.551 407.751V450.066C337.525 450.212 337.525 450.361 337.551 450.506C337.551 450.506 337.551 450.821 337.551 450.946C337.663 451.141 337.812 451.313 337.991 451.449L338.618 451.889L340.251 452.581H340.879H341.256H341.633H342.575H345.589H346.343H347.159L348.038 452.267L349.106 451.764C349.711 451.498 350.231 451.069 350.608 450.525C350.985 449.981 351.204 449.344 351.241 448.683L352.246 407.688ZM339.309 410.454H339.623H339.309ZM337.614 408.505C337.593 408.693 337.593 408.883 337.614 409.071C337.593 408.883 337.593 408.693 337.614 408.505ZM338.053 409.322L338.43 409.7L338.053 409.322Z" fill="#111114"/>
<path d="M336.483 416.93L335.981 416.176C335.714 415.949 335.418 415.759 335.102 415.61C334.928 415.349 334.716 415.116 334.474 414.918L334.097 414.478L332.15 412.718L331.648 412.341L329.512 410.58C329.512 410.58 329.512 410.58 329.073 410.58L326.184 408.379L325.368 407.813L322.479 405.738L321.914 405.361L318.271 402.909L317.204 402.154L313.624 399.891L313.059 399.514L308.851 396.936L307.595 396.181L303.074 393.478C300.75 392.157 298.552 390.9 296.354 389.768H295.977C293.968 388.636 292.021 387.567 290.137 386.624H289.634L284.422 384.109H283.92L279.398 382.097H279.021C278.079 381.657 277.137 381.343 276.321 381.028H275.756L273.495 380.274H273.118H272.05H270.48C270.48 380.274 270.041 380.274 269.915 380.274L332.15 344.057H334.222H335.416H335.73L338.053 344.812H338.493L341.319 345.881C342.763 346.446 344.27 347.138 345.903 347.893L346.531 348.207C348.101 348.899 349.797 349.716 351.492 350.596L352.309 351.036C354.13 351.917 355.888 352.923 357.772 353.929L358.526 354.306L365.12 358.016L369.642 360.656L370.835 361.411L375.105 363.989L375.733 364.429L379.187 366.63L380.318 367.384L383.96 369.836L384.588 370.276L387.351 372.226L388.293 372.917L391.119 374.992C391.256 375.171 391.427 375.32 391.622 375.432L393.631 377.067C393.833 377.219 394.022 377.387 394.197 377.57L396.081 379.268C396.259 379.405 396.408 379.575 396.52 379.771L397.023 380.211L397.462 380.777V381.091C397.506 381.179 397.529 381.276 397.529 381.374C397.529 381.472 397.506 381.569 397.462 381.657L335.227 417.873C335.322 417.812 335.4 417.728 335.454 417.63C335.509 417.531 335.539 417.42 335.541 417.308C335.589 417.101 335.589 416.886 335.541 416.679L336.483 416.93Z" fill="#C0C0F6"/>
<path d="M303.199 392.849C284.673 382.223 269.727 375.936 269.727 378.954C269.727 381.972 284.673 392.975 303.136 403.664C321.6 414.353 336.609 420.577 336.672 417.622C336.734 414.667 321.662 403.538 303.199 392.849Z" fill="#ACACE0"/>
<path d="M392.941 365.75C392.941 365.75 390.868 395.364 358.463 386.498C326.058 377.633 303.702 368.893 303.702 368.893C303.702 368.893 262.379 340.41 278.581 333.117C278.581 333.117 293.716 318.027 392.941 365.75Z" fill="#29383D"/>
<path d="M392.941 365.75C392.941 365.75 390.868 395.364 358.463 386.498C326.058 377.633 303.702 368.893 303.702 368.893C303.702 368.893 262.379 340.41 278.581 333.117C278.581 333.117 293.716 318.027 392.941 365.75Z" fill="#29383D"/>
<path d="M375.419 378.576C375.419 378.576 373.284 408.254 340.879 399.325C317.101 392.083 293.989 382.806 271.799 371.597C271.799 371.597 244.983 353.237 261.311 346.006C261.123 346.006 276.132 330.916 375.419 378.576Z" fill="#29383D"/>
<path d="M261.123 346.006C257.167 347.767 255.722 350.219 255.911 352.86C281.031 352.86 337.551 372.351 337.551 372.351L337.991 361.851C272.302 334.94 261.123 346.006 261.123 346.006Z" fill="#354751"/>
<path d="M279.837 331.671C275.818 333.431 274.437 335.883 274.562 338.524C299.682 338.524 356.202 358.079 356.202 358.079L356.642 347.515C291.141 320.605 279.837 331.671 279.837 331.671Z" fill="#304047"/>
<path d="M397.462 240.626C397.462 240.626 411.215 247.857 402.863 271.31C394.51 294.762 388.67 309.978 388.984 318.718C389.705 333.653 391.256 348.535 393.631 363.297C393.631 363.297 395.578 382.789 350.99 393.478C350.99 393.478 314.377 396.496 320.846 372.477C326.5 348.869 329.47 324.697 329.701 300.421C328.947 291.178 323.735 272.504 347.096 260.495C370.458 248.486 382.704 239.557 397.462 240.626Z" fill="#52517B"/>
<path d="M329.701 300.421C329.47 324.697 326.5 348.869 320.846 372.477C316.324 389.139 332.527 392.786 342.952 393.478C346.468 382.789 341.193 363.486 349.232 340.159C359.28 311.425 358.338 292.185 353.565 276.654C352.803 273.542 351.117 270.735 348.729 268.602C346.341 266.469 343.363 265.112 340.188 264.708C324.865 276.528 328.822 292.185 329.701 300.421Z" fill="#404063"/>
<path d="M393.631 363.297C391.256 348.535 389.705 333.653 388.984 318.718C388.67 309.978 394.762 294.825 402.863 271.31C410.587 249.114 402.235 243.078 397.462 240.626C394.824 252.195 354.632 256.282 355.449 264.079C356.265 271.875 366.941 280.93 367.255 296.397C367.39 313.071 365.684 329.708 362.168 346.006C359.872 360.587 359.872 375.438 362.168 390.019C395.264 379.33 393.631 363.297 393.631 363.297Z" fill="#52517B"/>
<path d="M381.26 228.617C380.328 235.418 381.15 242.344 383.646 248.737C387.351 255.842 358.526 261.627 357.647 255.025C359.258 251.203 359.998 247.07 359.813 242.926C359.628 238.782 358.524 234.732 356.579 231.069C353.062 224.53 381.26 228.617 381.26 228.617Z" fill="#EFB185"/>
<path d="M383.458 249.177C381.122 243.513 380.258 237.348 380.946 231.258L359.531 241.318C360.284 241.318 374.54 245.468 377.429 255.842C381.825 254.208 384.839 251.755 383.458 249.177Z" fill="#DD9569"/>
<path d="M351.367 195.544C348.619 202.111 347.251 209.174 347.348 216.293C348.101 226.668 346.468 228.868 347.348 233.395C347.334 235.866 348.128 238.273 349.608 240.249C352.748 243.393 359.342 244.65 368.448 241.569C379.313 237.86 390.994 223.147 386.661 209.691C382.327 196.236 367.883 184.667 351.367 195.544Z" fill="#EFB185"/>
<path d="M385.342 223.901C381.262 214.354 376.432 205.145 370.898 196.362C368.637 194.295 366.126 192.52 363.424 191.08C359.06 191.37 354.854 192.825 351.241 195.293C350.296 197.629 349.499 200.023 348.855 202.461C351.367 205.416 356.579 208.748 357.27 211.2C358.721 217.306 358.283 223.709 356.014 229.56C354.256 233.396 361.038 239.18 359.531 242.575C359.5 242.742 359.5 242.912 359.531 243.078C362.4 242.855 365.228 242.263 367.946 241.318C371.867 239.737 375.429 237.379 378.418 234.386C381.407 231.394 383.762 227.827 385.342 223.901Z" fill="#E6A376"/>
<path d="M348.227 190.64C347.819 193.534 348.341 196.484 349.719 199.061C351.096 201.638 353.257 203.71 355.888 204.976C361.478 207.868 360.787 217.048 360.473 218.745C359.546 222.127 359.061 225.614 359.028 229.12C360.347 231.069 364.869 225.222 367.004 225.662C372.342 226.794 370.144 231.949 365.12 236.979C360.096 242.009 373.472 244.965 379.878 240.5C383.269 238.111 384.588 236.665 389.11 227.925C395.829 215.35 396.457 199.883 381.511 191.394C366.564 182.906 357.584 194.538 348.227 190.64Z" fill="#221101"/>
<path d="M379.878 240.501C383.269 238.111 384.588 236.665 389.11 227.925C395.829 215.35 396.457 199.883 381.511 191.395C366.564 182.906 357.584 194.475 348.227 190.577C348.056 191.85 348.056 193.14 348.227 194.413C352.937 195.293 366.062 198.122 369.328 203.844C373.347 210.886 377.994 208.748 377.492 217.362C376.989 225.976 378.936 236.602 364.932 241.066C367.222 242.396 369.841 243.049 372.487 242.949C375.132 242.848 377.695 242 379.878 240.501Z" fill="#341C09"/>
<path d="M353.314 333.054C351.367 331.105 346.154 348.647 341.57 372.351C336.986 396.056 334.85 416.742 336.734 418.754C338.618 420.766 343.894 403.161 348.478 379.456C353.062 355.752 355.198 335.066 353.314 333.054Z" fill="#ACACE0"/>
<path d="M416.114 291.053C416.114 291.053 416.114 290.613 416.114 290.361C416.114 290.11 416.114 290.361 416.114 290.047H415.172L352.937 334.06H353.314H353.628C353.628 334.06 353.628 334.06 353.628 334.437C353.628 334.815 353.628 334.815 353.628 335.066C353.305 349.985 351.496 364.834 348.227 379.394C344.145 400.708 339.498 417.119 337.174 418.691L398.844 382.6C401.105 381.028 406.317 356.633 410.462 335.318C413.811 320.788 415.704 305.959 416.114 291.053Z" fill="#C0C0F6"/>
<path d="M278.581 300.547C278.581 300.547 256.162 291.682 260.621 279.232C261.311 277.22 263.761 274.517 266.901 279.232C270.041 283.948 280.591 287.217 280.968 292.122C280.905 292.31 283.103 303.377 278.581 300.547Z" fill="#EFB185"/>
<path d="M343.328 270.367C334.662 268.229 327.314 294.637 313.122 314.003L280.905 292.31C272.176 296.335 275.379 298.284 275.379 298.284C283.85 312.432 296.182 323.863 310.923 331.231C313.004 332.188 315.306 332.557 317.58 332.299C333.846 324.188 342.7 307.526 350.174 287.029C355.386 272.316 343.328 270.367 343.328 270.367Z" fill="#EFB185"/>
<path d="M344.333 265.085C344.333 265.085 373.221 271.813 344.333 314.128C344.333 314.128 324.551 317.146 320.092 298.535C320.092 298.535 329.764 263.387 344.333 265.085Z" fill="#52517B"/>
<path d="M274.939 284.891C274.939 284.891 273.809 279.924 274.939 279.421C278.5 282.83 280.728 287.402 281.219 292.31C280.151 295.391 274.939 284.891 274.939 284.891Z" fill="#EFB185"/>
<path d="M36.5498 192.337C36.0859 192.09 35.5682 191.96 35.0425 191.96C34.5168 191.96 33.9992 192.09 33.5353 192.337C33.3688 192.424 33.2252 192.549 33.1161 192.702C33.0069 192.855 32.9355 193.032 32.9073 193.218V214.407C32.9132 214.607 32.9751 214.802 33.0862 214.969C33.1972 215.136 33.3528 215.268 33.5353 215.35H33.8493H36.1729H36.6125V193.909C36.7388 193.818 36.8406 193.697 36.9087 193.557C36.9769 193.417 37.0092 193.262 37.003 193.107C36.9968 192.951 36.9522 192.799 36.8731 192.665C36.794 192.531 36.6829 192.418 36.5498 192.337Z" fill="#FF7FB7"/>
<path d="M41.6992 169.262C42.5046 169.538 43.2037 170.059 43.6987 170.752C44.1937 171.446 44.4599 172.277 44.4599 173.129C44.4599 173.981 44.1937 174.812 43.6987 175.505C43.2037 176.199 42.5046 176.72 41.6992 176.996C39.6382 178.05 37.3568 178.6 35.0424 178.6C32.728 178.6 30.4467 178.05 28.3856 176.996C24.6804 174.858 24.6176 171.4 28.3856 169.262C30.4467 168.208 32.728 167.658 35.0424 167.658C37.3568 167.658 39.6382 168.208 41.6992 169.262Z" fill="#FF7FB7"/>
<path d="M36.9265 151.531H36.2357H33.6609H32.9701C32.5305 151.217 32.2793 150.902 32.2793 150.588V172.343C32.2793 172.343 32.2793 172.972 32.9701 173.223H33.2841H35.5449H36.0473V151.468L36.9265 151.531Z" fill="#D32075"/>
<path d="M36.2985 150.085C37.1777 150.588 37.1777 151.405 36.2985 151.846C35.8191 152.079 35.2931 152.2 34.7599 152.2C34.2268 152.2 33.7007 152.079 33.2213 151.846C33.0204 151.792 32.8427 151.674 32.716 151.509C32.5892 151.344 32.5205 151.142 32.5205 150.934C32.5205 150.726 32.5892 150.523 32.716 150.359C32.8427 150.194 33.0204 150.075 33.2213 150.022C33.7014 149.784 34.2319 149.665 34.7676 149.676C35.3034 149.687 35.8285 149.827 36.2985 150.085Z" fill="#FF7FB7"/>
<path d="M82.3938 128.015C81.9299 127.768 81.4123 127.638 80.8866 127.638C80.3609 127.638 79.8432 127.768 79.3794 128.015C79.206 128.093 79.0564 128.215 78.946 128.37C78.8356 128.525 78.7684 128.706 78.7513 128.896V150.211C78.7684 150.4 78.8356 150.581 78.946 150.736C79.0564 150.891 79.206 151.013 79.3794 151.091H81.703H82.0798V129.587C83.0846 128.644 82.8962 128.33 82.3938 128.015Z" fill="#FF7FB7"/>
<path d="M87.5434 105.003C88.3488 105.279 89.0479 105.8 89.5429 106.493C90.0379 107.187 90.3039 108.018 90.3039 108.87C90.3039 109.722 90.0379 110.553 89.5429 111.246C89.0479 111.94 88.3488 112.461 87.5434 112.737C85.4713 113.791 83.1796 114.341 80.8551 114.341C78.5306 114.341 76.239 113.791 74.1669 112.737C73.3615 112.461 72.6624 111.94 72.1674 111.246C71.6724 110.553 71.4064 109.722 71.4064 108.87C71.4064 108.018 71.6724 107.187 72.1674 106.493C72.6624 105.8 73.3615 105.279 74.1669 105.003C76.239 103.948 78.5306 103.398 80.8551 103.398C83.1796 103.398 85.4713 103.948 87.5434 105.003Z" fill="#FF7FB7"/>
<path d="M82.7078 86.8947H82.017H80.3213H79.5678C79.4013 86.8077 79.2576 86.6828 79.1485 86.5298C79.0394 86.3768 78.9679 86.2002 78.9398 86.0144V107.707C78.9583 107.904 79.0253 108.093 79.1349 108.257C79.2445 108.422 79.3933 108.557 79.5678 108.65H79.8818H81.8913H82.3938V86.7689L82.7078 86.8947Z" fill="#D32075"/>
<path d="M82.1426 85.7628C82.316 85.8437 82.4626 85.9726 82.5653 86.1341C82.6681 86.2956 82.7227 86.483 82.7227 86.6745C82.7227 86.866 82.6681 87.0535 82.5653 87.215C82.4626 87.3765 82.316 87.5053 82.1426 87.5862C81.6565 87.8346 81.1184 87.9642 80.5726 87.9642C80.0268 87.9642 79.4888 87.8346 79.0026 87.5862C78.8293 87.5053 78.6827 87.3765 78.58 87.215C78.4772 87.0535 78.4226 86.866 78.4226 86.6745C78.4226 86.483 78.4772 86.2956 78.58 86.1341C78.6827 85.9726 78.8293 85.8437 79.0026 85.7628C79.4973 85.5445 80.032 85.4319 80.5726 85.4319C81.1133 85.4319 81.6479 85.5445 82.1426 85.7628Z" fill="#FF7FB7"/>
<path d="M101.359 81.4243C100.884 81.1764 100.357 81.0469 99.8209 81.0469C99.2852 81.0469 98.7573 81.1764 98.2822 81.4243C98.1158 81.5112 97.9722 81.6362 97.8631 81.7892C97.754 81.9421 97.6824 82.1187 97.6543 82.3046V103.62C97.6543 103.934 97.6543 104.248 98.3451 104.5H100.355H100.794V82.3674C100.961 82.2713 101.1 82.1342 101.199 81.9692C101.298 81.8041 101.353 81.6167 101.359 81.4243ZM101.674 82.9333C101.674 82.9333 101.862 82.3674 101.862 82.6818L101.674 82.9333Z" fill="#FF7FB7"/>
<path d="M109.021 62.5617V62.876V63.1904L108.644 63.6306H108.33C108.227 63.6572 108.119 63.6572 108.016 63.6306H107.639L106.321 64.2593H105.944L104.562 64.6995H103.118H99.2243H97.6543L96.3354 64.3222L94.8911 63.6934C94.1212 63.3471 93.4553 62.8051 92.9595 62.1212C92.4637 61.4373 92.1553 60.6354 92.0651 59.7952V84.6311C92.1402 85.4682 92.4435 86.2685 92.9419 86.9449C93.4402 87.6212 94.1144 88.1476 94.8911 88.4666C95.2958 88.7584 95.7398 88.9913 96.2099 89.1582H96.5238H97.2775H97.7799H96.4611H97.403H101.673H102.49H102.741H103.683H104.185H104.562H104.939C105.403 88.9778 105.845 88.7458 106.258 88.4666L106.698 88.0264C106.698 88.0264 106.698 88.0265 106.698 87.7121C106.698 87.3977 106.698 87.7121 106.698 87.7121V63.1276L109.021 62.5617Z" fill="#D32075"/>
<path d="M106.446 58.4117C110.151 60.5495 110.214 64.0076 106.446 66.1454C104.385 67.1996 102.104 67.7493 99.7894 67.7493C97.475 67.7493 95.1936 67.1996 93.1326 66.1454C92.3272 65.8695 91.6281 65.3484 91.1331 64.6551C90.6381 63.9617 90.3719 63.1308 90.3719 62.2785C90.3719 61.4263 90.6381 60.5954 91.1331 59.9021C91.6281 59.2087 92.3272 58.6876 93.1326 58.4117C95.1936 57.3575 97.475 56.8079 99.7894 56.8079C102.104 56.8079 104.385 57.3575 106.446 58.4117Z" fill="#FF7FB7"/>
<path d="M101.674 40.3035H101.045H100.292H99.5383H98.8475C98.6651 40.221 98.5094 40.0889 98.3984 39.9221C98.2873 39.7553 98.2253 39.5607 98.2195 39.3604V61.1154C98.2321 61.314 98.2969 61.5058 98.4071 61.6714C98.5174 61.8369 98.6693 61.9705 98.8475 62.0586H99.1614H101.485H101.925V40.1777L101.674 40.3035Z" fill="#D32075"/>
<path d="M101.045 39.1719C101.246 39.2251 101.424 39.3434 101.551 39.5083C101.678 39.6732 101.746 39.8754 101.746 40.0835C101.746 40.2916 101.678 40.4939 101.551 40.6588C101.424 40.8237 101.246 40.9419 101.045 40.9952C100.57 41.2432 100.043 41.3727 99.5069 41.3727C98.9712 41.3727 98.4434 41.2432 97.9683 40.9952C97.7674 40.9419 97.5897 40.8237 97.4629 40.6588C97.3362 40.4939 97.2675 40.2916 97.2675 40.0835C97.2675 39.8754 97.3362 39.6732 97.4629 39.5083C97.5897 39.3434 97.7674 39.2251 97.9683 39.1719C98.4434 38.9239 98.9712 38.7944 99.5069 38.7944C100.043 38.7944 100.57 38.9239 101.045 39.1719Z" fill="#FF7FB7"/>
<path d="M154.614 96.2631C154.15 96.0154 153.632 95.8857 153.107 95.8857C152.581 95.8857 152.063 96.0154 151.599 96.2631C151.426 96.3406 151.276 96.463 151.166 96.6178C151.056 96.7725 150.988 96.9539 150.971 97.1433V118.458C150.988 118.648 151.056 118.829 151.166 118.984C151.276 119.138 151.426 119.261 151.599 119.339H153.923H154.3V97.835C155.305 96.9547 155.116 96.5775 154.614 96.2631Z" fill="#FF7FB7"/>
<path d="M159.763 73.2506C160.569 73.5265 161.268 74.0476 161.763 74.7409C162.258 75.4343 162.524 76.2651 162.524 77.1174C162.524 77.9696 162.258 78.8006 161.763 79.4939C161.268 80.1873 160.569 80.7084 159.763 80.9843C157.691 82.039 155.4 82.5887 153.075 82.5887C150.751 82.5887 148.459 82.039 146.387 80.9843C145.582 80.7084 144.883 80.1873 144.388 79.4939C143.893 78.8006 143.626 77.9696 143.626 77.1174C143.626 76.2651 143.893 75.4343 144.388 74.7409C144.883 74.0476 145.582 73.5265 146.387 73.2506C148.456 72.186 150.749 71.6306 153.075 71.6306C155.402 71.6306 157.694 72.186 159.763 73.2506Z" fill="#FF7FB7"/>
<path d="M154.928 55.205H154.237H153.421H152.604H151.851C151.684 55.1181 151.541 54.9931 151.431 54.8401C151.322 54.6871 151.251 54.5106 151.223 54.3247V76.017C151.241 76.214 151.308 76.4033 151.418 76.5679C151.527 76.7325 151.676 76.8672 151.851 76.9601H152.165H154.174H154.677V55.0793C154.771 55.0964 154.858 55.14 154.928 55.205Z" fill="#D32075"/>
<path d="M154.363 54.0105C154.536 54.0914 154.683 54.2202 154.785 54.3817C154.888 54.5432 154.943 54.7306 154.943 54.9221C154.943 55.1136 154.888 55.3011 154.785 55.4626C154.683 55.6241 154.536 55.7529 154.363 55.8338C153.877 56.0822 153.339 56.2118 152.793 56.2118C152.247 56.2118 151.709 56.0822 151.223 55.8338C150.406 55.3308 150.344 54.5135 151.223 54.0105C151.709 53.7621 152.247 53.6326 152.793 53.6326C153.339 53.6326 153.877 53.7621 154.363 54.0105Z" fill="#FF7FB7"/>
<path d="M173.58 138.956C173.105 138.708 172.577 138.578 172.041 138.578C171.505 138.578 170.978 138.708 170.502 138.956C170.336 139.043 170.192 139.168 170.083 139.321C169.974 139.474 169.903 139.65 169.875 139.836V161.151C169.875 161.151 169.875 161.78 170.565 162.031H172.889H173.329V140.591C173.475 140.519 173.601 140.414 173.697 140.283C173.794 140.152 173.857 140 173.882 139.839C173.906 139.678 173.892 139.514 173.839 139.36C173.787 139.206 173.698 139.068 173.58 138.956ZM173.894 140.465C173.894 140.465 174.082 140.088 174.082 140.15L173.894 140.465Z" fill="#FF7FB7"/>
<path d="M181.43 120.093C181.436 120.198 181.436 120.303 181.43 120.407C181.299 120.57 181.152 120.717 180.99 120.847H180.676C180.573 120.874 180.465 120.874 180.362 120.847H179.985C179.564 121.094 179.123 121.305 178.666 121.476H178.29C177.84 121.639 177.378 121.765 176.908 121.854H175.464H171.57H170.063H169.749L168.43 121.476L166.986 120.847C166.212 120.506 165.543 119.966 165.046 119.281C164.55 118.596 164.244 117.791 164.16 116.949V141.785C164.244 142.627 164.55 143.432 165.046 144.117C165.543 144.802 166.212 145.343 166.986 145.684L168.305 146.312H169.121H169.623H170.126H171.068H175.338H176.155H176.469H177.411H177.913H178.29H178.666L179.985 145.684L180.425 145.243V144.929V144.426V119.276L181.43 120.093Z" fill="#D32075"/>
<path d="M178.667 115.88C182.372 118.018 182.435 121.476 178.667 123.614C176.605 124.668 174.324 125.218 172.01 125.218C169.695 125.218 167.414 124.668 165.353 123.614C164.548 123.338 163.848 122.817 163.353 122.124C162.858 121.43 162.592 120.6 162.592 119.747C162.592 118.895 162.858 118.064 163.353 117.371C163.848 116.677 164.548 116.156 165.353 115.88C167.414 114.826 169.695 114.277 172.01 114.277C174.324 114.277 176.605 114.826 178.667 115.88Z" fill="#FF7FB7"/>
<path d="M173.894 97.7722H173.266H172.512H171.759H171.068C170.885 97.6898 170.73 97.5576 170.619 97.3908C170.508 97.2241 170.446 97.0294 170.44 96.8291V118.584C170.452 118.783 170.517 118.975 170.627 119.14C170.738 119.306 170.889 119.439 171.068 119.527H171.382H173.454H173.894V97.6464V97.7722Z" fill="#D32075"/>
<path d="M173.266 96.6404C173.466 96.6936 173.644 96.8119 173.771 96.9768C173.898 97.1417 173.966 97.3439 173.966 97.552C173.966 97.7601 173.898 97.9624 173.771 98.1273C173.644 98.2922 173.466 98.4105 173.266 98.4637C172.791 98.7117 172.263 98.8412 171.727 98.8412C171.191 98.8412 170.663 98.7117 170.188 98.4637C169.988 98.4105 169.81 98.2922 169.683 98.1273C169.556 97.9624 169.488 97.7601 169.488 97.552C169.488 97.3439 169.556 97.1417 169.683 96.9768C169.81 96.8119 169.988 96.6936 170.188 96.6404C170.663 96.3924 171.191 96.2629 171.727 96.2629C172.263 96.2629 172.791 96.3924 173.266 96.6404Z" fill="#FF7FB7"/>
<path d="M12.9997 240.249V266.091C12.9776 266.319 12.8965 266.538 12.7643 266.726C12.6322 266.913 12.4535 267.063 12.246 267.16C11.668 267.439 11.0348 267.583 10.3934 267.583C9.75195 267.583 9.11875 267.439 8.5408 267.16C8.33326 267.063 8.15463 266.913 8.02248 266.726C7.89034 266.538 7.80927 266.319 7.78723 266.091V240.249C7.79539 240.481 7.871 240.706 8.00485 240.896C8.1387 241.086 8.32496 241.233 8.5408 241.318C9.10979 241.626 9.74649 241.788 10.3934 241.788C11.0403 241.788 11.677 241.626 12.246 241.318C12.4618 241.233 12.6481 241.086 12.7819 240.896C12.9158 240.706 12.9915 240.481 12.9997 240.249Z" fill="#617713"/>
<path d="M13.0624 240.249L12.9368 266.091L13.0624 240.312V240.249Z" fill="#617713"/>
<path d="M12.6228 241.066V266.909H12.246V241.066H12.56H12.6228Z" fill="#617713"/>
<path d="M12.3088 241.318V267.16H11.7435V241.318H12.3088Z" fill="#617713"/>
<path d="M11.6808 241.57V267.412H11.1783V241.632H11.6808V241.57Z" fill="#617713"/>
<path d="M10.8643 241.758V267.6H10.5504V241.821L10.8643 241.758Z" fill="#617713"/>
<path d="M9.54559 241.695V267.537H9.23157V241.695H9.54559Z" fill="#617713"/>
<path d="M9.29443 241.632V267.474V241.632H9.67122H9.29443Z" fill="#617713"/>
<path d="M8.91759 241.507V267.349H8.5408C8.33326 267.251 8.15463 267.102 8.02248 266.914C7.89034 266.727 7.80927 266.508 7.78723 266.28V240.438C7.79539 240.67 7.871 240.895 8.00485 241.085C8.1387 241.274 8.32496 241.421 8.5408 241.507C8.66271 241.55 8.79569 241.55 8.91759 241.507Z" fill="#617713"/>
<path d="M12.246 239.18C13.2508 239.809 13.2508 240.752 12.246 241.318C11.677 241.626 11.0403 241.787 10.3934 241.787C9.74652 241.787 9.10982 241.626 8.54083 241.318C7.53603 240.752 7.53603 239.809 8.54083 239.18C9.11878 238.902 9.75198 238.757 10.3934 238.757C11.0349 238.757 11.6681 238.902 12.246 239.18Z" fill="#617713"/>
<path d="M19.7193 198.059V198.625V198.939V199.317L19.3425 199.757C19.2395 199.784 19.1314 199.784 19.0285 199.757H18.6517L17.2701 200.386H16.8933L15.9512 200.7H14.9465H13.816H13.502H11.8692H9.6712H8.16406L6.78244 200.26L5.33807 199.568C4.53026 199.215 3.83411 198.648 3.32497 197.928C2.81582 197.207 2.513 196.361 2.44922 195.481V238.488C2.51968 239.367 2.82516 240.21 3.3335 240.929C3.84183 241.648 4.53429 242.217 5.33807 242.575L6.71968 243.267H7.0336L7.9128 243.581H8.41521H8.91763H9.92245H14.3812H15.1976H15.5744H16.5165H17.0189H17.4585H17.8352L19.2168 242.953H19.5309H19.8449L20.2217 242.512V242.135V241.695V241.066V198.059H19.7193Z" fill="#9ABD1D"/>
<path d="M16.8305 193.721C17.6583 194.018 18.3741 194.565 18.8802 195.285C19.3862 196.005 19.6578 196.864 19.6578 197.745C19.6578 198.626 19.3862 199.485 18.8802 200.205C18.3741 200.925 17.6583 201.471 16.8305 201.769C14.6774 202.853 12.3008 203.417 9.89097 203.417C7.48109 203.417 5.10466 202.853 2.95158 201.769C-0.94203 199.505 -0.94203 195.922 2.95158 193.721C5.09569 192.607 7.47563 192.026 9.89097 192.026C12.3063 192.026 14.6863 192.607 16.8305 193.721Z" fill="#6D9B0A"/>
<path d="M12.5601 172.406V198.248C12.538 198.476 12.457 198.695 12.3248 198.882C12.1927 199.07 12.014 199.22 11.8065 199.317C11.2286 199.596 10.5954 199.74 9.95392 199.74C9.31247 199.74 8.67917 199.596 8.10123 199.317C7.89369 199.22 7.71505 199.07 7.58291 198.882C7.45076 198.695 7.36969 198.476 7.34766 198.248V172.406C7.36969 172.634 7.45076 172.853 7.58291 173.04C7.71505 173.228 7.89369 173.378 8.10123 173.475C8.67021 173.783 9.30701 173.944 9.95392 173.944C10.6008 173.944 11.2375 173.783 11.8065 173.475C12.018 173.383 12.2001 173.235 12.3331 173.046C12.466 172.858 12.5445 172.636 12.5601 172.406Z" fill="#9ABD1D"/>
<path d="M12.5601 172.406L12.4973 198.185V198.248L12.5601 172.406Z" fill="#9ABD1D"/>
<path d="M12.1833 173.223V199.065H11.8693V173.286H12.246L12.1833 173.223Z" fill="#9ABD1D"/>
<path d="M11.8065 173.475V199.254H11.1785V173.412H11.7436L11.8065 173.475Z" fill="#9ABD1D"/>
<path d="M11.2412 173.726V199.568H10.8016V173.726H11.304H11.2412Z" fill="#9ABD1D"/>
<path d="M10.7389 173.852V199.694H10.4249V173.915L10.7389 173.852Z" fill="#9ABD1D"/>
<path d="M9.35735 173.915V199.694H9.04333V173.915H9.35735Z" fill="#9ABD1D"/>
<path d="M8.54088 173.663V199.505H8.16409C7.95655 199.408 7.77792 199.258 7.64577 199.071C7.51363 198.884 7.43256 198.665 7.41052 198.436V172.594C7.43256 172.823 7.51363 173.042 7.64577 173.229C7.77792 173.416 7.95655 173.566 8.16409 173.663H8.54088Z" fill="#9ABD1D"/>
<path d="M11.8065 171.337C12.8113 171.966 12.8113 172.909 11.8065 173.475C11.2376 173.783 10.6009 173.944 9.95395 173.944C9.30704 173.944 8.67024 173.783 8.10126 173.475C7.09646 172.909 7.09646 171.966 8.10126 171.337C8.6792 171.058 9.3125 170.914 9.95395 170.914C10.5954 170.914 11.2286 171.058 11.8065 171.337Z" fill="#6D9B0A"/>
<path d="M62.9885 183.535V209.314C62.9665 209.542 62.8854 209.761 62.7533 209.948C62.6211 210.136 62.4425 210.286 62.235 210.383C61.657 210.661 61.0238 210.806 60.3824 210.806C59.7409 210.806 59.1077 210.661 58.5298 210.383C58.3223 210.286 58.1435 210.136 58.0114 209.948C57.8792 209.761 57.7982 209.542 57.7761 209.314V183.472C57.7873 183.711 57.8635 183.943 57.9962 184.143C58.129 184.342 58.3134 184.501 58.5298 184.604C59.1036 184.896 59.7384 185.049 60.3824 185.049C61.0263 185.049 61.6612 184.896 62.235 184.604C62.4508 184.518 62.6371 184.372 62.7709 184.182C62.9048 183.992 62.9804 183.767 62.9885 183.535Z" fill="#6D9B0A"/>
<path d="M62.9886 183.472L62.9258 209.314L62.9886 183.472Z" fill="#617713"/>
<path d="M62.549 184.289V210.131H62.235V184.289H62.549Z" fill="#617713"/>
<path d="M62.235 184.541V210.383H61.6069V184.541H62.1721H62.235Z" fill="#617713"/>
<path d="M61.6699 184.792V210.634H61.2302V184.855H61.7326L61.6699 184.792Z" fill="#617713"/>
<path d="M61.1674 184.981V210.76H60.7906V184.918L61.1674 184.981Z" fill="#617713"/>
<path d="M60.5394 185.044V210.823H60.2253V185.044H60.5394Z" fill="#617713"/>
<path d="M59.2206 184.855V210.697H58.9066V184.855H59.2206Z" fill="#617713"/>
<path d="M58.781 184.73V210.572H58.4042C58.1967 210.474 58.018 210.325 57.8859 210.137C57.7537 209.95 57.6727 209.731 57.6506 209.503V183.661C57.6619 183.9 57.7379 184.132 57.8706 184.331C58.0034 184.531 58.1878 184.69 58.4042 184.793H58.781V184.73Z" fill="#617713"/>
<path d="M62.235 182.403C63.2398 183.032 63.2398 183.975 62.235 184.541C61.6612 184.834 61.0264 184.986 60.3824 184.986C59.7385 184.986 59.1037 184.834 58.5298 184.541C58.3138 184.45 58.1295 184.297 57.9999 184.101C57.8703 183.905 57.8013 183.676 57.8013 183.441C57.8013 183.206 57.8703 182.976 57.9999 182.781C58.1295 182.585 58.3138 182.432 58.5298 182.34C59.1125 182.071 59.7481 181.937 60.3895 181.948C61.031 181.959 61.6618 182.115 62.235 182.403Z" fill="#617713"/>
<path d="M69.6453 141.282C69.6157 141.385 69.6157 141.494 69.6453 141.597V141.911V142.288L69.2058 142.728H68.8918H68.515H68.1382L66.8193 143.357H66.3798H65.5006H64.4958H63.3025H61.6698H59.5345H57.9645L56.5829 142.917L55.0757 142.225C54.2835 141.851 53.6011 141.278 53.095 140.562C52.5889 139.846 52.2761 139.011 52.1869 138.138V181.146C52.2697 182.029 52.5871 182.873 53.1061 183.592C53.6252 184.311 54.3269 184.877 55.1385 185.232L56.5201 185.924H56.8341L57.7133 186.238H58.2157H58.7182H59.7229H64.119H64.9353H65.3121H66.3169H66.8193H67.259L68.6406 185.61H68.9545H69.2685L69.6453 185.17V184.792V184.478C69.6453 184.478 69.6453 184.478 69.6453 184.164V183.535V140.528C69.6453 140.528 69.6453 141.156 69.6453 141.282Z" fill="#9ABD1D"/>
<path d="M66.7566 136.944C67.6149 137.21 68.3654 137.744 68.8985 138.468C69.4316 139.192 69.7193 140.068 69.7193 140.968C69.7193 141.867 69.4316 142.743 68.8985 143.467C68.3654 144.192 67.6149 144.726 66.7566 144.992C64.6035 146.076 62.227 146.64 59.8171 146.64C57.4073 146.64 55.0308 146.076 52.8777 144.992C52.0499 144.694 51.3341 144.148 50.828 143.428C50.322 142.708 50.0504 141.849 50.0504 140.968C50.0504 140.087 50.322 139.228 50.828 138.508C51.3341 137.788 52.0499 137.241 52.8777 136.944C55.0187 135.82 57.3999 135.233 59.8171 135.233C62.2344 135.233 64.6157 135.82 66.7566 136.944Z" fill="#6D9B0A"/>
<path d="M62.4861 115.629V141.471C62.4641 141.699 62.383 141.918 62.2509 142.105C62.1187 142.293 61.9401 142.443 61.7325 142.54C61.1655 142.818 60.5425 142.962 59.9113 142.962C59.28 142.962 58.6572 142.818 58.0901 142.54C57.5249 142.54 57.2737 141.848 57.2737 141.471V115.629C57.2737 116.006 57.2737 116.384 58.0273 116.698C58.585 117.006 59.2115 117.168 59.8485 117.168C60.4855 117.168 61.1121 117.006 61.6698 116.698C61.8973 116.622 62.0969 116.48 62.2425 116.289C62.3881 116.099 62.473 115.869 62.4861 115.629Z" fill="#9ABD1D"/>
<path d="M62.549 115.629L62.4862 141.408V141.471L62.549 115.629Z" fill="#9ABD1D"/>
<path d="M62.1094 116.446V142.288H61.7954V116.446H62.1094Z" fill="#9ABD1D"/>
<path d="M61.7954 116.698V142.54H61.2302V116.949C61.4159 116.995 61.6097 116.995 61.7954 116.949V116.698Z" fill="#9ABD1D"/>
<path d="M61.1675 116.949V142.791H60.665V116.949H61.1675Z" fill="#9ABD1D"/>
<path d="M60.351 117.138V142.917H60.037V117.075L60.351 117.138Z" fill="#9ABD1D"/>
<path d="M58.7809 117.012V142.791H58.4669V116.949H58.7809V117.012Z" fill="#9ABD1D"/>
<path d="M58.781 116.887V142.729H58.4042C57.839 142.729 57.5878 142.037 57.5878 141.66V115.818C57.5878 116.195 57.5877 116.572 58.3413 116.887H58.7182H58.781Z" fill="#9ABD1D"/>
<path d="M61.7326 114.56C62.7374 115.189 62.8002 116.132 61.7326 116.698C61.1749 117.006 60.5483 117.168 59.9113 117.168C59.2743 117.168 58.6478 117.006 58.0901 116.698C57.0225 116.132 57.0225 115.189 58.0901 114.56C58.6572 114.282 59.28 114.138 59.9113 114.138C60.5425 114.138 61.1655 114.282 61.7326 114.56Z" fill="#6D9B0A"/>
<path d="M130.248 101.23V127.072C130.228 127.294 130.147 127.505 130.014 127.683C129.881 127.86 129.701 127.998 129.494 128.079C128.925 128.387 128.288 128.548 127.641 128.548C126.994 128.548 126.358 128.387 125.789 128.079C125.573 127.993 125.387 127.846 125.253 127.656C125.119 127.467 125.043 127.242 125.035 127.01V101.23C125.057 101.459 125.138 101.677 125.27 101.865C125.403 102.052 125.581 102.202 125.789 102.299C126.367 102.578 127 102.723 127.641 102.723C128.283 102.723 128.916 102.578 129.494 102.299C129.701 102.202 129.88 102.052 130.012 101.865C130.144 101.677 130.226 101.459 130.248 101.23Z" fill="#6D9B0A"/>
<path d="M130.248 100.916L130.185 126.695V126.758L130.248 100.916Z" fill="#617713"/>
<path d="M129.808 101.733V127.512C129.705 127.539 129.597 127.539 129.494 127.512V101.733H129.808Z" fill="#617713"/>
<path d="M129.494 101.985V127.764L128.866 128.078V102.236H129.431L129.494 101.985Z" fill="#617713"/>
<path d="M128.929 102.236V128.078H128.489V102.236H128.992H128.929Z" fill="#617713"/>
<path d="M128.426 102.362V128.204H127.861V102.425L128.426 102.362Z" fill="#617713"/>
<path d="M126.48 102.299V128.078H126.166V102.299H126.48Z" fill="#617713"/>
<path d="M126.166 102.174V127.953H125.789C125.573 127.867 125.387 127.721 125.253 127.531C125.119 127.341 125.043 127.116 125.035 126.884V101.23C125.057 101.459 125.138 101.677 125.27 101.865C125.403 102.052 125.581 102.202 125.789 102.299H126.166V102.174Z" fill="#617713"/>
<path d="M129.494 99.8471C129.715 99.9244 129.908 100.069 130.044 100.26C130.18 100.452 130.253 100.681 130.253 100.916C130.253 101.151 130.18 101.38 130.044 101.572C129.908 101.763 129.715 101.908 129.494 101.985C128.916 102.263 128.283 102.408 127.641 102.408C127 102.408 126.367 102.263 125.789 101.985C125.567 101.908 125.375 101.763 125.239 101.572C125.103 101.38 125.03 101.151 125.03 100.916C125.03 100.681 125.103 100.452 125.239 100.26C125.375 100.069 125.567 99.9244 125.789 99.8471C126.367 99.5685 127 99.4238 127.641 99.4238C128.283 99.4238 128.916 99.5685 129.494 99.8471Z" fill="#617713"/>
<path d="M136.904 58.6631V59.2291V59.5434L136.465 60.0464H136.088H135.711C135.29 60.2933 134.849 60.5037 134.392 60.6752H133.953H133.073H132.069H130.875H126.793H125.223L123.842 60.298L122.335 59.6063C121.547 59.2423 120.867 58.6803 120.361 57.9751C119.855 57.27 119.539 56.4456 119.446 55.5823V98.5894C119.533 99.4633 119.853 100.298 120.372 101.006C120.891 101.713 121.591 102.269 122.397 102.613C122.831 102.894 123.295 103.126 123.779 103.305H124.658H125.161H125.663C125.997 103.34 126.334 103.34 126.668 103.305H127.861H128.991H129.368H130.185H130.561H131.566H132.069H132.508H132.822C133.306 103.126 133.77 102.894 134.204 102.613H134.581C134.684 102.64 134.792 102.64 134.895 102.613L135.271 102.11V101.796V101.482V101.167V58.1601L136.904 58.6631Z" fill="#9ABD1D"/>
<path d="M134.141 54.3247C134.969 54.6223 135.685 55.1686 136.191 55.8888C136.697 56.6091 136.968 57.4681 136.968 58.3487C136.968 59.2294 136.697 60.0885 136.191 60.8088C135.685 61.529 134.969 62.0753 134.141 62.3729C131.988 63.4567 129.612 64.0211 127.202 64.0211C124.792 64.0211 122.415 63.4567 120.262 62.3729C119.434 62.0753 118.719 61.529 118.213 60.8088C117.706 60.0885 117.435 59.2294 117.435 58.3487C117.435 57.4681 117.706 56.6091 118.213 55.8888C118.719 55.1686 119.434 54.6223 120.262 54.3247C122.415 53.2409 124.792 52.6765 127.202 52.6765C129.612 52.6765 131.988 53.2409 134.141 54.3247Z" fill="#6D9B0A"/>
<path d="M129.745 33.0728V58.8518C129.73 59.0821 129.651 59.3036 129.518 59.4921C129.385 59.6807 129.203 59.8289 128.991 59.9207C128.434 60.229 127.807 60.3907 127.17 60.3907C126.533 60.3907 125.907 60.229 125.349 59.9207C125.13 59.8322 124.938 59.6863 124.795 59.4983C124.651 59.3102 124.561 59.0869 124.533 58.8518V33.0728C124.555 33.3011 124.636 33.5198 124.768 33.7072C124.9 33.8946 125.079 34.0444 125.286 34.1416C125.853 34.4193 126.476 34.5637 127.108 34.5637C127.739 34.5637 128.362 34.4193 128.929 34.1416C129.156 34.0662 129.356 33.9239 129.502 33.7332C129.647 33.5426 129.732 33.3124 129.745 33.0728Z" fill="#9ABD1D"/>
<path d="M129.808 33.0098L129.745 58.8518L129.808 33.0726V33.0098Z" fill="#9ABD1D"/>
<path d="M129.368 33.89V59.6692V33.8271H129.682L129.368 33.89Z" fill="#9ABD1D"/>
<path d="M129.054 34.0786V59.9205C128.869 59.9659 128.675 59.9659 128.489 59.9205V34.1415H129.054V34.0786Z" fill="#9ABD1D"/>
<path d="M128.426 34.3931V60.1722H127.924V34.3931H128.363H128.426Z" fill="#9ABD1D"/>
<path d="M125.726 34.3301V60.1093H125.349C125.13 60.0208 124.938 59.8748 124.795 59.6868C124.651 59.4987 124.561 59.2754 124.533 59.0403V33.2612C124.555 33.4896 124.636 33.7083 124.768 33.8957C124.9 34.0831 125.079 34.2328 125.286 34.3301H125.663H125.726Z" fill="#9ABD1D"/>
<path d="M128.991 32.0668C130.059 32.6326 130.059 33.5758 128.991 34.2045C128.424 34.4822 127.802 34.6266 127.17 34.6266C126.539 34.6266 125.916 34.4822 125.349 34.2045C124.344 33.5758 124.282 32.6326 125.349 32.0668C125.91 31.7695 126.535 31.614 127.17 31.614C127.805 31.614 128.43 31.7695 128.991 32.0668Z" fill="#6D9B0A"/>
<path d="M203.221 148.953V174.732C203.2 174.969 203.112 175.196 202.968 175.385C202.823 175.574 202.628 175.718 202.405 175.801C201.847 176.109 201.221 176.271 200.584 176.271C199.947 176.271 199.32 176.109 198.762 175.801C198.543 175.712 198.352 175.566 198.208 175.378C198.064 175.19 197.974 174.967 197.946 174.732V148.953C197.968 149.181 198.049 149.4 198.181 149.587C198.313 149.775 198.492 149.924 198.7 150.022C199.278 150.3 199.911 150.445 200.552 150.445C201.194 150.445 201.827 150.3 202.405 150.022C202.624 149.933 202.816 149.787 202.959 149.599C203.103 149.411 203.193 149.188 203.221 148.953Z" fill="#617713"/>
<path d="M203.284 148.89L203.221 174.732L203.284 148.953V148.89Z" fill="#617713"/>
<path d="M202.845 149.771V175.55H202.531V149.771H202.845Z" fill="#617713"/>
<path d="M202.531 150.022V175.801C202.344 175.835 202.152 175.835 201.965 175.801V150.022H202.593H202.531Z" fill="#617713"/>
<path d="M201.902 150.273V176.053H201.463V150.273H201.902Z" fill="#617713"/>
<path d="M201.463 150.399V176.178H201.086V150.399H201.463Z" fill="#617713"/>
<path d="M201.086 150.462V176.241H200.772V150.462H201.086Z" fill="#617713"/>
<path d="M199.516 150.273V176.115H199.202V150.336L199.516 150.273Z" fill="#617713"/>
<path d="M199.202 150.21V175.99C199.143 176.018 199.079 176.032 199.014 176.032C198.948 176.032 198.884 176.018 198.825 175.99C198.606 175.901 198.414 175.755 198.271 175.567C198.127 175.379 198.037 175.156 198.009 174.921V149.142C198.031 149.37 198.112 149.589 198.244 149.776C198.376 149.963 198.555 150.113 198.762 150.21H199.139H199.202Z" fill="#617713"/>
<path d="M202.467 147.884C203.535 148.45 203.535 149.393 202.467 150.022C201.89 150.301 201.256 150.445 200.615 150.445C199.973 150.445 199.34 150.301 198.762 150.022C197.757 149.393 197.695 148.45 198.762 147.884C199.327 147.565 199.966 147.397 200.615 147.397C201.264 147.397 201.902 147.565 202.467 147.884Z" fill="#617713"/>
<path d="M207.052 102.362C207.88 102.66 208.596 103.206 209.102 103.926C209.608 104.646 209.879 105.506 209.879 106.386C209.879 107.267 209.608 108.126 209.102 108.846C208.596 109.566 207.88 110.113 207.052 110.41C204.899 111.494 202.523 112.058 200.113 112.058C197.703 112.058 195.326 111.494 193.173 110.41C192.345 110.113 191.63 109.566 191.124 108.846C190.618 108.126 190.346 107.267 190.346 106.386C190.346 105.506 190.618 104.646 191.124 103.926C191.63 103.206 192.345 102.66 193.173 102.362C195.326 101.278 197.703 100.714 200.113 100.714C202.523 100.714 204.899 101.278 207.052 102.362Z" fill="#6D9B0A"/>
<path d="M202.782 81.1101V106.889C202.76 107.118 202.679 107.336 202.546 107.524C202.414 107.711 202.236 107.861 202.028 107.958C201.45 108.237 200.817 108.381 200.175 108.381C199.534 108.381 198.901 108.237 198.323 107.958C198.115 107.861 197.937 107.711 197.805 107.524C197.672 107.336 197.591 107.118 197.569 106.889V81.0471C197.586 81.2933 197.672 81.5299 197.816 81.7299C197.96 81.93 198.158 82.0855 198.386 82.1789C198.953 82.4566 199.576 82.601 200.207 82.601C200.838 82.601 201.461 82.4566 202.028 82.1789C202.236 82.0817 202.414 81.9319 202.546 81.7445C202.679 81.5571 202.76 81.3384 202.782 81.1101Z" fill="#9ABD1D"/>
<path d="M202.845 81.0471L202.719 106.889L202.845 81.11V81.0471Z" fill="#9ABD1D"/>
<path d="M202.405 81.8645V107.518H202.091V82.3675H202.405V81.8645Z" fill="#9ABD1D"/>
<path d="M202.091 82.3674V108.209H201.526V82.3674H202.091Z" fill="#9ABD1D"/>
<path d="M201.463 82.3674V108.147H200.96V82.3674H201.463Z" fill="#9ABD1D"/>
<path d="M200.647 82.3674V108.209H200.333V82.3674H200.647Z" fill="#9ABD1D"/>
<path d="M199.328 82.3674V108.209H199.014V82.3674H199.328Z" fill="#9ABD1D"/>
<path d="M199.076 82.3674V108.209V82.3674H199.39H199.076Z" fill="#9ABD1D"/>
<path d="M198.762 82.3675V108.209H198.386C198.178 108.112 197.999 107.962 197.867 107.775C197.735 107.588 197.654 107.369 197.632 107.141V81.2986C197.649 81.5448 197.734 81.7813 197.879 81.9813C198.023 82.1813 198.22 82.3369 198.449 82.4303H198.825L198.762 82.3675Z" fill="#9ABD1D"/>
<path d="M202.028 80.0411C203.033 80.607 203.033 81.5501 202.028 82.1789C201.461 82.4566 200.838 82.6009 200.207 82.6009C199.576 82.6009 198.953 82.4566 198.386 82.1789C197.318 81.5501 197.318 80.607 198.386 80.0411C198.947 79.7438 199.572 79.5884 200.207 79.5884C200.842 79.5884 201.467 79.7438 202.028 80.0411Z" fill="#617713"/>
<path d="M229.535 110.724V136.504C229.527 136.736 229.451 136.961 229.317 137.15C229.183 137.34 228.997 137.487 228.781 137.572C228.212 137.881 227.575 138.042 226.928 138.042C226.282 138.042 225.645 137.881 225.076 137.572C224.86 137.487 224.674 137.34 224.54 137.15C224.406 136.961 224.33 136.736 224.322 136.504V110.724C224.344 110.953 224.425 111.171 224.558 111.359C224.69 111.546 224.868 111.696 225.076 111.793C225.654 112.072 226.287 112.217 226.928 112.217C227.57 112.217 228.203 112.072 228.781 111.793C228.989 111.696 229.167 111.546 229.299 111.359C229.432 111.171 229.513 110.953 229.535 110.724Z" fill="#617713"/>
<path d="M229.535 110.662L229.472 136.504L229.535 110.724V110.662Z" fill="#617713"/>
<path d="M229.158 111.542V137.321H228.844V111.479H229.221L229.158 111.542Z" fill="#617713"/>
<path d="M228.781 111.73V137.572H228.216V111.793H228.781V111.73Z" fill="#617713"/>
<path d="M228.342 112.045V137.824H227.839V112.045H228.342Z" fill="#617713"/>
<path d="M227.713 112.171V137.95H227.337V112.108L227.713 112.171Z" fill="#617713"/>
<path d="M225.767 112.045V137.887H225.453V112.108L225.767 112.045Z" fill="#617713"/>
<path d="M225.453 111.982V137.761H225.076C224.86 137.676 224.674 137.529 224.54 137.339C224.406 137.149 224.33 136.925 224.322 136.692V110.913C224.344 111.141 224.425 111.36 224.558 111.548C224.69 111.735 224.868 111.885 225.076 111.982H225.453Z" fill="#617713"/>
<path d="M228.781 109.656C229.786 110.221 229.786 111.165 228.781 111.793C228.203 112.072 227.57 112.217 226.928 112.217C226.287 112.217 225.654 112.072 225.076 111.793C224.071 111.165 224.071 110.221 225.076 109.656C225.645 109.347 226.282 109.186 226.928 109.186C227.575 109.186 228.212 109.347 228.781 109.656Z" fill="#617713"/>
<path d="M236.191 68.4718V68.7862C236.078 68.9631 235.928 69.1133 235.752 69.2263H235.375H234.998L233.617 69.8551H233.24L232.361 70.1694H231.356H230.162H226.081H224.511L223.129 69.7294L221.622 69.0377C220.834 68.6737 220.154 68.1117 219.648 67.4065C219.142 66.7014 218.827 65.877 218.733 65.0137V108.021C218.826 108.893 219.149 109.724 219.667 110.431C220.185 111.138 220.882 111.695 221.685 112.045C222.119 112.325 222.582 112.557 223.066 112.736H223.945H224.448H224.95H225.955H228.404C228.404 112.736 228.718 112.736 228.844 112.736H231.167H231.544H232.549H233.051H233.491H233.805L235.187 112.108H235.563H235.877L236.254 111.73V111.416V111.102V110.787V67.7173C236.254 67.7173 236.191 68.346 236.191 68.4718Z" fill="#9ABD1D"/>
<path d="M233.365 64.1335C234.193 64.4311 234.909 64.9773 235.415 65.6975C235.921 66.4178 236.193 67.2769 236.193 68.1576C236.193 69.0382 235.921 69.8972 235.415 70.6175C234.909 71.3377 234.193 71.884 233.365 72.1816C231.212 73.2654 228.836 73.8298 226.426 73.8298C224.016 73.8298 221.64 73.2654 219.487 72.1816C218.659 71.884 217.943 71.3377 217.437 70.6175C216.931 69.8972 216.659 69.0382 216.659 68.1576C216.659 67.2769 216.931 66.4178 217.437 65.6975C217.943 64.9773 218.659 64.4311 219.487 64.1335C221.635 63.0351 224.013 62.4624 226.426 62.4624C228.839 62.4624 231.217 63.0351 233.365 64.1335Z" fill="#6D9B0A"/>
<path d="M229.095 42.8814V68.6606C229.073 68.889 228.992 69.1076 228.86 69.2951C228.728 69.4825 228.549 69.6322 228.341 69.7295C227.774 70.0072 227.152 70.1515 226.52 70.1515C225.889 70.1515 225.266 70.0072 224.699 69.7295C224.134 69.4151 223.883 69.0379 223.883 68.6606V42.8186C223.894 43.058 223.97 43.2897 224.103 43.489C224.235 43.6884 224.42 43.8479 224.636 43.9503C225.203 44.228 225.826 44.3724 226.457 44.3724C227.089 44.3724 227.712 44.228 228.279 43.9503C228.781 43.6359 229.095 43.2587 229.095 42.8814Z" fill="#9ABD1D"/>
<path d="M229.095 42.8186L229.032 68.6606L229.095 42.8815V42.8186Z" fill="#9ABD1D"/>
<path d="M228.656 43.636V69.7924V43.9504C228.758 43.977 228.867 43.977 228.97 43.9504L228.656 43.636Z" fill="#9ABD1D"/>
<path d="M228.342 43.8875V69.7923C228.155 69.8265 227.963 69.8265 227.776 69.7923V44.0131H228.342V43.8875Z" fill="#9ABD1D"/>
<path d="M227.713 44.2019V69.7925H227.211V43.9504L227.713 44.2019Z" fill="#9ABD1D"/>
<path d="M227.274 44.2646V70.1067H226.96V44.6419L227.274 44.2646Z" fill="#9ABD1D"/>
<path d="M225.327 44.2019V69.7925V43.9504H225.641L225.327 44.2019Z" fill="#9ABD1D"/>
<path d="M225.013 44.0763V69.7925H224.636C224.071 69.4781 223.82 69.1009 223.82 68.7236V42.8816C223.831 43.1209 223.907 43.3527 224.04 43.5521C224.173 43.7515 224.357 43.9109 224.573 44.0133H224.95L225.013 44.0763Z" fill="#9ABD1D"/>
<path d="M228.341 41.8124C229.409 42.3783 229.409 43.3214 228.341 43.9502C227.774 44.2279 227.151 44.3723 226.52 44.3723C225.889 44.3723 225.266 44.2279 224.699 43.9502C223.694 43.3214 223.631 42.3783 224.699 41.8124C225.257 41.5042 225.883 41.3425 226.52 41.3425C227.157 41.3425 227.784 41.5042 228.341 41.8124Z" fill="#617713"/>
<path d="M258.988 136.692V162.471C258.966 162.7 258.885 162.918 258.752 163.106C258.62 163.293 258.442 163.443 258.234 163.54C257.665 163.848 257.028 164.01 256.382 164.01C255.735 164.01 255.098 163.848 254.529 163.54C254.321 163.443 254.143 163.293 254.011 163.106C253.878 162.918 253.797 162.7 253.775 162.471V136.629C253.787 136.869 253.863 137.101 253.995 137.3C254.128 137.499 254.313 137.659 254.529 137.761C255.107 138.04 255.74 138.184 256.382 138.184C257.023 138.184 257.656 138.04 258.234 137.761C258.442 137.664 258.62 137.514 258.752 137.327C258.885 137.139 258.966 136.921 258.988 136.692Z" fill="#617713"/>
<path d="M258.988 136.629L258.925 162.471L258.988 136.692V136.629Z" fill="#617713"/>
<path d="M258.611 137.447V163.289H258.297V137.447H258.611Z" fill="#617713"/>
<path d="M258.297 137.698V163.54H257.732V137.761H258.297V137.698Z" fill="#617713"/>
<path d="M257.669 138.013V164.106H257.167V138.327H257.669V138.013Z" fill="#617713"/>
<path d="M257.167 138.138V164.106H256.79V138.264L257.167 138.138Z" fill="#617713"/>
<path d="M256.036 138.138V164.106H255.722V138.327L256.036 138.138Z" fill="#617713"/>
<path d="M255.22 138.013V164.106H254.906V138.264H255.22V138.013Z" fill="#617713"/>
<path d="M254.906 137.887V163.729H254.529C254.321 163.632 254.143 163.482 254.011 163.295C253.878 163.107 253.797 162.888 253.775 162.66V136.818C253.787 137.057 253.863 137.289 253.995 137.489C254.128 137.688 254.313 137.847 254.529 137.95H254.906V137.887Z" fill="#617713"/>
<path d="M258.234 135.623C259.239 136.189 259.239 137.132 258.234 137.761C257.656 138.04 257.023 138.184 256.382 138.184C255.74 138.184 255.107 138.04 254.529 137.761C253.524 137.132 253.524 136.189 254.529 135.623C255.098 135.315 255.735 135.154 256.382 135.154C257.028 135.154 257.665 135.315 258.234 135.623Z" fill="#617713"/>
<path d="M265.645 94.4396V94.9426C265.645 94.9426 265.645 94.9426 265.645 95.3198L265.268 95.76H264.891C264.788 95.7334 264.68 95.7334 264.577 95.76L263.195 96.3887H262.819L261.877 96.7031H260.872H259.679H258.046H255.848H254.278L252.896 96.263L251.452 95.5714C250.648 95.2053 249.953 94.636 249.435 93.9194C248.918 93.2028 248.595 92.3635 248.5 91.4844V134.492C248.557 135.374 248.857 136.223 249.367 136.944C249.877 137.666 250.577 138.231 251.389 138.578L252.771 139.27L253.65 139.585H254.152H254.655H255.659H260.118H260.935H261.939H262.442H262.881H263.258C263.715 139.413 264.156 139.203 264.577 138.956H264.891H265.205L265.582 138.516V138.201C265.552 138.099 265.552 137.99 265.582 137.887V94.8797C265.562 94.8059 265.557 94.7289 265.568 94.6532C265.579 94.5776 265.605 94.5049 265.645 94.4396Z" fill="#9ABD1D"/>
<path d="M262.819 90.1011C263.646 90.3987 264.362 90.945 264.868 91.6652C265.374 92.3855 265.646 93.2445 265.646 94.1252C265.646 95.0058 265.374 95.8649 264.868 96.5852C264.362 97.3054 263.646 97.8516 262.819 98.1492C260.666 99.233 258.289 99.7975 255.879 99.7975C253.469 99.7975 251.093 99.233 248.94 98.1492C245.046 95.8857 245.046 92.3018 248.94 90.1011C251.084 88.9877 253.464 88.4065 255.879 88.4065C258.294 88.4065 260.675 88.9877 262.819 90.1011Z" fill="#6D9B0A"/>
<path d="M258.548 68.7864V94.9428C258.548 95.32 258.548 95.6973 257.732 96.0117C257.165 96.2894 256.542 96.4337 255.911 96.4337C255.279 96.4337 254.657 96.2894 254.089 96.0117C253.905 95.8986 253.752 95.742 253.642 95.5557C253.533 95.3693 253.471 95.1588 253.461 94.9428V69.1008C253.477 69.331 253.556 69.5526 253.688 69.7411C253.821 69.9296 254.004 70.0779 254.215 70.1697C254.784 70.4778 255.421 70.6392 256.068 70.6392C256.714 70.6392 257.351 70.4778 257.92 70.1697C258.169 70.0478 258.368 69.8432 258.482 69.5908C258.597 69.3385 258.62 69.0541 258.548 68.7864Z" fill="#9ABD1D"/>
<path d="M258.548 68.7864L258.485 94.5655V94.6284L258.548 68.7864Z" fill="#9ABD1D"/>
<path d="M258.109 69.7925V95.6345V69.7925C258.212 69.8191 258.32 69.8191 258.423 69.7925H258.109Z" fill="#9ABD1D"/>
<path d="M257.795 69.7923V95.5715H257.292V69.7295H257.857L257.795 69.7923Z" fill="#9ABD1D"/>
<path d="M257.229 70.1067V95.9487H256.727V70.1067H257.229Z" fill="#9ABD1D"/>
<path d="M256.727 70.2327V96.0746H256.35V70.2327H256.727Z" fill="#9ABD1D"/>
<path d="M254.78 70.1697V95.9489V69.7925H255.094L254.78 70.1697Z" fill="#9ABD1D"/>
<path d="M254.466 69.7925V95.6345H254.089C253.803 95.4883 253.58 95.2423 253.461 94.9428V69.1008C253.477 69.3311 253.556 69.5526 253.688 69.7411C253.821 69.9297 254.004 70.0779 254.215 70.1697H254.592L254.466 69.7925Z" fill="#9ABD1D"/>
<path d="M257.795 67.7175C258.8 68.3462 258.8 69.2894 257.795 69.8552C257.226 70.1634 256.589 70.3249 255.942 70.3249C255.295 70.3249 254.659 70.1634 254.09 69.8552C253.085 69.2894 253.085 68.3462 254.09 67.7175C254.667 67.4389 255.301 67.2942 255.942 67.2942C256.584 67.2942 257.217 67.4389 257.795 67.7175Z" fill="#617713"/>
<path d="M283.354 83.499V109.278C283.326 109.513 283.236 109.737 283.092 109.925C282.949 110.113 282.757 110.259 282.538 110.347C281.98 110.655 281.354 110.817 280.717 110.817C280.08 110.817 279.453 110.655 278.896 110.347C278.672 110.265 278.477 110.12 278.332 109.931C278.188 109.742 278.1 109.515 278.079 109.278V83.499C278.101 83.7274 278.182 83.9461 278.314 84.1336C278.446 84.321 278.625 84.4707 278.833 84.568C279.411 84.8466 280.044 84.9913 280.685 84.9913C281.327 84.9913 281.96 84.8466 282.538 84.568C282.757 84.4795 282.949 84.3335 283.092 84.1455C283.236 83.9574 283.326 83.7341 283.354 83.499Z" fill="#617713"/>
<path d="M283.354 83.4363L283.292 109.278L283.354 83.4992V83.4363Z" fill="#617713"/>
<path d="M282.915 84.2537V110.096H282.601V84.2537C282.704 84.2803 282.812 84.2803 282.915 84.2537Z" fill="#617713"/>
<path d="M282.601 84.5051V110.347C282.415 110.392 282.221 110.392 282.036 110.347V84.5681H282.664L282.601 84.5051Z" fill="#617713"/>
<path d="M281.973 84.8196V110.599H281.47V84.8196H281.973Z" fill="#617713"/>
<path d="M281.156 84.9453V110.787H280.842V85.0082L281.156 84.9453Z" fill="#617713"/>
<path d="M279.586 84.8196V110.662H279.272V84.8824L279.586 84.8196Z" fill="#617713"/>
<path d="M279.272 84.7566V110.536H278.896C278.672 110.453 278.477 110.309 278.332 110.12C278.188 109.931 278.1 109.704 278.079 109.467V83.6877C278.101 83.9161 278.182 84.1348 278.314 84.3222C278.446 84.5096 278.625 84.6594 278.833 84.7566H279.21H279.272Z" fill="#617713"/>
<path d="M282.601 82.3675C283.605 82.9334 283.605 83.8765 282.601 84.5052C282.023 84.7839 281.39 84.9285 280.748 84.9285C280.107 84.9285 279.473 84.7839 278.895 84.5052C277.891 83.8765 277.828 82.9334 278.895 82.3675C279.464 82.0593 280.101 81.8979 280.748 81.8979C281.395 81.8979 282.032 82.0593 282.601 82.3675Z" fill="#617713"/>
<path d="M287.122 36.9082C287.95 37.2057 288.666 37.7519 289.172 38.4722C289.678 39.1924 289.95 40.0516 289.95 40.9322C289.95 41.8128 289.678 42.672 289.172 43.3922C288.666 44.1125 287.95 44.6587 287.122 44.9563C284.969 46.0401 282.593 46.6045 280.183 46.6045C277.773 46.6045 275.397 46.0401 273.243 44.9563C269.413 42.6927 269.413 39.1088 273.243 36.9082C275.392 35.8098 277.77 35.2371 280.183 35.2371C282.596 35.2371 284.974 35.8098 287.122 36.9082Z" fill="#6D9B0A"/>
<path d="M282.852 15.6561V41.4353C282.83 41.6636 282.749 41.8823 282.616 42.0697C282.484 42.2572 282.306 42.4069 282.098 42.5042C281.52 42.7828 280.887 42.9275 280.246 42.9275C279.604 42.9275 278.971 42.7828 278.393 42.5042C278.185 42.4069 278.007 42.2572 277.875 42.0697C277.743 41.8823 277.661 41.6636 277.639 41.4353V15.5933C277.663 15.8374 277.751 16.071 277.894 16.2698C278.038 16.4687 278.232 16.6258 278.456 16.725C279.023 17.0027 279.646 17.147 280.277 17.147C280.908 17.147 281.531 17.0027 282.098 16.725C282.306 16.6277 282.484 16.478 282.616 16.2906C282.749 16.1031 282.83 15.8845 282.852 15.6561Z" fill="#9ABD1D"/>
<path d="M282.915 15.5933L282.789 41.4353L282.915 15.5933Z" fill="#9ABD1D"/>
<path d="M282.475 16.4106V42.2527H282.161V16.4106H282.475Z" fill="#9ABD1D"/>
<path d="M282.161 16.6621V42.5041H281.596V16.6621H282.161Z" fill="#9ABD1D"/>
<path d="M281.533 16.9136V42.7556H281.031V16.9136H281.533Z" fill="#9ABD1D"/>
<path d="M280.717 17.1023V42.9443H280.403V17.1023H280.717Z" fill="#9ABD1D"/>
<path d="M279.398 17.0393V42.8813H279.084V17.0393H279.398Z" fill="#9ABD1D"/>
<path d="M279.147 16.9766V42.8186V16.9766H279.461H279.147Z" fill="#9ABD1D"/>
<path d="M278.582 16.8509V42.6929H278.205C277.997 42.5956 277.819 42.4459 277.686 42.2585C277.554 42.071 277.473 41.8524 277.451 41.624V15.782C277.475 16.0262 277.563 16.2597 277.706 16.4586C277.85 16.6574 278.043 16.8145 278.268 16.9137H278.644L278.582 16.8509Z" fill="#9ABD1D"/>
<path d="M282.098 14.5873C283.103 15.1532 283.103 16.0963 282.098 16.725C281.531 17.0027 280.908 17.1471 280.277 17.1471C279.646 17.1471 279.023 17.0027 278.456 16.725C277.388 16.0963 277.388 15.1532 278.456 14.5873C279.017 14.29 279.642 14.1345 280.277 14.1345C280.912 14.1345 281.537 14.29 282.098 14.5873Z" fill="#617713"/>
<path d="M11.8692 329.03L7.84998 327.584L33.0328 257.414L59.9113 290.864L77.4953 246.851L105.19 258.672L124.533 131.977L175.275 215.916L193.362 183.598L229.66 197.179L249.128 173.538H273.495L313.31 69.6665L328.822 127.135L375.796 98.7781L377.994 102.425L326.184 133.674L312.556 83.4363L276.383 177.813H251.138L231.042 202.209L195.308 188.816L175.464 224.341L126.982 144.237L108.581 264.771L79.8189 252.51L61.1673 299.227L34.4772 266.028L11.8692 329.03Z" fill="#FFB101"/>
<path d="M306.842 42.6299C306.378 42.3822 305.86 42.2527 305.334 42.2527C304.809 42.2527 304.291 42.3822 303.827 42.6299C303.654 42.7075 303.504 42.83 303.394 42.9847C303.283 43.1395 303.216 43.3209 303.199 43.5103V64.8252C303.216 65.0146 303.283 65.196 303.394 65.3507C303.504 65.5054 303.654 65.628 303.827 65.7055H304.141H306.465H306.842V44.2018C307.532 43.2587 307.344 42.9443 306.842 42.6299Z" fill="#FF7FB7"/>
<path d="M311.991 19.4915C312.796 19.7674 313.496 20.2885 313.99 20.9819C314.485 21.6752 314.752 22.5062 314.752 23.3585C314.752 24.2107 314.485 25.0417 313.99 25.735C313.496 26.4284 312.796 26.9494 311.991 27.2253C309.919 28.28 307.627 28.8298 305.303 28.8298C302.978 28.8298 300.687 28.28 298.615 27.2253C297.809 26.9494 297.11 26.4284 296.615 25.735C296.12 25.0417 295.854 24.2107 295.854 23.3585C295.854 22.5062 296.12 21.6752 296.615 20.9819C297.11 20.2885 297.809 19.7674 298.615 19.4915C300.684 18.4269 302.977 17.8716 305.303 17.8716C307.629 17.8716 309.922 18.4269 311.991 19.4915Z" fill="#FF7FB7"/>
<path d="M307.156 1.50892H306.465H305.711H304.895H304.141C303.975 1.42201 303.831 1.29701 303.722 1.14406C303.613 0.991103 303.541 0.814507 303.513 0.628662V22.3208C303.532 22.5178 303.599 22.7071 303.708 22.8717C303.818 23.0364 303.967 23.1712 304.141 23.264H304.455H304.769H306.779H307.281V1.38314L307.156 1.50892Z" fill="#D32075"/>
<path d="M306.59 0.628644C306.764 0.70959 306.91 0.838344 307.013 0.99984C307.116 1.16134 307.17 1.3489 307.17 1.54037C307.17 1.73185 307.116 1.91931 307.013 2.08081C306.91 2.24231 306.764 2.37106 306.59 2.452C306.104 2.7004 305.566 2.82992 305.02 2.82992C304.475 2.82992 303.937 2.7004 303.45 2.452C303.277 2.37106 303.13 2.24231 303.028 2.08081C302.925 1.91931 302.87 1.73185 302.87 1.54037C302.87 1.3489 302.925 1.16134 303.028 0.99984C303.13 0.838344 303.277 0.70959 303.45 0.628644C303.937 0.380251 304.475 0.250732 305.02 0.250732C305.566 0.250732 306.104 0.380251 306.59 0.628644Z" fill="#FF7FB7"/>
<path d="M331.962 71.8044C331.486 71.5565 330.959 71.427 330.423 71.427C329.887 71.427 329.359 71.5565 328.884 71.8044C328.711 71.882 328.561 72.0044 328.451 72.1591C328.34 72.3139 328.273 72.4953 328.256 72.6847V93.9996C328.284 94.1855 328.356 94.362 328.465 94.5149C328.574 94.6679 328.718 94.793 328.884 94.8799H329.198H331.522H331.962V73.6278C332.135 73.5468 332.281 73.4181 332.384 73.2566C332.487 73.0951 332.542 72.9075 332.542 72.7161C332.542 72.5246 332.487 72.3371 332.384 72.1756C332.281 72.0141 332.135 71.8854 331.962 71.8044Z" fill="#FF7FB7"/>
<path d="M337.048 48.7918C337.854 49.0677 338.553 49.5887 339.048 50.2821C339.543 50.9754 339.809 51.8064 339.809 52.6586C339.809 53.5109 339.543 54.3418 339.048 55.0352C338.553 55.7286 337.854 56.2497 337.048 56.5255C334.987 57.5797 332.706 58.1294 330.392 58.1294C328.077 58.1294 325.796 57.5797 323.735 56.5255C320.03 54.3878 319.967 50.9296 323.735 48.7918C325.796 47.7377 328.077 47.188 330.392 47.188C332.706 47.188 334.987 47.7377 337.048 48.7918Z" fill="#FF7FB7"/>
<path d="M332.276 30.6835H331.585C331.337 30.7447 331.079 30.7447 330.831 30.6835C330.585 30.7502 330.324 30.7502 330.078 30.6835H329.387C328.947 30.6835 328.696 30.1176 328.696 29.8032V51.4954C328.714 51.7007 328.789 51.8971 328.91 52.0633C329.032 52.2295 329.197 52.3593 329.387 52.4386H329.701H331.711H332.213V30.5577L332.276 30.6835Z" fill="#D32075"/>
<path d="M331.648 29.5518C331.849 29.6051 332.026 29.7234 332.153 29.8883C332.28 30.0532 332.349 30.2553 332.349 30.4634C332.349 30.6715 332.28 30.8738 332.153 31.0387C332.026 31.2036 331.849 31.3219 331.648 31.3751C331.173 31.6231 330.645 31.7526 330.109 31.7526C329.573 31.7526 329.046 31.6231 328.57 31.3751C328.37 31.3219 328.192 31.2036 328.065 31.0387C327.938 30.8738 327.87 30.6715 327.87 30.4634C327.87 30.2553 327.938 30.0532 328.065 29.8883C328.192 29.7234 328.37 29.6051 328.57 29.5518C329.055 29.335 329.579 29.2229 330.109 29.2229C330.639 29.2229 331.164 29.335 331.648 29.5518Z" fill="#FF7FB7"/>
<path d="M358.84 83.4363C358.376 83.1886 357.859 83.0591 357.333 83.0591C356.807 83.0591 356.29 83.1886 355.826 83.4363C355.652 83.5139 355.503 83.6363 355.392 83.791C355.282 83.9458 355.215 84.1272 355.198 84.3166V105.632C355.215 105.821 355.282 106.002 355.392 106.157C355.503 106.312 355.652 106.434 355.826 106.512H356.14H358.401H358.84V85.0711C358.97 84.9779 359.075 84.8552 359.148 84.7131C359.221 84.571 359.259 84.4135 359.259 84.2537C359.259 84.094 359.221 83.9365 359.148 83.7944C359.075 83.6522 358.97 83.5295 358.84 83.4363ZM359.154 84.9454C359.154 84.9454 359.405 84.6309 359.343 84.6938L359.154 84.9454Z" fill="#FF7FB7"/>
<path d="M363.99 60.3608C364.788 60.6526 365.478 61.183 365.965 61.8803C366.452 62.5777 366.714 63.4081 366.714 64.2591C366.714 65.1101 366.452 65.9406 365.965 66.6379C365.478 67.3352 364.788 67.8657 363.99 68.1575C361.92 69.1829 359.642 69.7162 357.333 69.7162C355.024 69.7162 352.746 69.1829 350.676 68.1575C349.871 67.8816 349.172 67.3605 348.677 66.6671C348.182 65.9738 347.916 65.1428 347.916 64.2906C347.916 63.4383 348.182 62.6074 348.677 61.914C349.172 61.2207 349.871 60.6996 350.676 60.4237C352.731 59.3548 355.01 58.7916 357.325 58.7807C359.641 58.7697 361.925 59.3114 363.99 60.3608Z" fill="#FF7FB7"/>
<path d="M359.154 42.3155H358.463H357.71H356.893H356.14C355.957 42.2331 355.802 42.1009 355.691 41.9341C355.579 41.7674 355.518 41.5727 355.512 41.3723V63.1274C355.524 63.326 355.589 63.5178 355.699 63.6834C355.81 63.849 355.962 63.9825 356.14 64.0705H356.454H358.777H359.28V42.1269C359.28 42.1269 359.154 42.2526 359.154 42.3155Z" fill="#D32075"/>
<path d="M358.526 41.1838C359.405 41.6868 359.405 42.5043 358.526 43.0073C358.04 43.2557 357.502 43.3851 356.956 43.3851C356.41 43.3851 355.872 43.2557 355.386 43.0073C355.185 42.954 355.008 42.8357 354.881 42.6708C354.754 42.5059 354.685 42.3036 354.685 42.0956C354.685 41.8875 354.754 41.6852 354.881 41.5203C355.008 41.3554 355.185 41.2371 355.386 41.1838C355.869 40.9251 356.408 40.7898 356.956 40.7898C357.504 40.7898 358.043 40.9251 358.526 41.1838Z" fill="#FF7FB7"/>
</svg>
