<svg width="79" height="68" viewBox="0 0 79 68" fill="none" xmlns="http://www.w3.org/2000/svg">
<g clip-path="url(#clip0_1_42)">
<path d="M77.4784 27.7319C77.7697 28.0151 78.0012 28.3534 78.159 28.7269C78.3167 29.1005 78.3977 29.5017 78.3971 29.9069C78.3965 30.3121 78.3143 30.7131 78.1553 31.0862C77.9964 31.4592 77.7639 31.7969 77.4717 32.0791L41.8389 66.6295C41.2131 67.2363 40.3739 67.5759 39.5 67.5759C38.6262 67.5759 37.7869 67.2363 37.1611 66.6295L1.52836 32.0791C1.23655 31.7964 1.00461 31.4584 0.846241 31.0851C0.687871 30.7118 0.606283 30.3107 0.606283 29.9055C0.606283 29.5003 0.687871 29.0992 0.846241 28.7259C1.00461 28.3526 1.23655 28.0146 1.52836 27.7319C2.12681 27.1504 2.93017 26.8248 3.76672 26.8248C4.60327 26.8248 5.40663 27.1504 6.00508 27.7319L39.5 60.2221L73.0084 27.7319C73.6065 27.1524 74.4084 26.8281 75.2434 26.8281C76.0783 26.8281 76.8802 27.1524 77.4784 27.7319V27.7319ZM77.4784 1.06239C77.7697 1.34551 78.0012 1.68383 78.159 2.05738C78.3167 2.43094 78.3977 2.83216 78.3971 3.23736C78.3965 3.64257 78.3143 4.04354 78.1553 4.41661C77.9964 4.78969 77.7639 5.1273 77.4717 5.40953L41.8389 39.9599C41.2131 40.5668 40.3739 40.9064 39.5 40.9064C38.6262 40.9064 37.7869 40.5668 37.1611 39.9599L1.52836 5.40952C1.23655 5.12685 1.00461 4.78888 0.846242 4.41557C0.687872 4.04225 0.606284 3.64116 0.606284 3.23595C0.606284 2.83075 0.687872 2.42965 0.846242 2.05634C1.00461 1.68302 1.23655 1.34506 1.52836 1.06239C2.12681 0.48084 2.93017 0.15527 3.76672 0.15527C4.60327 0.15527 5.40663 0.48084 6.00508 1.06239L39.5 33.5526L73.0084 1.06239C73.6065 0.482838 74.4084 0.158524 75.2434 0.158524C76.0783 0.158524 76.8802 0.482838 77.4784 1.06239V1.06239Z" fill="white"/>
</g>
<defs>
<clipPath id="clip0_1_42">
<rect width="67.6" height="78" fill="white" transform="translate(78.5) rotate(90)"/>
</clipPath>
</defs>
</svg>
