<svg width="770" height="692" viewBox="0 0 770 692" fill="none" xmlns="http://www.w3.org/2000/svg">
<g style="mix-blend-mode:multiply">
<path d="M170.512 397.638C170.574 397.83 170.623 398.026 170.658 398.224C170.672 398.38 170.672 398.537 170.658 398.694L170.922 399.28C170.978 399.442 171.047 399.599 171.127 399.749L171.45 400.307C171.537 400.469 171.635 400.626 171.743 400.776L172.183 401.333C172.292 401.487 172.409 401.634 172.535 401.773L173.092 402.301C173.222 402.445 173.359 402.582 173.503 402.711L174.266 403.298L174.647 403.621C175.072 403.918 175.512 404.192 175.967 404.442L528.31 607.8L529.718 608.534L530.216 608.739L531.184 609.149C531.859 609.413 532.533 609.648 533.237 609.853L533.912 610.029L535.085 610.323L535.877 610.499L536.903 610.675H537.754H538.721H539.601H540.569H543.326H544.616H545.291C546.024 610.675 546.757 610.499 547.49 610.352L548.194 610.205L549.25 610L550.013 609.795L551.01 609.501L551.538 609.325L553.063 608.739L553.62 608.504C554.234 608.237 554.831 607.933 555.409 607.595L764.457 486.266C764.912 486.006 765.352 485.723 765.777 485.416L766.012 485.21L766.803 484.624L767.067 484.36L767.654 483.803L767.889 483.509L768.358 482.923L768.622 482.512L768.974 481.955L769.15 481.515C769.245 481.337 769.324 481.151 769.384 480.958C769.398 480.812 769.398 480.664 769.384 480.518V480.518C769.384 480.342 769.384 480.166 769.384 479.961C769.384 479.755 769.384 479.667 769.384 479.492C769.363 477.693 768.82 475.94 767.82 474.446C766.82 472.951 765.407 471.78 763.753 471.074L412.026 267.335C407.829 265.195 403.186 264.079 398.476 264.079C393.766 264.079 389.123 265.195 384.927 267.335L175.996 388.751C174.455 389.444 173.126 390.534 172.147 391.91C171.167 393.287 170.572 394.899 170.424 396.582C170.409 396.767 170.409 396.954 170.424 397.139C170.437 397.308 170.467 397.475 170.512 397.638V397.638Z" fill="#185CDB"/>
</g>
<g style="mix-blend-mode:multiply">
<path d="M543.091 677.835C542.943 680.429 542.187 682.952 540.882 685.199C539.578 687.446 537.763 689.354 535.583 690.769C534.805 691.343 533.882 691.688 532.918 691.766C531.955 691.843 530.988 691.65 530.128 691.208L464.639 652.848C463.88 652.312 463.276 651.585 462.89 650.74C462.503 649.895 462.348 648.963 462.44 648.038C462.412 647.55 462.412 647.06 462.44 646.572C462.44 646.572 462.44 646.425 462.44 646.337L451.853 640.207C451.594 640.042 451.366 639.834 451.178 639.592H450.973L449.066 640.501L448.421 640.765L445.84 641.85L445.371 641.996C444.638 642.29 443.905 642.524 443.142 642.788H442.732L442.204 642.964L440.943 643.346L439.887 643.668L438.596 644.02L437.541 644.255C437.108 644.39 436.667 644.498 436.221 644.577C435.84 644.577 435.488 644.577 435.136 644.841L433.757 645.076L433.024 645.223H432.731L429.798 645.692H429.387C428.537 645.692 427.687 645.897 426.807 645.956H426.396H425.839H424.167H423.141H421.41H418.888H417.862H416.249H415.281H413.814H412.788H411.204H410.354L408.418 645.75H407.89L405.397 645.486H405.104L402.934 645.164L402.083 644.988L400.47 644.695H400.294L399.678 644.548L397.919 644.137L396.98 643.903L395.397 643.492H394.927L394.517 643.346C393.696 643.14 392.874 642.876 392.083 642.612L391.672 642.466C390.733 642.172 389.824 641.821 388.945 641.469H388.681H388.358C387.214 640.999 386.041 640.501 384.956 639.944H384.633C383.46 639.386 382.316 638.77 381.261 638.155C371.084 632.289 366.01 624.605 366.04 616.921V607.654C366.04 600.087 371.055 592.491 380.997 586.684C401.057 574.953 433.64 574.953 453.817 586.684C464.258 592.755 469.332 600.732 469.009 608.621C469.009 608.416 469.009 608.182 469.009 607.976V617.361C469.009 617.625 469.009 617.889 469.009 618.124C469.009 618.358 469.009 618.652 469.009 618.916V619.59C469.009 619.825 469.009 620.118 469.009 620.353C469.009 620.587 469.009 620.499 469.009 620.558V621.027L468.833 621.79C468.833 622.024 468.833 622.259 468.628 622.464L468.393 623.227L468.247 623.491C468.247 623.637 468.247 623.755 468.247 623.872C468.247 623.989 468.041 624.4 467.895 624.664L467.631 625.309L467.22 626.072L467.015 626.423L466.868 626.717C466.692 627.01 466.487 627.303 466.311 627.626L465.93 628.183L465.197 629.151L464.962 629.532C464.551 630.06 464.082 630.588 463.613 631.087L463.232 631.468L462.997 631.702L469.742 635.632C469.953 635.465 470.179 635.318 470.417 635.192C470.743 634.978 471.086 634.792 471.443 634.635H471.795H472.03H472.353C472.567 634.611 472.784 634.611 472.998 634.635H474.054H474.523H474.669H474.933H475.344L475.696 634.811L541.009 673.084H541.185C541.884 673.645 542.426 674.378 542.76 675.21C543.094 676.042 543.208 676.946 543.091 677.835V677.835Z" fill="#185CDB"/>
</g>
<g style="mix-blend-mode:multiply">
<path d="M318.265 584.016C303.894 575.745 280.696 575.745 266.443 584.016C252.16 592.315 252.248 605.747 266.619 614.047C280.989 622.347 304.158 622.347 318.441 614.047C332.723 605.747 332.635 592.315 318.265 584.016Z" fill="#185CDB"/>
</g>
<path d="M172.652 372.035C172.688 372.204 172.737 372.371 172.799 372.533V372.973C172.865 373.154 172.943 373.331 173.034 373.501L173.21 373.941L173.532 374.439C173.599 374.582 173.678 374.72 173.767 374.85C173.895 375.023 174.032 375.19 174.177 375.349L174.5 375.759L174.999 376.258L175.38 376.61L176.054 377.138L176.406 377.431L177.609 378.193L523.031 577.622L524.292 578.267L524.761 578.473L525.612 578.854C526.228 579.089 526.844 579.294 527.489 579.47L528.075 579.646L529.16 579.91L529.864 580.056H530.803H531.565H532.445H533.237H534.117H536.61H537.783H538.399C539.073 580.056 539.718 580.056 540.364 579.792L541.038 579.646L541.977 579.47L542.681 579.264L543.561 579.03L544.059 578.854L545.437 578.326L545.907 578.121C546.468 577.877 547.017 577.602 547.549 577.3L736.86 467.672C737.275 467.442 737.677 467.188 738.062 466.91L738.297 466.705L739 466.177L739.235 465.971C739.411 465.795 739.616 465.619 739.763 465.443L739.968 465.18L740.379 464.652C740.474 464.536 740.553 464.407 740.614 464.27V464.27L740.907 463.772L741.083 463.391C741.178 463.233 741.257 463.066 741.317 462.892V462.511C741.327 462.345 741.327 462.178 741.317 462.012C741.303 461.866 741.303 461.718 741.317 461.572C741.309 459.944 740.824 458.355 739.923 457C739.021 455.644 737.742 454.583 736.244 453.947L390.822 254.518C387.02 252.582 382.814 251.572 378.548 251.572C374.282 251.572 370.076 252.582 366.274 254.518L177.11 364.439C175.715 365.068 174.513 366.057 173.626 367.304C172.74 368.551 172.201 370.012 172.066 371.536C172.052 371.702 172.052 371.869 172.066 372.035C172.261 372.056 172.457 372.056 172.652 372.035V372.035Z" fill="#63C3FF"/>
<path d="M741.816 461.103C741.802 461.249 741.802 461.397 741.816 461.543C741.825 461.709 741.825 461.875 741.816 462.041V462.041V462.423C741.756 462.597 741.677 462.764 741.581 462.921V462.921L741.405 463.303L741.112 463.801C741.051 463.938 740.972 464.066 740.878 464.182L740.467 464.71L740.262 464.974C740.262 465.15 739.91 465.326 739.734 465.502L739.499 465.707L738.795 466.235L738.561 466.441C738.175 466.718 737.774 466.973 737.358 467.203L548.194 577.153C547.662 577.456 547.114 577.73 546.552 577.974L546.083 578.179L544.704 578.707L544.206 578.883L543.326 579.118L542.622 579.323L541.684 579.499L540.364 580.115C539.719 580.115 539.073 580.32 538.399 580.379H537.783H536.61H534.117H533.237H532.445H531.565H530.803H529.864L529.161 580.232L528.075 579.968L527.489 579.792C526.844 579.616 526.228 579.411 525.612 579.176L524.761 578.795L524.292 578.59L523.031 577.945L177.609 378.516L176.406 377.753L176.054 377.46L175.38 376.932L174.999 376.58L174.5 376.082L174.177 375.671C174.019 375.399 173.882 375.114 173.767 374.821C173.678 374.69 173.599 374.553 173.532 374.41L173.21 373.912L173.034 373.472C172.943 373.301 172.865 373.125 172.799 372.944V372.504C172.737 372.342 172.688 372.175 172.652 372.005C172.639 371.849 172.639 371.692 172.652 371.536C172.638 371.37 172.638 371.203 172.652 371.037V371.037V385.701C172.783 387.242 173.326 388.719 174.224 389.978C175.121 391.237 176.341 392.232 177.755 392.857L523.178 592.286C523.588 592.521 523.999 592.755 524.439 592.96L524.908 593.166L525.671 593.488C526.257 593.723 526.873 593.928 527.518 594.134H527.958L529.043 594.397H529.336H529.776L530.686 594.573H531.067H531.448H532.328H533.12H534H536.492H537.666H538.135H538.281C538.956 594.573 539.601 594.427 540.246 594.31H540.804L541.771 594.104L542.446 593.928L543.326 593.664H543.531H543.824L545.203 593.166L545.701 592.931C546.263 592.687 546.811 592.413 547.344 592.11L736.86 482.307H737.065L737.505 482.014C737.721 481.894 737.927 481.757 738.121 481.603L738.619 481.222L739.147 480.782C739.367 480.601 739.572 480.405 739.763 480.195L740.086 479.785C740.086 479.785 740.086 479.785 740.232 479.785C740.37 479.586 740.497 479.38 740.614 479.169L740.79 478.876C740.895 478.699 740.983 478.512 741.054 478.318C741.065 478.201 741.065 478.083 741.054 477.966V477.966C741.116 477.794 741.165 477.618 741.2 477.438V477.057C741.215 476.881 741.215 476.705 741.2 476.529C741.214 476.363 741.214 476.197 741.2 476.031V476.031V461.367C741.845 460.78 741.816 460.956 741.816 461.103Z" fill="#2979E2"/>
<path d="M746.391 224.106C746.361 223.614 746.303 223.124 746.215 222.639C746.215 222.141 746.039 221.671 745.922 221.173C745.922 220.704 745.687 220.205 745.541 219.736C745.394 219.266 745.247 218.768 745.071 218.269C744.895 217.8 744.719 217.331 744.514 216.862C744.309 216.392 744.074 215.923 743.84 215.454V215.307L743.224 214.163L743.018 213.841L742.608 213.196L742.139 212.404L741.259 211.172C740.936 210.732 740.613 210.292 740.262 209.882L739.206 208.708L738.209 207.682H738.062L737.036 206.744H736.889L735.774 205.893L734.543 205.101L389.12 5.67248L387.918 5.02726L387.537 4.8513L386.716 4.5287L386.246 4.38205L385.601 4.20609H385.103C384.907 4.18977 384.711 4.18977 384.516 4.20609H383.372H382.932H382.375H381.935H381.466L381.055 4.41136L380.586 4.61668C379.35 5.51058 378.367 6.71053 377.735 8.09876C377.103 9.487 376.842 11.0158 376.979 12.5352L376.363 231.32C376.591 235.578 377.82 239.723 379.95 243.417C382.08 247.111 385.051 250.252 388.622 252.583L734.044 452.011C735.346 452.99 736.906 453.567 738.532 453.671C740.157 453.776 741.778 453.403 743.194 452.598C743.312 452.547 743.421 452.478 743.517 452.393V452.393L743.898 452.041L744.103 451.836L744.456 451.396C744.531 451.303 744.599 451.205 744.661 451.102V451.102C744.77 450.933 744.868 450.756 744.954 450.574C745.021 450.431 745.1 450.294 745.189 450.164V450.164L745.423 449.548C745.459 449.426 745.509 449.308 745.57 449.196V449.196L745.746 448.492C745.746 448.492 745.746 448.228 745.746 448.082C745.746 447.818 745.746 447.524 745.746 447.231C745.746 446.938 745.746 446.996 745.746 446.879C745.746 446.439 745.746 445.97 745.746 445.471L746.362 226.686C746.47 225.83 746.48 224.964 746.391 224.106V224.106Z" fill="#2979E2"/>
<path d="M392.61 244.078C390.418 242.553 388.589 240.564 387.251 238.253C385.912 235.942 385.099 233.365 384.868 230.704L385.484 13.415L729.645 212.111L730.202 212.462H730.378L730.935 212.902L731.61 213.489L732.343 214.193L732.783 214.691L733.106 215.073C733.34 215.366 733.575 215.63 733.78 215.923C733.985 216.216 734.161 216.48 734.367 216.774L735.012 217.829L735.628 218.944C735.804 219.354 735.95 219.618 736.068 219.882C736.185 220.146 736.361 220.557 736.449 220.879V221.114C736.449 221.407 736.654 221.671 736.742 221.935C736.83 222.199 736.918 222.581 736.977 222.874C737.035 223.167 736.977 223.372 736.977 223.548V223.842V224.604C736.989 224.829 736.989 225.054 736.977 225.279L736.361 442.597L392.61 244.078Z" fill="url(#paint0_radial_3_2)"/>
<path d="M754.72 220.176C754.72 219.97 754.72 219.765 754.72 219.56V219.178C754.737 219.111 754.737 219.041 754.72 218.973C754.735 218.768 754.735 218.562 754.72 218.357V217.741C754.737 217.546 754.737 217.35 754.72 217.155C754.734 216.94 754.734 216.724 754.72 216.51V216.275C754.737 216.178 754.737 216.079 754.72 215.982L754.544 215.336C754.53 215.171 754.53 215.004 754.544 214.838V214.662L754.31 214.046C754.255 213.827 754.186 213.612 754.104 213.401V213.196L753.928 212.814C753.868 212.612 753.79 212.416 753.694 212.228L753.518 211.788V211.612C753.518 211.436 753.313 211.231 753.225 211.025C753.139 210.805 753.041 210.589 752.931 210.38V210.38L752.667 209.882L752.315 209.236L752.14 208.914C752.043 208.731 751.935 208.555 751.817 208.386L751.318 207.594C751.054 207.213 750.82 206.831 750.556 206.48C750.292 206.128 750.174 205.981 749.998 205.746C749.823 205.512 749.705 205.365 749.529 205.189L749.031 204.632L748.561 204.104L748.21 203.752L747.682 203.253L747.535 203.077L747.271 202.872L746.714 202.374L746.479 202.168L746.274 202.022L745.746 201.611L745.365 201.318L744.837 200.966L744.309 200.643L398.916 1.21458L398.505 1.00927L397.978 0.74533L397.684 0.569371H397.508L397.01 0.3641L396.511 0.158784H396.365H396.013L395.514 0.0121363H395.279H394.986H394.458H390.792C390.568 -0.00404543 390.342 -0.00404543 390.118 0.0121363L389.384 0.246764C389.058 0.363446 388.744 0.510725 388.446 0.686662L380.176 5.49646L380.645 5.29114L381.055 5.08582H381.525H381.965H382.522H382.962H384.106C384.301 5.0695 384.497 5.0695 384.692 5.08582H385.191L385.836 5.26183L386.305 5.40843L387.126 5.73104L387.508 5.90704L388.71 6.55221L734.132 205.981L735.364 206.773L736.478 207.623H736.625L737.652 208.562H737.798L738.795 209.588L739.851 210.761C740.203 211.172 740.526 211.612 740.848 212.052L741.728 213.284L742.197 214.075L742.608 214.721L742.813 215.043L743.429 216.187V216.334C743.664 216.803 743.898 217.272 744.104 217.741C744.309 218.211 744.485 218.68 744.661 219.149C744.837 219.648 744.984 220.146 745.13 220.615C745.13 221.085 745.394 221.583 745.511 222.053C745.511 222.551 745.717 223.02 745.805 223.519C745.892 224.004 745.951 224.493 745.981 224.985V224.985C746.01 225.454 746.01 225.924 745.981 226.393L745.365 445.178C745.365 445.677 745.365 446.146 745.365 446.586C745.365 446.586 745.365 446.82 745.365 446.938C745.365 447.055 745.365 447.524 745.365 447.788C745.365 447.935 745.365 448.052 745.365 448.199L745.189 448.903C745.128 449.014 745.078 449.132 745.042 449.255L744.808 449.87C744.718 450.001 744.64 450.138 744.573 450.281C744.486 450.463 744.389 450.639 744.28 450.809V450.809C744.218 450.911 744.15 451.01 744.074 451.102L743.722 451.542L743.517 451.748L743.136 452.099C743.04 452.185 742.931 452.254 742.813 452.305L742.432 452.598L750.702 447.788L751.406 447.29L751.612 447.114L752.081 446.674L752.257 446.468C752.43 446.266 752.586 446.05 752.726 445.823V445.823C752.9 445.55 753.056 445.266 753.195 444.973V444.973C753.195 444.797 753.342 444.592 753.43 444.416C753.518 444.24 753.43 444.181 753.43 444.093C753.434 444.025 753.434 443.956 753.43 443.888L753.606 443.272C753.606 443.272 753.606 443.096 753.606 443.037V442.275C753.606 442.275 753.606 442.128 753.606 442.04V441.453C753.606 441.453 753.606 441.248 753.606 441.102V440.867C753.621 440.672 753.621 440.476 753.606 440.28C753.621 440.085 753.621 439.889 753.606 439.694L754.222 220.909C754.421 220.689 754.589 220.442 754.72 220.176V220.176Z" fill="#63C3FF"/>
<path d="M398.799 286.368L382.082 276.719L365.482 286.368L382.199 296.017L398.799 286.368Z" fill="#0B1C45"/>
<path d="M400.705 306.692L417.305 297.044L407.48 291.383L400.588 287.395L383.988 297.044L400.705 306.692Z" fill="#0B1C45"/>
<path d="M419.211 317.368L435.781 307.719L419.093 298.099L402.494 307.719L419.211 317.368Z" fill="#0B1C45"/>
<path d="M437.717 328.072L454.287 318.423L437.599 308.775L421 318.423L437.717 328.072Z" fill="#0B1C45"/>
<path d="M472.793 329.099L456.105 319.45L439.506 329.099L456.193 338.748L472.793 329.099Z" fill="#0B1C45"/>
<path d="M474.699 349.423L491.299 339.774L474.582 330.125L457.982 339.774L474.699 349.423Z" fill="#0B1C45"/>
<path d="M493.205 360.098L509.804 350.449L493.087 340.83L476.488 350.449L493.205 360.098Z" fill="#0B1C45"/>
<path d="M494.994 361.154L511.711 370.773L528.31 361.154L515.201 353.587L511.593 351.505L494.994 361.154Z" fill="#0B1C45"/>
<path d="M530.216 381.478L546.816 371.829L530.099 362.18L513.499 371.829L530.216 381.478Z" fill="#0B1C45"/>
<path d="M548.722 392.153L565.292 382.505L564.471 382.035L548.605 372.856L532.005 382.505L548.722 392.153Z" fill="#0B1C45"/>
<path d="M567.228 402.829L583.798 393.18L577.434 389.514L567.111 383.561L550.511 393.18L567.228 402.829Z" fill="#0B1C45"/>
<path d="M585.705 413.504L602.304 403.855L585.617 394.236L569.017 403.884L585.705 413.504Z" fill="#0B1C45"/>
<path d="M587.493 414.56L604.21 424.209L620.81 414.56L615.15 411.275L604.093 404.911L587.493 414.56Z" fill="#0B1C45"/>
<path d="M622.716 434.884L639.316 425.235L622.599 415.586L605.999 425.235L622.716 434.884Z" fill="#0B1C45"/>
<path d="M641.222 445.559L657.821 435.911L641.105 426.262L624.505 435.911L641.222 445.559Z" fill="#0B1C45"/>
<path d="M659.728 456.235L676.327 446.615L659.61 436.966L643.011 446.615L659.728 456.235Z" fill="#0B1C45"/>
<path d="M678.233 466.939L694.833 457.29L678.116 447.642L661.517 457.29L678.233 466.939Z" fill="#0B1C45"/>
<path d="M378.797 297.982L362.08 288.333L350.613 294.991L345.481 297.982L362.198 307.631L378.797 297.982Z" fill="#0B1C45"/>
<path d="M397.303 308.687L380.586 299.038L363.987 308.657L380.703 318.306L397.303 308.687Z" fill="#0B1C45"/>
<path d="M399.209 329.011L415.809 319.362L399.092 309.713L382.492 319.362L399.209 329.011Z" fill="#0B1C45"/>
<path d="M417.715 339.686L434.315 330.037L417.598 320.388L400.998 330.037L417.715 339.686Z" fill="#0B1C45"/>
<path d="M436.192 350.361L452.791 340.713L436.104 331.064L419.504 340.713L436.192 350.361Z" fill="#0B1C45"/>
<path d="M438.01 351.388L454.697 361.037L471.297 351.417L454.58 341.739L438.01 351.388Z" fill="#0B1C45"/>
<path d="M473.203 371.741L489.803 362.093L473.086 352.444L456.516 362.093L473.203 371.741Z" fill="#0B1C45"/>
<path d="M491.709 382.417L508.309 372.768L491.592 363.119L474.992 372.768L491.709 382.417Z" fill="#0B1C45"/>
<path d="M510.215 393.092L526.814 383.443L510.098 373.794L493.498 383.443L510.215 393.092Z" fill="#0B1C45"/>
<path d="M528.721 403.767L545.32 394.119L528.603 384.499L512.004 394.119L528.721 403.767Z" fill="#0B1C45"/>
<path d="M547.227 414.472L563.826 404.823L547.109 395.174L530.51 404.823L547.227 414.472Z" fill="#0B1C45"/>
<path d="M565.732 425.147L582.303 415.498L565.615 405.85L549.016 415.498L565.732 425.147Z" fill="#0B1C45"/>
<path d="M584.209 435.823L600.808 426.174L584.121 416.525L567.521 426.174L584.209 435.823Z" fill="#0B1C45"/>
<path d="M602.715 446.498L619.314 436.849L602.597 427.2L586.027 436.849L602.715 446.498Z" fill="#0B1C45"/>
<path d="M621.22 457.173L637.82 447.554L621.103 437.905L604.504 447.554L621.22 457.173Z" fill="#0B1C45"/>
<path d="M639.726 467.878L656.326 458.229L639.609 448.58L623.009 458.229L639.726 467.878Z" fill="#0B1C45"/>
<path d="M658.232 478.553L674.831 468.904L658.115 459.255L641.515 468.904L658.232 478.553Z" fill="#0B1C45"/>
<path d="M358.796 309.625L342.079 299.976L325.479 309.625L342.196 319.274L358.796 309.625Z" fill="#0B1C45"/>
<path d="M377.301 320.3L360.585 310.652L343.985 320.3L360.702 329.949L377.301 320.3Z" fill="#0B1C45"/>
<path d="M362.491 330.976L379.208 340.625L395.807 330.976L379.09 321.327L362.491 330.976Z" fill="#0B1C45"/>
<path d="M380.997 341.651L397.714 351.3L414.284 341.651L397.596 332.002L380.997 341.651Z" fill="#0B1C45"/>
<path d="M399.503 352.326L416.19 361.975L432.79 352.326L416.102 342.707L399.503 352.326Z" fill="#0B1C45"/>
<path d="M418.008 363.031L434.696 372.68L451.295 363.031L434.608 353.382L418.008 363.031Z" fill="#0B1C45"/>
<path d="M436.514 373.706L453.202 383.355L469.801 373.706L453.114 364.058L436.514 373.706Z" fill="#0B1C45"/>
<path d="M454.991 384.382L471.708 394.031L488.307 384.382L471.59 374.733L454.991 384.382Z" fill="#0B1C45"/>
<path d="M473.497 395.057L490.213 404.706L506.813 395.057L490.096 385.437L473.497 395.057Z" fill="#0B1C45"/>
<path d="M492.002 405.762L508.719 415.381L525.319 405.762L508.602 396.113L492.002 405.762Z" fill="#0B1C45"/>
<path d="M510.508 416.437L527.225 426.086L543.824 416.437L527.108 406.788L510.508 416.437Z" fill="#0B1C45"/>
<path d="M529.014 427.112L545.701 436.761L562.301 427.112L545.613 417.463L529.014 427.112Z" fill="#0B1C45"/>
<path d="M547.52 437.788L564.207 447.436L580.807 437.788L564.09 428.139L547.52 437.788Z" fill="#0B1C45"/>
<path d="M566.026 448.492L582.713 458.112L599.313 448.492L582.625 438.843L566.026 448.492Z" fill="#0B1C45"/>
<path d="M617.818 459.167L601.102 449.519L584.502 459.167L601.219 468.816L617.818 459.167Z" fill="#0B1C45"/>
<path d="M619.607 460.194L603.008 469.843L619.725 479.492L636.324 469.843L619.607 460.194Z" fill="#0B1C45"/>
<path d="M621.514 480.518L638.23 490.167L654.83 480.518L638.113 470.869L621.514 480.518Z" fill="#0B1C45"/>
<path d="M338.794 321.239L322.077 311.59L310.669 318.218L305.507 321.239L322.195 330.888L338.794 321.239Z" fill="#0B1C45"/>
<path d="M357.3 331.914L340.583 322.265L323.984 331.914L340.7 341.563L357.3 331.914Z" fill="#0B1C45"/>
<path d="M342.49 342.59L359.206 352.238L375.806 342.59L359.089 332.941L342.49 342.59Z" fill="#0B1C45"/>
<path d="M360.995 353.294L377.712 362.943L394.311 353.294L377.595 343.646L360.995 353.294Z" fill="#0B1C45"/>
<path d="M412.788 363.969L396.101 354.321L379.501 363.969L396.218 373.618L412.788 363.969Z" fill="#0B1C45"/>
<path d="M431.294 374.645L414.606 364.996L398.007 374.645L414.724 384.294L431.294 374.645Z" fill="#0B1C45"/>
<path d="M449.8 385.32L433.112 375.671L416.513 385.32L433.2 394.969L449.8 385.32Z" fill="#0B1C45"/>
<path d="M468.305 395.995L451.589 386.376L434.989 395.995L451.706 405.644L468.305 395.995Z" fill="#0B1C45"/>
<path d="M486.811 406.7L470.094 397.051L453.495 406.7L470.212 416.349L486.811 406.7Z" fill="#0B1C45"/>
<path d="M505.317 417.375L488.6 407.727L472.001 417.375L488.718 427.024L505.317 417.375Z" fill="#0B1C45"/>
<path d="M523.823 428.051L507.106 418.402L490.507 428.051L507.223 437.7L523.823 428.051Z" fill="#0B1C45"/>
<path d="M542.299 438.726L525.612 429.106L509.012 438.726L525.729 448.375L542.299 438.726Z" fill="#0B1C45"/>
<path d="M560.805 449.431L544.118 439.782L527.518 449.431L544.235 459.079L560.805 449.431Z" fill="#0B1C45"/>
<path d="M579.311 460.106L562.624 450.457L546.024 460.106L562.711 469.755L579.311 460.106Z" fill="#0B1C45"/>
<path d="M597.817 470.781L581.1 461.132L564.53 470.781L581.217 480.43L597.817 470.781Z" fill="#0B1C45"/>
<path d="M583.006 481.456L599.723 491.105L616.323 481.456L599.606 471.837L583.006 481.456Z" fill="#0B1C45"/>
<path d="M601.512 492.161L618.229 501.81L623.39 498.789L634.828 492.161L618.111 482.512L601.512 492.161Z" fill="#0B1C45"/>
<path d="M318.793 332.853L302.076 323.204L285.476 332.853L302.193 342.501L318.793 332.853Z" fill="#0B1C45"/>
<path d="M337.299 343.528L320.582 333.909L303.982 343.528L320.699 353.177L337.299 343.528Z" fill="#0B1C45"/>
<path d="M322.488 354.233L339.205 363.882L355.804 354.233L339.087 344.584L322.488 354.233Z" fill="#0B1C45"/>
<path d="M374.31 364.908L357.593 355.259L340.994 364.908L357.711 374.557L374.31 364.908Z" fill="#0B1C45"/>
<path d="M392.787 375.583L376.099 365.935L359.5 375.583L376.216 385.232L392.787 375.583Z" fill="#0B1C45"/>
<path d="M411.292 386.259L394.605 376.61L378.005 386.259L394.722 395.908L411.292 386.259Z" fill="#0B1C45"/>
<path d="M429.798 396.963L413.111 387.314L396.511 396.963L413.199 406.583L429.798 396.963Z" fill="#0B1C45"/>
<path d="M448.304 407.639L431.587 397.99L414.988 407.639L431.704 417.287L448.304 407.639Z" fill="#0B1C45"/>
<path d="M466.81 418.314L450.093 408.665L433.493 418.314L450.21 427.963L466.81 418.314Z" fill="#0B1C45"/>
<path d="M485.316 428.989L468.599 419.34L451.999 428.989L468.716 438.638L485.316 428.989Z" fill="#0B1C45"/>
<path d="M503.821 439.664L487.105 430.045L470.505 439.664L487.222 449.313L503.821 439.664Z" fill="#0B1C45"/>
<path d="M522.298 450.369L505.61 440.72L489.011 450.369L505.728 460.018L522.298 450.369Z" fill="#0B1C45"/>
<path d="M540.804 461.044L524.116 451.396L507.517 461.044L524.233 470.693L540.804 461.044Z" fill="#0B1C45"/>
<path d="M559.309 471.72L542.622 462.071L526.022 471.72L542.71 481.368L559.309 471.72Z" fill="#0B1C45"/>
<path d="M577.815 482.395L561.099 472.746L544.499 482.395L561.216 492.044L577.815 482.395Z" fill="#0B1C45"/>
<path d="M579.604 483.451L563.005 493.1L579.722 502.719L596.321 493.1L579.604 483.451Z" fill="#0B1C45"/>
<path d="M581.511 503.775L598.227 513.424L614.827 503.775L598.11 494.126L581.511 503.775Z" fill="#0B1C45"/>
<path d="M298.791 344.467L282.104 334.847L270.695 341.446L265.504 344.467L282.192 354.115L298.791 344.467Z" fill="#0B1C45"/>
<path d="M300.58 345.522L283.981 355.171L300.697 364.82L317.297 355.171L300.58 345.522Z" fill="#0B1C45"/>
<path d="M319.086 356.198L302.486 365.847L319.203 375.495L335.803 365.847L319.086 356.198Z" fill="#0B1C45"/>
<path d="M337.592 366.873L320.992 376.522L337.709 386.171L354.309 376.522L337.592 366.873Z" fill="#0B1C45"/>
<path d="M356.098 377.548L339.498 387.197L356.215 396.846L372.814 387.197L356.098 377.548Z" fill="#0B1C45"/>
<path d="M374.603 388.253L358.004 397.902L485.726 471.632L502.326 461.983L374.603 388.253Z" fill="#0B1C45"/>
<path d="M504.115 463.009L487.515 472.658L504.232 482.307L520.831 472.658L504.115 463.009Z" fill="#0B1C45"/>
<path d="M522.62 473.714L506.021 483.363L522.738 492.982L539.308 483.333L522.62 473.714Z" fill="#0B1C45"/>
<path d="M541.126 484.389L524.527 494.038L541.214 503.687L557.814 494.038L541.126 484.389Z" fill="#0B1C45"/>
<path d="M559.603 495.064L543.033 504.713L559.72 514.362L576.32 504.713L559.603 495.064Z" fill="#0B1C45"/>
<path d="M561.509 515.389L578.226 525.037L583.417 522.017L594.825 515.389L578.109 505.74L561.509 515.389Z" fill="#0B1C45"/>
<path d="M431.528 503.1L469.244 481.192C474.23 478.26 474.2 473.626 469.244 470.723L359.646 407.463C356.85 406.031 353.754 405.285 350.613 405.285C347.472 405.285 344.376 406.031 341.58 407.463L303.865 429.37C298.908 432.303 298.938 436.937 303.865 439.84L353.898 468.67L413.462 503.042C416.254 504.482 419.347 505.238 422.488 505.248C425.629 505.259 428.728 504.522 431.528 503.1Z" fill="#55A8DB"/>
<g style="mix-blend-mode:screen">
<path d="M333.838 31.686L329.761 34.0616L693.865 244.254L693.161 487.381L697.238 485.005L697.942 241.907L333.838 31.686Z" fill="#59BDFF"/>
</g>
<path d="M329.761 34.0615L329.057 277.159L693.161 487.381L693.865 244.253L329.761 34.0615Z" fill="#0C2775"/>
<g style="mix-blend-mode:multiply">
<path d="M340.818 270.385L341.434 54.3564L682.105 251.028L681.489 467.086L340.818 270.385Z" fill="#0C2775"/>
</g>
<path d="M341.111 64.5039L682.105 261.322" stroke="#29ABE2" stroke-width="0.733194" stroke-linecap="round" stroke-linejoin="round"/>
<path d="M341.023 81.8071L682.017 278.626" stroke="#29ABE2" stroke-width="0.733194" stroke-linecap="round" stroke-linejoin="round"/>
<path d="M340.964 99.1985L681.958 295.988" stroke="#29ABE2" stroke-width="0.733194" stroke-linecap="round" stroke-linejoin="round"/>
<path d="M340.935 116.414L681.929 313.203" stroke="#29ABE2" stroke-width="0.733194" stroke-linecap="round" stroke-linejoin="round"/>
<path d="M340.906 133.688L681.899 330.507" stroke="#29ABE2" stroke-width="0.733194" stroke-linecap="round" stroke-linejoin="round"/>
<path d="M340.759 151.021L681.782 347.839" stroke="#29ABE2" stroke-width="0.733194" stroke-linecap="round" stroke-linejoin="round"/>
<path d="M340.759 168.324L681.782 365.143" stroke="#29ABE2" stroke-width="0.733194" stroke-linecap="round" stroke-linejoin="round"/>
<path d="M340.73 185.627L681.723 382.417" stroke="#29ABE2" stroke-width="0.733194" stroke-linecap="round" stroke-linejoin="round"/>
<path d="M340.671 203.048L681.665 399.837" stroke="#29ABE2" stroke-width="0.733194" stroke-linecap="round" stroke-linejoin="round"/>
<path d="M340.7 220.293L681.694 417.082" stroke="#29ABE2" stroke-width="0.733194" stroke-linecap="round" stroke-linejoin="round"/>
<path d="M340.583 237.567L681.577 434.385" stroke="#29ABE2" stroke-width="0.733194" stroke-linecap="round" stroke-linejoin="round"/>
<path d="M340.554 254.929L681.577 451.747" stroke="#29ABE2" stroke-width="0.733194" stroke-linecap="round" stroke-linejoin="round"/>
<path d="M340.524 272.174L681.518 468.963" stroke="#29ABE2" stroke-width="0.733194" stroke-linecap="round" stroke-linejoin="round"/>
<path d="M357.036 64.0345L343.663 56.3213V58.1103L357.036 65.8235V64.0345Z" fill="#FBAE17"/>
<path d="M351.405 66.2927V64.5037L343.663 60.0166V60.8964L343.633 61.8349L351.405 66.2927Z" fill="#FBAE17"/>
<path d="M348.707 66.6447L343.633 63.7119V65.5302L348.707 68.4337V66.6447Z" fill="#FBAE17"/>
<path d="M356.977 81.338L343.604 73.6248V75.4138L356.977 83.1563V81.338Z" fill="#FBAE17"/>
<path d="M351.347 81.8072L343.604 77.3201V77.7307V79.1091L351.347 83.5962V81.8072Z" fill="#FBAE17"/>
<path d="M348.678 85.7664V83.9775L343.604 81.0447V81.8659V82.8337L348.678 85.7664Z" fill="#FBAE17"/>
<path d="M356.948 98.6707L343.575 90.9575L343.545 92.7465L356.948 100.46V98.6707Z" fill="#FBAE17"/>
<path d="M351.288 99.1106L343.545 94.6528V96.4418L351.288 100.9V99.1106Z" fill="#FBAE17"/>
<path d="M348.619 101.281L343.545 98.3481V99.1693V100.137L348.619 103.07V101.281Z" fill="#FBAE17"/>
<path d="M356.889 117.616V115.974L343.516 108.231V109.874V110.05L356.889 117.763V117.616Z" fill="#FBAE17"/>
<path d="M351.258 116.414L343.516 111.956V113.745L351.258 118.232V116.414Z" fill="#FBAE17"/>
<path d="M348.56 118.584L343.487 115.651V117.44L348.56 120.373V118.584Z" fill="#FBAE17"/>
<path d="M356.831 133.277L343.457 125.564V127.353L356.831 135.096V133.277Z" fill="#FBAE17"/>
<path d="M343.457 131.049L351.2 135.536V133.717L343.457 129.26V131.049Z" fill="#FBAE17"/>
<path d="M348.531 135.888L343.457 132.984V134.773L348.502 137.706L348.531 135.888Z" fill="#FBAE17"/>
<path d="M356.801 150.61L343.428 142.868L343.398 144.657L356.801 152.399V150.61Z" fill="#FBAE17"/>
<path d="M351.141 151.05L343.398 146.563V148.381L351.141 152.839V151.05Z" fill="#FBAE17"/>
<path d="M348.472 153.191L343.398 150.258V152.077L348.472 155.009V153.191Z" fill="#FBAE17"/>
<path d="M343.369 161.96L356.743 169.702V167.884L343.369 160.171V161.96Z" fill="#FBAE17"/>
<path d="M351.112 168.353L343.369 163.896V165.685L351.112 170.172V168.353Z" fill="#FBAE17"/>
<path d="M348.414 170.524L343.34 167.591V169.38L348.414 172.313V170.524Z" fill="#FBAE17"/>
<path d="M356.713 185.217L343.311 177.504V179.293L356.684 187.006L356.713 185.217Z" fill="#FBAE17"/>
<path d="M343.311 182.988L351.053 187.446V185.657L343.311 181.199V182.988Z" fill="#FBAE17"/>
<path d="M348.384 187.827L343.311 184.894V186.713L348.355 189.616L348.384 187.827Z" fill="#FBAE17"/>
<path d="M356.655 202.52L343.281 194.807V196.596L356.655 204.339V202.52Z" fill="#FBAE17"/>
<path d="M350.994 202.989L343.252 198.502V200.291L350.994 204.778V202.989Z" fill="#FBAE17"/>
<path d="M343.252 203.987L348.326 206.92V205.131L343.252 202.198V203.987Z" fill="#FBAE17"/>
<path d="M356.596 221.642V221.143V219.853L343.223 212.11V213.43V213.899L356.596 221.642Z" fill="#FBAE17"/>
<path d="M350.965 220.293L343.223 215.806V217.624L350.965 222.082V220.293Z" fill="#FBAE17"/>
<path d="M348.267 222.434L343.193 219.53V219.677V221.319L348.267 224.252V222.434Z" fill="#FBAE17"/>
<path d="M356.537 238.095L356.567 237.156L343.164 229.414V230.382V231.232L356.537 238.945V238.095Z" fill="#FBAE17"/>
<path d="M343.164 234.927L350.907 239.385V237.596L343.164 233.109V234.927Z" fill="#FBAE17"/>
<path d="M348.238 239.767L343.164 236.834L343.135 238.623L348.208 241.556L348.238 239.767Z" fill="#FBAE17"/>
<path d="M356.508 254.46L343.135 246.747V248.536L356.508 256.249V254.46Z" fill="#FBAE17"/>
<path d="M350.848 254.9L343.105 250.442V251.82V252.231L350.848 256.718V254.9Z" fill="#FBAE17"/>
<path d="M343.105 255.926L348.179 258.859V257.07L343.105 254.137V255.926Z" fill="#FBAE17"/>
<path d="M356.449 273.552V272.848V271.763L343.076 264.05V265.106V265.839L356.449 273.552Z" fill="#FBAE17"/>
<path d="M350.818 272.232L343.076 267.745L343.047 269.563L350.789 274.021L350.818 272.232Z" fill="#FBAE17"/>
<path d="M343.047 271.44V273.259L348.12 276.162V274.373L343.047 271.44Z" fill="#FBAE17"/>
<path d="M390.675 292.498V291.765L390.704 290.709L377.302 282.996V284.051V284.785L390.675 292.498Z" fill="white"/>
<path d="M385.044 291.149L377.302 286.691V288.48L385.044 292.967V291.149Z" fill="white"/>
<path d="M377.301 290.386L377.272 292.175L382.346 295.108L382.375 293.319L377.301 290.386Z" fill="white"/>
<path d="M422.994 311.179V310.476V309.42L409.621 301.677V302.733V303.466L422.994 311.179Z" fill="white"/>
<path d="M417.363 309.86L409.621 305.373V307.191L417.363 311.649V309.86Z" fill="white"/>
<path d="M409.591 309.068V310.886L414.665 313.819L414.694 312.001L409.591 309.068Z" fill="white"/>
<path d="M455.313 329.891V329.157V328.102L441.94 320.388V321.444V322.148L455.313 329.891Z" fill="white"/>
<path d="M449.682 328.542L441.94 324.084V325.873L449.682 330.331V328.542Z" fill="white"/>
<path d="M441.91 327.779V329.568L446.984 332.501V330.682L441.91 327.779Z" fill="white"/>
<path d="M487.633 348.573V347.869V346.784L474.259 339.07V340.126V340.859L487.633 348.573Z" fill="white"/>
<path d="M482.002 347.223L474.259 342.766L474.23 344.555L481.972 349.042L482.002 347.223Z" fill="white"/>
<path d="M474.23 346.461V348.25L479.303 351.183V349.394L474.23 346.461Z" fill="white"/>
<path d="M519.952 367.254V366.55V365.494L506.578 357.752V358.808V359.541L519.952 367.254Z" fill="white"/>
<path d="M514.321 365.934L506.549 361.447V363.266L514.291 367.723L514.321 365.934Z" fill="white"/>
<path d="M506.549 365.143V366.961L511.622 369.894V368.075L506.549 365.143Z" fill="white"/>
<path d="M552.271 385.965V385.232V384.176L538.897 376.463V377.519V378.223L552.271 385.965Z" fill="white"/>
<path d="M546.611 384.616L538.868 380.158V381.947L546.611 386.405V384.616Z" fill="white"/>
<path d="M538.868 383.854V385.643L543.942 388.576V386.787L538.868 383.854Z" fill="white"/>
<path d="M584.59 404.647V403.943V402.858L571.217 395.145L571.187 396.201V396.934L584.59 404.647Z" fill="white"/>
<path d="M578.93 403.298L571.187 398.84V400.629L578.93 405.116V403.298Z" fill="white"/>
<path d="M571.187 402.535V404.324L576.261 407.257V405.468L571.187 402.535Z" fill="white"/>
<path d="M616.88 423.358V422.625L616.909 421.569L603.506 413.827V414.882V415.616L616.88 423.358Z" fill="white"/>
<path d="M611.249 422.009L603.506 417.522V419.34L611.249 423.798V422.009Z" fill="white"/>
<path d="M603.506 421.247V423.036L608.58 425.968V424.15L603.506 421.247Z" fill="white"/>
<path d="M649.199 442.04V441.307L649.228 440.251L635.826 432.538V433.593V434.327L649.199 442.04Z" fill="white"/>
<path d="M643.568 440.691L635.826 436.233V438.022L643.568 442.509V440.691Z" fill="white"/>
<path d="M635.826 439.928L635.796 441.717L640.87 444.65L640.899 442.861L635.826 439.928Z" fill="white"/>
<path d="M681.518 460.722V460.018V458.933L668.145 451.219V452.275V453.008L681.518 460.722Z" fill="white"/>
<path d="M675.887 459.402L668.145 454.915V456.704L675.887 461.191V459.402Z" fill="white"/>
<path d="M668.115 458.61V460.399L673.189 463.332V461.543L668.115 458.61Z" fill="white"/>
<path d="M360.643 251.351L422.789 216.539L455.577 273.552L501.622 213.958L538.164 280.385L588.461 249.767L635.004 302.997L674.861 270.678" stroke="#00FFFF" stroke-width="0.733194" stroke-miterlimit="10"/>
<path d="M366.685 260.442L409.122 213.958L440.767 274.842L472.236 226.129L493.527 254.841L525.172 228.094L556.523 287.043L599.019 254.988L630.664 324.67L670.403 289.712" stroke="white" stroke-width="1.34908" stroke-linecap="round" stroke-linejoin="round"/>
<path d="M379.882 256.425L379.912 242.905L378.093 241.849V235.661L376.95 234.986V241.204L375.102 240.118L375.073 246.893L375.043 253.639L376.891 254.694L376.862 260.912L377.419 261.205L378.035 261.557V255.369L379.882 256.425Z" fill="#14DB7B"/>
<path d="M390.44 245.368L390.47 240.206L388.622 239.151L388.651 232.933L387.507 232.288L387.478 238.476L385.631 237.42L385.601 242.553L387.449 243.638L387.42 249.826L388.563 250.5L388.593 244.283L390.44 245.368Z" fill="#14DB7B"/>
<path d="M396.189 217.976L396.159 231.496L398.007 232.552L397.978 238.769L399.121 239.414L399.151 233.226L400.969 234.282L401.028 220.762L399.18 219.706L399.209 213.518L398.036 212.844V219.032L396.189 217.976Z" fill="#FF0090"/>
<path d="M411.527 222.111L411.586 208.591L409.738 207.506V201.318L408.594 200.673V206.861L406.747 205.805L406.688 219.325L408.535 220.381V226.569L409.679 227.244V221.026L411.527 222.111Z" fill="#14DB7B"/>
<path d="M417.275 227.947L417.246 235.455L419.094 236.511L419.064 242.728L420.208 243.374L420.237 237.186L422.085 238.241L422.114 230.733L420.267 229.678L420.296 223.46L419.152 222.815L419.123 229.003L417.275 227.947Z" fill="#FF0090"/>
<path d="M430.795 257.568L432.643 258.654L432.672 253.814L430.825 252.729L430.854 246.541L430.619 246.424L429.681 245.896V252.084L427.833 251.028L427.804 255.867L429.652 256.923L429.622 263.111L430.561 263.639L430.766 263.786L430.795 257.568Z" fill="#14DB7B"/>
<path d="M438.391 265.604L438.333 279.095L440.18 280.18V286.368L441.324 287.043V280.825L443.172 281.911L443.23 268.39L441.383 267.305V261.117L440.239 260.443V266.66L438.391 265.604Z" fill="#FF0090"/>
<path d="M453.73 256.425L453.759 249.034L451.911 247.978L451.941 241.79L450.797 241.115L450.767 247.304L448.92 246.248L448.891 253.638L450.738 254.694V260.912L451.853 261.557L451.882 255.369L453.73 256.425Z" fill="#14DB7B"/>
<path d="M459.478 236.159L459.449 241.468L461.296 242.523L461.267 248.711L462.411 249.386L462.44 243.169L464.288 244.254L464.317 238.945L462.469 237.89L462.499 231.701L461.355 231.027L461.326 237.215L459.478 236.159Z" fill="#FF0090"/>
<path d="M472.969 233.226L474.816 234.282L474.875 220.762L473.027 219.706V213.518L471.883 212.844V219.032L470.036 217.976L469.977 231.496L471.825 232.552V238.769L472.411 239.121L472.969 239.414V233.226Z" fill="#14DB7B"/>
<path d="M485.374 248.682L485.403 235.162L483.556 234.106L483.585 227.889L482.441 227.244L482.412 233.432L480.594 232.376L480.535 245.896L482.383 246.952L482.353 253.169L483.497 253.815L483.526 247.626L485.374 248.682Z" fill="#FF0090"/>
<path d="M491.123 245.661L491.093 259.182L492.941 260.237L492.912 266.455L494.055 267.1L494.085 260.912L495.932 261.968L495.962 248.448L494.114 247.392L494.143 241.174L493 240.529L492.97 246.717L491.123 245.661Z" fill="#14DB7B"/>
<path d="M506.461 259.328L506.52 245.808L504.672 244.752V238.564L503.528 237.889V244.078L501.68 243.022L501.622 256.542L503.469 257.598V263.815L504.613 264.46V258.272L506.461 259.328Z" fill="#FF0090"/>
<path d="M515.171 248.77L517.019 249.826L517.048 245.075L515.23 244.019V237.801L514.467 237.362L514.086 237.156L514.057 243.344L512.209 242.289L512.18 247.04L514.028 248.125V254.313L514.409 254.518L515.171 254.988V248.77Z" fill="#FF0090"/>
<path d="M527.577 232.787L527.606 226.158L525.758 225.073L525.788 218.885L525.201 218.563L524.644 218.24L524.615 224.428L522.767 223.343L522.738 230L524.585 231.086L524.556 237.274L525.143 237.596L525.7 237.948L525.729 231.731L527.577 232.787Z" fill="#14DB7B"/>
<path d="M536.258 250.383L538.105 251.439L538.164 237.919L536.316 236.863V230.675L535.173 230V236.218L533.325 235.133L533.296 248.653L535.143 249.709L535.114 255.926L535.877 256.366L536.258 256.571V250.383Z" fill="#FF0090"/>
<path d="M546.816 274.197L548.664 275.253L548.693 272.555L546.875 271.499V265.311L545.731 264.636L545.701 270.825L543.883 269.769L543.824 272.467L545.672 273.523V279.74L546.112 280.004L546.787 280.385L546.816 274.197Z" fill="#14DB7B"/>
<path d="M559.222 292.029L559.251 284.345L557.403 283.289L557.433 277.071H557.403L556.289 276.426L556.259 282.614L554.412 281.559L554.383 289.243L556.23 290.298L556.201 296.516L557.345 297.161L557.374 290.973L559.222 292.029Z" fill="#FF0090"/>
<path d="M564.97 273.699L564.94 280.21L566.759 281.295V287.483L567.903 288.157L567.932 281.94L569.779 283.025L569.809 276.485L567.961 275.4V269.212L566.817 268.537V274.755L564.97 273.699Z" fill="#14DB7B"/>
<path d="M580.308 278.01L580.337 269.27L578.519 268.185V261.997L578.372 261.909L577.375 261.352V267.54L575.528 266.484L575.469 275.224L577.317 276.309V282.497L578.314 283.083L578.46 283.171V276.954L580.308 278.01Z" fill="#FF0090"/>
<path d="M589.018 270.267L590.866 271.352L590.895 262.906L589.048 261.821L589.077 255.633L587.963 254.988H587.933L587.904 261.176L586.056 260.12L586.027 268.537L587.875 269.622L587.845 275.81L587.875 275.84L588.989 276.485L589.018 270.267Z" fill="#FF0090"/>
<path d="M601.395 260.882L601.454 252.729L599.606 251.644L599.635 245.456L599.254 245.251L598.462 244.811V250.999L596.614 249.943L596.556 258.096L598.433 259.152L598.403 265.34L599.195 265.809L599.547 266.015L599.577 259.827L601.395 260.882Z" fill="#14DB7B"/>
<path d="M610.105 294.111L611.953 295.196L612.011 287.131L610.164 286.046V279.858L609.431 279.418L609.02 279.183V285.401L607.172 284.315L607.114 292.41L608.961 293.466V299.654L609.372 299.888L610.105 300.328V294.111Z" fill="#14DB7B"/>
<path d="M622.511 317.426L622.54 290.767L620.692 289.682L620.722 283.494L619.578 282.82L619.549 289.037L617.701 287.981L617.672 314.64L619.519 315.696L619.49 321.884L620.047 322.207L620.634 322.559L620.663 316.341L622.511 317.426Z" fill="#FF0090"/>
<path d="M628.259 312.998L628.23 333.527L630.077 334.583L630.048 340.801L631.192 341.446L631.221 335.258L633.069 336.313L633.098 315.784L631.25 314.728L631.28 308.511L630.107 307.865V314.054L628.259 312.998Z" fill="#FF0090"/>
<path d="M643.597 324.436L643.656 317.397L641.808 316.312V310.124L640.665 309.479V315.667L638.817 314.611L638.758 321.65L640.606 322.705V328.893L641.017 329.157L641.75 329.568V323.38L643.597 324.436Z" fill="#FF0090"/>
<path d="M649.346 285.518L649.316 313.233L651.164 314.288V320.477L652.279 321.151L652.308 314.963L654.156 316.019L654.185 288.304L652.337 287.248L652.367 281.06L651.223 280.385L651.193 286.603L649.346 285.518Z" fill="#14DB7B"/>
<path d="M659.904 294.844L659.874 308.364L661.722 309.42L661.693 315.608L662.836 316.283L662.866 310.065L664.713 311.15L664.743 297.63L662.895 296.574L662.924 290.357L661.781 289.712L661.751 295.9L659.904 294.844Z" fill="#FF0090"/>
<path d="M672.808 296.31L672.837 289.536L672.867 282.79L670.99 281.705L671.019 275.517L669.875 274.843V281.06L668.027 280.004L667.969 293.495L669.816 294.58V300.768L670.96 301.443V295.225L672.808 296.31Z" fill="#14DB7B"/>
<path d="M418.712 185.745L402.318 176.272L402.289 183.78L418.712 193.253V185.745Z" fill="#14DB7B"/>
<path d="M406.336 190.085L409.503 197.652L412.671 193.751L409.503 193.546L406.336 190.085Z" fill="#14DB7B"/>
<path d="M501.739 223.754L485.316 214.281V221.759L501.71 231.262L501.739 223.754Z" fill="#14DB7B"/>
<path d="M489.363 228.094L492.53 235.661L495.698 231.76L492.53 231.555L489.363 228.094Z" fill="#14DB7B"/>
<path d="M607.847 232.493L591.423 223.02V230.528L607.818 240.001L607.847 232.493Z" fill="#14DB7B"/>
<path d="M595.471 236.834L598.638 244.4L601.805 240.5L598.638 240.294L595.471 236.834Z" fill="#14DB7B"/>
<path d="M678.644 260.12L662.221 250.647L662.191 258.155L678.615 267.628L678.644 260.12Z" fill="#14DB7B"/>
<path d="M666.268 264.46L669.406 272.027L672.603 268.126L669.435 267.921L666.268 264.46Z" fill="#14DB7B"/>
<path d="M449.008 232.493L432.584 223.02L432.555 230.528L448.978 240.001L449.008 232.493Z" fill="#FF0090"/>
<path d="M436.632 236.834L439.77 244.4L442.966 240.5L439.799 240.294L436.632 236.834Z" fill="#FF0090"/>
<path d="M565.028 259.24L548.605 249.767V257.275L565.028 266.748V259.24Z" fill="#FF0090"/>
<path d="M552.652 263.581L555.82 271.147L558.987 267.247L555.82 267.041L552.652 263.581Z" fill="#FF0090"/>
<path d="M641.046 292.644L624.652 283.172L624.622 290.68L641.046 300.152V292.644Z" fill="#FF0090"/>
<path d="M628.67 297.014L631.837 304.551L635.004 300.651L631.837 300.446L628.67 297.014Z" fill="#FF0090"/>
<path d="M675.096 383.56V380.774L611.924 344.291V347.077L675.096 383.56Z" fill="#14DB7B"/>
<path d="M644.477 369.073V371.829L675.066 389.514V388.106V386.728L644.477 369.073Z" fill="#14DB7B"/>
<path d="M655.27 381.273V384.03L675.037 395.468L675.066 392.681L655.27 381.273Z" fill="#14DB7B"/>
<path d="M675.096 418.314V415.528L611.924 379.073V381.859L675.096 418.314Z" fill="#FF0090"/>
<path d="M644.477 403.826V406.612L675.066 424.267V422.889V421.511L644.477 403.826Z" fill="#FF0090"/>
<path d="M655.27 416.026V418.812L675.037 430.221L675.066 427.464L655.27 416.026Z" fill="#FF0090"/>
<path d="M452.967 400.365C452.936 399.815 452.877 399.267 452.791 398.723V398.723C452.791 398.195 452.586 397.638 452.469 397.08C452.469 396.553 452.205 396.025 452.058 395.497C451.882 394.939 451.706 394.412 451.501 393.854C451.295 393.326 451.061 392.769 450.826 392.241C450.591 391.713 450.328 391.186 450.064 390.628L449.36 389.309C449.281 389.198 449.212 389.08 449.155 388.957L448.685 388.194C448.509 387.901 448.333 387.608 448.128 387.314L447.16 385.907L446.016 384.47C445.635 384 445.225 383.56 444.814 383.12L443.67 381.977V381.83L442.497 380.804H442.351L441.089 379.865C440.62 379.542 440.18 379.249 439.711 378.985L357.593 331.562L356.977 331.24H356.772L356.391 331.034H356.098L355.687 330.858H355.394H355.042H354.748H354.485H354.191H353.957H353.634H350.701H350.437H350.144H349.88H349.587H349.323H349.059H348.824H348.648H348.414L348.15 331.005C346.733 331.996 345.608 333.348 344.891 334.921C344.174 336.494 343.892 338.231 344.073 339.95C344.323 344.769 345.71 349.461 348.121 353.641C350.532 357.821 353.898 361.37 357.945 363.999L440.063 411.392C441.485 412.433 443.162 413.072 444.916 413.243C446.67 413.413 448.438 413.108 450.034 412.36C450.3 412.191 450.555 412.005 450.797 411.803V411.803L451.295 411.275L451.823 410.571C452.026 410.239 452.212 409.896 452.381 409.545V409.545C452.525 409.219 452.653 408.886 452.762 408.548C452.762 408.548 452.762 408.548 452.762 408.548C452.89 408.165 452.988 407.773 453.055 407.374V407.374C453.055 406.935 453.055 406.524 453.231 406.055C453.231 405.556 453.231 405.058 453.231 404.53C453.231 404.002 452.996 400.893 452.967 400.365Z" fill="#14DB7B"/>
<path d="M388.299 368.427C388.244 367.371 387.973 366.337 387.504 365.389C387.035 364.441 386.378 363.599 385.572 362.914C386.95 363.236 387.977 362.562 387.977 360.567C387.883 359.112 387.408 357.706 386.6 356.491C385.792 355.276 384.679 354.295 383.372 353.646L376.95 349.951V366.345L383.578 370.158C386.54 371.888 388.27 371.155 388.299 368.427ZM380.41 355.142L382.698 356.461C383.212 356.72 383.647 357.113 383.957 357.598C384.267 358.083 384.44 358.643 384.458 359.218C384.458 360.333 383.812 360.538 382.669 359.893L380.41 358.573V355.142ZM380.41 365.113V361.506L382.903 362.943C383.449 363.22 383.911 363.638 384.241 364.154C384.571 364.669 384.757 365.264 384.78 365.876C384.78 367.049 384.106 367.254 382.933 366.58L380.41 365.113Z" fill="white"/>
<path d="M400.177 379.924C403.462 381.83 406.219 381.185 406.248 376.639V366.873L402.758 364.879V374.821C402.758 376.756 401.878 377.372 400.236 376.434C399.453 375.983 398.81 375.326 398.376 374.535C397.941 373.744 397.732 372.848 397.772 371.947V362.151L394.312 360.127V369.923C394.339 371.955 394.894 373.945 395.923 375.699C396.951 377.452 398.417 378.908 400.177 379.924Z" fill="white"/>
<path d="M416.542 383.795L416.513 389.221L420.003 391.215V385.819L424.988 377.695L421.088 375.437L418.331 380.716L415.574 372.269L411.82 370.099L411.644 370.011L416.542 383.795Z" fill="white"/>
<path d="M590.573 471.602C590.573 471.397 590.573 471.162 590.573 470.928C590.558 470.83 590.558 470.732 590.573 470.634V470.253V469.579V468.875C590.559 468.65 590.559 468.425 590.573 468.2C590.559 467.956 590.559 467.711 590.573 467.467C590.563 467.389 590.563 467.31 590.573 467.232V467.057C590.584 466.949 590.584 466.841 590.573 466.734C590.573 466.499 590.573 466.265 590.368 466.001C590.381 465.825 590.381 465.649 590.368 465.473V465.267C590.368 465.033 590.367 464.798 590.133 464.534L589.898 463.83L589.722 463.391L589.458 462.716L589.253 462.247C589.253 462.041 589.048 461.807 588.93 461.572L588.579 460.839L588.285 460.252L587.875 459.519L587.669 459.167V459.021L587.288 458.405C587.112 458.112 586.936 457.818 586.731 457.525V457.378L585.851 456.117L585.235 455.296L584.707 454.68L584.179 454.035L583.652 453.448L583.27 453.067C583.09 452.857 582.894 452.661 582.684 452.481L582.508 452.305L582.361 452.158L582.068 451.894L581.452 451.366L581.188 451.131L580.983 450.985L580.367 450.516L579.927 450.193L579.311 449.812C579.127 449.668 578.931 449.54 578.724 449.431V449.431L496.607 402.037L496.137 401.773H495.903H495.727H495.434H495.228L494.671 401.538L494.084 401.333H493.879H493.586H493.322H493.146H490.507H490.272H490.125H489.92H487.574H486.929L486.049 401.568L485.667 401.714H485.491L484.964 401.978L479.098 405.351L479.597 405.087H479.773L480.154 404.911H480.301L481.18 404.676H481.825H483.703H484.025H484.318H484.67H484.905H485.286H485.55L485.961 404.823H486.166L487.457 405.322H487.633L488.102 405.527H488.336L488.952 405.879L571.07 453.272C571.546 453.538 572.007 453.832 572.448 454.152V454.152C572.888 454.446 573.299 454.768 573.709 455.091C574.12 455.413 574.501 455.765 574.883 456.117L575.029 456.264L576.173 457.408C576.554 457.818 576.965 458.258 577.346 458.727C578.118 459.654 578.824 460.634 579.458 461.66C579.663 461.953 579.839 462.247 580.015 462.54L580.484 463.303L580.689 463.654L581.393 464.974V465.121C581.677 465.644 581.931 466.183 582.156 466.734C582.39 467.262 582.596 467.79 582.801 468.318C583.006 468.875 583.182 469.432 583.358 469.96L583.798 471.544V471.72C583.798 472.248 584.033 472.805 584.121 473.362C584.121 473.919 584.267 474.476 584.326 475.004C584.326 475.532 584.326 476.089 584.326 476.617C584.326 477.145 584.326 477.644 584.326 478.142C584.326 478.612 584.326 479.051 584.15 479.462V479.609C584.15 480.019 583.945 480.401 583.827 480.782C583.84 480.85 583.84 480.919 583.827 480.987C583.718 481.326 583.591 481.659 583.446 481.984V481.984C583.295 482.344 583.108 482.688 582.889 483.011C582.737 483.262 582.56 483.498 582.361 483.715L582.156 483.949C581.98 484.155 581.804 484.301 581.628 484.477L581.393 484.653C581.143 484.858 580.879 485.045 580.601 485.21L586.467 481.867C586.752 481.688 587.027 481.492 587.288 481.28L587.523 481.104C587.704 480.943 587.87 480.766 588.021 480.577L588.256 480.342C588.446 480.118 588.622 479.883 588.784 479.638V479.638L589.312 478.7L589.576 478.054V477.702C589.588 477.635 589.588 477.565 589.576 477.497C589.588 477.439 589.588 477.379 589.576 477.321C589.662 477.082 589.73 476.837 589.781 476.588C589.781 476.588 589.781 476.412 589.781 476.324V476.177C589.781 476.177 589.781 476.001 589.781 475.913C589.797 475.689 589.797 475.463 589.781 475.239C589.781 475.239 589.781 475.004 589.781 474.858V474.594C589.796 474.369 589.796 474.144 589.781 473.919C589.796 473.695 589.796 473.469 589.781 473.245L590.573 471.602Z" fill="#FF52BD"/>
<path d="M570.894 451.425L488.776 404.031C481.063 399.573 474.816 403.151 474.787 411.979C475.035 416.802 476.424 421.497 478.841 425.678C481.258 429.858 484.633 433.406 488.688 436.028L570.806 483.421C578.49 487.879 584.737 484.301 584.766 475.473C584.517 470.654 583.13 465.963 580.719 461.783C578.307 457.603 574.941 454.053 570.894 451.425V451.425Z" fill="#FF0090"/>
<path d="M509.54 427.816C509.54 426.79 510.156 426.672 510.948 427.112C511.415 427.386 511.809 427.77 512.095 428.229C512.381 428.689 512.551 429.212 512.59 429.752L516.344 431.922C516.192 430.252 515.624 428.647 514.692 427.253C513.759 425.86 512.492 424.722 511.007 423.945V423.945C508.074 422.214 505.816 422.654 505.816 425.763C505.816 431.629 512.884 434.034 512.884 437.084C512.884 438.022 512.209 438.227 511.212 437.641C510.693 437.342 510.26 436.916 509.952 436.403C509.644 435.889 509.472 435.306 509.452 434.708L505.757 432.567C505.914 434.3 506.504 435.965 507.472 437.41C508.441 438.855 509.757 440.034 511.3 440.838C514.614 442.773 516.491 441.541 516.52 438.814C516.579 433.476 509.54 430.544 509.54 427.816Z" fill="white"/>
<path d="M522.738 447.378L531.448 452.422L531.477 449.225L526.228 446.175V442.597L530.861 445.295L530.891 442.216L526.228 439.518L526.257 436.204L531.507 439.224V436.028L522.767 431.013L522.738 447.378Z" fill="white"/>
<path d="M541.302 441.688L537.812 439.694L537.783 456.058L545.789 460.692L545.819 457.613L541.273 455.003L541.302 441.688Z" fill="white"/>
<path d="M554.998 462.921L555.028 449.636L551.567 447.612L551.538 464.007L559.544 468.64V466.323V465.561L554.998 462.921Z" fill="white"/>
<path d="M253.949 384L271.751 406.377L279.816 385.086C279.816 385.086 273.481 374.821 271.751 374.821C270.021 374.821 253.949 384 253.949 384Z" fill="#EAA68D"/>
<path d="M260.254 342.766C260.254 342.766 253.186 375.026 253.509 382.006C253.832 388.986 265.387 392.564 267.352 384.646C269.317 376.727 271.751 365.935 271.751 365.935L260.254 342.766Z" fill="#0B4EDE"/>
<path d="M284.919 593.664C284.919 593.664 282.221 608.182 286.004 610.176C289.787 612.17 296.973 611.466 304.041 606.921C311.109 602.375 315.039 598.445 314.511 596.099C313.983 593.752 310.17 590.468 303.835 592.462C297.501 594.456 295.77 596.275 294.656 593.518C293.541 590.761 286.209 591.142 284.919 593.664Z" fill="#0071BC"/>
<path d="M259.199 582.491C259.199 582.491 256.471 597.008 260.254 599.002C264.038 600.996 271.223 600.292 278.32 595.747C285.418 591.201 289.318 587.271 288.761 584.925C288.204 582.579 284.45 579.294 278.086 581.288C271.722 583.282 270.021 585.101 268.906 582.344C267.792 579.587 260.46 580.115 259.199 582.491Z" fill="#0071BC"/>
<path d="M334.424 387.285C334.424 387.285 361.875 371.301 366.89 367.372C371.905 363.442 372.11 360.186 376.216 357.84C380.322 355.494 382.874 362.708 379.648 366.814C376.422 370.92 372.286 370.598 368.855 373.648C365.424 376.698 336.331 403.973 330.025 401.04L328.295 392.476L334.424 387.285Z" fill="#EAA68D"/>
<path d="M259.316 441.189C259.316 441.189 256.383 581.229 258.319 586.45C260.254 591.67 272.983 591.348 274.948 586.45C276.913 581.552 289.436 454.475 289.436 454.475L259.316 441.189Z" fill="#062569"/>
<path d="M316.036 450.076C316.036 450.076 303.66 587.916 298.439 594.837C293.219 601.759 284.069 599.031 283.13 594.837C282.192 590.644 282.895 545.655 283.13 530.316C283.365 514.978 276.267 450.076 276.267 450.076H316.036Z" fill="#072E82"/>
<path d="M265.563 334.583C260.43 338.366 258.524 342.472 260.694 359.541C262.565 378.182 262.447 396.97 260.342 415.586C258.524 430.455 256.852 445.09 260.342 449.108C263.832 453.126 293.571 475.503 320.552 455.941C317.535 445.865 315.251 435.583 313.719 425.177C312.487 413.093 315.918 392.564 317.444 380.012C318.969 367.459 317.444 354.555 307.208 348.69C296.973 342.824 272.719 329.275 265.563 334.583Z" fill="#093EB0"/>
<path d="M312.78 354.438C318.646 357.987 333.31 380.833 335.744 385.525C338.178 390.218 337.914 400.336 329.879 401.04C321.843 401.744 309.584 379.484 306.035 373.472C300.873 364.439 303.659 348.954 312.78 354.438Z" fill="#0B4EDE"/>
<path d="M279.933 330.272C279.933 330.272 279.64 341.534 279.933 344.261C280.227 346.989 287.529 351.417 291.811 349.452C296.093 347.487 296.064 346.08 296.064 343.587V328.923L279.933 330.272Z" fill="#EAA68D"/>
<path d="M303.366 309.273C304.456 313.292 304.862 317.466 304.569 321.62C304.129 328.6 303.308 335.756 299.906 337.281C296.504 338.806 292.456 336.284 290.433 331.416C288.402 327.397 285.815 323.685 282.749 320.388L293.16 311.795L303.366 309.273Z" fill="#EAA68D"/>
<path d="M305.742 300.475C306.453 301.485 306.926 302.643 307.124 303.862C307.322 305.082 307.241 306.33 306.886 307.513C306.216 309.207 305.087 310.681 303.626 311.769C302.165 312.857 300.43 313.516 298.615 313.672C295.682 314.142 295.301 319.772 293.688 321.004C292.075 322.236 291.87 326.049 291.87 326.049C291.87 326.049 291.371 320.594 289.377 321.767C286.034 323.732 289.377 329.597 291.489 328.893C291.608 330.25 291.608 331.614 291.489 332.97C291.225 334.319 283.658 336.871 279.611 332.97C275.269 328.583 272.602 322.813 272.074 316.664C271.37 310.124 277.939 302 285.33 299.448C292.72 296.897 300.727 300.123 303.102 298.891C303.646 298.885 304.18 299.029 304.646 299.309C305.113 299.588 305.492 299.992 305.742 300.475V300.475Z" fill="black"/>
<g style="mix-blend-mode:multiply">
<path d="M185.498 487.205C165.379 475.473 132.855 475.473 112.853 487.205C92.881 498.936 92.969 517.647 113.088 529.29C133.207 540.933 165.878 541.021 185.762 529.29C205.646 517.559 205.734 498.818 185.498 487.205Z" fill="#185CDB"/>
</g>
<path d="M166.904 417.258L166.494 417.053L166.171 416.877L165.496 416.525L164.998 416.319H164.705L164.001 416.026L163.209 415.762L162.446 415.498L161.625 415.293L160.863 415.117H160.511H159.983H159.191H158.311H157.519H154.792H153.941H153.061H152.211L151.184 415.322H150.305L149.806 415.469H149.249L148.369 415.704L147.284 416.026L146.404 416.319L145.964 416.466L145.319 416.701L144.439 417.023H144.146L143.237 417.434L142.386 417.786H142.24L141.066 418.343L140.304 418.724H140.099L138.222 419.751L136.257 420.953L135.641 421.334L134.321 422.214L133.617 422.713L132.415 423.593L131.682 424.15L130.479 425.088L129.805 425.616L128.455 426.76L127.957 427.171L126.168 428.813L125.787 429.165L124.438 430.455L122.355 432.596L120.478 434.708L120.068 435.177C119.041 436.38 118.044 437.582 117.135 438.843L116.812 439.224L114.554 442.304L114.232 442.773C113.528 443.77 112.853 444.797 112.179 445.706L111.68 446.468C111.152 447.319 110.624 448.169 110.126 449.049L109.774 449.606C109.187 450.604 108.63 451.63 108.102 452.539C107.955 452.803 107.838 453.067 107.691 453.302L106.46 455.765L106.049 456.557C105.58 457.613 105.081 458.639 104.641 459.695C104.561 459.836 104.492 459.983 104.436 460.135C104.055 461.074 103.644 462.041 103.292 463.068L102.94 463.918C102.53 465.062 102.119 466.177 101.738 467.32V467.584C101.357 468.757 101.005 469.931 100.682 471.074L100.418 471.925L100.154 472.981L99.8023 474.388C99.8023 474.74 99.6264 475.092 99.5677 475.444C99.509 475.796 99.3624 476.295 99.2744 476.735C99.1864 477.174 99.0691 477.79 98.9811 478.318C98.8931 478.846 98.9811 479.052 98.7758 479.433C98.5705 479.814 98.5999 480.518 98.5412 481.075C98.4826 481.632 98.5412 481.808 98.3945 482.16V482.923L98.2186 484.477C98.2186 484.77 98.2186 485.034 98.2186 485.298V486.853C98.2045 487.097 98.2045 487.342 98.2186 487.586C98.2186 488.319 98.2186 489.082 98.2186 489.815C98.2186 490.548 98.2186 491.398 98.2186 492.19C98.2186 492.425 98.2186 492.66 98.2186 492.894C98.2186 493.129 98.2186 493.95 98.2186 494.449V495.358L98.3945 496.648C98.3945 496.941 98.3946 497.235 98.5412 497.528C98.6878 497.821 98.5412 498.349 98.7465 498.73C98.9518 499.112 98.8931 499.317 98.9518 499.61C99.0104 499.903 99.0984 500.373 99.2157 500.725C99.333 501.077 99.3624 501.311 99.4504 501.605L99.7729 502.631L100.037 503.452C100.037 503.775 100.272 504.127 100.389 504.42L100.741 505.212C100.741 505.534 101.005 505.828 101.122 506.121C101.239 506.414 101.386 506.62 101.503 506.883L101.943 507.734L102.383 508.438C102.53 508.702 102.676 508.966 102.852 509.23C102.992 509.456 103.149 509.672 103.322 509.875L103.82 510.608L104.319 511.224L104.876 511.899L105.433 512.456C105.614 512.675 105.81 512.881 106.02 513.072L106.606 513.6L107.222 514.157L107.838 514.626L108.513 515.125L109.158 515.535C116.607 520.228 127.106 519.817 138.75 513.072C161.215 500.109 179.398 468.64 179.31 442.685C178.811 430.543 174.265 421.51 166.904 417.258Z" fill="#FBB03B"/>
<path d="M150.921 407.99L150.481 407.756C149.982 407.492 149.483 407.228 148.985 407.023H148.809L148.457 406.876L146.609 406.231L144.586 405.761H144.381L143.559 405.615H143.237H141.888H139.219H138.427H137.87L136.227 405.82C135.621 405.82 135.005 405.937 134.38 406.172H133.793L132.649 406.436C131.926 406.651 131.193 406.886 130.45 407.14L129.775 407.081L127.986 407.785H127.752L126.285 408.43H126.08L124.408 409.251L123.939 409.486C123.294 409.809 122.678 410.161 122.062 410.513C121.446 410.864 120.742 411.304 120.097 411.715L119.481 412.126L118.162 412.976L117.458 413.475L116.226 414.354L115.522 414.912L114.32 415.85L113.645 416.378L112.296 417.522L111.797 417.932C111.181 418.46 110.595 419.018 110.008 419.575L109.627 419.927L108.454 421.07L108.278 421.217L106.196 423.358L104.26 425.47L104.084 425.675L103.879 425.939C102.852 427.141 101.855 428.344 100.946 429.605L100.711 429.898L98.4533 432.977L98.2186 433.3V433.447C97.5147 434.444 96.8109 435.47 96.1657 436.38L95.9604 436.702L95.6671 437.142L94.1127 439.723L93.8488 440.133C93.2622 441.131 92.705 442.157 92.1771 443.066C92.1217 443.14 92.0727 443.219 92.0305 443.301L91.7665 443.799L90.5347 446.263L90.2708 446.762C90.2401 446.867 90.1905 446.967 90.1242 447.055C89.6256 448.111 89.1563 449.137 88.6871 450.193L88.5405 450.545C88.1299 451.483 87.7486 452.451 87.3674 453.478L87.1914 453.947C87.1555 454.079 87.1064 454.206 87.0447 454.328C86.6341 455.472 86.2235 456.586 85.8423 457.73C85.8423 457.73 85.8423 457.877 85.8423 457.935C85.461 459.109 85.1091 460.282 84.7572 461.455C84.7705 461.601 84.7705 461.748 84.7572 461.895V462.276L84.4932 463.332L84.1413 464.739C84.1413 465.091 83.9653 465.443 83.9066 465.795L83.7307 466.558C83.7444 466.734 83.7444 466.91 83.7307 467.086C83.7307 467.614 83.5255 468.142 83.4375 468.669C83.3495 469.197 83.2908 469.403 83.2322 469.784C83.1735 470.165 83.0561 470.869 82.9975 471.426C82.9388 471.983 82.9975 471.954 82.9975 472.189C83.014 472.296 83.014 472.404 82.9975 472.511C82.9975 472.775 82.9975 473.039 82.9975 473.274L82.8215 474.828C82.8215 475.122 82.8215 475.385 82.8215 475.649C82.8215 475.913 82.8215 476.705 82.8215 477.204C82.8215 477.702 82.8215 477.702 82.8215 477.937C82.8215 478.67 82.8215 479.433 82.8215 480.166C82.8215 493.011 87.3967 502.015 94.6993 506.268L110.742 515.594L110.126 515.213L109.48 514.802L108.806 514.303L108.19 513.834L107.574 513.277L106.988 512.749C106.777 512.558 106.581 512.352 106.401 512.133L105.844 511.576L105.287 510.901L104.788 510.285L104.289 509.552C104.117 509.35 103.96 509.134 103.82 508.907C103.644 508.643 103.498 508.379 103.351 508.115L102.911 507.411L102.471 506.561C102.471 506.297 102.207 506.062 102.09 505.798C101.973 505.534 101.826 505.212 101.709 504.889L101.357 504.097C101.357 503.804 101.122 503.452 101.005 503.13L100.741 502.308L100.418 501.282C100.418 500.989 100.242 500.695 100.184 500.402C100.125 500.109 100.008 499.669 99.9197 499.288C99.8317 498.906 99.773 498.701 99.7143 498.408C99.6557 498.115 99.5677 497.616 99.509 497.205C99.4504 496.795 99.5091 496.619 99.3624 496.325L99.1865 495.035V494.126C99.1865 493.627 99.1865 493.099 99.1865 492.572C99.1865 492.044 99.1865 492.102 99.1865 491.868C99.1865 491.076 99.1865 490.284 99.1865 489.492C99.1865 488.7 99.1865 487.996 99.1865 487.263C99.1724 487.019 99.1724 486.774 99.1865 486.53V484.976C99.1865 484.712 99.1865 484.448 99.1865 484.154L99.3624 482.6V481.838C99.3624 481.486 99.3624 481.104 99.509 480.752C99.6557 480.4 99.6557 479.667 99.7437 479.11C99.8317 478.553 99.8903 478.377 99.9489 477.996C100.008 477.614 100.154 476.94 100.242 476.412C100.33 475.884 100.418 475.561 100.536 475.122C100.653 474.682 100.535 474.418 100.77 474.066L101.122 472.658L101.386 471.602L101.65 470.752C101.973 469.608 102.324 468.435 102.706 467.262V466.998C103.087 465.854 103.498 464.739 103.908 463.596L104.26 462.745C104.612 461.807 105.023 460.839 105.404 459.812C105.46 459.66 105.529 459.513 105.609 459.372C106.049 458.317 106.548 457.29 107.017 456.234L107.428 455.443L108.659 452.979C108.806 452.744 108.923 452.481 109.07 452.217C109.598 451.219 110.155 450.193 110.742 449.284L111.094 448.727C111.592 447.847 112.12 446.996 112.648 446.146L113.146 445.383C113.821 444.357 114.496 443.33 115.199 442.45L115.522 441.981L117.78 438.902L118.103 438.52C119.071 437.259 120.068 436.057 121.036 434.855L121.446 434.385L123.323 432.274L125.405 430.133L126.755 428.842L127.136 428.49L128.925 426.848L129.423 426.437L130.772 425.294L131.447 424.766L132.649 423.827L133.383 423.27L134.585 422.39L135.289 421.892L136.609 421.012L137.225 420.631L139.189 419.428L141.066 418.402H141.272L142.034 418.02L143.207 417.463H143.354L144.205 417.111L145.114 416.701H145.407L146.287 416.378L146.932 416.143L147.372 415.997L148.252 415.703L149.337 415.381L150.217 415.146H150.774L151.272 415H152.152L153.179 414.794H154.029H154.909H155.76H158.487H159.279H160.159H160.951H161.479H161.83L162.593 414.97L163.414 415.176L164.177 415.44L164.969 415.703L165.672 415.997H165.966L166.464 416.202L167.139 416.554L167.461 416.73L167.872 416.935L150.921 407.99Z" fill="#FBE15D"/>
<path d="M140.011 465.531V456.176C142.045 455.197 144.298 454.762 146.551 454.915L148.193 449.284C145.339 449.07 142.486 449.725 140.011 451.161V446.029L137.078 447.73L136.726 447.935V453.185C134.117 454.752 131.918 456.918 130.312 459.504C128.705 462.089 127.737 465.02 127.488 468.054C127.488 474.477 132.327 473.391 136.785 472.072V481.31C134.332 482.681 131.457 483.089 128.72 482.454L126.93 488.173C130.331 488.836 133.856 488.175 136.785 486.325V491.457L137.137 491.252L140.069 489.551V484.36C142.691 482.784 144.903 480.61 146.524 478.016C148.145 475.421 149.129 472.48 149.396 469.432V469.432C149.366 463.009 144.439 464.182 140.011 465.531ZM132.62 464.769C132.744 463.437 133.176 462.152 133.884 461.016C134.592 459.881 135.555 458.926 136.697 458.229V466.47C134.38 467.027 132.708 466.998 132.708 464.769H132.62ZM140.069 479.433V471.25C142.474 470.635 144.263 470.664 144.263 472.951C144.099 474.263 143.635 475.519 142.908 476.622C142.18 477.726 141.209 478.647 140.069 479.316V479.433Z" fill="#FBB03B"/>
<path d="M266.56 134.421L194.795 226.95L181.715 221.261L162.945 248.741L126.139 247.978L74.2872 319.391L55.4294 319.743L15.1917 369.336L15.3091 417.229L266.941 271.968L266.56 134.421Z" fill="#14DB7B"/>
<path d="M261.721 131.606L189.956 224.135L176.876 218.445L158.106 245.925L121.3 245.163L69.4481 316.576L50.5904 316.928L10.3527 366.521L10.47 414.442L15.3091 417.229L15.1918 369.336L55.4294 319.743L74.2872 319.391L126.139 247.978L162.945 248.741L181.715 221.261L194.795 226.95L266.56 134.421L261.721 131.606Z" fill="#31F596"/>
<path d="M229.49 67.5833L236.294 73.2728L241.133 76.059L234.299 70.3987L229.49 67.5833Z" fill="#FF40AC"/>
<path d="M221.336 59.5474L228.141 65.237L166.582 159.232L134.585 146.915L83.7014 213.019L65.1369 215.19L4.83905 289.594L9.67813 296.545L65.9287 227.185L84.6985 224.956L133.793 161.197L166.552 173.808L234.299 70.3986L241.133 76.0589L248.641 41.4521L221.336 59.5474Z" fill="#FF0090"/>
<path d="M248.641 41.4522L243.831 38.6367L216.497 56.7613L223.301 62.4215L161.743 156.417L129.746 144.099L78.8623 210.204L60.3272 212.374L0 286.779L4.83908 293.729L9.67816 296.545L4.83908 289.594L65.1369 215.19L83.7014 213.02L134.585 146.915L166.582 159.232L228.141 65.237L221.337 59.5474L248.641 41.4522Z" fill="#FF40AC"/>
<path d="M443.26 585.981C424.402 575.1 393.901 575.1 375.161 585.981C365.834 591.435 361.171 598.533 361.171 605.63C361.171 605.865 361.171 606.099 361.171 606.334C361.157 606.549 361.157 606.764 361.171 606.979V607.683C361.159 607.898 361.159 608.113 361.171 608.328C361.157 608.563 361.157 608.798 361.171 609.032C361.157 609.237 361.157 609.443 361.171 609.648C361.171 609.883 361.318 610.117 361.376 610.352C361.435 610.586 361.376 610.762 361.582 610.997C361.647 611.226 361.725 611.452 361.816 611.672C361.816 611.877 361.816 612.082 362.08 612.317C362.344 612.551 362.286 612.757 362.374 612.991L362.667 613.607L363.048 614.282L363.4 614.898L363.84 615.572L364.221 616.159L364.72 616.833C364.86 617.041 365.017 617.238 365.189 617.42C365.359 617.648 365.545 617.864 365.746 618.065L366.216 618.652C366.421 618.886 366.655 619.092 366.861 619.297L367.389 619.854L368.093 620.499C368.298 620.675 368.474 620.881 368.679 621.027C368.884 621.174 369.207 621.467 369.471 621.702L370.057 622.2L370.937 622.846L371.553 623.315L372.58 623.989L373.166 624.4L374.897 625.426C375.923 626.013 376.949 626.57 378.035 627.098L378.357 627.245C379.384 627.743 380.469 628.212 381.554 628.652L382.082 628.858C382.903 629.18 383.754 629.503 384.633 629.796H385.015L387.302 630.5L388.123 630.735L389.59 631.116L390.47 631.351L392.083 631.732L392.874 631.878L394.37 632.172H395.162L397.127 632.494H397.479L399.796 632.758H400.382L402.113 632.905H402.993H404.43H405.427H406.805H412.495H414.108H415.105L416.63 632.758H417.568L419.944 632.465H420.355C421.264 632.465 422.173 632.201 423.053 632.025L424.021 631.849L425.282 631.614L426.308 631.38L427.54 631.087L428.537 630.852L429.769 630.529L430.737 630.236L431.91 629.884L432.79 629.591L434.872 628.858L435.312 628.711L437.717 627.714L438.333 627.45L440.649 627.039L441.294 626.717C442.057 626.336 442.79 625.954 443.494 625.514C444.198 625.074 444.667 624.84 445.195 624.488L445.518 624.283H445.752C446.104 624.048 446.456 623.813 446.779 623.549L447.102 623.344L447.395 623.109L448.275 622.464C448.359 622.37 448.458 622.291 448.568 622.23C448.658 622.134 448.756 622.045 448.861 621.966L449.653 621.32L449.917 621.056L450.21 620.793L450.885 620.147L451.413 619.59L452.029 618.945L452.38 618.241L452.938 617.566L453.231 617.156L453.73 616.511V616.364L454.023 615.895L454.463 615.25C454.474 615.162 454.474 615.073 454.463 614.986C454.542 614.875 454.611 614.757 454.668 614.634L455.049 613.959C455.054 613.862 455.054 613.764 455.049 613.666C455.065 613.559 455.065 613.45 455.049 613.343C455.169 613.124 455.276 612.899 455.372 612.669L455.519 612.346V612.024L455.782 611.349V611.026V610.733C455.864 610.503 455.933 610.268 455.988 610.029C455.974 609.912 455.974 609.794 455.988 609.677V609.413C455.988 609.179 455.988 608.944 455.988 608.71C455.988 608.475 455.988 608.446 455.988 608.328V608.064V607.39V606.979C456.002 606.902 456.002 606.822 455.988 606.745C457.747 599.09 453.026 591.641 443.26 585.981ZM443.494 608.71C443.484 608.846 443.484 608.983 443.494 609.12C443.481 609.188 443.481 609.258 443.494 609.325V609.56L443.318 610.059V610.264V610.498C443.318 610.674 443.318 610.85 443.113 610.997C443.103 611.075 443.103 611.154 443.113 611.232V611.437L442.82 611.936V612.17C442.811 612.229 442.811 612.288 442.82 612.346L442.526 612.845C442.441 612.947 442.363 613.055 442.292 613.167V613.167L441.94 613.637L441.734 613.93C441.734 614.076 441.471 614.223 441.353 614.399L441.001 614.81L440.561 615.279L440.18 615.66L439.681 616.129C439.606 616.19 439.537 616.259 439.476 616.335C439.476 616.335 439.476 616.335 439.271 616.511L438.743 616.951L438.508 617.156L438.303 617.332L437.658 617.801L437.453 617.948L437.218 618.124L436.485 618.622H436.309L436.104 618.769L434.872 619.502L433.288 620.382L432.819 620.617L431.528 621.203L431.088 621.408L429.387 622.112H429.065L427.569 622.64L426.953 622.846L426.103 623.08L425.399 623.285L424.519 623.52L423.786 623.696L422.906 623.901L422.202 624.077L421.293 624.253H420.589L418.624 624.576H417.187L415.457 624.781H414.812H413.697H412.993H411.849H405.984H404.928H404.312H403.081H402.641L400.998 624.546H400.734L399.327 624.341H398.74L397.684 624.136H397.127L395.954 623.872L395.309 623.696L394.282 623.432L393.666 623.256L392.053 622.758H391.76L389.942 622.083L389.56 621.907C388.778 621.614 388.016 621.291 387.273 620.939H387.038C386.276 620.558 385.513 620.177 384.78 619.737C384.355 619.507 383.944 619.252 383.548 618.974C383.392 618.904 383.244 618.815 383.108 618.71L382.375 618.212L381.935 617.889L381.319 617.42L380.879 617.068L380.322 616.599L379.912 616.217L379.413 615.748L379.002 615.338L378.562 614.898L378.211 614.458L377.8 614.018L377.477 613.578L377.125 613.109C377.038 612.955 376.94 612.808 376.832 612.669C376.832 612.493 376.627 612.346 376.539 612.2L376.275 611.73L376.011 611.261C375.925 611.113 375.856 610.955 375.806 610.792L375.571 610.323L375.395 609.883L375.219 609.384C375.219 609.208 375.219 609.061 375.073 608.915C375.085 608.759 375.085 608.602 375.073 608.446C375.865 606.035 377.129 603.805 378.79 601.887C380.451 599.969 382.478 598.4 384.751 597.272C398.212 589.471 419.944 589.471 433.611 597.272C435.922 598.405 437.983 599.991 439.671 601.936C441.359 603.88 442.639 606.144 443.436 608.592L443.494 608.71Z" fill="#2063E6"/>
<path d="M443.846 606.246V606.51C443.832 606.607 443.832 606.706 443.846 606.803C443.862 606.969 443.862 607.136 443.846 607.302C443.846 607.302 443.846 607.302 443.846 607.478C443.861 607.575 443.861 607.674 443.846 607.771V608.27C443.846 608.27 443.846 608.27 443.846 608.446C443.846 608.622 443.846 608.622 443.846 608.71C443.837 608.846 443.837 608.984 443.846 609.12C443.834 609.188 443.834 609.258 443.846 609.325V609.56L443.67 610.059V610.264V610.499C443.67 610.675 443.67 610.851 443.465 610.997C443.454 611.075 443.454 611.154 443.465 611.232V611.437L443.172 611.936V612.17C443.163 612.229 443.163 612.288 443.172 612.346L442.878 612.845C442.793 612.947 442.715 613.055 442.644 613.167V613.167L442.292 613.637L442.086 613.93C442.086 614.077 441.823 614.223 441.705 614.399L441.353 614.81L440.913 615.279L440.532 615.66L440.033 616.13C439.958 616.19 439.889 616.259 439.828 616.335C439.828 616.335 439.828 616.335 439.623 616.511L439.095 616.951L438.86 617.156L438.655 617.332L438.01 617.801L437.805 617.948L437.57 618.124L436.837 618.622H436.661L436.456 618.769L435.224 619.502L433.64 620.382L433.171 620.617L431.88 621.203L431.44 621.408L429.74 622.112H429.417L427.921 622.64L427.305 622.846L426.455 623.08L425.751 623.285L424.871 623.52L424.138 623.696L423.258 623.901L422.554 624.077L421.645 624.253H420.941L418.976 624.576H417.187L415.457 624.781H414.812H413.697H412.993H411.85H405.984H404.928H404.312H403.081H402.641L400.998 624.547H400.734L399.327 624.341H398.74L397.684 624.136H397.127L395.954 623.872L395.309 623.696L394.282 623.432L393.666 623.256L392.053 622.758H391.76L389.942 622.083L389.56 621.907C388.778 621.614 388.016 621.291 387.273 620.939H387.038C386.276 620.558 385.513 620.177 384.78 619.737C384.355 619.507 383.944 619.252 383.548 618.974C383.392 618.904 383.244 618.815 383.108 618.71L382.375 618.212L381.935 617.889L381.319 617.42L380.879 617.068L380.322 616.599L379.912 616.217L379.413 615.748L379.003 615.338L378.563 614.898L378.211 614.458L377.8 614.018L377.477 613.578L377.126 613.109C377.038 612.956 376.94 612.809 376.832 612.669C376.832 612.493 376.627 612.346 376.539 612.2L376.275 611.73L376.011 611.261C375.925 611.113 375.856 610.956 375.806 610.792L375.571 610.323L375.395 609.883L375.219 609.384C375.219 609.208 375.219 609.062 375.073 608.915C375.085 608.759 375.085 608.602 375.073 608.446V608.006V607.507C375.06 607.351 375.06 607.194 375.073 607.038C375.06 606.872 375.06 606.705 375.073 606.539C375.058 606.383 375.058 606.226 375.073 606.07C375.058 605.904 375.058 605.737 375.073 605.572C375.073 600.468 378.416 595.365 385.103 591.494C398.564 583.664 420.296 583.664 433.963 591.494C440.649 595.6 444.052 600.967 443.846 606.246Z" fill="#002E8A"/>
<path opacity="0.42" d="M443.582 608.71C443.573 608.846 443.573 608.984 443.582 609.12C443.569 609.188 443.569 609.258 443.582 609.325V609.56L443.406 610.059V610.264V610.499C443.406 610.675 443.406 610.851 443.201 610.997C443.19 611.075 443.19 611.154 443.201 611.232V611.437L442.908 611.936V612.17C442.899 612.229 442.899 612.288 442.908 612.346L442.614 612.845C442.529 612.947 442.451 613.055 442.38 613.167V613.167L442.028 613.637L441.823 613.93C441.823 614.077 441.559 614.223 441.441 614.399L441.089 614.81L440.649 615.279L440.268 615.66L439.77 616.13C439.694 616.19 439.625 616.259 439.564 616.335C439.564 616.335 439.564 616.335 439.359 616.511L438.831 616.951L438.596 617.156L438.391 617.332L437.746 617.801L437.541 617.948L437.306 618.124L436.573 618.622H436.397L436.192 618.769L434.96 619.502L433.376 620.382L432.907 620.617L431.616 621.203L431.177 621.408L429.476 622.112H429.153L427.657 622.64L427.041 622.846L426.191 623.08L425.487 623.285L424.607 623.52L423.874 623.696L422.994 623.901L422.29 624.077L421.381 624.253H420.677L418.712 624.576H417.187L415.457 624.781H414.812H413.697H412.993H411.85H405.984H404.928H404.312H403.081H402.641L400.998 624.547H400.734L399.327 624.341H398.74L397.684 624.136H397.127L395.954 623.872L395.309 623.696L394.282 623.432L393.666 623.256L392.053 622.758H391.76L389.942 622.083L389.56 621.907C388.778 621.614 388.016 621.291 387.273 620.939H387.038C386.276 620.558 385.513 620.177 384.78 619.737C384.355 619.507 383.944 619.252 383.548 618.974C383.392 618.904 383.244 618.815 383.108 618.71L382.375 618.212L381.935 617.889L381.319 617.42L380.879 617.068L380.322 616.599L379.912 616.217L379.413 615.748L379.003 615.338L378.563 614.898L378.211 614.458L377.8 614.018L377.477 613.578L377.126 613.109C377.038 612.956 376.94 612.809 376.832 612.669C376.832 612.493 376.627 612.346 376.539 612.2L376.275 611.73L376.011 611.261C375.925 611.113 375.856 610.956 375.806 610.792L375.571 610.323L375.395 609.883L375.219 609.384C375.219 609.208 375.219 609.062 375.073 608.915C375.085 608.759 375.085 608.602 375.073 608.446C375.865 606.035 377.129 603.806 378.79 601.887C380.452 599.969 382.478 598.4 384.751 597.272C398.212 589.471 419.944 589.471 433.611 597.272C435.961 598.403 438.058 600 439.772 601.966C441.486 603.932 442.782 606.227 443.582 608.71V608.71Z" fill="#29ABE2"/>
<path d="M457.454 606.51C457.467 606.588 457.467 606.667 457.454 606.744V607.155V607.83C457.454 607.83 457.454 608.006 457.454 608.094C457.454 608.182 457.454 608.358 457.454 608.475C457.454 608.592 457.454 608.944 457.454 609.179V609.443C457.468 609.56 457.468 609.678 457.454 609.795C457.399 610.033 457.331 610.268 457.249 610.498V610.792V611.114L456.985 611.789C456.997 611.896 456.997 612.004 456.985 612.111C456.993 612.219 456.993 612.327 456.985 612.434C456.985 612.669 456.78 612.874 456.692 613.109L456.516 613.431C456.521 613.529 456.521 613.627 456.516 613.724L456.135 614.399C456.077 614.522 456.008 614.64 455.929 614.751V615.015L455.489 615.689L455.196 616.129V616.276L454.697 616.921L454.404 617.332L452.381 618.241C452.205 618.417 452.058 618.622 451.911 618.798L451.266 619.443C451.09 619.619 450.943 619.825 450.738 620.001L450.064 620.646L449.77 620.91L449.506 621.174L448.715 621.79L448.392 622.083L448.128 622.318L447.248 622.963L446.926 623.197L446.662 623.403L445.606 624.136H445.342L445.049 624.341L443.377 625.368C442.644 625.808 441.91 626.189 441.148 626.57L440.649 627.039L438.86 627.89L438.245 628.154L435.84 629.151L435.4 629.297L433.317 630.031L432.438 630.324L431.265 630.676L430.267 630.969L429.065 631.292L428.068 631.526L426.836 631.82L425.81 632.054L424.549 632.289L423.581 632.465C422.701 632.641 421.792 632.788 420.883 632.905H420.472L418.067 633.198H417.158H415.604H414.636H413.023H407.157H405.808H404.84H403.374H402.494C401.924 633.17 401.356 633.111 400.793 633.022H400.177L397.89 632.758H397.508L395.543 632.436H394.752L393.256 632.142L392.464 631.966L390.851 631.614L389.971 631.38L388.505 630.999L387.684 630.764L385.396 630.06H385.015C384.135 629.767 383.284 629.444 382.463 629.122L381.935 628.916C380.85 628.476 379.765 628.007 378.739 627.509L378.416 627.362C377.36 626.834 376.275 626.277 375.278 625.69C374.281 625.104 374.105 625.016 373.548 624.664L373.196 624.107L372.169 623.432L371.553 622.963L370.673 622.318L370.087 621.819L369.295 621.174L368.708 620.617L368.005 619.971L367.477 619.414C367.257 619.214 367.051 618.998 366.861 618.769C366.679 618.587 366.512 618.391 366.362 618.182C366.161 617.981 365.975 617.765 365.805 617.537C365.633 617.355 365.476 617.159 365.336 616.951L364.837 616.305L364.456 615.689L364.016 615.015L363.664 614.399L363.283 613.724C363.197 613.514 363.099 613.308 362.99 613.109C362.99 612.874 362.784 612.639 362.696 612.434L362.432 611.789C362.432 611.554 362.256 611.32 362.198 611.114C362.139 610.909 362.198 610.674 361.992 610.469C361.787 610.264 361.846 610 361.787 609.765C361.77 609.55 361.77 609.335 361.787 609.12C361.77 608.896 361.77 608.67 361.787 608.446C361.773 608.231 361.773 608.015 361.787 607.8V607.096C361.772 606.882 361.772 606.666 361.787 606.451C361.787 606.217 361.787 605.982 361.787 605.747V614.37C361.787 621.526 366.509 628.74 376.011 634.225C377.038 634.811 378.093 635.368 379.178 635.867L379.472 636.043L382.668 637.421H382.962H383.196C384.047 637.744 384.868 638.066 385.748 638.36H386.159L388.417 639.093H388.798L389.238 639.24L390.704 639.621L391.584 639.826L393.226 640.207H393.813H393.989L395.485 640.471L396.277 640.618L398.3 640.941H398.593L400.881 641.234H401.409L403.198 641.41H403.99H405.485H406.424H407.832H413.521H415.134H416.131H417.656H418.214H418.595L421 641.117H421.381L424.109 640.706H424.343L425.076 640.559L426.308 640.325L427.335 640.09L428.566 639.826L429.593 639.562L430.795 639.24L431.792 638.946L432.966 638.594L433.464 638.448H433.816L435.928 637.715L436.338 637.539C437.16 637.245 437.951 636.893 438.743 636.571L439.359 636.307L441.148 635.456L441.793 635.134C442.556 634.753 443.289 634.342 444.022 633.931L444.609 633.55L445.137 633.227L446.016 632.7L446.779 632.172L447.571 631.585L448.304 631.057L449.066 630.471L449.712 629.913L450.416 629.297L450.709 629.034L450.943 628.828L452.029 627.743L452.381 627.362C452.82 626.893 453.231 626.394 453.642 625.925C453.712 625.812 453.791 625.704 453.876 625.602C454.111 625.28 454.345 624.986 454.551 624.664L454.903 624.136L455.431 623.285C455.421 623.198 455.421 623.109 455.431 623.021L455.607 622.699L455.958 621.995C456.068 621.795 456.166 621.59 456.252 621.379C456.252 621.144 456.457 620.88 456.574 620.646C456.692 620.411 456.574 620.411 456.574 620.294V620.03C456.574 619.795 456.721 619.561 456.78 619.326C456.861 619.125 456.93 618.92 456.985 618.71L457.161 618.006V617.537C457.161 617.537 457.161 617.537 457.161 617.361C457.177 617.117 457.177 616.872 457.161 616.628V616.012C457.161 615.777 457.161 615.513 457.161 615.279C457.161 615.044 457.161 614.81 457.161 614.575V605.777C457.484 606.07 457.454 606.275 457.454 606.51Z" fill="#002E8A"/>
<path d="M477.72 654.021C477.72 653.728 477.866 653.434 477.954 653.112C478.05 652.772 478.168 652.439 478.306 652.115C478.455 651.774 478.621 651.441 478.805 651.117V651.117L479.391 650.238C479.572 649.973 479.778 649.728 480.007 649.505V649.505L480.535 649.006L480.799 648.801C481.038 648.582 481.305 648.395 481.591 648.243C481.833 648.102 482.089 647.984 482.353 647.891H482.5C482.728 647.814 482.964 647.765 483.204 647.745V647.745C483.427 647.701 483.656 647.701 483.878 647.745V647.745C484.093 647.797 484.3 647.876 484.494 647.979L447.043 626.218H446.837H446.603H445.518H445.166H444.99H444.843H444.667L444.081 626.512C443.801 626.663 443.537 626.84 443.289 627.039L443.025 627.274L442.673 627.597L442.497 627.773V627.919L442.321 628.066L441.998 628.506C441.986 628.554 441.986 628.604 441.998 628.652V628.652V628.799C441.91 628.909 441.832 629.027 441.764 629.151L441.529 629.503C441.524 629.601 441.524 629.699 441.529 629.796L441.324 630.148C441.335 630.265 441.335 630.383 441.324 630.5V630.5C441.257 630.62 441.208 630.748 441.177 630.881C441.165 631.008 441.165 631.136 441.177 631.263C441.168 631.331 441.168 631.4 441.177 631.468V631.468V631.937C441.177 631.937 441.177 632.142 441.177 632.23V632.377C441.166 632.425 441.166 632.475 441.177 632.524C441.149 632.797 441.149 633.072 441.177 633.345C441.124 633.864 441.21 634.387 441.427 634.861C441.643 635.335 441.982 635.743 442.409 636.043L478.775 657.834C478.349 657.534 478.01 657.126 477.793 656.652C477.577 656.177 477.491 655.654 477.544 655.135C477.516 654.823 477.516 654.509 477.544 654.197L477.72 654.021Z" fill="#F7AB52"/>
<path d="M481.708 647.891C480.485 648.68 479.467 649.748 478.738 651.008C478.008 652.267 477.589 653.682 477.514 655.135C477.514 657.804 479.391 658.889 481.738 657.54C482.956 656.746 483.97 655.677 484.699 654.419C485.427 653.16 485.85 651.748 485.931 650.296C486.019 647.569 484.142 646.542 481.708 647.891Z" fill="#F7931E"/>
<path d="M513.969 677.982C514.058 677.458 514.175 676.939 514.321 676.427C514.497 675.86 514.702 675.303 514.937 674.756C515.181 674.194 515.455 673.646 515.758 673.113V673.113L516.755 671.618C517.074 671.188 517.416 670.777 517.781 670.386L518.016 670.122L518.896 669.301L519.307 668.949C519.715 668.603 520.157 668.299 520.626 668.04C521.042 667.804 521.473 667.599 521.917 667.424H522.151C522.533 667.306 522.926 667.227 523.324 667.189C523.704 667.144 524.088 667.144 524.468 667.189C524.817 667.267 525.153 667.396 525.465 667.57L462.909 631.204C462.805 631.123 462.685 631.063 462.557 631.028L462.176 630.881H461.941H461.795H461.355H460.387H459.742C459.654 630.869 459.565 630.869 459.478 630.881H459.243H458.921C458.586 631.024 458.263 631.191 457.953 631.38C457.49 631.649 457.049 631.953 456.633 632.289L456.222 632.641L455.607 633.198L455.343 633.492C455.25 633.554 455.171 633.634 455.108 633.726L454.844 634.019C454.639 634.225 454.463 634.459 454.258 634.694L454.082 634.958V635.105L453.906 635.339L453.524 635.926C453.387 636.124 453.26 636.33 453.143 636.542L452.879 637.04C452.77 637.23 452.672 637.426 452.586 637.627L452.322 638.213L452.058 638.859C452.058 639.064 452.058 639.298 451.823 639.504V639.856V640.002C451.807 640.08 451.807 640.16 451.823 640.237C451.741 640.497 451.673 640.761 451.618 641.029V641.527C451.618 641.527 451.618 641.703 451.618 641.791C451.618 641.879 451.618 641.938 451.618 642.026C451.589 642.475 451.589 642.926 451.618 643.375C451.527 644.242 451.669 645.118 452.03 645.912C452.391 646.706 452.958 647.39 453.671 647.891L516.227 684.258C515.52 683.75 514.959 683.066 514.599 682.273C514.239 681.481 514.092 680.608 514.174 679.741C514.181 679.201 514.23 678.661 514.321 678.128C514.321 678.128 513.969 678.07 513.969 677.982Z" fill="#DC2FF7"/>
<path d="M520.743 667.717C518.705 669.042 517.007 670.83 515.789 672.935C514.571 675.039 513.867 677.401 513.734 679.829C513.734 684.287 516.902 686.076 520.773 683.847C522.818 682.529 524.52 680.743 525.739 678.637C526.958 676.531 527.658 674.165 527.782 671.735C527.782 667.277 524.615 665.459 520.743 667.717Z" fill="#C41882"/>
<defs>
<radialGradient id="paint0_radial_3_2" cx="0" cy="0" r="1" gradientUnits="userSpaceOnUse" gradientTransform="translate(406.922 38.285) scale(516.989)">
<stop stop-color="#00035C"/>
<stop offset="1" stop-color="#00152B"/>
</radialGradient>
</defs>
</svg>
