<svg width="312" height="312" viewBox="0 0 312 312" fill="none" xmlns="http://www.w3.org/2000/svg">
<path d="M272.025 58.5H177.45L157.95 97.5H48.75V263.25H292.5V58.5H272.025ZM273 234H68.25V117H273V234ZM273.975 97.5H197.925L207.675 78H273L273.975 97.5Z" fill="#7BADDB"/>
<path d="M252.525 136.5H2.925L39.975 263.25H289.575L252.525 136.5Z" fill="#7BADDB"/>
<path d="M97.5 126.497L181.175 115.128V195.595L97.5 196.063V126.497ZM181.126 204.857L181.204 285.402L97.5585 273.975V204.36L181.126 204.857ZM191.275 113.646L302.25 97.5V194.571L191.305 195.439L191.275 113.646ZM302.25 205.618V302.25L191.275 286.65L191.1 205.432L302.25 205.618Z" fill="#0078D6"/>
</svg>
